<svg xmlns="http://www.w3.org/2000/svg" xmlns:xlink="http://www.w3.org/1999/xlink" width="25" height="25" viewBox="0 0 25 25">
  <defs>
    <clipPath id="clip-path">
      <rect id="Rectangle_1" data-name="Rectangle 1" width="25" height="25" fill="#fff"/>
    </clipPath>
  </defs>
  <g id="alarm-clock" clip-path="url(#clip-path)">
    <path id="Path_40" data-name="Path 40" d="M14.116,9.772a2.606,2.606,0,0,0-1.486.462,2.617,2.617,0,0,0-4.1,2.155c0,1.3,2.73,4.263,3.693,4.678a.773.773,0,0,0,.41.071.6.6,0,0,0,.076,0,.843.843,0,0,0,.333-.076c.962-.414,3.693-3.375,3.693-4.678A2.62,2.62,0,0,0,14.116,9.772Zm-1.394,6.441a.45.45,0,0,0-.183,0c-.691-.32-3.1-3-3.1-3.824a1.705,1.705,0,0,1,2.877-1.238.456.456,0,0,0,.627,0,1.705,1.705,0,0,1,2.877,1.238C15.821,13.214,13.413,15.892,12.722,16.212Z" fill="#b19b78"/>
    <path id="Path_41" data-name="Path 41" d="M21.747,12.773H19.924v.912h1.823Z" fill="#b19b78"/>
    <path id="Path_42" data-name="Path 42" d="M5.338,12.773H3.515v.912H5.338Z" fill="#b19b78"/>
    <path id="Path_43" data-name="Path 43" d="M13.086,20.521h-.912v1.823h.912Z" fill="#b19b78"/>
    <path id="Path_44" data-name="Path 44" d="M13.086,4.112h-.912V5.936h.912Z" fill="#b19b78"/>
    <path id="Path_45" data-name="Path 45" d="M23.009,6.223a.456.456,0,0,0,.645,0A3.647,3.647,0,0,0,18.5,1.066a.456.456,0,0,0,0,.644l2.048,2.048L19.221,5.083a10.455,10.455,0,0,0-13.179,0L4.586,3.628,6.5,1.711a.456.456,0,0,0,0-.645A3.647,3.647,0,0,0,1.346,6.223a.456.456,0,0,0,.644,0L3.942,4.272,5.358,5.689A10.461,10.461,0,0,0,4.88,20.28L2.106,23.054a1.139,1.139,0,1,0,1.612,1.611L6.592,21.79a10.448,10.448,0,0,0,12.077,0l2.875,2.875a1.139,1.139,0,1,0,1.611-1.611L20.382,20.28A10.461,10.461,0,0,0,19.9,5.689L21.189,4.4ZM1.7,5.229A2.736,2.736,0,0,1,5.51,1.415ZM3.073,24.021a.228.228,0,0,1-.391-.159A.231.231,0,0,1,2.75,23.7l2.738-2.738.322.322ZM22.512,23.7a.232.232,0,0,1,.069.164.228.228,0,0,1-.391.159l-2.738-2.738.322-.322ZM22.2,13.229a9.572,9.572,0,1,1-9.572-9.572A9.583,9.583,0,0,1,22.2,13.229ZM19.49,1.415A2.736,2.736,0,0,1,23.3,5.23Z" fill="#b19b78"/>
  </g>
</svg>
