<svg xmlns="http://www.w3.org/2000/svg" xmlns:xlink="http://www.w3.org/1999/xlink" width="83.493" height="25.138" viewBox="0 0 83.493 25.138">
  <defs>
    <clipPath id="clip-path">
      <rect id="Rectangle_2" data-name="Rectangle 2" width="83.493" height="25.138" fill="#fff"/>
    </clipPath>
  </defs>
  <g id="amazon-logo" clip-path="url(#clip-path)">
    <path id="Path_7" data-name="Path 7" d="M51.8,19.66c-4.833,3.573-11.862,5.477-17.925,5.477a32.5,32.5,0,0,1-21.909-8.348c-.439-.41-.059-.967.5-.644A43.515,43.515,0,0,0,31.5,21.863,43.516,43.516,0,0,0,51.1,18.517C51.917,18.2,52.591,19.078,51.8,19.66Z" fill="#c5c4c0" fill-rule="evenodd"/>
    <path id="Path_8" data-name="Path 8" d="M53.821,17.346c-.615-.791-4.1-.381-5.653-.176-.469.059-.557-.351-.117-.644,2.783-1.962,7.322-1.377,7.85-.732s-.146,5.214-2.753,7.381c-.41.322-.791.146-.615-.293C53.118,21.418,54.436,18.166,53.821,17.346Z" fill="#c5c4c0" fill-rule="evenodd"/>
    <path id="Path_9" data-name="Path 9" d="M48.256,2.76V.86a.446.446,0,0,1,.469-.469h8.491a.488.488,0,0,1,.5.469V2.471c0,.264-.234.615-.644,1.2L52.679,9.939a9.542,9.542,0,0,1,4.837,1.022.873.873,0,0,1,.439.732v2.021c0,.293-.293.615-.615.439a9.689,9.689,0,0,0-8.963.029.46.46,0,0,1-.615-.439V11.807a2.189,2.189,0,0,1,.322-1.289l5.1-7.293H48.761a.488.488,0,0,1-.5-.469ZM17.3,14.56H14.716a.529.529,0,0,1-.469-.439V.886a.488.488,0,0,1,.5-.469h2.4a.477.477,0,0,1,.469.439V2.584h.059a3.536,3.536,0,0,1,6.737,0A3.671,3.671,0,0,1,27.985.124a3.631,3.631,0,0,1,2.988,1.465c.82,1.113.644,2.724.644,4.159v8.377a.488.488,0,0,1-.5.469H28.569a.5.5,0,0,1-.469-.469V7.1a17.556,17.556,0,0,0-.059-2.49,1.359,1.359,0,0,0-1.525-1.142,1.725,1.725,0,0,0-1.552,1.084A8.118,8.118,0,0,0,24.73,7.1v7.029a.488.488,0,0,1-.5.469H21.653a.5.5,0,0,1-.469-.469V7.1c0-1.465.234-3.661-1.582-3.661-1.845,0-1.787,2.109-1.787,3.661v7.029a.514.514,0,0,1-.527.439ZM65.039.12c3.837,0,5.917,3.28,5.917,7.469,0,4.042-2.285,7.264-5.917,7.264-3.749,0-5.8-3.28-5.8-7.381C59.21,3.342,61.289.12,65.039.12Zm0,2.724c-1.9,0-2.021,2.607-2.021,4.218s-.029,5.067,1.992,5.067c1.992,0,2.109-2.783,2.109-4.481a12.815,12.815,0,0,0-.381-3.515,1.62,1.62,0,0,0-1.7-1.285ZM75.9,14.56H73.328a.5.5,0,0,1-.469-.469V.827a.506.506,0,0,1,.5-.439h2.4a.5.5,0,0,1,.469.381V2.79h.059C77.019.974,78.015.125,79.8.125a3.411,3.411,0,0,1,3.017,1.552c.674,1.055.674,2.841.674,4.13v8.348a.482.482,0,0,1-.5.41H80.416a.533.533,0,0,1-.469-.41V6.95c0-1.464.176-3.573-1.611-3.573a1.7,1.7,0,0,0-1.494,1.054,6.082,6.082,0,0,0-.41,2.519V14.1a.536.536,0,0,1-.527.469ZM41.49,8.233a5.238,5.238,0,0,1-.469,2.753,2.073,2.073,0,0,1-1.787,1.172c-1,0-1.582-.762-1.582-1.875,0-2.2,1.962-2.607,3.837-2.607Zm2.607,6.3a.53.53,0,0,1-.615.059,6.466,6.466,0,0,1-1.494-1.728,5.131,5.131,0,0,1-4.247,1.875,3.668,3.668,0,0,1-3.866-4.013,4.384,4.384,0,0,1,2.753-4.218A18.289,18.289,0,0,1,41.49,5.6V5.278A3.164,3.164,0,0,0,41.168,3.4a1.734,1.734,0,0,0-1.435-.674,1.95,1.95,0,0,0-2.08,1.552c-.059.234-.2.469-.439.469l-2.49-.264a.451.451,0,0,1-.381-.527C34.929.913,37.653.005,40.113.005a5.8,5.8,0,0,1,3.9,1.289c1.259,1.172,1.142,2.753,1.142,4.452V9.759a3.628,3.628,0,0,0,.967,2.4c.176.234.2.527,0,.674C45.561,13.275,44.622,14.1,44.1,14.533ZM7.661,8.233a5.237,5.237,0,0,1-.469,2.753,2.073,2.073,0,0,1-1.787,1.172c-1,0-1.582-.762-1.582-1.875,0-2.2,1.962-2.607,3.837-2.607Zm2.578,6.3a.53.53,0,0,1-.615.059A6.468,6.468,0,0,1,8.13,12.864a5.131,5.131,0,0,1-4.247,1.875A3.668,3.668,0,0,1,.017,10.726,4.384,4.384,0,0,1,2.77,6.508,18.289,18.289,0,0,1,7.632,5.6V5.278A3.164,3.164,0,0,0,7.31,3.4a1.734,1.734,0,0,0-1.435-.674A1.95,1.95,0,0,0,3.8,4.281c-.059.234-.205.469-.439.469L.866,4.486a.451.451,0,0,1-.381-.527C1.071.913,3.8.005,6.255.005a5.8,5.8,0,0,1,3.9,1.289C11.414,2.466,11.3,4.047,11.3,5.746V9.759a3.629,3.629,0,0,0,.967,2.4c.176.234.2.527,0,.674-.557.439-1.494,1.259-2.021,1.7Z" fill="#c5c4c0" fill-rule="evenodd"/>
  </g>
</svg>
