<svg xmlns="http://www.w3.org/2000/svg" xmlns:xlink="http://www.w3.org/1999/xlink" width="82.336" height="19.638" viewBox="0 0 82.336 19.638">
  <defs>
    <clipPath id="clip-path">
      <rect id="Rectangle_3" data-name="Rectangle 3" width="82.336" height="19.638" transform="translate(0.493)" fill="#fff"/>
    </clipPath>
  </defs>
  <g id="amd-logo" transform="translate(-0.493)" clip-path="url(#clip-path)">
    <path id="Path_10" data-name="Path 10" d="M19.831,18.332H15.264l-1.4-3.369H6.257L4.984,18.332H.493L7.354,1.315H12.27ZM9.875,5.381l-2.5,6.612h5.24ZM36.418,1.315h3.693V18.332H35.869V7.7l-4.591,5.339h-.649L26.038,7.7V18.332H21.793V1.315h3.7l5.46,6.313Zm14.442,0c6.213,0,9.406,3.867,9.406,8.533,0,4.89-3.094,8.484-9.88,8.484H43.349V1.315Zm-3.267,13.9h2.769c4.267,0,5.539-2.9,5.539-5.391,0-2.92-1.572-5.389-5.589-5.389H47.593ZM68.705,5.35,63.356,0H82.829V19.474L77.48,14.125V5.35ZM68.7,6.422l-5.506,5.507v7.709H70.9l5.507-5.507H68.7Z" fill="#c5c4c0"/>
  </g>
</svg>
