<svg xmlns="http://www.w3.org/2000/svg" width="16" height="7.981" viewBox="0 0 16 7.981">
  <path id="bow-tie" d="M15.128,4.21a.469.469,0,0,0-.246-.144c-.1-.022-2.389-.505-5.5,1.8H6.615c-3.108-2.306-5.4-1.822-5.5-1.8a.469.469,0,0,0-.245.144C.783,4.31,0,5.261,0,8s.783,3.69.872,3.79a.468.468,0,0,0,.245.144,3.251,3.251,0,0,0,.667.057,8.217,8.217,0,0,0,4.831-1.857H9.385a8.216,8.216,0,0,0,4.831,1.857,3.253,3.253,0,0,0,.667-.057.469.469,0,0,0,.245-.144c.089-.1.872-1.051.872-3.79S15.217,4.31,15.128,4.21ZM1.493,11.041A6.337,6.337,0,0,1,.938,8a6.336,6.336,0,0,1,.556-3.041,4.443,4.443,0,0,1,1.187.076A8.263,8.263,0,0,1,5.99,6.57v.961H4.418a.469.469,0,0,0,0,.938H5.99V9.43a8.263,8.263,0,0,1-3.31,1.535A4.443,4.443,0,0,1,1.493,11.041ZM6.928,6.8H9.072V9.2H6.928Zm7.579,4.237a4.442,4.442,0,0,1-1.187-.076A8.263,8.263,0,0,1,10.01,9.43V8.469h1.573a.469.469,0,0,0,0-.937H10.01V6.57a8.262,8.262,0,0,1,3.31-1.535,4.441,4.441,0,0,1,1.187-.076A6.336,6.336,0,0,1,15.063,8,6.336,6.336,0,0,1,14.507,11.041Z" transform="translate(0 -4.01)" fill="#b19b78"/>
</svg>
