<svg xmlns="http://www.w3.org/2000/svg" xmlns:xlink="http://www.w3.org/1999/xlink" width="50" height="50" viewBox="0 0 50 50">
  <defs>
    <clipPath id="clip-path">
      <rect id="Rectangle_4" data-name="Rectangle 4" width="50" height="50" transform="translate(0 0.5)" fill="#fff"/>
    </clipPath>
  </defs>
  <g id="cake" transform="translate(0 -0.5)" clip-path="url(#clip-path)">
    <path id="Path_57" data-name="Path 57" d="M43.382,38.735h.731a4.416,4.416,0,0,1,4.416,4.409v5.885A1.471,1.471,0,0,1,47.059,50.5H2.941a1.471,1.471,0,0,1-1.471-1.471V43.144a4.409,4.409,0,0,1,4.416-4.409h.731V34.32a4.41,4.41,0,0,1,4.413-4.409h.734V25.5a4.41,4.41,0,0,1,4.415-4.409h4.409V13.735a1.471,1.471,0,0,1,1.471-1.471h5.882a1.471,1.471,0,0,1,1.471,1.471v7.353H33.82A4.415,4.415,0,0,1,38.235,25.5v4.415h.734a4.414,4.414,0,0,1,4.413,4.409v4.415ZM19.608,41.676H5.887a1.468,1.468,0,0,0-1.475,1.468v4.415H45.588V43.144a1.475,1.475,0,0,0-1.475-1.468H30.393A4.109,4.109,0,0,1,30.1,42L26.04,46.062a1.471,1.471,0,0,1-2.08,0L19.9,42A4.108,4.108,0,0,1,19.608,41.676Zm-.874-2.941a4.018,4.018,0,0,1,1.161-2.452l.043-.043A4.046,4.046,0,0,1,25,35.713a4.046,4.046,0,0,1,5.063.527l.043.043a4.017,4.017,0,0,1,1.161,2.452h9.174V34.32a1.473,1.473,0,0,0-1.472-1.468H11.031A1.469,1.469,0,0,0,9.559,34.32v4.415Zm16.561-8.824V25.5a1.474,1.474,0,0,0-1.474-1.468H16.18A1.469,1.469,0,0,0,14.706,25.5v4.415ZM23.529,15.206v5.882h2.941V15.206ZM21.978,39.921,25,42.942l3.022-3.022a1.1,1.1,0,0,0,0-1.558l-.043-.043a1.1,1.1,0,0,0-1.558,0l-.385.385a1.471,1.471,0,0,1-2.08,0l-.385-.385a1.1,1.1,0,0,0-1.558,0l-.043.043A1.1,1.1,0,0,0,21.978,39.921ZM25,10.794a4.412,4.412,0,0,0,4.412-4.412C29.412,4.18,26.781.5,25,.5s-4.412,3.68-4.412,5.882A4.412,4.412,0,0,0,25,10.794Zm.55-6.371a4.584,4.584,0,0,1,.921,1.96,1.471,1.471,0,0,1-2.941,0,4.584,4.584,0,0,1,.921-1.96A7.118,7.118,0,0,1,25,3.741,7.083,7.083,0,0,1,25.55,4.423Z" fill="#b19b78" fill-rule="evenodd"/>
  </g>
</svg>
