<svg xmlns="http://www.w3.org/2000/svg" width="25" height="23.047" viewBox="0 0 25 23.047">
  <g id="calendar1" transform="translate(0 -0.977)">
    <path id="Path_37" data-name="Path 37" d="M22.559,2.93h-.2V2.539a1.563,1.563,0,0,0-3.125,0V2.93H16.829V2.539a1.562,1.562,0,0,0-3.125,0V2.93H11.3V2.539a1.562,1.562,0,1,0-3.125,0V2.93H5.762V2.539a1.563,1.563,0,0,0-3.125,0V2.93h-.2A2.444,2.444,0,0,0,0,5.371V21.582a2.444,2.444,0,0,0,2.441,2.441H10.3a.488.488,0,1,0,0-.977H2.441A1.466,1.466,0,0,1,.977,21.582V8.3H24.023V21.582a1.466,1.466,0,0,1-1.465,1.465H14.7a.488.488,0,1,0,0,.977h7.861A2.444,2.444,0,0,0,25,21.582V5.371A2.444,2.444,0,0,0,22.559,2.93Zm-2.344-.391a.586.586,0,0,1,1.172,0V4.3a.586.586,0,0,1-1.172,0Zm-5.534,0a.586.586,0,0,1,1.172,0V4.3a.586.586,0,0,1-1.172,0Zm-5.534,0a.586.586,0,1,1,1.172,0V4.3a.586.586,0,1,1-1.172,0Zm-5.534,0a.586.586,0,1,1,1.172,0V4.3a.586.586,0,0,1-1.172,0ZM.977,7.326V5.371A1.467,1.467,0,0,1,2.441,3.906h.2V4.3a1.563,1.563,0,0,0,3.125,0V3.906H8.171V4.3a1.563,1.563,0,0,0,3.125,0V3.906H13.7V4.3a1.562,1.562,0,1,0,3.125,0V3.906h2.409V4.3a1.563,1.563,0,0,0,3.125,0V3.906h.2a1.466,1.466,0,0,1,1.465,1.465V7.326Z" fill="#b19b78"/>
    <path id="Path_38" data-name="Path 38" d="M18.348,14.061a3.636,3.636,0,0,0-5.86-2.875,3.635,3.635,0,0,0-4.8,5.445l3.937,3.937a1.216,1.216,0,0,0,1.717,0l3.937-3.937A3.611,3.611,0,0,0,18.348,14.061Zm-5.692,5.816a.238.238,0,0,1-.336,0L8.383,15.941a2.658,2.658,0,0,1,3.759-3.759.488.488,0,0,0,.691,0,2.658,2.658,0,1,1,3.759,3.759Z" fill="#b19b78"/>
    <path id="Path_39" data-name="Path 39" d="M12.5,24.024a.488.488,0,1,0-.488-.488A.488.488,0,0,0,12.5,24.024Z" fill="#b19b78"/>
  </g>
</svg>
