<svg xmlns="http://www.w3.org/2000/svg" xmlns:xlink="http://www.w3.org/1999/xlink" width="50" height="50" viewBox="0 0 50 50">
  <defs>
    <clipPath id="clip-path">
      <rect id="Rectangle_1" data-name="Rectangle 1" width="50" height="50" fill="#fff"/>
    </clipPath>
  </defs>
  <g id="Group_1" data-name="Group 1" clip-path="url(#clip-path)">
    <path id="Path_30" data-name="Path 30" d="M25,42.056A12.161,12.161,0,1,0,12.839,29.9,12.175,12.175,0,0,0,25,42.056Zm0-22.369A10.208,10.208,0,1,1,14.792,29.9,10.22,10.22,0,0,1,25,19.687Z" fill="#b19b78"/>
    <path id="Path_31" data-name="Path 31" d="M24.379,36.538a.977.977,0,0,0,1.253,0c.478-.4,4.692-3.944,5.615-5.356a4.742,4.742,0,0,0,.846-2.933,4.189,4.189,0,0,0-4.13-4.02,4.432,4.432,0,0,0-2.955,1.357,4.4,4.4,0,0,0-2.97-1.357,4.189,4.189,0,0,0-4.13,4.02,4.735,4.735,0,0,0,.847,2.933C19.67,32.582,23.9,36.137,24.379,36.538Zm-4.522-8.185a2.264,2.264,0,0,1,2.18-2.171,3.167,3.167,0,0,1,2.148,1.424.978.978,0,0,0,1.614.025c.286-.4,1.232-1.448,2.164-1.448a2.264,2.264,0,0,1,2.18,2.171,2.736,2.736,0,0,1-.531,1.76,39.145,39.145,0,0,1-4.607,4.4,39.537,39.537,0,0,1-4.618-4.4A2.765,2.765,0,0,1,19.857,28.353Z" fill="#b19b78"/>
    <path id="Path_32" data-name="Path 32" d="M44.462,4.918h-.753V3.535a.977.977,0,0,0-.977-.977h-4.79a.977.977,0,0,0-.977.977V4.918H28.372V3.535a.977.977,0,0,0-.977-.977H22.6a.977.977,0,0,0-.977.977V4.918H13.035V3.535a.977.977,0,0,0-.977-.977H7.268a.977.977,0,0,0-.977.977V4.918H5.538A5.544,5.544,0,0,0,0,10.456V41.9a5.544,5.544,0,0,0,5.538,5.538H44.462A5.544,5.544,0,0,0,50,41.9V10.456A5.544,5.544,0,0,0,44.462,4.918Zm-5.544-.407h2.837v3.5H38.918Zm-15.337,0h2.837v3.5H23.581Zm-15.337,0h2.837v3.5H8.245ZM1.953,10.456A3.589,3.589,0,0,1,5.538,6.871h.753V8.99a.977.977,0,0,0,.977.977h4.79a.977.977,0,0,0,.977-.977V6.871h8.593V8.99a.977.977,0,0,0,.977.977H27.4a.977.977,0,0,0,.977-.977V6.871h8.593V8.99a.977.977,0,0,0,.977.977h4.79a.977.977,0,0,0,.977-.977V6.871h.753a3.589,3.589,0,0,1,3.585,3.585V13.13H1.953ZM48.047,41.9a3.589,3.589,0,0,1-3.585,3.585H5.538A3.589,3.589,0,0,1,1.953,41.9V15.083H48.047Z" fill="#b19b78"/>
  </g>
</svg>
