<svg xmlns="http://www.w3.org/2000/svg" xmlns:xlink="http://www.w3.org/1999/xlink" width="50" height="50" viewBox="0 0 50 50">
  <defs>
    <clipPath id="clip-path">
      <rect id="Rectangle_3" data-name="Rectangle 3" width="50" height="50" transform="translate(0 0.5)" fill="#fff"/>
    </clipPath>
  </defs>
  <g id="camera" transform="translate(0 -0.5)" clip-path="url(#clip-path)">
    <path id="Path_49" data-name="Path 49" d="M45.605,15.246H37.624l-1.715-3.43a4.371,4.371,0,0,0-3.931-2.429H18.022a4.371,4.371,0,0,0-3.931,2.429l-1.715,3.43H8.789V13.781a1.465,1.465,0,0,0-2.93,0v1.465H4.395A4.4,4.4,0,0,0,0,19.641V46.105A4.4,4.4,0,0,0,4.395,50.5H45.605A4.4,4.4,0,0,0,50,46.105V19.641A4.4,4.4,0,0,0,45.605,15.246ZM47.07,46.105a1.466,1.466,0,0,1-1.465,1.465H4.395A1.466,1.466,0,0,1,2.93,46.105V19.641a1.466,1.466,0,0,1,1.465-1.465h8.887a1.465,1.465,0,0,0,1.31-.81l2.12-4.24a1.457,1.457,0,0,1,1.31-.81H31.979a1.457,1.457,0,0,1,1.31.81l2.12,4.24a1.465,1.465,0,0,0,1.31.81h8.887a1.466,1.466,0,0,1,1.465,1.465Z" fill="#b19b78"/>
    <path id="Path_50" data-name="Path 50" d="M7.324,24.035A1.465,1.465,0,1,0,5.859,22.57,1.465,1.465,0,0,0,7.324,24.035Z" fill="#b19b78"/>
    <path id="Path_51" data-name="Path 51" d="M25,18.176A13.232,13.232,0,1,0,38.184,31.359,13.2,13.2,0,0,0,25,18.176Zm0,23.535A10.3,10.3,0,1,1,35.254,31.359,10.315,10.315,0,0,1,25,41.711Z" fill="#b19b78"/>
    <path id="Path_52" data-name="Path 52" d="M27.931,26.966a4.3,4.3,0,0,0-2.93,1.1,4.412,4.412,0,0,0-7.324,3.116c0,2.491,2.072,4,4.94,6.1.481.351.979.715,1.506,1.11a1.465,1.465,0,0,0,1.758,0c.527-.4,1.024-.759,1.506-1.11,2.868-2.095,4.94-3.608,4.94-6.1A4.263,4.263,0,0,0,27.931,26.966Zm-2.273,7.95L25,35.4l-.656-.48c-2.17-1.585-3.738-2.73-3.738-3.733A1.335,1.335,0,0,1,22.071,29.9a1.728,1.728,0,0,1,1.537,1.187,1.441,1.441,0,0,0,1.379,1.029A1.479,1.479,0,0,0,26.4,31.074,1.724,1.724,0,0,1,27.931,29.9,1.335,1.335,0,0,1,29.4,31.183C29.4,32.185,27.827,33.331,25.657,34.916Z" fill="#b19b78"/>
    <path id="Path_53" data-name="Path 53" d="M26.465,4.992V1.965a1.465,1.465,0,1,0-2.93,0V4.992a1.465,1.465,0,1,0,2.93,0Z" fill="#b19b78"/>
    <path id="Path_54" data-name="Path 54" d="M17.23,6.045a1.465,1.465,0,0,0,.034-2.071L14.334.946a1.465,1.465,0,0,0-2.105,2.037l2.93,3.027A1.465,1.465,0,0,0,17.23,6.045Z" fill="#b19b78"/>
    <path id="Path_55" data-name="Path 55" d="M34.842,6.011l2.93-3.027A1.465,1.465,0,0,0,35.666.946l-2.93,3.027a1.465,1.465,0,0,0,2.105,2.037Z" fill="#b19b78"/>
    <path id="Path_56" data-name="Path 56" d="M42.676,21.105H39.648a1.465,1.465,0,0,0,0,2.93h3.027a1.465,1.465,0,0,0,0-2.93Z" fill="#b19b78"/>
  </g>
</svg>
