<svg xmlns="http://www.w3.org/2000/svg" width="17.31" height="20" viewBox="0 0 17.31 20">
  <path id="cart-icon" d="M17.674,19.343,16.154,4.867a.6.6,0,0,0-.592-.533H12.7V3.683a3.683,3.683,0,0,0-7.365,0v.651H2.483a.6.6,0,0,0-.592.533L.37,19.343A.6.6,0,0,0,.962,20H17.082a.6.6,0,0,0,.592-.657ZM6.53,3.683a2.492,2.492,0,0,1,4.984,0v.651H6.53ZM1.623,18.809l1.4-13.285H5.34V6.836a.6.6,0,0,0,1.19,0V5.524h4.984V6.836a.6.6,0,1,0,1.19,0V5.524h2.321l1.4,13.285Z" transform="translate(-0.367)" fill="#1c2836"/>
</svg>
