<svg xmlns="http://www.w3.org/2000/svg" width="31.444" height="35" viewBox="0 0 31.444 35">
  <g id="champagne-glass-icon" transform="translate(-1.777)">
    <path id="Path_25" data-name="Path 25" d="M16.176,3.882,9.55,2.589a.686.686,0,0,0-.725.33,33.681,33.681,0,0,0-3.456,9.462,16.7,16.7,0,0,0-.314,3.533,12.534,12.534,0,0,0,.318,2.651q.085.369.2.73a5.3,5.3,0,0,0,2.772,3.548L6.912,30.556l-3.082-.6a1.7,1.7,0,0,0-1.883,1.02,2.113,2.113,0,0,0-.106.387,3.049,3.049,0,0,0-.06.377A1.683,1.683,0,0,0,3.138,33.5l7.517,1.467a1.713,1.713,0,0,0,1.717-.71,1.607,1.607,0,0,0,.219-.47,2.941,2.941,0,0,0,.115-.638,1.683,1.683,0,0,0-1.359-1.73l-3.088-.6L9.691,23.1a5.146,5.146,0,0,0,3.7-2.019c.094-.107.184-.216.273-.328a13.117,13.117,0,0,0,2.071-3.871,17.173,17.173,0,0,0,.636-2.359A33.677,33.677,0,0,0,16.724,4.46a.687.687,0,0,0-.548-.578ZM11.283,32.9a.364.364,0,0,1,.043.261,1.192,1.192,0,0,1-.057.253.311.311,0,0,1-.35.208L3.4,32.156A.314.314,0,0,1,3.188,32a.486.486,0,0,1-.005-.34.459.459,0,0,1,.117-.28.314.314,0,0,1,.268-.076l7.517,1.467a.31.31,0,0,1,.2.131ZM9.781,4.033l5.638,1.1a33.148,33.148,0,0,1-.4,9.132c-.063.323-.136.64-.216.953H6.427a15.7,15.7,0,0,1,.288-2.573A33.229,33.229,0,0,1,9.781,4.033ZM13.8,17.977a10.233,10.233,0,0,1-1.274,2.009,4.7,4.7,0,0,1-2.263,1.663,2.2,2.2,0,0,1-1.151.008,2.894,2.894,0,0,1-1.631-1.4,7.715,7.715,0,0,1-.921-2.811c-.042-.283-.073-.569-.1-.854h7.922a13.5,13.5,0,0,1-.586,1.387Z" fill="#b19b78"/>
    <path id="Path_26" data-name="Path 26" d="M13.818,11.913l.063,0a.687.687,0,0,0,.683-.624,33.389,33.389,0,0,0,.107-4.336A.686.686,0,1,0,13.3,7.01a31.914,31.914,0,0,1-.1,4.157A.686.686,0,0,0,13.818,11.913Z" fill="#b19b78"/>
    <path id="Path_27" data-name="Path 27" d="M33.191,31.529a2.574,2.574,0,0,0-.224-.733,1.637,1.637,0,0,0-.426-.5,1.69,1.69,0,0,0-1.371-.336l-3.085.6-1.506-7.716c2.646-1.1,3.941-5.482,2.97-10.46a33.691,33.691,0,0,0-3.456-9.462.687.687,0,0,0-.725-.33L18.742,3.882a.687.687,0,0,0-.548.578,33.689,33.689,0,0,0,.355,10.068c.971,4.977,3.819,8.552,6.684,8.576l1.506,7.716-3.085.6A1.712,1.712,0,0,0,22.334,32.7a2.162,2.162,0,0,0,.09,1.147,1.683,1.683,0,0,0,1.921,1.125L31.862,33.5a1.7,1.7,0,0,0,1.329-1.974ZM19.5,5.133l5.638-1.1A33.217,33.217,0,0,1,28.2,12.644q.052.269.095.536H19.707A33.753,33.753,0,0,1,19.5,5.133ZM31.8,32.025a.307.307,0,0,1-.2.131l-7.517,1.467a.315.315,0,0,1-.268-.076.467.467,0,0,1-.118-.281.528.528,0,0,1,0-.318.313.313,0,0,1,.224-.179L31.433,31.3a.316.316,0,0,1,.35.208A.616.616,0,0,1,31.8,32.025Zm-6.668-10.3a3.1,3.1,0,0,1-1.617-.653,6.445,6.445,0,0,1-1.238-1.236,9.552,9.552,0,0,1-.6-.872,12.633,12.633,0,0,1-.957-1.915,15.259,15.259,0,0,1-.759-2.5h8.5A12.5,12.5,0,0,1,28.2,18.3a8.155,8.155,0,0,1-.314,1.027,3.524,3.524,0,0,1-2.05,2.323,2.1,2.1,0,0,1-.7.078Z" fill="#b19b78"/>
    <path id="Path_28" data-name="Path 28" d="M18.043.686a.686.686,0,0,0-1.373,0v2.23a.686.686,0,0,0,1.373,0Z" fill="#b19b78"/>
    <path id="Path_29" data-name="Path 29" d="M14.573,2.6a.686.686,0,0,0,1.173-.712L14.9.492a.686.686,0,1,0-1.173.713Z" fill="#b19b78"/>
    <path id="Path_30" data-name="Path 30" d="M19.333,2.828a.686.686,0,0,0,.943-.23L21.122,1.2A.686.686,0,0,0,19.949.492L19.1,1.885a.686.686,0,0,0,.23.943Z" fill="#b19b78"/>
    <path id="Path_31" data-name="Path 31" d="M24.659,8.546q.392,1.073.7,2.174c.082.29.127.6.406.763a.686.686,0,0,0,1.017-.766c-.09-.356-.2-.709-.305-1.06s-.23-.725-.355-1.084c-.062-.178-.117-.361-.192-.534a.685.685,0,0,0-.24-.294.686.686,0,0,0-1.035.8Z" fill="#b19b78"/>
    <path id="Path_32" data-name="Path 32" d="M14.184,13.948a.689.689,0,1,1-.689-.689A.689.689,0,0,1,14.184,13.948Z" fill="#b19b78"/>
    <path id="Path_33" data-name="Path 33" d="M24.959,5.781a.689.689,0,1,1-.689-.689.689.689,0,0,1,.689.689Z" fill="#b19b78"/>
  </g>
</svg>
