<svg xmlns="http://www.w3.org/2000/svg" width="68.627" height="36.175" viewBox="0 0 68.627 36.175">
  <g id="cisco-logo" transform="translate(-2.31 -1.484)">
    <path id="Path_11" data-name="Path 11" d="M24.729,37.442H21.72V25.518h3.009Z" fill="#c5c4c0"/>
    <path id="Path_12" data-name="Path 12" d="M48.991,28.934A5.271,5.271,0,0,0,46.46,28.3a3.187,3.187,0,1,0,0,6.365,5.328,5.328,0,0,0,2.531-.633v3.2a9.663,9.663,0,0,1-2.742.424,6.178,6.178,0,1,1,0-12.346,9.135,9.135,0,0,1,2.742.429Zm-31.407,0a5.23,5.23,0,0,0-2.528-.637,3.187,3.187,0,1,0,0,6.365,5.293,5.293,0,0,0,2.528-.633v3.2a9.584,9.584,0,0,1-2.745.424,6.178,6.178,0,1,1,0-12.345,9.1,9.1,0,0,1,2.744.427Zm40.873-.592a3.215,3.215,0,1,1-.005,0Zm6.295,3.136a6.116,6.116,0,1,1-.467-2.4,6.123,6.123,0,0,1,.467,2.4Zm-28.617-3.25a10.308,10.308,0,0,0-2.352-.363c-1.206,0-1.861.4-1.861.977,0,.727.884.98,1.379,1.136l.83.264a3.586,3.586,0,0,1,2.843,3.412c0,3-2.634,4-4.937,4a17.992,17.992,0,0,1-3.247-.326V34.582a11.265,11.265,0,0,0,2.841.444c1.5,0,2.185-.438,2.185-1.113,0-.6-.6-.953-1.342-1.187-.181-.061-.456-.146-.642-.208-1.676-.53-3.073-1.515-3.073-3.488,0-2.23,1.67-3.728,4.443-3.728a12.892,12.892,0,0,1,2.933.379v2.547Z" fill="#c5c4c0"/>
    <path id="Path_13" data-name="Path 13" d="M5.3,12.7a1.494,1.494,0,0,0-2.988,0v3.131a1.494,1.494,0,0,0,2.988,0ZM13.5,8.6a1.494,1.494,0,1,0-2.988,0v7.238a1.494,1.494,0,1,0,2.988,0V8.594Zm8.206-5.622a1.494,1.494,0,0,0-2.987,0V18.807a1.494,1.494,0,0,0,2.988,0Zm8.2,5.622a1.494,1.494,0,1,0-2.988,0v7.238a1.494,1.494,0,1,0,2.988,0V8.594Zm8.2,4.108a1.49,1.49,0,0,0-2.979,0v3.131a1.487,1.487,0,1,0,2.973,0ZM46.323,8.6a1.489,1.489,0,0,0-2.978,0v7.238a1.489,1.489,0,1,0,2.978,0V8.594Zm8.211-5.622a1.489,1.489,0,0,0-2.978,0V18.807a1.49,1.49,0,1,0,2.978,0ZM62.743,8.6a1.5,1.5,0,0,0-3,0v7.239a1.5,1.5,0,0,0,3,0V8.6ZM70.937,12.7a1.491,1.491,0,0,0-2.982,0v3.13a1.491,1.491,0,1,0,2.981,0V12.7Z" fill="#c5c4c0"/>
    <path id="Path_14" data-name="Path 14" d="M69.213,35.871v.187h-.532v1.383h-.219V36.059h-.534v-.188Zm.111,0h.342l.47,1.288h.008l.455-1.287h.336v1.569h-.224V36.154H70.7l-.476,1.287H70.02l-.465-1.287h-.01v1.287h-.219Z" fill="#c5c4c0"/>
  </g>
</svg>
