<svg xmlns="http://www.w3.org/2000/svg" xmlns:xlink="http://www.w3.org/1999/xlink" width="50" height="50" viewBox="0 0 50 50">
  <defs>
    <clipPath id="clip-path">
      <rect id="Rectangle_3" data-name="Rectangle 3" width="50" height="50" transform="translate(0 0.25)" fill="#fff"/>
    </clipPath>
  </defs>
  <g id="cupcake-gold" transform="translate(0 -0.25)" clip-path="url(#clip-path)">
    <path id="Path_22" data-name="Path 22" d="M45.279,26.69a1.477,1.477,0,0,0-1.511-.379,4.421,4.421,0,0,0-.48.187,19.773,19.773,0,0,0-4.369-8.829A18.69,18.69,0,0,0,31.177,12.3c2.535-2.853,3.167-4.981,3.167-6.393A5.632,5.632,0,0,0,25,1.646,5.632,5.632,0,0,0,15.656,5.9c0,1.41.631,3.539,3.167,6.393a18.688,18.688,0,0,0-7.731,5.358A19.772,19.772,0,0,0,6.711,26.5a4.456,4.456,0,0,0-.479-.187,1.476,1.476,0,0,0-1.511.378,1.52,1.52,0,0,0-.359,1.563l6.97,20.441a2.3,2.3,0,0,0,2.175,1.556H36.492a2.3,2.3,0,0,0,2.175-1.556l6.971-20.442A1.52,1.52,0,0,0,45.279,26.69ZM17.121,5.9a4.17,4.17,0,0,1,7.327-2.741.732.732,0,0,0,1.1,0A4.17,4.17,0,0,1,32.878,5.9c0,3.083-4.08,6.877-6.084,8.553a14.628,14.628,0,0,0-3.59,0C20.85,12.49,17.121,8.9,17.121,5.9ZM12.2,18.614a17.176,17.176,0,0,1,7.733-5.147q.65.647,1.429,1.337-.243.063-.483.133a.732.732,0,0,0,.415,1.4,13.12,13.12,0,0,1,7.414,0,.732.732,0,1,0,.415-1.4q-.241-.071-.483-.133.781-.691,1.429-1.337a17.179,17.179,0,0,1,7.743,5.159,18.326,18.326,0,0,1,4.133,8.63,3.272,3.272,0,0,1-1.683.393,3.514,3.514,0,0,1-2.163-.674,5.259,5.259,0,0,0-5.859,0,3.8,3.8,0,0,1-4.319,0,5.251,5.251,0,0,0-5.854,0,3.8,3.8,0,0,1-4.319,0,4.933,4.933,0,0,0-2.927-.891,4.934,4.934,0,0,0-2.927.891,3.506,3.506,0,0,1-2.159.674,3.265,3.265,0,0,1-1.677-.391A18.327,18.327,0,0,1,12.2,18.614Zm4.155,30.171-.642-2.576a.732.732,0,1,0-1.421.354l.554,2.222H13.508a.833.833,0,0,1-.789-.564L5.749,27.78a.049.049,0,0,1,0-.043.051.051,0,0,1,.032-.03h0a4.531,4.531,0,0,1,1.021.516,4.934,4.934,0,0,0,2.927.892c.072,0,.141,0,.21,0l3.568,14.319a.732.732,0,0,0,1.421-.354L11.391,28.861a6.056,6.056,0,0,0,1.269-.639,3.506,3.506,0,0,1,2.159-.674,3.506,3.506,0,0,1,2.159.674,5.093,5.093,0,0,0,2.011.822L20.8,48.785Zm5.917,0-1.808-19.7a4.958,4.958,0,0,0,2.369-.866,3.795,3.795,0,0,1,4.318,0,4.951,4.951,0,0,0,2.384.868L27.727,48.785ZM44.251,27.779,37.28,48.221a.833.833,0,0,1-.789.564H35.153l3.675-14.747a.732.732,0,1,0-1.421-.354l-3.763,15.1H29.2l1.813-19.744a5.1,5.1,0,0,0,2-.819,3.8,3.8,0,0,1,4.324,0,6.043,6.043,0,0,0,1.278.641l-.421,1.689a.732.732,0,1,0,1.421.354l.448-1.8c.067,0,.134,0,.2,0a4.943,4.943,0,0,0,2.93-.891,4.579,4.579,0,0,1,1.027-.518.068.068,0,0,1,.03.031A.049.049,0,0,1,44.251,27.779Z" fill="#b19b78"/>
    <path id="Path_23" data-name="Path 23" d="M17.954,17.472a2.3,2.3,0,1,0,2.3,2.3A2.3,2.3,0,0,0,17.954,17.472Zm0,3.131a.833.833,0,1,1,.833-.833A.834.834,0,0,1,17.954,20.6Z" fill="#b19b78" opacity="0.3"/>
    <path id="Path_24" data-name="Path 24" d="M31.262,20.6a2.3,2.3,0,1,0,2.3,2.3A2.3,2.3,0,0,0,31.262,20.6Zm0,3.131A.833.833,0,1,1,32.1,22.9.834.834,0,0,1,31.262,23.735Z" fill="#b19b78"/>
    <path id="Path_25" data-name="Path 25" d="M25.517,20.818l-.783-.783A.732.732,0,0,0,23.7,21.071l.783.783a.732.732,0,0,0,1.036-1.036Z" fill="#b19b78"/>
    <path id="Path_26" data-name="Path 26" d="M33.346,16.9a.732.732,0,0,0-1.036,0l-.783.783a.732.732,0,1,0,1.036,1.036l.783-.783A.732.732,0,0,0,33.346,16.9Z" fill="#b19b78"/>
    <path id="Path_27" data-name="Path 27" d="M13.257,22.952h-.783a.732.732,0,1,0,0,1.465h.783a.732.732,0,1,0,0-1.465Z" fill="#b19b78"/>
    <path id="Path_28" data-name="Path 28" d="M37.533,22.169h-.008a.736.736,0,1,0,.008,0Z" fill="#b19b78"/>
    <path id="Path_29" data-name="Path 29" d="M20.31,23.735H20.3a.736.736,0,1,0,.008,0Z" fill="#b19b78"/>
  </g>
</svg>
