<svg xmlns="http://www.w3.org/2000/svg" xmlns:xlink="http://www.w3.org/1999/xlink" width="121.516" height="23.743" viewBox="0 0 121.516 23.743">
  <defs>
    <clipPath id="clip-path">
      <rect id="Rectangle_4" data-name="Rectangle 4" width="121.516" height="23.743" transform="translate(0.373)" fill="#fff"/>
    </clipPath>
  </defs>
  <g id="dropcam-logo" transform="translate(-0.373)" clip-path="url(#clip-path)">
    <path id="Path_15" data-name="Path 15" d="M4.074,2.235a9.117,9.117,0,0,1,12.908.956A9.549,9.549,0,0,1,17.46,16.1L10.289,23.27c-1.434-.956-3.824-2.868-2.868-4.781,1.912-2.39,4.3-4.3,6.215-6.693,1.434-1.912.478-5.737-2.39-6.215a3.982,3.982,0,0,0-5.259,4.3c0,2.39,1.912,3.824,3.346,5.259-1.434,1.434-3.346,2.39-3.346,4.3C4.553,17.528,2.163,16.094,1.206,13.7A9.577,9.577,0,0,1,4.074,2.235Z" fill="#c5c4c0" fill-rule="evenodd"/>
    <path id="Path_16" data-name="Path 16" d="M34.67,2.235c.478-1.434,1.912-.956,2.868-.956V18.962H34.67v-1.43a6.474,6.474,0,0,1-8.127,0,6.8,6.8,0,0,1-.478-9.561,6.584,6.584,0,0,1,8.6-.956ZM30.37,8.45c-2.39.478-4.3,3.824-2.39,6.215a3.6,3.6,0,0,0,6.215-.478c1.431-2.391-.96-5.738-3.828-5.738Z" fill="#c5c4c0" fill-rule="evenodd"/>
    <path id="Path_17" data-name="Path 17" d="M39.928,6.059H42.8v.956c.956-1.434,2.868-1.434,4.781-.956-.478.956-.956,1.434-.956,2.39-1.912-.478-3.824.478-3.824,1.912v7.171c-.479,1.439-1.913,1.439-2.869,1.439Z" fill="#c5c4c0" fill-rule="evenodd"/>
    <path id="Path_18" data-name="Path 18" d="M51.879,6.06c4.781-1.912,9.561,2.868,8.6,7.649s-7.649,7.171-11,3.824c-3.824-3.346-2.39-10.517,2.39-11.473Zm1.434,2.39A4.723,4.723,0,0,0,49.967,11.8a3.659,3.659,0,0,0,3.824,4.3c1.912,0,3.824-1.434,3.824-3.346,0-2.388-2.389-4.778-4.3-4.3Z" fill="#c5c4c0" fill-rule="evenodd"/>
    <path id="Path_19" data-name="Path 19" d="M62.4,6.059h2.868v.956a6.584,6.584,0,0,1,8.6.956,6.234,6.234,0,0,1-.468,9.083c-1.912,2.39-5.737,2.39-8.127.956v4.3c-.478,1.434-1.912,1.434-2.868,1.434V6.059Zm6.215,2.39c-2.868.478-4.3,3.824-2.868,5.737,1.434,2.39,5.259,2.39,6.215,0C73.87,11.8,71.48,8.449,68.612,8.449Z" fill="#c5c4c0" fill-rule="evenodd"/>
    <path id="Path_20" data-name="Path 20" d="M80.563,6.538a6.494,6.494,0,0,1,7.649.956c-.478.478-.956,1.434-1.912,1.912a3.7,3.7,0,0,0-5.737,1.434A3.922,3.922,0,0,0,83.909,16.1c.956,0,1.912-.478,2.868-.478a3.733,3.733,0,0,1,1.912,1.912c-3.346,2.868-9.083,1.912-10.517-2.39C76.26,12.274,77.694,8.448,80.563,6.538Z" fill="#c5c4c0" fill-rule="evenodd"/>
    <path id="Path_21" data-name="Path 21" d="M88.69,14.664c-1.432-4.3,1.912-9.083,6.215-9.083a7.636,7.636,0,0,1,7.171,6.215v7.171c-1.434,0-2.39,0-3.346-.956-3.346,2.39-8.6.478-10.039-3.346ZM94.9,8.449a4.2,4.2,0,0,0-2.868,6.215c1.912,2.39,5.737,1.912,6.693-.478A4.213,4.213,0,0,0,94.9,8.449Z" fill="#c5c4c0" fill-rule="evenodd"/>
    <path id="Path_22" data-name="Path 22" d="M103.988,6.06h2.868v.956c1.434-1.912,4.781-1.434,6.693.478,2.39-2.868,7.171-1.912,8.127,1.434.478,2.868,0,6.215,0,9.083,0,.956-1.434.956-2.868.956,0-2.868.478-5.737,0-8.6a2.187,2.187,0,0,0-4.3,0v8.6H111.64a57.943,57.943,0,0,0-.478-9.083c-.478-1.912-3.824-1.434-3.824.478a51.962,51.962,0,0,0-.478,8.6h-2.872Z" fill="#c5c4c0" fill-rule="evenodd"/>
  </g>
</svg>
