<svg xmlns="http://www.w3.org/2000/svg" width="20" height="18.585" viewBox="0 0 20 18.585">
  <path id="heart-icon" d="M18.364,2.955a5.465,5.465,0,0,0-8.01,0L10,3.327l-.353-.373A5.469,5.469,0,0,0,1.92,2.67q-.147.137-.284.284a6.134,6.134,0,0,0,0,8.34l7.847,8.275a.715.715,0,0,0,1.01.027l.027-.027,7.844-8.275A6.133,6.133,0,0,0,18.364,2.955ZM17.33,10.31h0L10,18.039,2.673,10.31a4.687,4.687,0,0,1,0-6.372,4.04,4.04,0,0,1,5.709-.23q.119.11.23.23l.871.919a.736.736,0,0,0,1.038,0l.871-.919a4.04,4.04,0,0,1,5.709-.23q.119.11.23.23A4.644,4.644,0,0,1,17.33,10.31Z" transform="translate(0 -1.208)" fill="#1c2836"/>
</svg>
