<svg xmlns="http://www.w3.org/2000/svg" xmlns:xlink="http://www.w3.org/1999/xlink" width="60" height="60" viewBox="0 0 60 60">
  <defs>
    <clipPath id="clip-path">
      <rect id="Rectangle_1" data-name="Rectangle 1" width="60" height="60" fill="#fff"/>
    </clipPath>
  </defs>
  <g id="location-pin" clip-path="url(#clip-path)">
    <path id="Path_1" data-name="Path 1" d="M53.379,58.084l-6.061-15.59a1.406,1.406,0,0,0-1.311-.9H38.055l1.392-2.019c.828-1.2,1.742-2.413,2.625-3.586,3.645-4.839,7.415-9.842,7.415-16.506a19.487,19.487,0,0,0-38.974,0c0,6.664,3.769,11.668,7.415,16.506.883,1.173,1.8,2.385,2.625,3.586L21.945,41.6H13.992a1.406,1.406,0,0,0-1.311.9l-6.06,15.59A1.406,1.406,0,0,0,7.932,60H52.068a1.406,1.406,0,0,0,1.311-1.916ZM20.174,34.3c-3.522-4.675-6.848-9.09-6.848-14.814a16.674,16.674,0,1,1,33.349,0c0,5.723-3.327,10.139-6.848,14.814-.9,1.2-1.832,2.432-2.694,3.681L30,48.322l-7.132-10.34C22.006,36.732,21.075,35.5,20.174,34.3ZM9.988,57.188,14.955,44.41h8.931L28.842,51.6a1.406,1.406,0,0,0,2.315,0l4.957-7.187h8.93l4.968,12.778ZM30,30.494a1.406,1.406,0,0,0,.994-.412L39.275,21.8a5.472,5.472,0,0,0,1.55-5.375,6.131,6.131,0,0,0-4.266-4.266,5.473,5.473,0,0,0-5.375,1.55L30,14.9l-1.185-1.184a5.472,5.472,0,0,0-5.375-1.55,6.131,6.131,0,0,0-4.266,4.266,5.472,5.472,0,0,0,1.55,5.375l8.281,8.281A1.406,1.406,0,0,0,30,30.494Zm-8.109-13.34a3.363,3.363,0,0,1,2.277-2.277,2.581,2.581,0,0,1,.668-.089,2.771,2.771,0,0,1,1.99.912l2.18,2.18a1.406,1.406,0,0,0,1.989,0l2.18-2.18a2.64,2.64,0,0,1,2.658-.822,3.363,3.363,0,0,1,2.277,2.277,2.641,2.641,0,0,1-.822,2.658L30,27.1l-7.287-7.287A2.642,2.642,0,0,1,21.891,17.154Z" fill="#b19b78"/>
  </g>
</svg>
