<svg xmlns="http://www.w3.org/2000/svg" xmlns:xlink="http://www.w3.org/1999/xlink" width="81.828" height="24.845" viewBox="0 0 81.828 24.845">
  <defs>
    <clipPath id="clip-path">
      <rect id="Rectangle_5" data-name="Rectangle 5" width="81.828" height="24.845" transform="translate(0.889)" fill="#fff"/>
    </clipPath>
  </defs>
  <g id="logitech-logo" transform="translate(-0.889)" clip-path="url(#clip-path)">
    <path id="Path_23" data-name="Path 23" d="M.889,17.57V.364H3.911V17.57ZM11.648,5.088a6.411,6.411,0,1,0,.03,12.818,6.41,6.41,0,1,0-.03-12.819ZM11.613,8A3.462,3.462,0,1,1,9.162,9.028,3.462,3.462,0,0,1,11.613,8ZM25.777,5.088a6.411,6.411,0,1,0,.03,12.818,6.346,6.346,0,0,0,6.5-6.437,4.825,4.825,0,0,0-.985-3.284L32.16,7.9V5.445H27.873a6.477,6.477,0,0,0-2.1-.357ZM25.742,8a3.462,3.462,0,1,1-2.453,1.028A3.462,3.462,0,0,1,25.742,8Zm3.5,10.408a3.488,3.488,0,1,1-6.976,0H19.2a6.332,6.332,0,0,0,6.59,6.432,6.339,6.339,0,0,0,6.5-6.428Zm4.282-.841V5.445h3.023V17.57Zm5.957,0V8.161H37.86V5.445h1.621V1.722H42.5V5.445h1.665V8.161H42.5V17.57ZM37.03,2A2,2,0,1,1,36.444.586,2,2,0,0,1,37.03,2ZM50.963,5.08a6.277,6.277,0,0,0-6.4,6.508,6.089,6.089,0,0,0,6.467,6.327,7.176,7.176,0,0,0,5.495-2.3L54.5,13.592a5.382,5.382,0,0,1-3.436,1.646,3.268,3.268,0,0,1-3.31-2.519h9.418v-.832c0-3.321-1.922-6.806-6.209-6.806Zm-.1,2.661A3,3,0,0,1,54,10.265h-6.33a3.154,3.154,0,0,1,3.2-2.524ZM64.732,17.916a6.42,6.42,0,0,1-.013-12.84A6.647,6.647,0,0,1,69.9,7.5L67.789,9.6A4.314,4.314,0,0,0,64.7,8.022a3.4,3.4,0,0,0-3.484,3.464A3.428,3.428,0,0,0,64.677,15a4.3,4.3,0,0,0,3.112-1.58l2.13,2.1a6.624,6.624,0,0,1-5.188,2.4Zm6.288-.337V.32h3.022V6.661a4.62,4.62,0,0,1,3.675-1.584c3.165,0,5,2.353,5,5.362v7.14H79.689V10.9a2.551,2.551,0,0,0-2.653-2.86,2.789,2.789,0,0,0-3,3.017v6.527H71.02Z" fill="#c5c4c0"/>
  </g>
</svg>
