<svg xmlns="http://www.w3.org/2000/svg" width="48.047" height="60" viewBox="0 0 48.047 60">
  <g id="love-message" transform="translate(-5.977)">
    <path id="Path_2" data-name="Path 2" d="M21.211,9.375A1.172,1.172,0,1,0,20.039,8.2,1.172,1.172,0,0,0,21.211,9.375Z" fill="#b19b78"/>
    <path id="Path_3" data-name="Path 3" d="M30.586,25.028c0,2.966,2.358,4.956,5.621,7.71.58.489,1.179,1,1.815,1.546a1.172,1.172,0,0,0,1.535,0c.639-.554,1.24-1.061,1.822-1.552,2.963-2.5,5.614-4.6,5.614-7.7A4.793,4.793,0,0,0,42.3,20.039a4.371,4.371,0,0,0-3.516,1.749,4.371,4.371,0,0,0-3.516-1.749A4.793,4.793,0,0,0,30.586,25.028Zm7.074-.457a1.171,1.171,0,0,0,2.257.006c.026-.09.654-2.194,2.388-2.194a2.465,2.465,0,0,1,2.344,2.645c0,2.113-2.628,4.095-4.782,5.913-.35.3-.708.6-1.077.913-.367-.313-.722-.613-1.071-.907-2.986-2.521-4.789-4.042-4.789-5.919a2.465,2.465,0,0,1,2.344-2.645C37.007,22.383,37.636,24.487,37.66,24.571Z" fill="#b19b78"/>
    <path id="Path_4" data-name="Path 4" d="M25.9,51.8a1.172,1.172,0,0,0-1.172-1.172H17.7a1.172,1.172,0,1,0,0,2.344h7.031A1.172,1.172,0,0,0,25.9,51.8Z" fill="#b19b78"/>
    <path id="Path_5" data-name="Path 5" d="M21.211,60a1.172,1.172,0,1,0-1.172-1.172A1.172,1.172,0,0,0,21.211,60Z" fill="#b19b78"/>
    <path id="Path_6" data-name="Path 6" d="M31.758,0H10.664A4.693,4.693,0,0,0,5.977,4.688V55.313A4.693,4.693,0,0,0,10.664,60h5.273a1.172,1.172,0,1,0,0-2.344H10.664A2.346,2.346,0,0,1,8.32,55.313V4.688a2.346,2.346,0,0,1,2.344-2.344H31.758A2.346,2.346,0,0,1,34.1,4.688v7.3a15.174,15.174,0,0,0-8.465,22.124l-2.022,6.068A1.172,1.172,0,0,0,25.1,41.659l6.068-2.022A15.429,15.429,0,0,0,34.1,40.962V55.313a2.346,2.346,0,0,1-2.344,2.344H26.484a1.172,1.172,0,1,0,0,2.344h5.273a4.693,4.693,0,0,0,4.688-4.687V41.533a14.938,14.938,0,0,0,2.344.186A15.234,15.234,0,1,0,36.445,11.43V4.688A4.693,4.693,0,0,0,31.758,0Zm7.031,13.594a12.891,12.891,0,1,1-6.854,23.769,1.171,1.171,0,0,0-1-.121l-4.359,1.453,1.453-4.359a1.172,1.172,0,0,0-.121-1A12.842,12.842,0,0,1,38.789,13.594Z" fill="#b19b78"/>
  </g>
</svg>
