<svg xmlns="http://www.w3.org/2000/svg" width="55" height="37.5" viewBox="0 0 55 37.5">
  <path id="love-letter" d="M51.25,11.25H8.75A6.25,6.25,0,0,0,2.5,17.5v25a6.25,6.25,0,0,0,6.25,6.25h42.5A6.25,6.25,0,0,0,57.5,42.5v-25a6.25,6.25,0,0,0-6.25-6.25Zm0,2.5a3.749,3.749,0,0,1,1.588.363L36.713,26a4.425,4.425,0,0,0-3.625-1.888A4.375,4.375,0,0,0,30,25.362a4.375,4.375,0,0,0-3.087-1.25A4.425,4.425,0,0,0,23.288,26L7.162,14.113A3.749,3.749,0,0,1,8.75,13.75ZM35,28.513a3.525,3.525,0,0,1-1.25,2.737L30,34.475,26.25,31.25A3.525,3.525,0,0,1,25,28.563a1.9,1.9,0,0,1,1.913-1.9,1.85,1.85,0,0,1,1.337.55l.862.863a1.25,1.25,0,0,0,1.775,0l.862-.863a1.85,1.85,0,0,1,1.338-.55A1.9,1.9,0,0,1,35,28.513ZM55,42.5a3.75,3.75,0,0,1-3.75,3.75H8.75A3.75,3.75,0,0,1,5,42.5v-25a3.75,3.75,0,0,1,.387-1.625L5.512,16,22.5,28.525A6.025,6.025,0,0,0,24.612,33.1l4.575,3.925a1.25,1.25,0,0,0,1.625,0L35.388,33.1A6.025,6.025,0,0,0,37.5,28.525l16.987-12.5a1.18,1.18,0,0,0,.125-.125A3.749,3.749,0,0,1,55,17.5Z" transform="translate(-2.5 -11.25)" fill="#b19b78"/>
</svg>
