<svg id="phone" xmlns="http://www.w3.org/2000/svg" width="25" height="25" viewBox="0 0 25 25">
  <path id="Path_46" data-name="Path 46" d="M12.5,16.94a.487.487,0,0,1-.327-.125,41.46,41.46,0,0,1-4.052-4.041,3.221,3.221,0,0,1-.583-2A2.9,2.9,0,0,1,8.4,8.864a2.743,2.743,0,0,1,1.933-.8,3.122,3.122,0,0,1,2.171,1.083A3.186,3.186,0,0,1,14.664,8.06a2.742,2.742,0,0,1,1.933.8,2.892,2.892,0,0,1,.86,1.908,3.18,3.18,0,0,1-.582,2,40.64,40.64,0,0,1-4.045,4.043A.487.487,0,0,1,12.5,16.94Zm-2.169-7.9a1.876,1.876,0,0,0-1.818,1.788,2.2,2.2,0,0,0,.423,1.411A35.467,35.467,0,0,0,12.5,15.793a35.937,35.937,0,0,0,3.555-3.557,2.211,2.211,0,0,0,.423-1.411,1.876,1.876,0,0,0-1.818-1.788c-.933,0-1.757,1.135-1.765,1.146a.488.488,0,0,1-.806-.011C12.072,10.141,11.311,9.037,10.335,9.037Z" fill="#b19b78"/>
  <path id="Path_47" data-name="Path 47" d="M18.9,15.711a.488.488,0,1,1,.48-.4A.493.493,0,0,1,18.9,15.711Z" fill="#b19b78"/>
  <path id="Path_48" data-name="Path 48" d="M18.9,13.514a.488.488,0,0,0,.488-.488v-9.9A3.128,3.128,0,0,0,16.26,0H8.739A3.128,3.128,0,0,0,5.615,3.124V21.876A3.128,3.128,0,0,0,8.739,25H16.26a3.128,3.128,0,0,0,3.124-3.124V17.422a.488.488,0,1,0-.977,0V20.9H6.592V3.612H18.407v9.413A.488.488,0,0,0,18.9,13.514Zm-.488,8.362h0a2.15,2.15,0,0,1-2.147,2.147H8.739a2.15,2.15,0,0,1-2.147-2.147H18.407ZM6.648,2.636A2.151,2.151,0,0,1,8.739.977H16.26a2.151,2.151,0,0,1,2.092,1.659Z" fill="#b19b78"/>
  <path id="Path_49" data-name="Path 49" d="M13.2,23.438H11.8a.488.488,0,0,1,0-.977H13.2a.488.488,0,0,1,0,.977Z" fill="#b19b78"/>
  <path id="Path_50" data-name="Path 50" d="M23.689,15.5a.488.488,0,0,1-.393-.777,3.752,3.752,0,0,0,0-4.44.488.488,0,0,1,.787-.578,4.728,4.728,0,0,1,0,5.6A.488.488,0,0,1,23.689,15.5Z" fill="#b19b78"/>
  <path id="Path_51" data-name="Path 51" d="M22.309,14.461a.488.488,0,0,1-.4-.773,2.041,2.041,0,0,0,0-2.377.488.488,0,1,1,.793-.569,3.017,3.017,0,0,1,0,3.515A.487.487,0,0,1,22.309,14.461Z" fill="#b19b78"/>
  <path id="Path_52" data-name="Path 52" d="M1.311,15.5a.488.488,0,0,1-.394-.2,4.728,4.728,0,0,1,0-5.6.488.488,0,0,1,.787.578,3.751,3.751,0,0,0,0,4.44.488.488,0,0,1-.393.777Z" fill="#b19b78"/>
  <path id="Path_53" data-name="Path 53" d="M2.69,14.461a.488.488,0,0,1-.4-.2,3.017,3.017,0,0,1,0-3.515.488.488,0,1,1,.793.569,2.041,2.041,0,0,0,0,2.377.488.488,0,0,1-.4.773Z" fill="#b19b78"/>
</svg>
