<svg xmlns="http://www.w3.org/2000/svg" width="49.776" height="45.947" viewBox="0 0 49.776 45.947">
  <g id="photography2" transform="translate(-0.112 -2.276)">
    <path id="Path_61" data-name="Path 61" d="M38.105,28.418a4.277,4.277,0,0,0-6.052,0l-1.31,1.31-1.31-1.31a4.279,4.279,0,1,0-6.052,6.052l6.685,6.685a.957.957,0,0,0,1.354,0l6.685-6.685a4.279,4.279,0,0,0,0-6.052Zm-1.354,4.7-6.008,6.008-6.008-6.008a2.365,2.365,0,1,1,3.344-3.344l1.987,1.987a.958.958,0,0,0,1.354,0l1.987-1.987a2.364,2.364,0,0,1,3.344,0h0a2.365,2.365,0,0,1,0,3.344Z" fill="#615e5e"/>
    <path id="Path_62" data-name="Path 62" d="M44.049,8.977H42L40.279,2.971a.957.957,0,0,0-.92-.694H24.043a.957.957,0,0,0-.92.694L21.406,8.977H17.342V6.105a.957.957,0,0,0-.957-.957h-6.7a.957.957,0,0,0-.957.957V8.977H5.951A5.846,5.846,0,0,0,.112,14.816V35.684a5.846,5.846,0,0,0,5.839,5.839H18.6a14.349,14.349,0,0,0,24.281,0h1.165a5.846,5.846,0,0,0,5.839-5.839V14.816a5.846,5.846,0,0,0-5.839-5.839ZM24.765,4.191H38.637L40,8.977H23.4ZM10.641,7.063h4.786V8.977H10.641Zm20.1,39.247A12.444,12.444,0,1,1,43.188,33.865,12.458,12.458,0,0,1,30.743,46.309Zm17.23-10.625a3.929,3.929,0,0,1-3.925,3.925H43.9a14.359,14.359,0,1,0-26.317,0H5.951a3.929,3.929,0,0,1-3.925-3.925V23.336H14.47a.957.957,0,1,0,0-1.914H2.026V18.549H20.214a.957.957,0,0,0,0-1.914H2.026V14.816a3.929,3.929,0,0,1,3.925-3.925h38.1a3.929,3.929,0,0,1,3.925,3.925Z" fill="#615e5e"/>
  </g>
</svg>
