<svg xmlns="http://www.w3.org/2000/svg" xmlns:xlink="http://www.w3.org/1999/xlink" width="50" height="50" viewBox="0 0 50 50">
  <defs>
    <clipPath id="clip-path">
      <rect id="Rectangle_3" data-name="Rectangle 3" width="50" height="50" transform="translate(0 0.25)" fill="#fff"/>
    </clipPath>
  </defs>
  <g id="pinned-notes" transform="translate(0 -0.25)" clip-path="url(#clip-path)">
    <path id="Path_63" data-name="Path 63" d="M20.833,24.907a1.189,1.189,0,0,0,.833.343,1.207,1.207,0,0,0,.84-.333l6.116-5.983a4.56,4.56,0,0,0,0-6.533A4.823,4.823,0,0,0,22,12.4l-.329.311-.326-.32a4.823,4.823,0,0,0-6.627,0,4.556,4.556,0,0,0,0,6.536ZM15.882,13.583a3.207,3.207,0,0,1,4.294,0l.908.89a.833.833,0,0,0,1.167,0l.91-.89a3.208,3.208,0,0,1,4.3,0,2.894,2.894,0,0,1,0,4.153l-5.79,5.66L15.88,17.735a2.888,2.888,0,0,1,0-4.153Z" fill="#615e5e"/>
    <path id="Path_64" data-name="Path 64" d="M2.5,50.25H40.833a2.5,2.5,0,0,0,2.5-2.5V15.2A7.5,7.5,0,1,0,35.05,6.917H2.5A2.5,2.5,0,0,0,0,9.417V47.75a2.5,2.5,0,0,0,2.5,2.5Zm38.333-1.667H2.5a.833.833,0,0,1-.833-.833v-.987a2.478,2.478,0,0,0,.833.153H30.833a.834.834,0,0,0,.589-.244L41.667,36.428V47.75a.833.833,0,0,1-.833.833Zm-9.167-4.512V36.083a.833.833,0,0,1,.833-.833h7.988ZM42.5,1.917a5.84,5.84,0,1,1-4.123,1.71A5.833,5.833,0,0,1,42.5,1.917ZM1.667,9.417A.833.833,0,0,1,2.5,8.583H35.05A7.51,7.51,0,0,0,41.667,15.2V33.583H32.5a2.5,2.5,0,0,0-2.5,2.5V45.25H2.5a.833.833,0,0,1-.833-.833Z" fill="#615e5e"/>
    <path id="Path_65" data-name="Path 65" d="M5.833,29.417H37.5a.833.833,0,1,0,0-1.667H5.833a.833.833,0,0,0,0,1.667Z" fill="#615e5e"/>
    <path id="Path_66" data-name="Path 66" d="M5.833,35.25H24.167a.833.833,0,0,0,0-1.667H5.833a.833.833,0,0,0,0,1.667Z" fill="#615e5e"/>
    <path id="Path_67" data-name="Path 67" d="M5.833,41.083H21.667a.833.833,0,0,0,0-1.667H5.833a.833.833,0,1,0,0,1.667Z" fill="#615e5e"/>
  </g>
</svg>
