<svg xmlns="http://www.w3.org/2000/svg" width="50" height="35.086" viewBox="0 0 50 35.086">
  <g id="romantic-dinner_" data-name="romantic-dinner " transform="translate(0 -7.672)">
    <path id="Path_83" data-name="Path 83" d="M46.875,34.673v-.891a21.786,21.786,0,0,0-3.584-12,.977.977,0,0,0-1.632,1.073,19.837,19.837,0,0,1,3.263,10.929v.773H5.078v-.773A19.923,19.923,0,0,1,36.95,17.84a.977.977,0,0,0,1.173-1.562,21.655,21.655,0,0,0-9.8-4.122V10.992a3.32,3.32,0,1,0-6.641,0v1.164A21.884,21.884,0,0,0,3.125,33.782v.891A4.1,4.1,0,0,0,4.1,42.758H6.543a.977.977,0,0,0,0-1.953H4.1a2.148,2.148,0,1,1,0-4.3H45.9a2.148,2.148,0,1,1,0,4.3H15.161a.977.977,0,0,0,0,1.953H45.9a4.1,4.1,0,0,0,.977-8.084ZM23.633,10.992a1.367,1.367,0,0,1,2.734,0v.956q-.68-.042-1.367-.042c-.458,0-.914.016-1.367.043Z" fill="#615e5e"/>
    <path id="Path_84" data-name="Path 84" d="M11.1,40.8a.977.977,0,1,0,.69.286A.982.982,0,0,0,11.1,40.8Z" fill="#615e5e"/>
    <path id="Path_85" data-name="Path 85" d="M39.607,20.234a.977.977,0,1,0,1.417-1.344l-.008-.008a.977.977,0,0,0-1.424,1.337l.015.016Z" fill="#615e5e"/>
    <path id="Path_86" data-name="Path 86" d="M25,21.119a3.991,3.991,0,0,0-2.243-.7,4.136,4.136,0,0,0-4.064,4.195c0,3.474,5.24,6.448,5.837,6.775a.978.978,0,0,0,.939,0c.6-.328,5.837-3.3,5.837-6.775a4.136,4.136,0,0,0-4.064-4.195A3.991,3.991,0,0,0,25,21.119Zm4.354,3.5c0,1.614-2.5,3.672-4.352,4.79-1.5-.917-4.356-3.025-4.356-4.79a2.182,2.182,0,0,1,2.111-2.242,2.036,2.036,0,0,1,1.52.687.977.977,0,0,0,1.446,0,2.037,2.037,0,0,1,1.52-.687A2.182,2.182,0,0,1,29.354,24.617Z" fill="#615e5e"/>
  </g>
</svg>
