<svg xmlns="http://www.w3.org/2000/svg" xmlns:xlink="http://www.w3.org/1999/xlink" width="16" height="16" viewBox="0 0 16 16">
  <defs>
    <clipPath id="clip-path">
      <rect id="Rectangle_7" data-name="Rectangle 7" width="16" height="16" fill="#fff"/>
    </clipPath>
  </defs>
  <g id="sakura" clip-path="url(#clip-path)">
    <path id="Path_25" data-name="Path 25" d="M15.3,5.864a2.13,2.13,0,0,0-.052-1.113,2.206,2.206,0,0,0-2.781-1.417,6.292,6.292,0,0,0-1.366.635,6.292,6.292,0,0,0,.182-1.5A2.209,2.209,0,0,0,9.075.266,2.13,2.13,0,0,0,8,.561,2.13,2.13,0,0,0,6.927.266,2.209,2.209,0,0,0,4.72,2.473a6.29,6.29,0,0,0,.182,1.5,6.291,6.291,0,0,0-1.366-.635A2.205,2.205,0,0,0,.756,4.75,2.129,2.129,0,0,0,.7,5.864a2.209,2.209,0,0,0,.8,3.71,6.29,6.29,0,0,0,1.479.289,6.289,6.289,0,0,0-1.026,1.1,2.205,2.205,0,0,0,.488,3.082,2.129,2.129,0,0,0,1.042.393,2.131,2.131,0,0,0,.7.869,2.205,2.205,0,0,0,3.082-.488A6.291,6.291,0,0,0,8,13.506a6.292,6.292,0,0,0,.732,1.317,2.206,2.206,0,0,0,3.082.488,2.13,2.13,0,0,0,.7-.869,2.129,2.129,0,0,0,1.042-.393,2.205,2.205,0,0,0,.488-3.082,6.292,6.292,0,0,0-1.026-1.1,6.291,6.291,0,0,0,1.479-.289A2.212,2.212,0,0,0,15.3,5.864ZM8,9.64A1.406,1.406,0,1,1,9.407,8.234,1.408,1.408,0,0,1,8,9.64ZM6.927,1.2a1.263,1.263,0,0,1,.782.29.469.469,0,0,0,.584,0,1.251,1.251,0,0,1,2.051.979A5.622,5.622,0,0,1,8.971,6.1a2.322,2.322,0,0,0-.5-.164V3.547a.469.469,0,1,0-.937,0V5.938a2.325,2.325,0,0,0-.5.164A5.652,5.652,0,0,1,5.658,2.473,1.271,1.271,0,0,1,6.927,1.2ZM1.8,8.683a1.267,1.267,0,0,1-.3-2.253.469.469,0,0,0,.181-.556A1.251,1.251,0,0,1,3.246,4.225,5.623,5.623,0,0,1,6.273,6.653a2.356,2.356,0,0,0-.31.426L3.689,6.34a.469.469,0,1,0-.29.891l2.274.739a2.292,2.292,0,0,0,0,.527A5.651,5.651,0,0,1,1.8,8.683Zm4.713,5.59a1.251,1.251,0,0,1-2.235-.413.469.469,0,0,0-.473-.344,1.251,1.251,0,0,1-1.084-2A5.623,5.623,0,0,1,5.963,9.389a2.356,2.356,0,0,0,.31.426L4.867,11.75a.469.469,0,1,0,.758.551l1.406-1.935a2.326,2.326,0,0,0,.5.164A5.649,5.649,0,0,1,6.511,14.272Zm6.772-2.755a1.25,1.25,0,0,1-1.084,2,.468.468,0,0,0-.473.344,1.251,1.251,0,0,1-2.235.413A5.62,5.62,0,0,1,8.47,10.53a2.319,2.319,0,0,0,.5-.164L10.377,12.3a.469.469,0,0,0,.758-.551L9.729,9.815a2.355,2.355,0,0,0,.31-.426A5.652,5.652,0,0,1,13.283,11.517ZM14.2,8.683A5.623,5.623,0,0,1,10.329,8.5a2.291,2.291,0,0,0,0-.527L12.6,7.232a.469.469,0,1,0-.29-.891l-2.275.739a2.357,2.357,0,0,0-.31-.426,5.653,5.653,0,0,1,3.027-2.428,1.251,1.251,0,0,1,1.565,1.648.469.469,0,0,0,.181.556A1.27,1.27,0,0,1,14.2,8.683Z" fill="#b19b78"/>
  </g>
</svg>
