<svg xmlns="http://www.w3.org/2000/svg" width="20" height="20" viewBox="0 0 20 20">
  <path id="search-icon" d="M19.81,18.912l-5.164-5.081a8.168,8.168,0,0,0,2.183-5.55A8.349,8.349,0,0,0,8.415,0,8.348,8.348,0,0,0,0,8.281a8.348,8.348,0,0,0,8.414,8.281,8.463,8.463,0,0,0,5.3-1.849l5.184,5.1a.654.654,0,0,0,.915,0A.63.63,0,0,0,19.81,18.912Zm-11.4-3.625a7.064,7.064,0,0,1-7.12-7.007,7.064,7.064,0,0,1,7.12-7.007,7.064,7.064,0,0,1,7.12,7.007A7.064,7.064,0,0,1,8.415,15.287Z" transform="translate(0)" fill="#1c2836"/>
</svg>
