<svg xmlns="http://www.w3.org/2000/svg" xmlns:xlink="http://www.w3.org/1999/xlink" width="98.4" height="29.512" viewBox="0 0 98.4 29.512">
  <defs>
    <clipPath id="clip-path">
      <rect id="Rectangle_6" data-name="Rectangle 6" width="98.4" height="29.512" transform="translate(0.717)" fill="#fff"/>
    </clipPath>
  </defs>
  <g id="Spotify-logo" transform="translate(-0.717)" clip-path="url(#clip-path)">
    <path id="Path_24" data-name="Path 24" d="M15.473,0A14.756,14.756,0,1,0,21.12,1.123,14.756,14.756,0,0,0,15.473,0ZM22.24,21.282a.919.919,0,0,1-1.265.3c-3.465-2.116-7.826-2.6-12.963-1.422A.92.92,0,1,1,7.6,18.366c5.621-1.284,10.443-.731,14.332,1.646a.92.92,0,0,1,.305,1.27Zm1.806-4.018a1.151,1.151,0,0,1-1.582.38,19.368,19.368,0,0,0-14.7-1.721,1.15,1.15,0,1,1-.673-2.2,21.528,21.528,0,0,1,16.573,1.96,1.15,1.15,0,0,1,.379,1.582ZM24.2,13.08c-4.756-2.825-12.6-3.085-17.143-1.706a1.38,1.38,0,1,1-.8-2.641c5.212-1.582,13.877-1.277,19.353,1.974A1.38,1.38,0,1,1,24.2,13.081Zm16.663.543c-2.548-.608-3-1.034-3-1.93,0-.847.8-1.416,1.982-1.416A5.791,5.791,0,0,1,43.328,11.6a.168.168,0,0,0,.236-.037l1.244-1.754a.167.167,0,0,0-.032-.227,7.528,7.528,0,0,0-4.893-1.7c-2.751,0-4.673,1.651-4.673,4.013,0,2.533,1.658,3.43,4.523,4.122,2.437.562,2.849,1.032,2.849,1.873,0,.932-.832,1.512-2.171,1.512a5.86,5.86,0,0,1-4.058-1.676.173.173,0,0,0-.122-.041.165.165,0,0,0-.115.058l-1.4,1.66a.168.168,0,0,0,.016.233,8.315,8.315,0,0,0,5.618,2.153c2.964,0,4.879-1.619,4.879-4.127.005-2.116-1.262-3.288-4.365-4.042h0ZM51.94,11.11a4,4,0,0,0-3.209,1.543V11.485a.164.164,0,0,0-.012-.064.166.166,0,0,0-.154-.1H46.284a.166.166,0,0,0-.166.167V24.454a.167.167,0,0,0,.166.167h2.28a.167.167,0,0,0,.166-.167V20.361a4.1,4.1,0,0,0,3.209,1.452c2.388,0,4.805-1.838,4.805-5.351s-2.414-5.353-4.8-5.353Zm2.152,5.352a2.75,2.75,0,0,1-2.68,3.038,2.835,2.835,0,0,1-2.737-3.038,2.835,2.835,0,0,1,2.737-3.039,2.78,2.78,0,0,1,2.68,3.037Zm8.847-5.352a5.379,5.379,0,1,0,2.078.383A5.363,5.363,0,0,0,62.939,11.11Zm0,8.408a2.9,2.9,0,0,1-2.869-3.056A2.834,2.834,0,0,1,62.9,13.443,2.91,2.91,0,0,1,65.788,16.5a2.84,2.84,0,0,1-2.849,3.018Zm12.03-8.2H72.458V8.751a.164.164,0,0,0-.012-.064.166.166,0,0,0-.154-.1H70.011a.168.168,0,0,0-.167.167v2.567h-1.1a.166.166,0,0,0-.166.167v1.961a.167.167,0,0,0,.166.167h1.1v5.074c0,2.049,1.02,3.089,3.034,3.089a4.156,4.156,0,0,0,2.136-.532A.163.163,0,0,0,75.1,21.1V19.231a.166.166,0,0,0-.079-.141.162.162,0,0,0-.162-.007,2.881,2.881,0,0,1-1.339.322c-.731,0-1.059-.333-1.059-1.077V13.614h2.511a.166.166,0,0,0,.154-.1.164.164,0,0,0,.012-.064v-1.96a.162.162,0,0,0-.164-.167Zm8.747.01v-.315c0-.927.356-1.341,1.152-1.341a3.855,3.855,0,0,1,1.286.237.166.166,0,0,0,.219-.159V7.823a.165.165,0,0,0-.118-.16,6.25,6.25,0,0,0-1.9-.272c-2.106,0-3.221,1.187-3.221,3.43V11.3h-1.1a.168.168,0,0,0-.167.167v1.971a.168.168,0,0,0,.167.167h1.1v7.825a.167.167,0,0,0,.167.167h2.28a.166.166,0,0,0,.167-.167v-7.82h2.13l3.263,7.824c-.37.821-.735.985-1.232.985a2.619,2.619,0,0,1-1.258-.358.182.182,0,0,0-.132-.012.166.166,0,0,0-.1.09l-.774,1.7a.167.167,0,0,0,.072.217,4.8,4.8,0,0,0,2.435.624c1.685,0,2.617-.786,3.436-2.9l3.966-10.228a.167.167,0,0,0-.153-.228H93.025a.167.167,0,0,0-.159.112l-2.433,6.949-2.669-6.953a.166.166,0,0,0-.155-.107H83.716Zm-5.071-.01H76.364a.168.168,0,0,0-.167.167v9.952a.167.167,0,0,0,.049.118.169.169,0,0,0,.054.036.167.167,0,0,0,.064.013h2.282a.167.167,0,0,0,.167-.167V11.486a.167.167,0,0,0-.167-.167ZM77.517,6.786a1.636,1.636,0,1,0,.626.125A1.636,1.636,0,0,0,77.517,6.786ZM97.5,14.523a1.6,1.6,0,1,1,.62-.119A1.61,1.61,0,0,1,97.5,14.523Zm.009-3.06a1.436,1.436,0,1,0,1.329.893,1.436,1.436,0,0,0-1.329-.893Zm.356,1.61.455.636h-.384l-.409-.583h-.351v.583h-.321V12.023h.751c.393,0,.65.2.65.538a.5.5,0,0,1-.389.512Zm-.271-.76h-.418v.533H97.6c.208,0,.333-.1.333-.267s-.126-.271-.334-.271Z" fill="#c5c4c0"/>
  </g>
</svg>
