<svg xmlns="http://www.w3.org/2000/svg" xmlns:xlink="http://www.w3.org/1999/xlink" width="35" height="47.25" viewBox="0 0 35 47.25">
  <defs>
    <clipPath id="clip-path">
      <rect id="Rectangle_1" data-name="Rectangle 1" width="35" height="47.25" fill="#fff"/>
    </clipPath>
  </defs>
  <g id="title-logo" clip-path="url(#clip-path)">
    <path id="Path_1" data-name="Path 1" d="M18.125,17.538A15.026,15.026,0,0,0,7.5,21.871a14.843,14.843,0,0,0,0,21.046,15.193,15.193,0,0,0,21.25,0,14.843,14.843,0,0,0,0-21.046l-.521-.516c-.521.722-1.146,1.341-1.771,2.063.1.1.313.206.417.413a12.122,12.122,0,0,1,0,17.126,12.409,12.409,0,0,1-17.292,0,12.122,12.122,0,0,1,0-17.126,12.353,12.353,0,0,1,8.646-3.508,10.592,10.592,0,0,1,2.6.309,21.545,21.545,0,0,0,2.188-2.167A11.2,11.2,0,0,0,18.125,17.538Z" fill="#fcd7b6"/>
    <path id="Path_2" data-name="Path 2" d="M18.125,8.666A6.606,6.606,0,0,0,12.4,6.706,7.1,7.1,0,0,0,8.125,8.872a6.441,6.441,0,0,0-1.667,4.849,12.056,12.056,0,0,0,1.771,5.261,17.15,17.15,0,0,1,2.292-1.444,7.369,7.369,0,0,1-1.354-3.92,4.047,4.047,0,0,1,1.042-2.992,4.567,4.567,0,0,1,2.5-1.341,4.146,4.146,0,0,1,4.167,2.166,1.25,1.25,0,0,0,.521.516,1.365,1.365,0,0,0,1.875-.413l-1.146-.722,1.146.722a4.146,4.146,0,0,1,4.167-2.166,4,4,0,0,1,2.5,1.341,4.527,4.527,0,0,1,1.042,2.992c-.1,2.785-2.4,6.706-8.958,11.039-1.146-.825-2.187-1.547-3.125-2.27a12.842,12.842,0,0,0-2.708,1.238,44.225,44.225,0,0,0,5,3.817,1.259,1.259,0,0,0,1.563-.1c7.813-5.055,10.625-10.007,10.833-13.618a6.6,6.6,0,0,0-5.937-7.015A6.033,6.033,0,0,0,18.125,8.666Z" fill="#f99"/>
    <path id="Path_3" data-name="Path 3" d="M32.813,16.4a1.861,1.861,0,0,1,1.042.413,1.318,1.318,0,0,1,.417,1.032,1.824,1.824,0,0,1-.417,1.032,1.344,1.344,0,0,1-1.042.413,1.861,1.861,0,0,1-1.042-.413,1.318,1.318,0,0,1-.417-1.032,1.824,1.824,0,0,1,.417-1.032A1.6,1.6,0,0,1,32.813,16.4Zm.417,1.032a.8.8,0,0,0-.521-.206c-.208,0-.312.1-.521.206a.784.784,0,0,0-.208.516c0,.206.1.31.208.516s.313.206.521.206.313-.1.521-.206a.743.743,0,0,0,0-1.032Z" fill="#9cc"/>
    <path id="Path_4" data-name="Path 4" d="M33.958,7.325a.417.417,0,0,0-.833,0v.722H32.4a.413.413,0,1,0,0,.825h.729v.722a.417.417,0,0,0,.833,0V8.769h.729a.413.413,0,1,0,0-.825h-.729Z" fill="#fc9"/>
    <path id="Path_5" data-name="Path 5" d="M8.542.1A1.861,1.861,0,0,1,9.583.516,1.191,1.191,0,0,1,10,1.547a1.823,1.823,0,0,1-.417,1.032,1.214,1.214,0,0,1-1.042.413A1.861,1.861,0,0,1,7.5,2.579a1.191,1.191,0,0,1-.417-1.032A1.823,1.823,0,0,1,7.5.516,1.214,1.214,0,0,1,8.542.1Zm.521,1.032C8.958.928,8.75.928,8.542.928s-.312,0-.417.206a.534.534,0,0,0-.208.413c0,.206.1.309.208.516a.543.543,0,0,0,.417.206c.208,0,.313-.1.521-.206a.784.784,0,0,0,.208-.516A.534.534,0,0,0,9.063,1.135Z" fill="#fc9"/>
    <path id="Path_6" data-name="Path 6" d="M3.75,9.079a.446.446,0,0,0-.417-.413.446.446,0,0,0-.417.413V9.8H2.188a.413.413,0,1,0,0,.825h.729v.722a.446.446,0,0,0,.417.413.446.446,0,0,0,.417-.413v-.722h.729a.413.413,0,1,0,0-.825H3.75Z" fill="#f99"/>
    <path id="Path_7" data-name="Path 7" d="M19.583,2.579a.417.417,0,0,0-.833,0V3.3h-.729a.446.446,0,0,0-.417.413c.1.206.208.413.521.413h.625v.722c0,.206.208.309.417.309a.446.446,0,0,0,.417-.413V4.127h.729a.446.446,0,0,0,.417-.413.446.446,0,0,0-.417-.413h-.729Z" fill="#9cc"/>
    <path id="Path_8" data-name="Path 8" d="M30.417,0a1.861,1.861,0,0,1,1.042.413,1.318,1.318,0,0,1,.417,1.032,1.823,1.823,0,0,1-.417,1.032,1.344,1.344,0,0,1-1.042.413,1.861,1.861,0,0,1-1.042-.413,1.318,1.318,0,0,1-.417-1.032A1.824,1.824,0,0,1,29.375.413,1.861,1.861,0,0,1,30.417,0Zm.521,1.032a.8.8,0,0,0-.521-.206c-.208,0-.312.1-.521.206a.784.784,0,0,0-.208.516c0,.206.1.309.208.516.208,0,.313.1.521.1s.313-.1.521-.206a.784.784,0,0,0,.208-.516A.534.534,0,0,0,30.938,1.032Z" fill="#f99"/>
    <path id="Path_9" data-name="Path 9" d="M1.458,19.086A1.86,1.86,0,0,1,2.5,19.5a1.318,1.318,0,0,1,.417,1.032A1.823,1.823,0,0,1,2.5,21.562a1.344,1.344,0,0,1-1.042.413,1.861,1.861,0,0,1-1.042-.413A1.318,1.318,0,0,1,0,20.53,1.823,1.823,0,0,1,.417,19.5,1.86,1.86,0,0,1,1.458,19.086Zm.521,1.032a.8.8,0,0,0-.521-.206c-.208,0-.312.1-.521.206a.784.784,0,0,0-.208.516c0,.206.1.309.208.516a.8.8,0,0,0,.521.206c.208,0,.313-.1.521-.206a.743.743,0,0,0,0-1.032Z" fill="#9cc"/>
  </g>
</svg>
