<svg xmlns="http://www.w3.org/2000/svg" xmlns:xlink="http://www.w3.org/1999/xlink" width="50" height="50" viewBox="0 0 50 50">
  <defs>
    <clipPath id="clip-path">
      <rect id="Rectangle_2" data-name="Rectangle 2" width="50" height="50" transform="translate(0 0.5)" fill="#fff"/>
    </clipPath>
  </defs>
  <g id="toast" transform="translate(0 -0.5)" clip-path="url(#clip-path)">
    <path id="Path_48" data-name="Path 48" d="M41.865,31.3a9.6,9.6,0,0,0,8.1-10.29L48.236.5H32.563L31.469,13.48A8.414,8.414,0,0,0,24.9,14.885a8.41,8.41,0,0,0-6.376-1.441L17.437.5H1.763L.034,21.012a9.6,9.6,0,0,0,8.1,10.29V47.57H2.267V50.5H16.933V47.57H11.064V31.3a9.579,9.579,0,0,0,4.711-2.137l9.128,9.12,9.216-9.208A9.551,9.551,0,0,0,38.935,31.3V47.57H33.067V50.5H47.733V47.57H41.865ZM45.543,3.43l.351,4.162H34.905l.351-4.162ZM34.658,10.521H46.141l.906,10.737A6.669,6.669,0,0,1,36.181,26.98a8.17,8.17,0,0,0-.444-11.214,8.389,8.389,0,0,0-1.425-1.142ZM14.743,3.43l.351,4.162H4.105L4.456,3.43ZM4.688,26.329a6.594,6.594,0,0,1-1.735-5.071l.905-10.737H15.341l.336,3.99a8.382,8.382,0,0,0-1.608,1.255,8.171,8.171,0,0,0-.365,11.3,6.668,6.668,0,0,1-9.017-.741Zm11.453-.941a5.254,5.254,0,0,1,0-7.55,5.474,5.474,0,0,1,7.728,0L24.9,18.872l1.035-1.035a5.474,5.474,0,0,1,7.728,0,5.255,5.255,0,0,1,0,7.55L24.9,34.144Z" fill="#b19b78"/>
  </g>
</svg>
