<svg xmlns="http://www.w3.org/2000/svg" width="132.371" height="182.999" viewBox="0 0 132.371 182.999">
  <g id="vector-leaf" transform="translate(-914.614 -27.246)">
    <path id="Path_2" data-name="Path 2" d="M932.054,27.563c-.064.321.386.9.868,1.157.289.128.45.289.386.418-.129.225.481,1.253.963,1.606.193.161.322.386.29.514a6.955,6.955,0,0,0,.771,1.767c1.124,2.056,1.8,3.342,2.442,4.691.578,1.221,1.221,2.378,3.116,5.751.675,1.221,1.253,2.281,1.253,2.378a55.128,55.128,0,0,0,3.277,6.49c.611,1.092,1.157,2.089,1.221,2.153.065.1.482.739.964,1.414.868,1.285,1.446,1.8.868.771a20.426,20.426,0,0,1-1.542-3.117,24.4,24.4,0,0,0-1.221-2.6c-.482-.9-1.253-2.506-1.735-3.566a76.5,76.5,0,0,0-3.567-7c-1.028-1.9-2.185-4.016-2.6-4.787a33.917,33.917,0,0,0-3.5-5.526.431.431,0,0,1-.258-.418c0-.193.033-.289.1-.289a14.981,14.981,0,0,1,2.313,2.056,6.585,6.585,0,0,0,1.189,1.06c.289.161.546.418.546.546a3.369,3.369,0,0,0,.868.9c.45.353,1.06.9,1.349,1.189.289.321.771.835,1.093,1.157.739.739,2.988,3.02,3.213,3.277s1.188,1.414,2.281,2.8c.514.643,1.478,1.831,2.153,2.667,4.594,5.623,6.233,7.775,6.233,8.064a10.223,10.223,0,0,0,1.285,1.767,83.9,83.9,0,0,1,8.514,14.1c.482,1,1.029,2.153,1.253,2.57,1.157,2.345,2.121,4.4,2.86,6.137.45,1.06,1.028,2.345,1.285,2.86a13.186,13.186,0,0,1,.707,1.639,36.872,36.872,0,0,0,1.51,3.823,27.324,27.324,0,0,1,1,2.827c.322,1,.739,2.185.932,2.667s.482,1.253.61,1.735a2.766,2.766,0,0,0,.418,1,1.821,1.821,0,0,1,.386.9,49.293,49.293,0,0,0,2.538,6.362,5.933,5.933,0,0,1,.289.9,14.6,14.6,0,0,0,.9,2.057,9.3,9.3,0,0,1,.771,1.8,10.73,10.73,0,0,0,1.092,2.892,4.914,4.914,0,0,1,.547,1.735,6.419,6.419,0,0,0,.642,2.088,10.611,10.611,0,0,1,.707,1.992,6.619,6.619,0,0,1-1.253-1.606c-.675-1-1.574-2.153-1.96-2.635-.418-.482-1.028-1.189-1.349-1.639a7.688,7.688,0,0,0-.772-.9c-.739-.386-10.474-16.29-15.936-26.057-.418-.739-1.382-2.442-2.121-3.791s-1.7-3.085-2.152-3.888c-2.024-3.727-2.763-4.98-3.117-5.237q-.338-.289-.193-.289c.129,0-.1-.45-.482-1.125a9.6,9.6,0,0,1-.771-1.478,1.293,1.293,0,0,0-.45-.578c-.224-.129-.321-.289-.257-.418.161-.289-.257-.868-.449-.61-.1.128.1.61.674,1.574a5.94,5.94,0,0,1,.739,1.574,14.763,14.763,0,0,0,1.414,2.892,30.414,30.414,0,0,1,1.51,2.892,25.482,25.482,0,0,0,1.446,2.731c.8,1.382,1.51,2.731,1.606,2.956s1,1.9,2.057,3.727c1.028,1.831,2.12,3.727,2.41,4.241s1.06,1.831,1.7,2.86,1.221,2.024,1.318,2.217c1.606,2.827,10.024,16.482,10.313,16.74.257.257.322.385.161.385a.6.6,0,0,1-.418-.289,28.362,28.362,0,0,0-2.988-2.795,4.328,4.328,0,0,1-.707-.643c-1.381-1.574-1.9-2.121-2.12-2.153a1.431,1.431,0,0,1-.546-.546,1.44,1.44,0,0,0-.547-.546,5.643,5.643,0,0,1-1.028-.964,2.923,2.923,0,0,0-1-.9c-.128,0-.482-.353-.835-.8a14.07,14.07,0,0,0-2.249-2.506,20.021,20.021,0,0,1-1.671-1.8,16.128,16.128,0,0,0-1.125-1.253,5.356,5.356,0,0,1-.835-.9c-.546-.739-2.217-2.8-3.084-3.791a14.132,14.132,0,0,1-1-1.253c-.1-.193-.836-1.157-1.607-2.153-1.7-2.153-5.269-7.294-6.908-9.928a88.74,88.74,0,0,1-4.755-8.579,1.283,1.283,0,0,0-.45-.707,1.215,1.215,0,0,1-.385-.578,9.147,9.147,0,0,0-1.029-2.6,7.838,7.838,0,0,1-1.092-2.731,25.516,25.516,0,0,0-1.735-4.627.872.872,0,0,1-.161-.578,5.471,5.471,0,0,0-.674-2.185,4.7,4.7,0,0,1-.322-1.189,5.585,5.585,0,0,0-.707-2.346c-.1-.032-.16-.161-.128-.353a16.945,16.945,0,0,0-1.189-4.177c-.193-.353-.257-.643-.161-.707s.129-.353.033-.61-.225-.707-.29-.964-.257-.9-.449-1.446a5.842,5.842,0,0,1-.354-1.606,7.894,7.894,0,0,0-.385-1.735A12.677,12.677,0,0,1,934.3,36.4c-.129-1.028-.547-2.024-.707-1.7a3.138,3.138,0,0,0,.1.964,4.442,4.442,0,0,1,.161.932,6.063,6.063,0,0,0,.546,2.217c.225.1.45,1.285.289,1.382-.064.032-.032.193.064.386s.129.353.065.385c-.161.1.192,1.446.482,1.928.128.225.192.482.128.578s0,.354.1.546a3.72,3.72,0,0,1,.29,1.157,3.289,3.289,0,0,0,.192,1c.1.193.836,3.149,1.543,6.137.16.643.417,1.478.578,1.928a12.133,12.133,0,0,1,.546,1.735,26.484,26.484,0,0,0,1.542,4.5,1.107,1.107,0,0,1,.225.675,8.371,8.371,0,0,0,1,2.956,12.279,12.279,0,0,1,.8,1.992,2.639,2.639,0,0,0,.674,1.285.88.88,0,0,1,.386.675c-.1.675,4.337,8.45,7.229,12.723.707,1.028,1.735,2.57,2.281,3.341a113.615,113.615,0,0,0,7.872,9.992c.193.225.707.835,1.157,1.35s1.285,1.414,1.863,1.992,1.414,1.478,1.864,1.992,1.221,1.285,1.735,1.767,1.317,1.221,1.8,1.7,1.061,1,1.253,1.156a14.169,14.169,0,0,1,1.286,1.253c.514.547,1.767,1.7,2.8,2.635,1.028.9,2.41,2.121,3.052,2.667a11.088,11.088,0,0,0,1.382,1.092.994.994,0,0,1,.385.354,6.55,6.55,0,0,0,.707.771c.289.257.9.835,1.382,1.285s1.124,1.028,1.51,1.349c.739.611,1.8,1.992,4.466,5.784,2.667,3.823,4.434,6.2,5.237,7.165.8.931,3.534,4.5,4.82,6.233,1.028,1.414,1.381,1.9,3.115,4.048.77.964,2.38,3.181,3.57,4.948s2.47,3.6,2.86,4.081.74,1,.83,1.124c.55.836,5.79,9.864,6.33,10.956.81,1.575,2.51,4.948,2.77,5.527.09.225.54,1.189.96,2.088a56.568,56.568,0,0,1,2.92,7.294,25.256,25.256,0,0,0,.84,2.538,24.057,24.057,0,0,1,.96,3.149,4.983,4.983,0,0,0,.39,1.381c.19.354.19.354-.13.129a2.637,2.637,0,0,1-.64-.675,20.662,20.662,0,0,0-2.77-2.667,22.762,22.762,0,0,1-2.18-2.056,19.709,19.709,0,0,0-1.93-1.7c-1.09-.9-2.02-1.735-2.15-1.9a7.648,7.648,0,0,0-2.12-1.7.885.885,0,0,1-.45-.353,1.776,1.776,0,0,0-.48-.482c-.16-.1-.97-.675-1.77-1.253a15.63,15.63,0,0,0-1.8-1.189,5.031,5.031,0,0,1-1.64-1.092c-.1-.129-2.38-1.639-5.108-3.374-7.582-4.755-8.064-5.205-11.374-10.281-.835-1.253-1.831-2.731-2.217-3.278-.385-.514-1.253-1.8-1.928-2.763a15.9,15.9,0,0,0-1.381-1.895,17.337,17.337,0,0,1-1.478-2.153,14.025,14.025,0,0,0-1.7-2.378,8.838,8.838,0,0,1-1.06-1.285c-.354-.546-.9-1.285-1.189-1.638s-.771-1-1.093-1.382a17.756,17.756,0,0,0-1.317-1.574,41.767,41.767,0,0,1-2.8-3.792c-.1-.128-.45-.514-.836-.9a7.174,7.174,0,0,1-1.156-1.446,18.311,18.311,0,0,0-1.639-2.121,17.443,17.443,0,0,1-1.349-1.671c-.161-.289-.868-1.092-3.374-4.08a7.056,7.056,0,0,0-.9-.964,12,12,0,0,1-1.028-1.285,7.722,7.722,0,0,0-.964-1.189,7.421,7.421,0,0,1-1-1.253,11.928,11.928,0,0,0-1.445-1.671,5.083,5.083,0,0,1-.964-1.092,7.431,7.431,0,0,0-.932-1.157c-1.7-1.735-2.988-3.116-3.5-3.759-1.028-1.253-1.286-1.542-1.575-1.7a4.676,4.676,0,0,1-.867-.9c-.321-.386-.932-1.093-1.382-1.543-1-1-1.349-1.381-2.41-2.506-.449-.482-1.317-1.349-1.9-1.863a10.2,10.2,0,0,1-1.253-1.285,9.261,9.261,0,0,0-1.318-1.349c-.642-.578-1.831-1.735-2.666-2.57s-1.671-1.639-1.832-1.735a14.883,14.883,0,0,1-1.156-1.028A45.007,45.007,0,0,0,933.4,88.8c-.707-.643-1.7-1.51-2.153-1.928a30.024,30.024,0,0,0-3.373-2.7c-.8-.578-1.639-1.221-1.9-1.446a26.829,26.829,0,0,0-2.988-2.056c-1.607-.964-2.667-1.671-3.663-2.378a6.438,6.438,0,0,0-1.382-.8.938.938,0,0,1-.482-.289.964.964,0,0,0-.706-.257.91.91,0,0,1-.643-.161,2.038,2.038,0,0,0-.739-.321l-.643-.193-.1.707a2.321,2.321,0,0,0,.1,1.092,4.679,4.679,0,0,1,.579,1.735,49.007,49.007,0,0,0,1.8,5.88,3.643,3.643,0,0,1,.321,1,1.176,1.176,0,0,0,.225.675,1.973,1.973,0,0,1,.289.868,5.434,5.434,0,0,0,.386,1.317c.193.482.482,1.221.61,1.606.193.643.547,1.446,1.671,4.048.161.321.418,1.028.611,1.574a6.079,6.079,0,0,0,.61,1.35,2.61,2.61,0,0,1,.321.771,16.564,16.564,0,0,0,.836,2.089c.417.932.867,1.863.964,2.12.1.225.482,1.029.835,1.768.353.706.835,1.638,1.028,2.056s1.285,2.313,2.378,4.273a49.111,49.111,0,0,0,6.265,8.9c.771.868,1.51,1.7,1.671,1.9.353.417,2.217,2.442,3.084,3.405.354.386.932.964,1.286,1.286s1.574,1.51,2.7,2.634,2.216,2.185,2.377,2.314c.193.128.9.835,1.607,1.542,1.445,1.446,3.341,3.213,3.919,3.663.225.16.836.771,1.382,1.317a15.6,15.6,0,0,0,2.538,2.024,20.275,20.275,0,0,1,1.928,1.382,22.1,22.1,0,0,0,3.406,2.377,5.574,5.574,0,0,1,1.317.932,8.155,8.155,0,0,0,1.51,1.092c.771.482,2.025,1.286,2.828,1.832.8.514,1.831,1.157,2.281,1.414s1.189.739,1.671,1.028a45.762,45.762,0,0,0,5.944,3.309,6.557,6.557,0,0,1,1.189.578,3.793,3.793,0,0,0,1.06.515,4.128,4.128,0,0,1,1.092.578,1.444,1.444,0,0,0,.643.321,12.24,12.24,0,0,1,1.671.8,3.412,3.412,0,0,0,1.317.547c.1-.065.321.032.514.192a14.357,14.357,0,0,0,1.9,1,12.65,12.65,0,0,1,1.638.836,2.037,2.037,0,0,0,.8.257c.417.1.8.225.835.321a2.271,2.271,0,0,0,.964.354,4.405,4.405,0,0,1,1.221.417,11.855,11.855,0,0,0,2.377.9,16.126,16.126,0,0,1,1.639.642c.321.161.675.354.868.45.16.065,1.092.675,2.12,1.318,1,.642,1.928,1.221,2.089,1.317s.641.418,1.091.739,1.22.835,1.77,1.189c.54.321,1.12.739,1.35.9.19.193,1.35.964,2.57,1.767s2.63,1.768,3.15,2.121a4.4,4.4,0,0,0,1.09.675c.1,0,.29.16.38.321a3.216,3.216,0,0,0,.65.707,43.91,43.91,0,0,0,3.92,3.213,1.853,1.853,0,0,1,.61.675,9,9,0,0,0,2.18,2.152,4.719,4.719,0,0,1,.81.8,4.413,4.413,0,0,0,.8.8,4.766,4.766,0,0,1,.87.9c2.41,3.117,2.18,2.731,2.57,4.145.16.611.45,1.446.61,1.9a19.089,19.089,0,0,1,.61,1.992,6.755,6.755,0,0,0,.48,1.478c.1.16.1.321,0,.353-.16.1-.35-.064-1.29-1.028a7.65,7.65,0,0,0-1.15-1.028,11.307,11.307,0,0,1-1.09-.868,5.24,5.24,0,0,0-1-.706,1.573,1.573,0,0,1-.61-.514,3.871,3.871,0,0,0-1.03-.868,14.21,14.21,0,0,1-1.38-1,11.972,11.972,0,0,0-2.47-1.735.99.99,0,0,1-.55-.353,1.833,1.833,0,0,0-.58-.482,16.875,16.875,0,0,1-1.45-1.061,8.315,8.315,0,0,0-1.6-1.06,4.2,4.2,0,0,1-.68-.353,4.921,4.921,0,0,0-1.57-1.189.758.758,0,0,1-.45-.257,4.322,4.322,0,0,0-.8-.611,15.976,15.976,0,0,1-1.58-1.124,3.037,3.037,0,0,0-1.15-.643.47.47,0,0,1-.45-.257,40.22,40.22,0,0,0-4.888-3.213,7.517,7.517,0,0,1-.9-.578,12.408,12.408,0,0,0-1.478-.868,23.381,23.381,0,0,1-2.313-1.349c-.514-.321-1.414-.8-1.96-1.06-.579-.257-1.382-.675-1.864-.932a6.238,6.238,0,0,0-1.349-.578,1.331,1.331,0,0,1-.643-.29,4.3,4.3,0,0,0-1.189-.578c-.578-.225-1.349-.546-1.67-.707a17.944,17.944,0,0,0-3.31-1.381,8.969,8.969,0,0,1-1.285-.45,9.8,9.8,0,0,0-1.574-.546c-1.35-.418-3.31-1.061-4.5-1.511-.931-.353-7.679-1.959-9.735-2.345-.835-.161-2.024-.386-2.635-.482a4.438,4.438,0,0,0-1.253-.128,4.733,4.733,0,0,1-1.285-.129c-.643-.129-1.9-.289-2.8-.386-.932-.1-2.346-.257-3.213-.353-2.7-.321-2.635-.321-2.7.257-.1.8.225,1.157,3.888,4.241,2.474,2.089,5.076,4.177,5.494,4.434a9.377,9.377,0,0,1,1.028.771,30.9,30.9,0,0,0,3.759,2.86,1.413,1.413,0,0,1,.611.514,5.691,5.691,0,0,0,1.317,1c.61.385,1.542,1.028,2.088,1.446a4.656,4.656,0,0,0,1.286.8.627.627,0,0,1,.449.257,7.182,7.182,0,0,0,1.221.932,8.467,8.467,0,0,1,1.189.9,2.938,2.938,0,0,0,.739.514c.354.193.8.482,1.06.611.225.128.547.321.707.418s.675.417,1.157.739a2.9,2.9,0,0,0,1.189.546.4.4,0,0,1,.417.16,15.158,15.158,0,0,0,2.892,1.8c.386.192,1,.482,1.318.674.353.193,1.092.515,1.638.739,1.06.418,1.575.643,3.31,1.414a9.247,9.247,0,0,0,1.413.546c.161.032.771.225,1.382.45s1.51.514,2.024.675a13.1,13.1,0,0,1,1.285.45,24.422,24.422,0,0,0,2.346.771c1.092.321,3.31.964,4.95,1.446a64.222,64.222,0,0,0,11.24,2.313c1,.128,2.96.353,4.31.514s2.7.321,2.99.353a5.2,5.2,0,0,1,1.41.354c.48.193,1.64.578,2.47.867l1.58.547.06.8a13.1,13.1,0,0,0,.87,3.534,3.092,3.092,0,0,1,.32,1.06c.03.354.19,1.157.32,1.768.13.642.29,1.606.36,2.152a8.588,8.588,0,0,0,.35,1.639,7.8,7.8,0,0,1,.45,3.406c-.19.9-.16.964.67,1.542.62.418,1.39.418,1.58,0,.1-.161-.13-1.06-.68-3.052-.38-1.286-.83-2.989-1.31-4.82a16.539,16.539,0,0,0-.49-1.671,7.553,7.553,0,0,1-.19-1.349,5.1,5.1,0,0,0-.19-1.221,2.031,2.031,0,0,1-.19-.835,5.073,5.073,0,0,0-.49-1.478,8.657,8.657,0,0,1-.77-3.213,3.274,3.274,0,0,0-.16-.964,2.075,2.075,0,0,1-.16-.771,4.516,4.516,0,0,0-.32-1.221c-.13-.354-.35-1-.45-1.414a12.29,12.29,0,0,0-.42-1.382,1.432,1.432,0,0,1-.13-.8,2.832,2.832,0,0,0-.35-1.253,7.03,7.03,0,0,1-.58-1.992,4.947,4.947,0,0,0-.41-1.574,4.136,4.136,0,0,1-.42-1.189c-.03-.257-.23-1.253-.42-2.217a8.715,8.715,0,0,1-.26-2.056.477.477,0,0,0-.09-.45.816.816,0,0,1-.16-.675,2.418,2.418,0,0,0-.04-.675,33.761,33.761,0,0,1,.39-7.132c.1-.386.22-.9.29-1.157a3.47,3.47,0,0,1,.45-1.028,17.245,17.245,0,0,0,1.57-3.085c.39-.835,1.19-2.377,1.8-3.438a26.285,26.285,0,0,0,1.29-2.441,1.338,1.338,0,0,1,.45-.675,31.415,31.415,0,0,0,2.54-4.627.423.423,0,0,1,.22-.321,2.588,2.588,0,0,0,.61-1c.23-.45.77-1.542,1.25-2.41a14.7,14.7,0,0,0,1.58-3.02,7.421,7.421,0,0,1,.51-1,2.777,2.777,0,0,0,.42-.9,2.719,2.719,0,0,1,.55-1,6.039,6.039,0,0,0,.74-1.51,4.152,4.152,0,0,1,.48-1.157c.25-.417.83-1.767,2.25-5.365.86-2.217,2.12-5.88,2.21-6.49a12.5,12.5,0,0,1,.61-1.8c1-2.442,2.9-10.86,3.54-15.615.13-.964.29-1.992.35-2.281s.16-1.285.23-2.185c.06-.932.16-1.831.19-1.96a2.233,2.233,0,0,0-.16-1.51c-.19-.289-.26-.289-.74.129-.29.257-.8.8-1.16,1.188a4,4,0,0,1-.93.868,1.016,1.016,0,0,0-.42.386,2.429,2.429,0,0,1-.58.706,51.231,51.231,0,0,0-4.08,6.3,2.891,2.891,0,0,1-.61,1,2.88,2.88,0,0,0-.48,1.06,2.655,2.655,0,0,1-.51,1.06.86.86,0,0,0-.32.579,2.043,2.043,0,0,1-.84,1.349,3.91,3.91,0,0,0-.96,1.767,2.686,2.686,0,0,1-.52.868,1.853,1.853,0,0,0-.48.964,2.114,2.114,0,0,1-.48.964,4.5,4.5,0,0,0-.71,1.253,12.8,12.8,0,0,1-.83,1.831,7.948,7.948,0,0,0-.61,1.414,3.551,3.551,0,0,1-.49,1.092,2.813,2.813,0,0,0-.41,1.093c0,.257-.07.449-.16.417-.07,0-.2.257-.26.579a1.671,1.671,0,0,1-.29.706,10.2,10.2,0,0,0-1.12,4.242c.16.353.41-.129.64-1.253a3.031,3.031,0,0,1,.32-1,2.568,2.568,0,0,0,.32-.739,14.8,14.8,0,0,1,.71-1.768c.42-.931.96-2.281,1.54-3.919a9.342,9.342,0,0,1,.71-1.318,4.174,4.174,0,0,0,.58-1.221,2.388,2.388,0,0,1,.41-.9,9.152,9.152,0,0,0,.71-1.414,2.55,2.55,0,0,1,.64-1,2.237,2.237,0,0,0,.58-1,3.575,3.575,0,0,1,.64-1.189,8.093,8.093,0,0,0,.97-1.446,4.927,4.927,0,0,1,.7-1.156,1.559,1.559,0,0,0,.29-.707,1.553,1.553,0,0,1,.32-.739,10.246,10.246,0,0,0,1.55-2.6,2.732,2.732,0,0,1,.51-.707,7.247,7.247,0,0,0,1-1.542,8.644,8.644,0,0,1,.67-1.221,3.707,3.707,0,0,0,.26-.289,11.056,11.056,0,0,1,2.18-2.313c.1.032.07.16-.06.321a11.036,11.036,0,0,0-1.22,2.763c-.1.354-.23.675-.36.707-.09.032-.19.289-.22.611,0,.289-.13.578-.26.61s-.29.257-.35.546a1.152,1.152,0,0,1-.26.611,5.384,5.384,0,0,0-.51,1.445c-.39,1.382-.71,2.121-1.03,2.314a4.172,4.172,0,0,0-.51,1.221,24.366,24.366,0,0,1-.87,2.409,23.693,23.693,0,0,0-1.54,4.467c.03.064-.04.192-.16.257a4.666,4.666,0,0,0-.65,1.542,16.6,16.6,0,0,1-.9,2.41c-.29.546-.45,1.124-.35,1.253.06.128.06.257,0,.289a5.847,5.847,0,0,0-.74,1.895,2.372,2.372,0,0,1-.38.739c-.13.065-.2.193-.13.257a4.793,4.793,0,0,1-.39,1.157c-.26.578-.54,1.382-.67,1.767a2.479,2.479,0,0,1-.32.771,5.776,5.776,0,0,0-.45,1.414,10.906,10.906,0,0,1-.74,2.024,16.716,16.716,0,0,0-1.39,3.535,1,1,0,0,1-.28.61,7.071,7.071,0,0,0-.94,2.153,6.879,6.879,0,0,1-.48,1.317c-.29.643-.67,1.574-.83,2.056-.49,1.253-2.22,5.816-2.61,6.78-.32.835-1.02,2.956-1.25,3.855-.06.289-.22.739-.32,1.061-.16.514-.19.514-.13.1.03-.225.07-.611.1-.8a6.838,6.838,0,0,0,.09-2.378.727.727,0,0,1,.07-.61,13.544,13.544,0,0,0,.42-1.832c.19-1.253.51-2.827,1.99-9.7.16-.771.35-1.7.45-2.088s.42-1.607.74-2.731c.93-3.213,1.38-5.173,1.22-5.43-.1-.129-.2-.193-.26-.161a21.391,21.391,0,0,0-.71,2.635,15.614,15.614,0,0,1-.8,2.795,21.219,21.219,0,0,0-1.16,4.5c-.06.482-.19.9-.32.964s-.16.289-.13.45a6.138,6.138,0,0,1-.19,1.478c-.16.61-.35,1.478-.42,1.863-.09.386-.22.964-.32,1.285s-.25,1.061-.38,1.671-.39,1.832-.61,2.763a13,13,0,0,0-.49,3.663,3.438,3.438,0,0,1-.06.932c-.1.418-.22,1.285-.32,1.9-.1.642-.29,1.7-.42,2.409a22.272,22.272,0,0,0-.29,2.282,16.183,16.183,0,0,1-.45,2.6,6.608,6.608,0,0,0-.29,1.831.436.436,0,0,1-.03.45,4.237,4.237,0,0,0,0,1.478c.16,1.35-.13,1.318-.58-.064-.48-1.414-2.25-5.462-2.63-6.105a2.94,2.94,0,0,1-.36-.771c0-.225-1.79-3.727-3.37-6.651a22.341,22.341,0,0,1-2.41-5.912c-.1-.578-.32-1.542-.48-2.152s-.42-1.7-.52-2.378c-.12-.675-.28-1.574-.35-1.928-.13-.61-.19-1.156-.58-4.209a7.444,7.444,0,0,0-.22-1.285,5.168,5.168,0,0,1-.16-1.349,5.345,5.345,0,0,0-.2-1.382,35.82,35.82,0,0,1,.13-6.04,8.35,8.35,0,0,0,.13-1.318,7.8,7.8,0,0,1,.36-2.506,10.017,10.017,0,0,0,.25-1.7,13.019,13.019,0,0,1,.39-2.827c.13-.578.32-1.96.45-3.117s.32-2.731.48-3.534a6.265,6.265,0,0,0,.13-1.671.975.975,0,0,1,0-.642,57.281,57.281,0,0,0,.13-7.872c-.04-.643-.07-1.96-.1-2.988a109.1,109.1,0,0,0-1.06-11.47c-.71-3.309-1.32-5.88-1.48-6.137a5.635,5.635,0,0,1-.35-1.157,53.9,53.9,0,0,0-3.15-7.583,37.968,37.968,0,0,0-4.88-7.165,12.5,12.5,0,0,1-1.1-1.51c-.579-.9-.9-1.221-1.318-1.382l-.546-.193-.193.868a1.941,1.941,0,0,1-.417,1c-.354.225-1.414,5.462-1.51,7.486-.033.643-.1,1.606-.129,2.153a3.15,3.15,0,0,0,.064,1.221,1.06,1.06,0,0,1,0,.643,27.308,27.308,0,0,0,.1,5.526c.1,1,.225,1.96.225,2.153.064.868.1,1.221.385,3.6.193,1.382.386,2.731.482,2.988a1.406,1.406,0,0,1,.064.8.623.623,0,0,0,0,.482,1.951,1.951,0,0,1,.129.771,7.547,7.547,0,0,0,.193,1.189c.1.321.257,1.253.385,2.088a15.857,15.857,0,0,0,.868,3.374,7.662,7.662,0,0,1,.193.867,20.281,20.281,0,0,0,.963,3.181,5.083,5.083,0,0,1,.322,1.51,13.194,13.194,0,0,0,.959,3.117c1.68,4.113,2.48,6.3,3.19,8.514.38,1.189.8,2.442.93,2.764a6.8,6.8,0,0,1,.29.963,7.427,7.427,0,0,0,.41,1.478,48.752,48.752,0,0,1,1.71,5.912,3.012,3.012,0,0,0,.35,1.382,2.293,2.293,0,0,1,.16,1.189,2.694,2.694,0,0,0,.1,1.188,3.171,3.171,0,0,1,.16,1.093,1.952,1.952,0,0,0,.09.8,4.242,4.242,0,0,1,.04,1.478,6.225,6.225,0,0,0,.16,2.056,20.586,20.586,0,0,1,.38,2.442,7.221,7.221,0,0,0,.29,1.671,1.454,1.454,0,0,1,.1.707,1.38,1.38,0,0,0,.16.739,3.628,3.628,0,0,1,.29.932,28.806,28.806,0,0,0,.77,3.759c.26.835.22.8-1.16-1.221-.77-1.125-1.99-2.924-2.66-3.984-1.9-2.86-4.47-6.394-5.79-8.033-.64-.8-1.572-1.992-2.086-2.7s-1.671-2.217-2.6-3.373c-3.021-3.759-4.563-5.719-5.848-7.454-.707-.932-1.607-2.057-2.024-2.506a4.973,4.973,0,0,1-.8-1.029c-.032-.1-.514-1.028-1.06-2.088a49.728,49.728,0,0,1-2.313-4.852,40.754,40.754,0,0,0-2.024-4.4,1.439,1.439,0,0,1-.29-.772,16.153,16.153,0,0,0-1.445-3.823,1.961,1.961,0,0,1-.354-.867.961.961,0,0,0-.032-.418c-.161-.514-.835-2.217-1.221-3.181-.8-1.863-.932-2.217-1.285-3.181-.193-.546-.546-1.414-.771-1.928a7.287,7.287,0,0,1-.45-1.382,5.263,5.263,0,0,0-.546-1.446,5.864,5.864,0,0,1-.514-1.189,29.794,29.794,0,0,0-1.286-4.08,10.978,10.978,0,0,1-.514-1.157c-.514-1.478-1.349-3.727-1.8-4.755-.257-.578-.835-1.9-1.253-2.924-.8-1.864-2.024-4.5-2.795-5.976-.193-.418-.643-1.349-1-2.088a56.845,56.845,0,0,0-5.237-9.478c-1.735-2.763-3.438-5.3-3.76-5.623a16.046,16.046,0,0,1-1.606-2.153c-.546-.835-1.51-2.153-2.121-2.924-2.217-2.8-2.859-3.6-4.241-5.269-.771-.932-1.8-2.217-2.281-2.827a24.415,24.415,0,0,0-3.438-3.631,3.934,3.934,0,0,1-.739-.675A24.741,24.741,0,0,0,939.7,32.9a2.443,2.443,0,0,1-.771-.739,1.672,1.672,0,0,0-.674-.578,2.046,2.046,0,0,1-.739-.675c-.193-.128-1.093-.9-2.057-1.574a13.734,13.734,0,0,1-1.863-1.446C933.179,27.21,932.183,27.017,932.054,27.563ZM916.793,78.521c.417.61,1.156,1.606,1.638,2.185.9,1.092,3.117,4.113,4.691,6.394a15.352,15.352,0,0,0,1.125,1.478A14.943,14.943,0,0,1,925.4,90.12c.514.739,1.317,1.831,1.8,2.378,1.092,1.285,1.542,1.831,4.659,5.912,1.446,1.864,4.723,5.977,6.04,7.551.707.835,1.414,1.7,1.574,1.928,1.414,1.8,1.768,2.249,2.057,2.538a13.353,13.353,0,0,1,1.638,1.928c.932,1.221,1.414,1.767,3.792,4.4a9.89,9.89,0,0,1,1.446,1.863.709.709,0,0,0,.321.418,4.973,4.973,0,0,1,1,1.028,5.894,5.894,0,0,0,.932,1.06,2.4,2.4,0,0,1,.546.579,14.679,14.679,0,0,0,1.9,2.313,10.481,10.481,0,0,1,1.606,1.7c.514.771,1.285,1.446,1.285,1.156a.5.5,0,0,0-.193-.385,5.433,5.433,0,0,1-.9-1.189,4.534,4.534,0,0,0-1.285-1.446,1.879,1.879,0,0,1-.771-.835,8.269,8.269,0,0,0-2.153-2.6c-.289-.192-.45-.321-.354-.321s0-.193-.192-.45-1-1.253-1.768-2.217c-2.377-2.988-2.923-3.63-3.63-4.434a5.115,5.115,0,0,1-.836-1.156c-.192-.482-1.542-2.025-1.8-1.992-.1,0-.257-.257-.385-.579a36.021,36.021,0,0,0-3.76-4.819,17.257,17.257,0,0,1-1.413-1.767c-.514-.739-1.414-1.928-1.928-2.6-1-1.285-1.125-1.446-2.86-3.855-.578-.771-1.9-2.506-2.924-3.823s-2.57-3.309-3.437-4.37c-.836-1.092-1.864-2.346-2.282-2.827s-.8-1-.931-1.157c-.354-.61-4.4-5.366-5.27-6.233a2.673,2.673,0,0,1-.45-.514,16.9,16.9,0,0,1,2.731,1.671c.161.161,1.029.771,2.892,2.024a18.492,18.492,0,0,1,1.8,1.285,4.2,4.2,0,0,0,.9.546,1.291,1.291,0,0,1,.578.45,5.212,5.212,0,0,0,1.221.964,20.671,20.671,0,0,1,2.057,1.574,5.079,5.079,0,0,0,1.253.932c.1,0,.289.161.417.321a3.2,3.2,0,0,0,.643.739c.257.225.835.739,1.285,1.157.482.418,1.093.9,1.35,1.092a3.822,3.822,0,0,1,.9.868,21.233,21.233,0,0,0,1.575,1.639c1.413,1.285,4.241,3.92,4.851,4.466.225.225.771.707,1.221,1.092a14.118,14.118,0,0,1,1.382,1.414,15.409,15.409,0,0,0,1.446,1.478c.771.707,1.478,1.414,3.116,3.117.322.321.771.8,1.061,1.06s.867.9,1.317,1.381a6.069,6.069,0,0,0,1.06,1,3.044,3.044,0,0,1,.771.8,21.574,21.574,0,0,0,1.992,2.313c1.253,1.349,1.928,2.121,2.635,3.02a6.461,6.461,0,0,0,1.157,1.157,3.976,3.976,0,0,1,.9,1,28.041,28.041,0,0,0,1.9,2.377,15.03,15.03,0,0,1,1.51,1.864,1.2,1.2,0,0,0,.386.482,8.435,8.435,0,0,1,.9,1.028,5.156,5.156,0,0,0,.868.932,10.433,10.433,0,0,1,1.381,1.7,23.929,23.929,0,0,0,1.478,1.9,18.966,18.966,0,0,1,1.35,1.671c.514.707,1.381,1.767,1.928,2.378s1.253,1.446,1.542,1.863c.642.9,3.7,4.852,4.177,5.43.193.225.674.8,1.092,1.253a12.844,12.844,0,0,1,1.221,1.671,2.5,2.5,0,0,0,.707.835c.128,0,.386.322.61.675a38.514,38.514,0,0,0,3.342,4.755c.257.225.45.482.386.579a2.529,2.529,0,0,0,.546,1.028c.674.964,2.313,3.406,4.562,6.747l1.478,2.217-1.8-1.285c-1-.707-1.992-1.414-2.249-1.575a2.1,2.1,0,0,1-.611-.514,2.669,2.669,0,0,0-.8-.61,7.662,7.662,0,0,1-1.092-.868,8.443,8.443,0,0,0-1.318-1.092c-.482-.353-1.156-.867-1.51-1.189-.321-.321-1.189-1.028-1.928-1.606a30.482,30.482,0,0,1-3.18-2.6,2.191,2.191,0,0,0-.579-.45,2.434,2.434,0,0,1-.642-.578,22.6,22.6,0,0,0-3.278-3.052.637.637,0,0,1-.353-.354,10.758,10.758,0,0,0-1.96-1.767,4.1,4.1,0,0,1-.386-.321c-.064-.064-.417-.418-.771-.739s-.835-.835-1.124-1.157c-.289-.289-1-.964-1.607-1.478s-1.574-1.413-2.152-1.992c-1.221-1.221-1.864-1.478-1.253-.514.224.354.481.643.578.643a3.524,3.524,0,0,1,.867.835,5.881,5.881,0,0,0,.932,1,18.966,18.966,0,0,1,1.574,1.542c1.446,1.543,1.446,1.543,2.314,2.378s1.606,1.574,2.153,2.121c.257.257.706.674,1,.931s1.381,1.285,2.409,2.314a62.917,62.917,0,0,0,5.43,4.98,5.6,5.6,0,0,1,.932.867,11.535,11.535,0,0,0,1.285,1.157,8.928,8.928,0,0,1,1.253,1.028,24.849,24.849,0,0,0,3.47,2.7,4.286,4.286,0,0,1,1.029.771,14.468,14.468,0,0,0,1.7,1.221c1.7,1.06,1.7,1.028,1.511,1.157a11.613,11.613,0,0,1-2.8-1.189c-.321-.161-1.06-.514-1.671-.835-.61-.29-1.51-.739-2.056-1s-1.928-.9-3.052-1.446c-1.157-.547-2.442-1.189-2.86-1.446a2.27,2.27,0,0,0-.9-.386,5.461,5.461,0,0,1-1.446-.674c-.707-.418-1.767-1.029-2.346-1.318-.578-.321-1.381-.8-1.8-1.06-.739-.482-2.667-1.671-3.406-2.121-.193-.128-.546-.353-.771-.482-.225-.16-.546-.353-.675-.449-.8-.45-3.566-2.249-3.63-2.378a12.027,12.027,0,0,0-1.478-1.028c-.771-.514-2.089-1.446-2.924-2.089a28.385,28.385,0,0,0-2.538-1.8,10.4,10.4,0,0,1-1.671-1.317c-.354-.386-1.8-1.767-3.213-3.117-3.085-2.924-3.342-3.148-4.177-4.048-.353-.386-1.157-1.189-1.8-1.832-.643-.61-1.253-1.253-1.382-1.413a9.153,9.153,0,0,0-.8-.8,127.064,127.064,0,0,1-10.667-12.274c-.836-1.189-3.567-5.623-3.984-6.49-.257-.514-.932-1.8-1.511-2.86s-1.51-2.891-2.024-4.048-1.221-2.667-1.51-3.31S922.255,96,921.9,95.1s-.8-1.992-1.028-2.41a11.283,11.283,0,0,1-.546-1.221c-.1-.257-.321-.9-.546-1.478s-.611-1.7-.868-2.506-.61-1.863-.8-2.345c-.45-1.125-.514-1.382-.9-2.474-.16-.482-.449-1.221-.61-1.606-.193-.418-.257-.771-.193-.8.1-.064-.032-.546-.771-2.538C915.347,76.915,915.989,77.364,916.793,78.521Zm81.224-10.057a4.163,4.163,0,0,0,.193,1.06.7.7,0,0,1,.032.514,2.317,2.317,0,0,0,.1,1.092,5.147,5.147,0,0,1,.192,1.028,5.407,5.407,0,0,0,.257,1.125,12.734,12.734,0,0,1,.386,1.864,4.24,4.24,0,0,0,.193,1.157,2.866,2.866,0,0,1,.16.739,11.373,11.373,0,0,0,.289,1.574,8.854,8.854,0,0,1,.224,1.446,2.41,2.41,0,0,0,.19.8,1.783,1.783,0,0,1,.23.835,9.327,9.327,0,0,0,.35,1.671,31.927,31.927,0,0,1,.74,3.117c.19,1.06.48,2.41.61,2.956.13.578.29,1.317.36,1.7.06.45.16.707.35.739.16.032.22-.257.13-.9a4.472,4.472,0,0,0-.26-1.125,1.052,1.052,0,0,1,.03-.675,1.1,1.1,0,0,0-.06-.8,3.279,3.279,0,0,1-.19-1.189,3.038,3.038,0,0,0-.17-1.157,1.814,1.814,0,0,1-.16-.771,15.11,15.11,0,0,0-.35-2.024,10.179,10.179,0,0,1-.29-1.735c.07-.1,0-.353-.13-.546a3.579,3.579,0,0,1-.29-1.285,20.555,20.555,0,0,0-.35-2.346c-.16-.771-.32-1.8-.39-2.249s-.28-1.606-.509-2.6a20.518,20.518,0,0,1-.45-2.345,1.616,1.616,0,0,0-.161-.771,8.031,8.031,0,0,1-.289-1.285l-.161-1.06,1.29,1.992a87.6,87.6,0,0,1,5.26,8.964c.29.707.74,1.767.97,2.345s.58,1.414.77,1.9.51,1.51.74,2.249c.19.771.51,1.831.64,2.345a3.275,3.275,0,0,1,.19,1.157c-.06.1,0,.289.07.45a42.97,42.97,0,0,1,1.25,7.711c0,.161.07.932.13,1.639.13,1.35.26,4.177.29,6.3,0,.643.06,1.9.1,2.8.06.9.09,2.088.06,2.7,0,.611-.03,1.735-.03,2.507a32.806,32.806,0,0,1-.29,4.5,6.767,6.767,0,0,0-.1,1.06,3.069,3.069,0,0,1-.16,1.028.6.6,0,0,0-.03.386,13.255,13.255,0,0,1-.39,3.245,5.742,5.742,0,0,0-.19,1.574,11.441,11.441,0,0,1-.32,2.41l-.26.9-.06-1.414a5.761,5.761,0,0,0-.26-1.7,2.293,2.293,0,0,1-.09-1.028,4.427,4.427,0,0,0-.13-1.317,5.239,5.239,0,0,1-.2-1.318,5.4,5.4,0,0,0-.06-.932,14.888,14.888,0,0,1-.45-2.859c.06-.514-.23-1.382-.42-1.189a.249.249,0,0,1-.35,0c-.16-.128-.13-.193.22-.418a.777.777,0,0,0,.16-.353c.1-.386-.12-.611-.32-.257-.06.128-.09-.064-.06-.45.06-.867-.19-1.928-.39-1.8-.09.064-.16-.129-.13-.418a1.22,1.22,0,0,0-.09-.675,3.474,3.474,0,0,1-.07-1.188,3.613,3.613,0,0,0-.09-1.221,3.845,3.845,0,0,1-.2-1,1.782,1.782,0,0,0-.22-.9,1.643,1.643,0,0,1-.16-.9c.03-1.285-.61-4.337-.93-4.4-.07-.033-.1-.161-.07-.354.07-.482-.19-.45-.32.032a.822.822,0,0,0,.23.739c.22.225.25.386.16.547a1.423,1.423,0,0,0,0,.931,3.4,3.4,0,0,1,.13.932,1.022,1.022,0,0,0,.16.578,1,1,0,0,1,.09.675,1.575,1.575,0,0,0,.1.9,7.143,7.143,0,0,1,.26,1.156c.03.322.09.514.16.386.06-.1.13-.161.16-.129a4.275,4.275,0,0,1,.06,1.8,7.767,7.767,0,0,0,.61,3.116,1.211,1.211,0,0,1,.16.8.786.786,0,0,0,.07.61.628.628,0,0,1-.07.61c-.16.258-.09.515.16.9.2.321.33.643.26.771a1.359,1.359,0,0,0,.26.9c.19.385.32.642.25.642-.19-.032-.22,1.093-.03,1.414a.648.648,0,0,1,.1.514,5.659,5.659,0,0,0,.03,2.314,1.979,1.979,0,0,1,.03,1,2.6,2.6,0,0,0,.04,1,2.877,2.877,0,0,1,.09,1,7.793,7.793,0,0,0,0,1.188c.1.8,0,.579-.7-1.831-.52-1.767-.81-2.763-1.07-3.727-.09-.321-.38-1.157-.64-1.864a10.365,10.365,0,0,1-.93-2.955,17.827,17.827,0,0,0-.96-2.764c-.49-1.188-1-2.474-1.13-2.891a13.751,13.751,0,0,0-.74-1.7,7.867,7.867,0,0,1-.67-1.864,12.882,12.882,0,0,0-.55-1.735,33.654,33.654,0,0,1-1.861-7.647,3.86,3.86,0,0,0-.193-1,8.416,8.416,0,0,1-.257-1.671,9.008,9.008,0,0,0-.354-2.024,3.221,3.221,0,0,1-.128-1.253,1.868,1.868,0,0,0-.1-1,4.174,4.174,0,0,1-.225-1.446,3.322,3.322,0,0,0-.224-1.285.759.759,0,0,1-.1-.643,26.964,26.964,0,0,0-.321-4.723,3.357,3.357,0,0,1,.032-1.125,17.219,17.219,0,0,0,.064-3.341,2.263,2.263,0,0,1,.065-1,7.508,7.508,0,0,0,.1-1.382,4.722,4.722,0,0,1,.128-1.285c.1-.386.257-1.317.354-2.024a15.55,15.55,0,0,1,.321-1.831,13.121,13.121,0,0,0,.193-1.574C997.7,67.6,997.921,67.372,998.017,68.465Zm48.223,34.925c-.12.931-.51,3.18-.8,4.69a8.781,8.781,0,0,0-.22,1.928c.03.257,0,.482-.07.514a3.306,3.306,0,0,0-.29,1c-.58,3.085-2.47,10.41-3.21,12.5-.48,1.349-.9,2.57-.93,2.731s-.39,1.092-.77,2.088-.74,1.96-.81,2.121c-.03.161-.41,1.06-.8,1.992s-.84,2.088-1,2.57a4.365,4.365,0,0,1-.54,1.157,6.452,6.452,0,0,0-.71,1.414,4.306,4.306,0,0,1-.55,1.188,6.175,6.175,0,0,0-.61,1.189,10.517,10.517,0,0,1-.77,1.543c-.16.224-.45.835-.7,1.317-.23.482-.58,1.189-.77,1.574-.52.964-.68,1.285-1.29,2.506a19.547,19.547,0,0,1-.96,1.8,21.326,21.326,0,0,0-1.35,2.538,22.183,22.183,0,0,1-1.16,2.024,17.828,17.828,0,0,0-1.19,2.121,6.231,6.231,0,0,1-.51,1.092c-.36.578-.36.514-.03-.771a16.579,16.579,0,0,1,.77-2.313c.45-.964,2.12-5.463,2.73-7.39.83-2.6,1.57-4.82,1.7-4.948a24.028,24.028,0,0,0,1.09-3.149,5.525,5.525,0,0,1,.45-1.06,10.458,10.458,0,0,0,.65-2.024,7.125,7.125,0,0,1,.48-1.607,9.415,9.415,0,0,0,.54-1.863,7.064,7.064,0,0,1,.68-1.928.907.907,0,0,0,.32-.579,5.723,5.723,0,0,1,.45-1.124,6.266,6.266,0,0,0,.45-1.221,9.043,9.043,0,0,1,.58-1.51,20.135,20.135,0,0,0,.83-2.185,7.829,7.829,0,0,1,.45-1.285,21.877,21.877,0,0,0,1.26-3.5,1.66,1.66,0,0,1,.32-.739,5.534,5.534,0,0,0,.54-1.189,12.355,12.355,0,0,1,.58-1.446.679.679,0,0,0,.07-.546c-.17-.257.45-1.478.83-1.7a5.361,5.361,0,0,0,.64-1.7,8.706,8.706,0,0,1,.52-1.606,24.547,24.547,0,0,0,1.6-3.952,3.2,3.2,0,0,1,.36-.932.681.681,0,0,0,.16-.45c.03-.321.77-1.414.96-1.382C1046.28,102.843,1046.28,103.1,1046.24,103.39Zm-89.7,56.676a17.562,17.562,0,0,0,3.021.45,7.8,7.8,0,0,1,1.349.193,4.486,4.486,0,0,0,1.028.129c1.607,0,11.246,2.217,14.587,3.373,1.318.45,2.8.932,3.374,1.06a6.737,6.737,0,0,1,1.414.515,6.539,6.539,0,0,0,1.413.546c.8.225,3.856,1.446,6.619,2.667.578.257,2.8,1.285,3.5,1.638.161.1.771.386,1.318.643a5.635,5.635,0,0,1,1.06.578,12.614,12.614,0,0,0,1.446.835,27.711,27.711,0,0,1,2.442,1.382,7.692,7.692,0,0,0,1.41.739,5.292,5.292,0,0,1,1.74,1.157c.06.128.32.225.54.257a1.928,1.928,0,0,1,1.45.867,2.193,2.193,0,0,0,1.03.643,1.83,1.83,0,0,1,.99.578,11.639,11.639,0,0,0,2,1.478c2.92,1.832,3.5,2.217,3.63,2.41a3.188,3.188,0,0,0,.77.546,3.951,3.951,0,0,1,.9.643,15.628,15.628,0,0,0,1.67,1.156,8.073,8.073,0,0,1,1.57,1.157,1.466,1.466,0,0,0,.58.45,8.064,8.064,0,0,1,1.48,1.156,36.347,36.347,0,0,0,4.11,3.471c.36.128.81.642.64.771a1.451,1.451,0,0,1-.67-.161c-.29-.129-1.03-.418-1.67-.675-.61-.225-1.64-.674-2.28-.964s-2.25-.9-3.6-1.349-2.6-.932-2.83-1.06a4.7,4.7,0,0,0-1.28-.386,3.64,3.64,0,0,1-1.22-.418c-.52-.449-1.61-.9-1.8-.771a.245.245,0,0,1-.32-.064,15.075,15.075,0,0,0-3.83-1.639c-.48-.032-.48-.032-.06.161a1.06,1.06,0,0,0,.54.129c.07-.033.2.064.29.224a.84.84,0,0,0,.52.354,2.3,2.3,0,0,1,.8.385c.26.193.55.29.61.193.07-.064.32.064.55.257a5.881,5.881,0,0,0,1.38.868,4.672,4.672,0,0,1,1.09.642,4.264,4.264,0,0,0,1.32.547,6.116,6.116,0,0,1,1.28.514.916.916,0,0,0,.58.225,44.717,44.717,0,0,1,4.95,2.12l1.03.482-.84-.193a3.58,3.58,0,0,0-1.03-.1c-.09.064-.28,0-.45-.129a2.162,2.162,0,0,0-1.09-.257,18.58,18.58,0,0,1-1.99-.257c-.64-.128-1.7-.321-2.41-.45-.67-.128-2.06-.385-2.99-.61a10.258,10.258,0,0,0-1.86-.321,1.007,1.007,0,0,1-.55-.1c-.22-.1-1.57-.482-2.95-.835-2.927-.771-6.3-1.767-6.975-2.056-.418-.193-1.446-.514-3.792-1.221a28.189,28.189,0,0,1-4.98-1.96,3.88,3.88,0,0,0-1.125-.45,2.206,2.206,0,0,1-.963-.353c-.386-.225-1.125-.611-1.671-.9a22.111,22.111,0,0,1-2.153-1.221,8.908,8.908,0,0,0-1.381-.739,5.952,5.952,0,0,1-1.35-.739c-.61-.418-1.671-1.125-2.313-1.542s-1.7-1.157-2.346-1.575c-.642-.449-1.317-.9-1.51-1-.482-.257-2.795-1.9-4.209-2.956-.642-.481-1.542-1.156-1.992-1.477s-.964-.739-1.157-.9-.867-.707-1.478-1.157a73.035,73.035,0,0,1-5.976-4.98,24.977,24.977,0,0,1-2.024-1.96c-.032-.064.418.032.964.193a3.392,3.392,0,0,1,1.221.546,3.207,3.207,0,0,0,1.028.611,2.692,2.692,0,0,1,1,.578,2.017,2.017,0,0,0,.835.386,12.566,12.566,0,0,1,2.121.931,14.215,14.215,0,0,0,1.7.836,16.545,16.545,0,0,1,1.542.739,19.61,19.61,0,0,0,1.992.931,16.1,16.1,0,0,1,1.8.836,13.508,13.508,0,0,0,1.864.8,6.768,6.768,0,0,1,1.382.61,5.334,5.334,0,0,0,1.124.482,1.336,1.336,0,0,1,.643.29,1.184,1.184,0,0,0,.61.289,1.193,1.193,0,0,1,.611.289,1.2,1.2,0,0,0,.674.353c.29.1,1.382.579,2.442,1.093s2.057,1,2.249,1.092.932.482,1.639.836a9.9,9.9,0,0,0,1.446.642,3.57,3.57,0,0,1,1.157.643c.546.353,1.028.578,1.06.514.032-.1.289,0,.578.225a19.54,19.54,0,0,0,3.053,1.8c.417.193,1.156.546,1.606.8a2.693,2.693,0,0,0,1.864.45c.1-.032-.225-.161-.643-.289-.418-.1-.835-.289-.868-.45a.382.382,0,0,0-.417-.225,2.266,2.266,0,0,1-1.028-.45,5.484,5.484,0,0,0-1.189-.642,2.54,2.54,0,0,1-.868-.482,4.894,4.894,0,0,0-1.124-.707,10.79,10.79,0,0,1-2.121-1.285,1.7,1.7,0,0,0-.771-.354,4.414,4.414,0,0,1-.964-.482,2.991,2.991,0,0,0-.964-.482c-.353-.128-.674-.257-.707-.353-.032-.064-1.478-.835-3.213-1.735s-3.952-2.024-4.948-2.538a22.675,22.675,0,0,0-2.538-1.157,4.415,4.415,0,0,1-1.028-.482,5.126,5.126,0,0,0-1.221-.642c-.514-.193-1.382-.579-1.928-.836-1.478-.707-1.7-.8-2.313-1.06-.289-.129-1.157-.482-1.864-.8a10.385,10.385,0,0,0-1.7-.643,6.461,6.461,0,0,1-1.188-.482,18.181,18.181,0,0,0-3.663-1.574c-.579-.129-.9-.322-.707-.45A3.962,3.962,0,0,1,956.537,160.066Z" fill="#93745f"/>
    <path id="Path_3" data-name="Path 3" d="M932.472,29.329a.171.171,0,0,0,.193.194c.1,0,.161-.129.128-.291C932.729,28.941,932.472,29.005,932.472,29.329Z" fill="#93745f"/>
    <path id="Path_4" data-name="Path 4" d="M932.761,30.332c-.032.2.032.359.161.359.1,0,.193-.163.161-.327C932.986,29.94,932.826,29.907,932.761,30.332Z" fill="#93745f"/>
    <path id="Path_5" data-name="Path 5" d="M932.89,31.512a12.016,12.016,0,0,0,.578,1.8.121.121,0,0,0,.193.032,3.741,3.741,0,0,0-.643-2.095C932.922,31.254,932.858,31.351,932.89,31.512Z" fill="#93745f"/>
    <path id="Path_6" data-name="Path 6" d="M933.565,34.19c.1.161.224.193.289.1a.251.251,0,0,0-.257-.418C933.5,33.9,933.468,34.03,933.565,34.19Z" fill="#93745f"/>
    <path id="Path_7" data-name="Path 7" d="M948.987,58.238c.1.128.193.16.257.064a.346.346,0,0,0,0-.352.2.2,0,0,0-.257-.064C948.89,57.95,948.89,58.11,948.987,58.238Z" fill="#93745f"/>
    <path id="Path_8" data-name="Path 8" d="M949.694,59.951c.128.1.257.161.289.128s0-.128-.064-.289-.193-.193-.289-.129S949.565,59.855,949.694,59.951Z" fill="#93745f"/>
    <path id="Path_9" data-name="Path 9" d="M950.754,61.777c.225.13.385.163.385.13.033-.163-.481-.52-.642-.423C950.433,61.549,950.529,61.68,950.754,61.777Z" fill="#93745f"/>
    <path id="Path_10" data-name="Path 10" d="M951.3,63.129a1.239,1.239,0,0,0,.482.421c.225.1.225.032-.032-.356C951.364,62.708,950.979,62.643,951.3,63.129Z" fill="#93745f"/>
    <path id="Path_11" data-name="Path 11" d="M951.814,64.3c.1.129.193.193.289.129s.1-.193,0-.322-.192-.193-.289-.129C951.718,64.006,951.718,64.167,951.814,64.3Z" fill="#93745f"/>
    <path id="Path_12" data-name="Path 12" d="M956.184,127.393a4.135,4.135,0,0,1,.675.738c.257.321.546.706.61.8.1.1.193.1.225.032a4.655,4.655,0,0,0-1.189-1.732.347.347,0,0,0-.353,0C956.055,127.233,956.088,127.329,956.184,127.393Z" fill="#93745f"/>
    <path id="Path_13" data-name="Path 13" d="M958.272,129.565c.065.094.161.063.193-.031a.465.465,0,0,0,.064-.25.158.158,0,0,0-.192.031C958.24,129.347,958.24,129.472,958.272,129.565Z" fill="#93745f"/>
    <path id="Path_14" data-name="Path 14" d="M958.851,130.314c0,.255.578.479.8.351.1-.064-.032-.16-.257-.224s-.418-.191-.386-.287,0-.16-.064-.128S958.851,130.186,958.851,130.314Z" fill="#93745f"/>
    <path id="Path_15" data-name="Path 15" d="M960.007,131.6c.836.87,1.254,1.128,1.478.967.129-.064.1-.129-.032-.129s-.417-.29-.674-.612c-.482-.645-1-1.032-1.221-.9C959.493,130.987,959.686,131.277,960.007,131.6Z" fill="#93745f"/>
    <path id="Path_16" data-name="Path 16" d="M1002.93,93.458c.1.164.23.2.29.1s.1-.229.03-.295a.244.244,0,0,0-.28-.1C1002.87,93.163,1002.84,93.294,1002.93,93.458Z" fill="#93745f"/>
    <path id="Path_17" data-name="Path 17" d="M1003.51,95.549a.354.354,0,0,0,.07.316c.06.095.12.063.16-.126.03-.158,0-.316-.07-.316C1003.58,95.391,1003.51,95.423,1003.51,95.549Z" fill="#93745f"/>
    <path id="Path_18" data-name="Path 18" d="M1003.86,99.216c.07.545.07.545.23.064.16-.513.1-.833-.16-.673C1003.86,98.639,1003.83,98.9,1003.86,99.216Z" fill="#93745f"/>
    <path id="Path_19" data-name="Path 19" d="M1004.06,100.213a.165.165,0,0,0,.25.065.18.18,0,0,0,.07-.261.175.175,0,0,0-.26-.066C1004.03,100.017,1003.99,100.147,1004.06,100.213Z" fill="#93745f"/>
    <path id="Path_20" data-name="Path 20" d="M996.668,180.593a.2.2,0,0,0,.257.064c.1-.064.064-.161-.032-.193a.49.49,0,0,0-.258-.064C996.6,180.432,996.6,180.5,996.668,180.593Z" fill="#93745f"/>
    <path id="Path_21" data-name="Path 21" d="M998.885,181.5a.461.461,0,0,0,.385.1c.1-.065,0-.13-.193-.228a1.972,1.972,0,0,0-.385-.1C998.66,181.3,998.756,181.4,998.885,181.5Z" fill="#93745f"/>
    <path id="Path_22" data-name="Path 22" d="M1001.94,183.192c.06.093.16.062.19-.032a.485.485,0,0,0,.06-.249.156.156,0,0,0-.19.031A.163.163,0,0,0,1001.94,183.192Z" fill="#93745f"/>
    <path id="Path_23" data-name="Path 23" d="M1003.03,183.495a1.668,1.668,0,0,1,.35.346.17.17,0,0,0,.23.063c.19-.126-.32-.6-.64-.6C1002.84,183.274,1002.87,183.369,1003.03,183.495Z" fill="#93745f"/>
  </g>
</svg>
