<svg xmlns="http://www.w3.org/2000/svg" xmlns:xlink="http://www.w3.org/1999/xlink" width="866" height="291" viewBox="0 0 866 291">
  <defs>
    <clipPath id="clip-path">
      <rect id="Rectangle_1" data-name="Rectangle 1" width="866" height="291" transform="translate(0 0.5)" fill="#fff"/>
    </clipPath>
  </defs>
  <g id="vector-leaf-6" transform="translate(0 -0.5)" opacity="0.2" clip-path="url(#clip-path)">
    <path id="Path_23" data-name="Path 23" d="M722.487,186.986a22.128,22.128,0,0,1-1.231,2.254c-3.28,6.353-6.56,12.5-11.071,18.034-2.46,3.074-4.715,6.353-6.97,9.222s-4.511,5.738-6.971,8.4a13.041,13.041,0,0,1-4.51,2.869,2.311,2.311,0,0,1-3.486-1.844c-.2-3.689.205-7.378,3.281-10.247.82-.615,1.435-1.434,2.255-2.049,5.125-4.509,5.74-10.657,5.945-16.8-3.28,2.459-6.56,5.328-10.25,7.582-7.176,4.713-14.762,9.017-21.937,13.525-2.871,1.845-4.716,1.025-6.151-2.049a16.727,16.727,0,0,1-1.23-5.533,12.61,12.61,0,0,1,.41-3.894c-2.05.41-4.1,1.435-6.151,1.435a100.562,100.562,0,0,1-11.071-.82c-4.92-.82-6.765-3.279-6.765-8.2a40.375,40.375,0,0,1,.82-6.968l.615-5.533c-4.921,5.328-9.431,10.861-13.941,16.19-2.051,2.254-2.666,4.918-2.666,7.992,0,2.049,0,4.3-.205,6.353a1.686,1.686,0,0,1-.82,1.229c-.205.205-.615-.41-1.025-.615-.205-.205-.41-.205-.82-.614-.615,4.918-2.87,8.812-5.535,12.5-2.256,3.279-4.511,6.558-6.561,9.837-4.511,7.377-9.431,14.14-17.017,18.853-5.945,3.894-11.686,7.583-18.451,9.837-2.461.82-3.281.2-3.076-2.459.205-3.689-.41-7.378,2.461-11.066-1.846,0-3.076-.205-4.511-.205h-8a2.781,2.781,0,0,1-2.255-1.435c-.205-.41.41-1.639,1.025-2.254a11.72,11.72,0,0,1,2.256-2.254c3.69-2.869,4.715-6.968,6.765-11.066a17.027,17.027,0,0,1-2.665.409,33.732,33.732,0,0,1-6.356.82c-2.87.205-3.895-1.229-2.87-3.893a42.252,42.252,0,0,1,2.46-5.329c4.511-8.2,10.661-14.959,19.477-18.853,4.921-2.254,9.431-5.123,14.761-6.148,4.716-.82,9.431-1.025,14.147-1.639.41,0,1.025-.205,1.23-.205.205-1.23,1.025-.615,1.845-.82,3.28-.41,6.971-.41,10.046-1.844,2.46-1.025,4.51-3.484,6.356-5.534,4.3-5.123,7.995-10.656,12.3-15.574,2.46-2.869,2.255-5.533,2.05-8.812a22.787,22.787,0,0,1-10.456,4.3c-2.46.205-4.716.615-7.176,1.025-5.74,1.025-11.276,2.459-17.221,2.254a32.52,32.52,0,0,0-15.787,3.074,245.929,245.929,0,0,1-28.292,12.3,6.507,6.507,0,0,0-4.921,5.738,48.791,48.791,0,0,1-1.025,5.328c-.205.615-.82,1.23-1.025,1.844-.41-.614-1.025-1.024-1.23-1.639a6.517,6.517,0,0,1-.615-1.844h-.41c-.205.41-.205.819-.41,1.024-3.281,10.862-9.841,18.854-19.477,24.592-5.946,3.689-12.3,3.484-18.657,2.049-2.05-.41-2.255-1.229-1.23-3.074a18.909,18.909,0,0,1,1.025-1.639c-2.87-.41-5.33-.82-7.791-1.23-3.075-.615-3.28-1.024-2.46-3.893.615-2.05,1.435-3.894,2.255-5.943-2.05-.41-4.3-.205-6.15-1.025-4.306-1.844-4.306-3.074-1.64-6.148,7.585-9.017,17.631-13.73,28.907-15.78,5.536-1.024,11.071-1.024,16.812-1.639-.82-1.639.41-1.639,1.64-1.639,1.845,0,3.9.205,5.741.205a13.28,13.28,0,0,0,4.1-.41l23.372-8.607c4.1-1.64,8.406-3.074,12.506-4.509,2.871-1.024,5.741-2.459,8.611-3.279,6.151-1.844,12.506-1.229,18.862-1.844,8-.615,15.786-2.254,22.757-6.763a1.362,1.362,0,0,0,.82-1.024,44.515,44.515,0,0,0,1.435-4.919c-.41,0-.615-.205-.615,0-4.715,1.64-9.226,1.025-13.736-.205-5.126-1.434-10.456-3.074-15.582-4.713a37.871,37.871,0,0,1-5.125-1.844c-2.255-1.23-2.255-3.074,0-4.3a7.281,7.281,0,0,1,1.845-.82c1.845-1.229,4.3-2.049,5.536-3.483,3.9-4.919,7.585-9.837,11.071-14.96,1.845-2.664,2.87-5.943,4.51-9.632a37.823,37.823,0,0,0-5.946.82c-5.125,1.434-10.455,2.664-15.581,4.508-4.1,1.435-7.791,3.689-11.891,5.123-7.176,2.46-14.351,4.3-21.527,6.968a498.31,498.31,0,0,1-48.795,15.165c-10.046,2.459-19.886,5.533-29.932,8.2-11.481,3.279-22.962,6.558-34.648,9.837-2.256.614-4.306,1.024-6.971,1.639l1.435,1.435c6.561,6.762,13.326,13.32,19.477,20.493,5.945,6.967,8.816,14.959,7.585,24.386a117.5,117.5,0,0,1-5.125,20.7c-2.46,7.173-6.766,12.911-11.891,18.034-2.255,2.254-4.921,2.254-7.586.615a20.908,20.908,0,0,1-8-9.837c-1.64-4.3-3.9-8.607-5.33-13.115-1.025-2.665-1.025-5.738-1.64-9.017a9.2,9.2,0,0,0-.41,1.639c0,.41-.2.82-.2,1.23-.82,5.533-.82,11.066-3.486,16.189-.82,1.64-1.435,3.279-2.255,5.123a60.908,60.908,0,0,1-20.5,27.461c-7.79,5.738-15.991,11.066-24.192,16.6-1.845,1.23-3.69.2-3.895-2.049a21.237,21.237,0,0,1,2.05-12.3,87.576,87.576,0,0,0,7.791-18.648c1.025-3.689,2.665-7.173,4.1-10.862l-.41-.41c-2.255,2.255-4.92,4.509-6.971,6.968-7.585,9.632-17.426,15.575-29.112,18.853a30.754,30.754,0,0,1-7.586.82c-5.946.205-11.891,0-17.837,0a33.216,33.216,0,0,1-4.51-.2c-.82,0-1.23-.41-.82-1.434a55.377,55.377,0,0,0,2.87-8.2c3.075-12.091,9.021-22.338,19.887-29.1.41-.205,1.025-.205,1.64-.41a1.554,1.554,0,0,1-.41-.82c-6.356-2.459-11.891-5.328-13.941-12.5a10.168,10.168,0,0,0-2.666.82c-4.92,1.844-9.635,1.23-14.556.205-4.51-1.025-9.021-2.459-13.531-3.074-6.561-1.025-11.276-4.713-15.787-9.017a10.677,10.677,0,0,1-3.28-8.4,23.566,23.566,0,0,1,4.1-11.681c4.715-7.377,11.071-12.911,17.836-18.239a71.2,71.2,0,0,1,24.807-11.886,7.616,7.616,0,0,1,1.846-.409c-3.076-1.025-6.151-2.255-9.431-3.279a5.676,5.676,0,0,0-1.845-.205c-9.431,1.434-18.862,2.869-28.293,4.508-4.51.82-9.226,1.64-13.531,2.869-5.331,1.64-10.456,3.484-15.582,5.533a105.16,105.16,0,0,0-10.866,5.124c-2.665,1.434-4.51,3.483-3.9,7.172.41,2.869,0,5.943-.2,9.017-.41,5.123-2.05,10.042-3.9,14.96-2.666,6.353-4.716,12.91-7.381,19.263-2.255,5.328-3.28,10.657-2.05,16.19,1.025,4.508,2.46,8.812,3.69,13.115.41,1.435.82,3.279-.615,3.894a5.789,5.789,0,0,1-3.69-.41c-4.716-2.049-6.356-5.738-6.561-10.656a112.814,112.814,0,0,0-1.435-14.55c-.615-4.1-1.845-7.993-1.435-12.091a2.537,2.537,0,0,0-.615-.41c-1.64,2.664-3.486,5.328-5.126,7.992-4.1,6.763-9.226,11.886-17.426,12.911-1.846.205-3.486,0-5.331.205-9.636,1.024-19.477,1.639-27.062,9.426-1.641,1.64-3.486.82-3.691-1.434a30.159,30.159,0,0,1,0-4.3c.205-2.254.41-4.713.615-6.967.2-6.353.2-12.706,4.306-18.239a9.413,9.413,0,0,0-2.05-.205c-3.691-.82-7.586-1.229-11.277-2.459-3.895-1.025-7.585-2.869-11.481-4.1-3.28-1.024-6.765-1.639-10.251-2.664-3.9-1.229-5.33-4.1-4.51-7.992,1.025-4.713,1.64-9.427,5.536-13.115-1.231-.41-2.256-.615-3.281-1.025a17.612,17.612,0,0,1-4.1-2.664c-2.05-2.05-1.845-3.894.41-5.738l19.067-14.755c2.05-1.435,4.305-2.664,6.56-4.1-5.125-2.254-9.841-2.869-14.761,0a12.017,12.017,0,0,1-10.251.82c-1.64-.615-2.46-2.049-1.64-3.484a7.3,7.3,0,0,1,3.28-2.869c4.511-1.639,9.226-3.074,13.736-4.508,4.511-1.23,8.816-2.664,13.532-3.689,2.87-.615,5.945-.82,8.815-1.23-3.9-.614-7.585-1.024-11.276-1.639a29.271,29.271,0,0,1-12.916-4.918c-.615-.41-1.025-1.23-1.64-1.64.205-.205.205-.41.41-.615a15.516,15.516,0,0,1,3.075.205c4.1.205,7.791-2.049,11.481-3.279,6.766-2.049,13.532-2.869,20.3-.409,2.871,1.024,5.331,3.074,8,4.508,2.255,1.23,4.716,2.459,7.176,3.689.205-.205.205-.41.41-.615-.205-.82-.615-1.844-.82-2.664-1.025-3.279-2.256-6.558-3.076-9.837a3.952,3.952,0,0,1,2.871-5.123,16.093,16.093,0,0,1,4.51-1.025c6.151-.614,11.276,1.845,15.992,5.329,5.535,3.893,8.815,9.836,11.686,15.779a23.881,23.881,0,0,0,3.485,5.738c2.665,3.484,5.33,6.968,8.2,10.452a3.685,3.685,0,0,0,1.435,1.024,17.532,17.532,0,0,0,3.28,0c3.691.205,7.176.82,10.251,3.279a4.659,4.659,0,0,0,3.69,1.025,99.35,99.35,0,0,0,10.456-2.869c6.151-2.05,11.687-5.328,18.247-5.943,2.46-.205,4.921-.615,8-1.025a7.736,7.736,0,0,0-2.255-1.434c-9.021-5.943-17.837-12.091-26.858-18.034a130.2,130.2,0,0,0-12.711-7.583,83.105,83.105,0,0,0-26.037-7.787c-6.971-1.025-13.942-2.254-20.912-2.664-7.586-.615-15.172-.615-22.757-.615-12.3,0-24.808.205-37.109.41-9.021.205-17.837,0-26.857.615-14.147,1.025-28.293,2.254-42.234,5.328A83.654,83.654,0,0,0,74.627,125.1a19.921,19.921,0,0,0-10.046,7.378,38.667,38.667,0,0,1-4.51,5.328c-.205,0-.41-.2-.615-.2,0-1.025-.2-2.254-.2-3.689-2.05,1.64-4.1,3.279-5.741,4.714-2.05,1.844-4.1,4.1-6.356,5.942a46.282,46.282,0,0,1-24.807,9.427c-5.331.615-10.866,1.025-15.581-2.459-3.28-2.459-3.485-2.049-.615-4.918-3.9-2.459-3.9-2.459-.82-6.968a10.388,10.388,0,0,0-2.665-.41c-1.64-.205-2.255-.819-1.64-2.459,1.025-2.869,1.64-6.148,3.485-8.607,6.356-8.4,14.966-13.32,25.627-12.706,5.125.205,10.251,2.05,15.376,3.279,3.28.82,6.561,1.845,10.251,1.845-1.23-1.64-.615-2.255.82-2.459h3.9c2.05.2,4.305.819,6.15.614a108.028,108.028,0,0,0,13.736-2.664c11.686-3.074,23.782-4.508,35.879-5.328,6.56-.41,12.916-.82,19.476-1.434,5.741-.41,11.276-1.23,17.017-1.23,10.661,0,21.527.205,32.188.41,5.33,0,10.661.205,15.991.205,9.226,0,18.452.2,27.473,2.459a31.1,31.1,0,0,0,4.3.615c-1.435-1.025-2.87-1.64-4.1-2.664-7.791-5.533-16.4-9.632-25.217-13.321-5.741-2.459-11.481-4.918-17.427-7.173a34.9,34.9,0,0,0-8-1.844c-1.64-.2-3.485.615-5.125,1.23a63.38,63.38,0,0,0-6.561,2.869c-1.23.82-1.64.41-1.64-.2-4.92,2.049-9.636,4.713-14.761,6.353-9.226,3.074-19.067,3.074-28.7,2.254-9.636-.615-17.837-5.328-25.217-11.066-3.075-2.254-2.665-4.508.82-5.943a74.013,74.013,0,0,1,9.431-3.484,36.253,36.253,0,0,0-4.921-3.484,50.777,50.777,0,0,0-7.586-3.484c-1.435-.615-3.28-.82-4.715-1.435q-2.768-1.23-.615-3.074a28.178,28.178,0,0,1,4.1-2.664c2.87-1.639,5.741-3.279,8.2-4.508-2.05-2.254-3.9-4.3-5.74-6.353a27.143,27.143,0,0,1-2.46-4.1c-1.23-1.844-.82-3.279,1.435-3.484a109.839,109.839,0,0,1,14.146-1.23c4.1,0,8.2.82,12.1.82A37.355,37.355,0,0,1,134.9,49.478l19.067,9.837a100.569,100.569,0,0,1,10.251,5.738c2.05,1.23,3.485,3.279,5.126,4.918a10.981,10.981,0,0,0,1.025-2.254c.615.615,1.435,1.025,1.845,1.844,1.435,2.254,2.665,4.713,4.1,6.763.82,1.23,1.845,2.869,3.28,3.279,9.021,3.689,18.247,7.173,27.473,10.861a139.753,139.753,0,0,1,20.3,9.222c8.2,4.713,15.786,10.246,24.6,13.935,13.941,5.738,25.833,14.755,38.134,23.362,6.56,4.509,13.121,9.222,20.707,11.681a29.137,29.137,0,0,0,14.556.41c-2.255-2.459-4.715-4.713-6.356-7.173a102.775,102.775,0,0,1-7.79-12.91c-3.486-6.558-6.561-13.321-9.636-19.878-1.845-3.894-.41-5.943,3.69-6.558,5.331-.82,10.661-1.435,15.992-2.254a41.162,41.162,0,0,1,29.727,6.352c6.561,4.3,12.3,9.632,18.247,14.96,5.331,4.714,10.046,10.247,16.607,13.526,4.92,2.459,10.045,4.713,14.761,6.967-.2-.205-.41-.819-.82-1.434-3.691-5.738-6.561-11.681-7.586-18.444a100.862,100.862,0,0,0-6.15-21.722c-3.076-7.378-4.306-14.755-.615-22.338a7.576,7.576,0,0,0,.41-6.353c-1.231-3.074-.205-5.533,3.075-6.148a15.162,15.162,0,0,1,6.765.41c9.636,2.254,18.452,6.763,27.063,11.681a2.525,2.525,0,0,0,2.05.41c2.255-.82,4.306-1.844,6.971-3.074a40.355,40.355,0,0,1-5.946-3.074,20.689,20.689,0,0,1-4.3-3.074c-1.435-1.435-1.025-3.074.82-3.894,2.46-1.025,4.92-1.844,7.586-1.435,6.355.615,12.506,1.23,18.861,1.844.2-.205.2-.41.41-.82-.41-.2-.615-.615-1.025-.82-1.64-2.254-3.485-4.508-5.125-6.968a3.524,3.524,0,0,1-.2-2.869c.2-.615,1.64-1.025,2.46-1.025a10.279,10.279,0,0,1,3.485.205c7.791,1.23,15.582,2.254,23.373,3.894a154.671,154.671,0,0,1,16.811,4.1,71.141,71.141,0,0,1,8.406,3.279v-.2c-.205-.615-.205-1.025-.41-1.639a21.373,21.373,0,0,1,.82-12.91c.82-1.844,1.64-2.254,3.485-1.23a22,22,0,0,1,3.281,2.869c2.87,3.484,5.33,6.968,8.2,10.451a57.862,57.862,0,0,0,13.532,12.911c5.535,3.484,11.071,7.377,15.171,12.706.2.2.615.615.82.615,1.845-.41,2.665.82,3.485,2.049a40.916,40.916,0,0,0,3.281,4.918,77.645,77.645,0,0,0,6.355,7.582c2.255,2.254,5.331,3.484,7.381,5.738,2.87,3.074,6.56,3.894,10.251,4.508,10.456,1.435,21.117,0,31.573-.819,7.995-.615,16.2-1.23,24.192-1.845,2.87-.205,5.535-.614,8-2.664a27.743,27.743,0,0,1,13.736-6.558c2.255-.409,4.715-.614,6.971-1.229s4.715-1.434,6.97-2.049v-.615c-6.56-1.23-11.276-5.328-16.606-8.812a37.507,37.507,0,0,0-5.741-2.869c-2.665-1.23-5.33-2.254-8-3.279-5.535-2.049-7.995-6.353-8.2-12.091,0-1.025.41-2.664,1.23-2.869a5.192,5.192,0,0,1,3.485.41c.41.205.82.615,1.435,1.025,3.9,2.869,7.586,5.943,11.481,8.607a28.076,28.076,0,0,0,15.582,4.918H678.2c6.765,0,13.736.205,20.5.615a44.378,44.378,0,0,1,5.126.82c-1.23-1.639-2.665-3.279-3.69-4.713-.41-.41-.205-1.23-.205-1.844a5.576,5.576,0,0,1,1.845,0c1.025.2,1.845.615,2.665.82,9.021,1.64,17.837,3.894,25.832,8.607a6.3,6.3,0,0,0,4.306.41,39.4,39.4,0,0,0,7.995-3.484c9.841-5.533,19.477-11.476,29.318-17.009a557.566,557.566,0,0,0,48.59-29.51c12.506-8.607,24.192-18.239,33.418-30.739a20.429,20.429,0,0,1,4.3-4.1,2.944,2.944,0,0,1,4.511.615,37.7,37.7,0,0,1,3.485,4.508c1.435,2.254,1.435,3.484-.615,5.123-2.87,2.459-5.741,4.918-8.611,7.173-6.561,4.918-13.121,9.837-19.477,14.755a534.459,534.459,0,0,1-88.978,54.716,30.121,30.121,0,0,0-8.611,5.738,20.473,20.473,0,0,0-6.355,12.5c-.2,1.64-.2,2.664.82,3.894a72,72,0,0,1,7.995,12.5,29.679,29.679,0,0,0,5.331,7.172c6.971,7.378,13.121,15.165,13.736,25.821.41,5.943,0,11.476-3.9,16.19-3.075,3.689-4.921,4.1-8.816,1.024-3.485-2.869-6.971-5.738-10.456-8.4a4.3,4.3,0,0,1-1.23-.819,42.812,42.812,0,0,0,1.64,13.73,25.488,25.488,0,0,1-1.435,18.239,48.591,48.591,0,0,1-8.2,13.115c-3.075,3.484-6.56,6.763-7.175,11.681,0,.41-.615.615-.82.82-.411-.41-.821-.615-.821-1.025a52.69,52.69,0,0,1-1.025-8.2,54.116,54.116,0,0,1,2.871-17.214c.82-2.664,1.435-5.328,2.255-7.992C722.692,187.191,722.692,187.191,722.487,186.986ZM412.5,188.625c0-.614,1.025-1.229,2.05-1.434-.41.615-.82,1.229-1.435,2.049.82.41,1.64,1.23,2.255,1.025a15.505,15.505,0,0,0,4.716-2.664h-1.64a1.762,1.762,0,0,1-1.436-2.664,8,8,0,0,1,5.331-4.509c-1.64,2.049-4.1,3.074-4.3,5.738,4.3,1.23,6.15-.82,6.355-6.558l-2.46-.614c-1.025-.205-2.46-.615-2.05-2.05s1.64-1.844,3.28-1.434a17.833,17.833,0,0,0-2.255,1.844c1.435.615,2.46.82,4.1,1.435-.615-2.459-1.025-4.509-1.435-6.558a21.532,21.532,0,0,1-2.665.41,16.067,16.067,0,0,1-2.87-1.025,13.783,13.783,0,0,1,1.435-2.254h1.845l.205.205c-.82.41-1.64.82-2.665,1.434,1.64,1.025,3.075.41,4.51.2.2,0,.41-.819.2-1.024-1.025-1.64-1.845-3.484-3.28-4.3-1.23-.82-3.281-.41-4.716.41,1.435,1.025,2.666,2.049,4.1,3.074-2.256-.615-4.511-1.025-6.561-2.459-.82-.615-2.87.41-4.51.82v1.024c1.025.41,2.255,1.025,3.28,1.435-1.435.819-3.895.41-4.3-1.025-.615-1.639.615-2.459,1.845-2.869a26.365,26.365,0,0,1,3.895-.82c.615-.205,1.23-.205,2.05-.41-2.665-2.049-7.79-1.639-9.636-.409-1.435.819-1.025,1.844.41,2.664-2.05,1.024-4.715.819-5.945,3.279.82.2,1.435.409,2.255.614.615-2.254,2.05-2.869,3.69-1.844-.82.41-1.845.82-3.28,1.639a18.022,18.022,0,0,0,2.05,1.025v.41c-.615,0-1.435-.205-1.845,0a27.848,27.848,0,0,0-5.74,2.254,1.892,1.892,0,0,0-.615,1.844c0,.41,1.025.82,1.435.82a20.441,20.441,0,0,0,3.28-.41,19.765,19.765,0,0,0,2.46-.41c-1.64,1.435-3.075,2.255-4.3,3.484-1.435,1.435-1.23,1.845.82,2.664.82-2.254,2.665-3.279,4.92-3.688a45.227,45.227,0,0,1-3.69,2.869c1.025,2.254,2.46.614,3.9.819-1.64,1.64-2.87,3.279-4.51,4.919a9.451,9.451,0,0,1,2.05,1.024c.41-2.459,2.05-3.279,4.716-3.893-1.436,1.229-2.666,2.254-3.9,3.279,1.845,1.024,3.076.409,4.306-.205a25.634,25.634,0,0,1,3.9-.615,43.838,43.838,0,0,0-2.05,4.508c-2.05-1.229,0-2.254.205-4.1-1.435,1.229-2.46,2.049-3.281,2.869a2.909,2.909,0,0,0-.41,1.229,2.922,2.922,0,0,0,1.231.41,7.284,7.284,0,0,0,2.05-.41C410.448,190.88,412.088,190.88,412.5,188.625Zm299.738-84.841c.82-.614,1.64-1.024,2.46-1.639v-.2L703.625,104.4a8.307,8.307,0,0,1-2.255,0,11.57,11.57,0,0,1,.82-2.459,17.348,17.348,0,0,0,2.05-2.869,8.57,8.57,0,0,0-2.05.82,119.939,119.939,0,0,0-23.167,13.525c-5.536,4.1-11.071,7.992-16.4,12.3-9.636,7.787-15.786,17.829-19.272,29.51-1.845,6.353-3.69,12.705-3.28,19.468.41,7.378-.615,14.755-1.64,22.133a22.255,22.255,0,0,0-.205,3.688c0,3.074,1.845,4.919,4.92,5.328,1.846.205,3.486.41,5.331.615a19.088,19.088,0,0,0,14.146-2.869c8.611-5.738,18.042-10.861,23.987-19.878a134.86,134.86,0,0,0,9.021-17.009c1.025-2.459,1.025-5.328,1.435-7.992,1.23-7.993,4.716-15.165,8.406-22.338,3.28-6.148,6.766-12.295,9.636-18.648,2.46-5.328,4.3-10.862,6.356-16.19,0-.205.205-.41.41-1.229C718.181,101.53,715.311,102.555,712.236,103.784ZM227.981,183.092c-11.071,1.435-22.142,2.869-33.213,4.919-8.816,1.639-17.427,4.3-26.038,6.352a4.262,4.262,0,0,1-2.255.2,33.942,33.942,0,0,1,4.306-1.229c9.841-2.459,19.681-5.124,29.522-6.968,10.866-2.049,22.142-3.279,33.213-4.918a46.059,46.059,0,0,0,15.992-5.328c-2.05-2.664.82-4.1,1.435-6.353-5.945,3.074-11.891,1.229-17.837,1.844-4.305.41-8.61,1.025-12.916,1.64-9.226,1.434-18.451,1.844-27.472-.615-4.716-1.23-9.636,0-14.352.82a38.813,38.813,0,0,0-17.426,7.377c-3.691,2.869-7.586,5.533-11.481,8.4-2.05,1.435-3.076,3.689-3.9,6.148-.615,2.049-1.23,4.3-1.845,6.353-.82,3.074.205,5.123,3.28,6.148,2.871.819,5.946,1.229,8.816,2.049,4.716,1.434,9.431,3.484,14.147,4.713,14.556,3.894,28.7,3.894,42.233-3.688,10.661-5.943,20.912-12.5,29.728-20.9,2.665-2.664,5.331-5.328,7.791-8.2,1.23-1.435,1.845-3.484,2.665-5.329a.717.717,0,0,1-.41-.2C245,180.633,236.592,181.863,227.981,183.092Zm153.354,19.469a37.711,37.711,0,0,0,14.351-10.247,19.432,19.432,0,0,1,2.051-2.049c1.025-.82,1.64-1.435,1.23-2.869-.205-1.025.82-2.254,1.435-3.484-1.025-.41-2.255-.41-3.075-1.23-.82-.614-.82-2.049-1.231-3.278-8.815.819-17.426,2.869-25.422,7.787a82.709,82.709,0,0,1-14.761,7.377,77.72,77.72,0,0,1-31.368,5.124,4.673,4.673,0,0,1-2.255-.615c3.075-.205,6.15-.205,9.226-.41,13.736-1.025,27.062-4.509,38.543-12.3,7.791-5.328,16.607-6.967,25.627-7.992a4.673,4.673,0,0,0,2.256-.615c-.41-.205-.82-.205-1.23-.41-2.256-.615-2.666-2.459-1.231-4.1A19.485,19.485,0,0,1,398.147,171c-2.666,1.025-5.536-.205-8.406-1.434-2.255-1.025-4.511-2.049-6.561-2.869a12.647,12.647,0,0,0-13.121,1.434,31.686,31.686,0,0,0-5.535,4.919c-4.921,5.328-11.071,8.812-17.222,12.091a20.782,20.782,0,0,1-3.075,1.434c-2.461.82-3.281,0-3.076-2.459a35.544,35.544,0,0,1,4.1-12.706c1.845-3.279,3.895-6.558,5.74-9.631l1.435-2.869c-4.92.409-9.43.819-13.736,2.254-5.33,1.844-10.456,3.893-15.171,7.377-5.331,3.894-8.611,9.222-10.866,15.37a52.386,52.386,0,0,1-2.255,4.918,5.093,5.093,0,0,0,.205,5.123c2.255,3.279,2.05,6.558-.82,9.632a25.51,25.51,0,0,0-1.641,2.459c-2.87,4.714-1.23,8.2,4.306,10.042,6.56,2.254,13.531,3.279,20.5,4.918,3.075.82,5.74-.41,8.61-1.024a5.91,5.91,0,0,0,4.511-3.689,22.487,22.487,0,0,1,6.355-7.583,92.063,92.063,0,0,1,11.687-8.2,10.724,10.724,0,0,1,4.3-1.434c5.125-.615,7.381.819,7.586,5.738A25.982,25.982,0,0,1,381.335,202.561Zm32.6-56.971a92.444,92.444,0,0,1,.2-10.656,64.959,64.959,0,0,0-8-35.453A111.148,111.148,0,0,0,398.557,88a26.117,26.117,0,0,1-1.435-2.459c3.075,1.844,4.92,4.713,6.765,7.582a67.557,67.557,0,0,1,11.686,33.4c.205,4.1-.2,8.4-.41,12.5a37.812,37.812,0,0,0,1.025,13.526c.41,1.639,1.64,3.074,2.461,4.508,1.435,2.664,3.075,5.328,4.51,7.992,2.05-1.024,4.51-2.254,6.356-3.278.615-3.279.82-6.148,1.435-9.222.82-4.1,1.64-8.4,2.87-12.5,2.665-7.992,3.28-15.984-.41-23.772-1.025-2.049-1.64-4.508-2.665-6.558-4.921-11.476-12.916-19.468-24.808-23.566-6.97-2.254-13.736-5.123-18.451-11.681-2.871,7.582-4.306,14.96-1.435,22.542,3.28,8.4,5.125,17.009,6.97,25.821,2.05,10.041,7.381,18.034,14.557,25.206a70.447,70.447,0,0,0,5.74,5.328,17.927,17.927,0,0,0,2.05,1.64C414.958,151.943,414.138,148.869,413.933,145.59Zm107.02-21.927c-7.176-.205-14.351,0-21.527-.615-10.661-.82-21.322-1.845-31.778-2.869-1.435-.205-2.665-.615-4.51-1.025q9.225.615,17.836,1.23c9.841.615,19.887,1.639,29.728,2.049,7.586.205,15.171,0,22.757-.205a23.413,23.413,0,0,0,11.481-4.1,41.171,41.171,0,0,1-5.125-.2c-1.23-.205-2.87-.41-3.486-1.23-.41-.615.41-2.254.821-3.689-10.456-4.3-21.322-8.812-33.829-6.557-11.891,2.254-23.782.819-35.468-1.025-6.56-1.025-13.531-1.23-20.092-1.64-1.845-.2-3.69.41-5.74.615,1.845,6.763,2.46,13.321.615,20.083,10.251,3.689,20.092,8.4,30.753,9.632a86.943,86.943,0,0,0,24.192.205c8.406-1.23,16.606-2.869,25.012-4.1a111.758,111.758,0,0,0,18.247-4.1,2.047,2.047,0,0,0,1.025-.82c.82-1.844,1.64-3.689,2.665-5.738C537.15,124.277,529.154,123.868,520.953,123.663Zm20.707,3.688c-1.025.41-1.845.615-2.87,1.025-6.766,2.664-14.147,3.279-21.322,4.508a236.4,236.4,0,0,1-23.782,3.279c-13.122.82-26.038-.205-38.544-5.533-4.1-1.844-8.406-3.279-12.916-4.918-3.9,11.681-9.431,22.952-11.071,35.658,4.92-1.23,9.226-.615,13.736.819a4.193,4.193,0,0,0,2.255,0c19.272-5.328,38.544-10.861,58.021-16.189,10.251-2.664,20.706-4.713,30.752-7.377a416.843,416.843,0,0,0,41.824-13.936c4.511-1.844,9.021-3.279,13.531-4.918.205,0,.411-.2,1.026-.615-3.486-.205-6.356-.615-9.226-.615-3.486-.205-6.971-.205-10.456-.205-.82,0-1.845-.2-2.46.205-2.871,1.435-5.946.41-8.816.41a6.312,6.312,0,0,0-2.665.615c-5.331,3.484-10.456,7.173-15.582,10.656a9.132,9.132,0,0,0-1.64,1.025A27.525,27.525,0,0,0,541.66,127.351ZM608.5,149.279c7.381,2.049,14.762,4.3,22.142,6.148a19.2,19.2,0,0,0,9.636,0c1.23-.205,1.64-.82,2.05-2.05A58.008,58.008,0,0,1,654.01,131.86c4.921-5.738,11.071-10.247,17.222-14.55,3.69-2.664,7.381-5.738,11.276-8.4-1.025.41-2.05.615-3.075,1.024-11.891,3.894-22.142,10.247-32.188,17.624-5.741,4.1-11.891,7.583-18.042,11.271-.41.41-1.025.41-1.845.41,2.46-1.639,4.92-3.074,7.381-4.713,6.15-4.1,12.3-8.4,18.451-12.5a87.414,87.414,0,0,1,23.987-11.886c7.586-2.459,14.557-6.353,21.732-9.631.205,0,.411-.2.616-.2,4.3-1.64,8.4-3.484,11.891-6.558a32.2,32.2,0,0,1,4.715-2.664,13.156,13.156,0,0,0-7.381-.41c-4.51,1.025-9.225,2.254-13.736,3.689-7.791,2.459-15.786,2.869-23.782,3.484a74.945,74.945,0,0,0-9.431,1.435c-4.305.82-8.611,2.049-12.916,3.074-7.381,1.844-14.146,5.123-17.837,12.3-1.845,3.484-2.665,7.377-4.3,10.861a57.09,57.09,0,0,1-13.736,18.239,23.89,23.89,0,0,1-4.511,2.664,12.52,12.52,0,0,1-2.87,1.434v.615C606.651,148.459,607.471,149.074,608.5,149.279Zm-149.869,85.66a.716.716,0,0,1-.41-.205c.615-.614,1.025-1.229,1.64-1.844,9.431-9.632,13.737-21.313,14.557-34.428.2-3.074-.2-6.148-2.665-8.4-6.356-6.558-12.712-13.116-19.067-19.468-2.255-2.46-4.511-5.124-8-6.148-2.05-.615-4.3-1.025-6.356-1.435,8,9.427,9.636,20.493,9.021,31.969-.205,4.509-1.23,8.812-1.845,13.116-1.23,8.4-1.845,16.8.615,25,1.23,3.689,3.485,7.173,4.921,10.861a18.607,18.607,0,0,0,7.79,9.427c2.666,1.64,4.306,1.639,6.356-.615,5.125-6.148,9.636-12.705,11.481-20.7s3.895-15.984,3.485-24.386c-.2-4.3-1.845-7.992-4.1-11.886C475.029,211.168,470.723,224.693,458.627,234.939Zm-53.92-87.3c-6.56-3.893-12.916-8.607-20.5-10.861-6.15-1.844-11.891-4.918-18.041-6.967a30.746,30.746,0,0,1-14.147-9.632c-3.28-3.894-7.38-7.173-11.276-10.656-3.895-3.689-8.4-3.279-12.916-1.23a81.426,81.426,0,0,0-7.175,4.1c-6.356,3.893-11.482,3.483-16.4-1.23-.2-.205-.41-.205-1.025-.615.41,1.025.615,1.64.82,2.049,3.28,6.558,6.766,13.116,10.251,19.469,5.33,9.631,12.3,18.034,22.552,22.747,4.3,2.049,9.226,2.664,13.941,2.869a3.061,3.061,0,0,0,1.435-.615,36.234,36.234,0,0,1,9.636-11.271,3.047,3.047,0,0,0-1.23-.205c-7.791.205-12.916-4.1-17.631-9.632-3.076-3.893-6.151-7.787-9.431-11.476a22.466,22.466,0,0,0-10.046-6.762,2.047,2.047,0,0,1-1.025-.82,9.98,9.98,0,0,1,2.46.205,15.663,15.663,0,0,1,7.586,4.3A100.5,100.5,0,0,1,343,133.7a35.273,35.273,0,0,0,10.251,9.632c3.9,2.254,8.2,2.664,12.3.41,4.1-2.459,8.815-3.074,13.531-2.869,6.561.205,12.916,1.024,18.657,4.1,3.28,1.64,6.355,3.894,9.431,5.738.2,0,.41.205.615.205l.205-.205A15.46,15.46,0,0,0,404.707,147.639ZM298.1,155.427c-7.79.41-14.761,3.484-21.732,6.148a72.968,72.968,0,0,1-11.481,3.074c-1.23.2-3.075-.615-4.3-1.435-4.305-3.074-9.021-2.869-13.736-2.664,3.28,3.074,7.585,3.484,11.686,5.123-3.486,2.05-6.971,4.1-8.406,8.4,1.435-.614,2.665-1.024,3.9-1.434,2.666-1.025,3.486-.41,3.281,2.459a21.527,21.527,0,0,1-.41,2.664c.82-.615,1.64-.82,1.845-1.434,3.69-4.919,9.226-6.763,14.351-9.017a107.963,107.963,0,0,1,17.222-6.148c7.38-1.845,14.966-3.074,22.552-4.3,4.3-.819,8.816-1.434,13.121-2.049,1.845-.205,3.485-.41,5.536-.82-1.846-1.434-3.281-2.664-5.126-3.893a1.751,1.751,0,0,0-1.435,0c-7.586,2.459-14.556,1.024-21.527-2.255a96.851,96.851,0,0,1-16.4-10.451c-8.815-6.558-17.426-13.32-27.267-18.239-5.126-2.664-10.661-4.508-15.787-7.172-6.355-3.279-12.711-7.173-18.861-10.862-7.586-4.508-15.787-7.172-23.783-10.451-7.38-3.074-14.556-6.558-21.937-9.632-3.075-1.23-4.715-3.689-6.355-6.353l-2.46-4.3c-.205,0-.615.2-.82.2.82,3.074,1.64,5.943,2.46,9.222-1.845.615-3.691,1.23-5.741,1.844v.41c2.255.41,4.306.615,7.176,1.23-3.075,1.64-6.356,2.664-7.791,5.533,2.665-.82,5.126-1.435,7.586-2.459,3.075-1.23,5.945-.615,8.816.2a160.687,160.687,0,0,1,17.426,6.558c7.586,3.279,14.967,6.968,22.347,10.861,5.126,2.664,10.046,5.738,14.967,8.812.205.2.41.41.41,1.23a18.773,18.773,0,0,1-3.486-.205c-11.891-3.074-23.987-3.689-36.288-3.689-14.761,0-29.523-.614-44.284-.819-5.945,0-12.1.614-18.042,1.024-8.4.615-16.811,1.23-25.217,2.05a242.412,242.412,0,0,0-29.728,4.713c-5.331,1.229-10.661,2.049-16.2,2.869-1.64.205-3.485-.41-5.33-.615a9.024,9.024,0,0,1-2.05-.41c-.205.205-.205.41-.41.615,1.845,2.049,3.9,3.894,5.945,5.943-2.05.615-4.1,1.435-6.561,2.254,4.715,1.64,4.715,1.64,4.305,5.738.82-1.024,1.435-1.844,2.255-2.869,2.05-3.484,5.33-5.328,9.021-6.762,9.841-3.689,20.092-5.329,30.343-6.558,9.636-1.23,19.067-2.049,28.7-2.869,6.766-.41,13.326,0,20.092-.205,11.686-.205,23.372-.82,35.263-.82,9.431,0,19.067.41,28.5.82,5.535.41,11.071,1.434,16.606,2.049,9.021.82,17.222,3.894,25.628,6.558A19.78,19.78,0,0,1,261.6,125.3c5.741,3.894,11.481,7.992,17.427,11.886l17.836,11.681,4.306,3.074a20.611,20.611,0,0,1,1.845,2.049A11.258,11.258,0,0,1,298.1,155.427Zm-117.475,91.4a20.45,20.45,0,0,1,8.815-5.328,56.1,56.1,0,0,1,21.732-3.279,14.357,14.357,0,0,0,9.021-2.869c3.486-2.664,6.561-5.533,8.611-9.426,1.23-2.255,3.075-4.3,4.51-6.558,2.461-4.1,4.716-8.2,6.766-12.5a77.451,77.451,0,0,1,9.636-15.78c2.665-3.483,5.125-7.377,7.586-10.861-3.076-2.049-.615-4.3-1.435-6.558-.411.41-1.026.82-1.231,1.23-1.435,5.533-4.92,9.427-8.815,13.32-8.611,8.2-18.452,15.165-25.628,25-3.075,4.3-7.585,7.377-12.1,10.246-3.485,2.255-6.766,4.509-10.046,6.763a4.3,4.3,0,0,1-2.255.82c11.481-7.993,23.372-15.37,30.753-27.461-2.05,1.435-4.1,2.664-6.356,4.3-10.456,7.377-21.937,11.476-35.058,10.656-1.23,0-2.255.205-2.665,1.435-1.025,2.869-2.46,5.738-2.871,8.607-.82,5.738-1.025,11.476-1.435,17.214a21.241,21.241,0,0,0,.205,3.279A7.443,7.443,0,0,1,180.622,246.825Zm360.423-145.09c-8.611-2.049-16.2-6.148-23.372-11.476-8.406-6.148-16.812-12.3-26.038-16.6-3.485-1.639-6.97-3.279-10.661-4.918,0-.2.2-.41.2-.615,5.126,2.254,10.661,4.1,15.582,6.968,7.38,4.3,14.351,9.017,21.322,13.935,7.175,5.123,14.761,9.222,23.167,11.476.41.205.82.205,1.23.409h.205c0-4.713-3.69-7.172-6.766-10.041-6.97-6.353-14.761-11.271-22.962-15.78-4.92-2.869-10.046-5.533-15.171-8.4a78.024,78.024,0,0,0-25.833-8.4c-5.74-1.025-11.276-1.844-17.016-2.664,0,.205,0,.41.2.41,7.176,2.664,10.866,8.812,14.966,14.755,3.691,5.328,7.381,10.656,12.3,14.755a20.809,20.809,0,0,0,6.561,3.689c4.3,1.435,9.021,2.459,13.326,3.894,7.381,2.459,14.352,5.533,21.732,7.992,7.176,2.255,14.557,4.509,22.347,5.124C545.145,103.17,543.505,102.35,541.045,101.735ZM427.054,183.3C433,194.568,435.87,206.454,433,219.365a44.915,44.915,0,0,1-3.075,8.812c5.535-15.575,3.69-30.33-4.306-45.085a36.339,36.339,0,0,0-.2,4.509c0,6.762-2.255,12.91-5.33,18.443a64.888,64.888,0,0,0-6.356,16.19c-1.845,7.377-5.125,14.345-8.406,21.312-2.87,5.738-4.92,11.886-7.38,18.034.205.205.41.205.41.41a5.537,5.537,0,0,0,1.64-1.434c7.176-7.583,15.991-12.3,25.217-16.6,4.511-2.049,8.406-5.123,12.506-7.787a4.05,4.05,0,0,0,1.23-2.254c1.436-6.148,2.666-12.5,3.9-18.649.82-4.1,1.23-8.2-.82-12.5a102.064,102.064,0,0,0-15.582-24.591c-.2,0-.615.205-.82.205A19.481,19.481,0,0,0,427.054,183.3Zm24.808-16.6a3.955,3.955,0,0,0,2.05.615c15.786-3.484,31.163-8.607,46.744-13.526,8.816-2.664,18.042-4.918,27.063-7.172,11.481-2.869,22.962-5.328,33.828-10.042,10.046-4.3,20.707-7.172,31.368-10.041a40.343,40.343,0,0,0,13.941-6.148,20.879,20.879,0,0,1,6.971-2.869c4.715-1.23,9.43-2.664,14.351-2.254a1.461,1.461,0,0,0,1.23-.615c.82-1.435,1.435-2.664,2.46-4.509-3.895.41-7.585,1.025-11.276,1.23-13.326,1.025-26.652,2.049-39.978,2.869a33.788,33.788,0,0,1-12.712-2.049c-3.28-1.025-5.33-3.074-7.79-4.919a46.73,46.73,0,0,0-6.151-4.3c-3.28-2.05-5.33-4.918-7.381-8.2a57.884,57.884,0,0,0-4.3-6.353c-.205,4.3,0,8.2,2.05,12.091.82,1.434,1.64,2.664,2.46,3.893,1.641,2.05,1.436,3.894-.82,5.328-1.025.615-1.845,1.23-2.87,1.845s-2.255,1.229-3.28,1.844a8.253,8.253,0,0,0-2.665,2.664c4.1,1.025,8.2.41,12.711.615-3.281,3.484-7.586,5.943-6.971,12.091,1.025-.82,1.64-1.435,2.46-2.049,3.691-2.46,7.586-4.919,11.276-7.583,2.871-2.049,5.741-1.844,9.021-1.024.82.2,1.845.409,2.255,0,2.871-1.845,6.151-1.435,9.226-1.435a97.651,97.651,0,0,1,17.222,1.435,4.337,4.337,0,0,1,1.435.614c-.41.41-.615,1.025-1.23,1.23-12.506,4.713-24.807,9.632-37.519,13.935-9.636,3.279-19.476,5.738-29.522,8.4-13.122,3.484-26.448,6.558-39.774,10.042-12.916,3.279-25.832,6.967-38.544,10.246a4.121,4.121,0,0,0-1.64.82A46.315,46.315,0,0,1,451.862,166.7ZM711.006,85.546a21.31,21.31,0,0,0,13.121,3.689v.615c-.41.2-.82.82-1.435.82-6.561.41-11.481,3.689-15.992,8.2-1.23,1.23-2.46,2.254-3.485,3.484,0,.205.2.205.2.41,3.9-1.025,7.791-1.845,11.891-2.869,3.69-1.025,7.381-2.049,11.071-2.869.41,0,.82.2,1.23.2-.205.41-.205.82-.41,1.23-3.69,3.689-4.305,8.2-4.305,13.116,0,2.459.41,4.713.615,7.172h.41c1.025-1.844,1.64-3.893,2.87-5.533a33.674,33.674,0,0,0,4.51-10.451,20.764,20.764,0,0,1,10.046-12.706c11.686-6.558,23.578-12.706,35.059-19.263a546.431,546.431,0,0,0,64.786-43.035c6.56-5.123,13.121-10.451,19.681-15.78.41-.41.821-.615,1.231-1.025,2.05-2.049,2.05-2.254.615-4.713a17.012,17.012,0,0,0-2.256-3.074c-1.23-1.639-2.255-1.639-3.9-.41-1.025,1.025-2.255,2.049-3.075,3.074-7.791,11.681-18.452,20.288-29.523,28.28-9.636,6.968-19.682,12.911-29.728,19.059-11.891,7.173-23.987,13.935-36.083,20.9-4.716,2.869-9.431,5.943-14.146,8.812a61.052,61.052,0,0,1-9.636,4.918c-1.64.615-3.9.2-5.741-.41-4.305-1.639-8.2-4.1-12.506-5.738-5.125-1.844-10.661-2.869-16.606-4.3C702.4,82.062,707.315,83.087,711.006,85.546ZM538.175,106.039c-10.661-2.255-20.707-6.353-30.753-10.042-5.331-2.049-11.276-3.074-17.017-4.3A87.617,87.617,0,0,1,477.9,88c-3.075-1.23-6.561-1.025-9.636-1.639-9.021-1.64-18.452-2.049-27.062-5.943-2.256-1.025-4.306-2.459-6.561-3.484a5.791,5.791,0,0,0-3.69-.41,57.549,57.549,0,0,0-6.766,2.664c3.485,2.664,6.561,5.123,9.841,7.582,1.23,1.025,2.46,1.844,3.69,2.869,3.9,3.074,7.586,6.353,11.481,9.222a25.245,25.245,0,0,0,13.122,4.509c9.225,1.024,18.451,2.254,27.677,3.074a31.117,31.117,0,0,0,6.151-.41v-.615c-2.871-.41-5.536-.82-8.406-1.435-4.1-1.024-8-2.049-11.891-3.278C470.723,99.276,465.8,97.637,460.677,96a65.69,65.69,0,0,1-8.815-3.484c4.1,1.229,7.995,2.254,12.1,3.484,6.15,1.844,12.1,4.1,18.246,5.943,6.971,1.844,13.942,3.894,21.117,3.074a51.875,51.875,0,0,1,27.268,4.3c2.46,1.024,4.92,2.049,7.586,2.869a3.336,3.336,0,0,0,2.46-.2c2.05-1.23,4.1-2.664,6.15-3.894l.41-.41C544.12,107.063,541.045,106.653,538.175,106.039ZM166.68,80.218c-3.895-2.254-7.995-4.508-12.1-6.968-5.945-3.279-12.3-3.689-18.862-2.869a65.784,65.784,0,0,0-16.4,4.918c-5.741,2.459-11.686,4.1-17.632,6.353a41.1,41.1,0,0,0-5.33,2.049c-2.05.82-2.255,1.844-.41,3.074a56.885,56.885,0,0,0,7.585,4.508c5.946,3.074,11.892,5.943,18.657,6.558,3.9.205,7.586,0,11.481,0,8.816,0,17.017-2.459,25.013-6.353,3.28-1.639,6.56-3.279,8.815-6.558a13.091,13.091,0,0,1-1.435-.41c-7.585-.2-15.171-.82-22.757-.41-5.125.205-10.251,1.435-15.376,2.459-6.151,1.23-12.3.41-18.247-.2q-.307,0-.615-.615c2.46.2,4.715.2,7.176.41A43.4,43.4,0,0,0,130.8,84.931c8-2.254,16.2-2.254,24.6-1.435,3.281.2,6.561.2,10.251.41C163.4,81.242,166.065,81.037,166.68,80.218Zm545.351,53.691c-1.435,6.558-2.666,13.321-3.486,20.083a63.866,63.866,0,0,1-6.355,19.469c-3.691,7.582-8.816,14.14-14.352,20.492a2.429,2.429,0,0,1-1.435.82l4.306-5.533a82.108,82.108,0,0,0,14.761-26.846c1.23-4.3,1.435-9.017,2.255-13.525,1.23-6.353,2.666-12.911,4.1-19.263a2.844,2.844,0,0,0,0-1.845c-1.435,2.459-3.076,4.714-4.511,7.173-4.51,7.992-8.816,16.189-9.636,25.616-1.025,10.656-6.355,19.058-12.506,27.256-3.69,4.713-8.611,7.992-13.326,11.271l-8.611,6.148c-.205.2-.615.409-.615.819-.615,3.484-1.025,6.968.615,10.247.82,1.434,1.64,1.844,3.28,1.024,9.636-5.123,18.657-11.271,27.678-17.419a15.493,15.493,0,0,0,6.356-8.4c1.025-2.869,3.075-5.533,4.715-8.2,3.895-5.738,7.381-11.476,8.816-18.239a21.364,21.364,0,0,0,.205-8.812c-1.435-6.352-.82-12.5.205-18.853,1.025-5.533,1.845-11.066,2.665-16.6-.41,0-.615-.205-1.025-.205A91.525,91.525,0,0,0,712.031,133.909Zm17.631-18.034a41.96,41.96,0,0,0,6.561,15.985c3.075,4.713,6.355,9.222,9.226,13.935a22.979,22.979,0,0,1,3.485,13.73c-.205-.614-.205-1.024-.41-1.639-.82-6.763-3.895-12.3-7.791-17.624-4.1-5.533-7.995-11.066-10.046-17.419-1.025-2.869-1.64-5.943-2.665-9.632a61.918,61.918,0,0,0-2.46,5.943c-.205.41,0,.82-.205,1.025-.205.41-.82.82-1.025,1.434a5.433,5.433,0,0,1-1.025-1.229c-1.64-3.484-1.435-7.378-1.64-11.066,0-1.435.205-3.074.205-4.919-2.051,2.869-2.256,6.148-2.461,9.222-.615,9.632,2.256,18.444,5.536,27.256a110.627,110.627,0,0,0,6.765,15.165,33.1,33.1,0,0,0,6.356,7.787c3.075,2.869,6.561,5.328,10.046,7.992,3.075,2.459,4.1,2.049,6.561-1.025,3.69-4.713,4.51-10.041,3.9-15.779-.82-9.222-6.151-15.985-12.1-22.133a44.058,44.058,0,0,1-9.021-13.115c-1.64-3.484-4.1-6.763-6.356-10.246C729.252,111.777,729.457,113.826,729.662,115.875ZM407.988,192.929c-3.076.615-4.1-.205-3.9-3.279a4.3,4.3,0,0,0-4.1.82c-4.1,3.279-8,6.557-12.1,9.836-3.281,2.869-7.381,4.1-11.481,5.124-.615.2-1.64.614-1.64,1.229-.821,4.918-1.436,9.837.82,14.345a10.377,10.377,0,0,0,4.1,4.3c4.51,1.844,9.226,4.1,14.351,3.688s10.251-.819,14.147-4.713a17,17,0,0,0,3.9-5.533c2.46-5.328,4.715-10.656,7.176-15.985,2.255-4.918,2.665-10.246,3.895-15.984-3.69,1.844-6.151,5.123-9.841,4.508a81.5,81.5,0,0,1-15.581,19.879c-4.921,4.508-10.456,8.4-17.017,10.246a67.471,67.471,0,0,0,26.037-22.542c1.641-2.254,3.281-4.714,4.921-6.968l-.41-.41A5.405,5.405,0,0,1,407.988,192.929Zm-59.456,68.856a28.414,28.414,0,0,1,8.2-1.229c3.485,0,6.766-1.23,9.841-2.46,4.51-2.049,9.021-3.688,13.736-5.328a73.06,73.06,0,0,0,23.372-13.115c3.9-3.484,5.536-8.2,7.176-12.911.2-.819.41-1.639.82-2.869-.41.41-.615.41-.82.615-3.075,5.943-8.406,9.017-14.556,10.451-4.1,1.025-8.611,1.025-12.917,1.23a128.4,128.4,0,0,1-15.376-.41,32.251,32.251,0,0,1-5.946-1.639,4.84,4.84,0,0,0-2.46.205c-10.251,6.148-16.606,15.369-19.887,26.845a21.46,21.46,0,0,0-.82,3.484v.41C341.971,264.244,345.047,262.81,348.532,261.785ZM716.951,126.327c-.82,5.738-1.64,11.476-2.05,17.214-.205,3.074-.615,6.148.205,9.017,2.05,7.582.2,14.755-3.075,21.517a72.914,72.914,0,0,1-6.561,10.862,23.151,23.151,0,0,0-4.51,14.55c.2,6.557-2.051,12.09-7.176,16.189a9.654,9.654,0,0,0-3.9,9.017c.205,1.639.82,2.254,2.255,1.844a6.948,6.948,0,0,0,2.87-1.844c3.69-4.509,7.176-9.222,11.071-13.525,7.176-7.788,11.686-17.01,16.2-26.231a22.974,22.974,0,0,0,1.845-7.378c.615-7.582.41-15.37,1.435-22.952.82-6.148-.41-11.476-2.46-17.009a60.989,60.989,0,0,1-4.1-19.264c0-.409-.2-.614-.2-1.024h-.205A52.666,52.666,0,0,0,716.951,126.327Zm-106.4,80.947c-3.69,1.639-6.765,3.074-9.841,4.713-4.715,2.664-9.84,4.3-14.966,5.943a140.911,140.911,0,0,0-14.146,6.148c-.615.205-1.23.615-1.846.82a.716.716,0,0,0-.205-.41c3.9-2.049,8-4.1,12.1-5.943,4.51-1.844,9.225-3.074,13.736-5.123,5.33-2.254,10.456-5.123,15.786-7.992a32.115,32.115,0,0,0-6.15-1.025c-7.791,0-15.582.82-22.757,4.508a132.026,132.026,0,0,0-12.916,7.378c-5.331,3.689-8.816,9.222-12.1,14.755a43.345,43.345,0,0,0-2.255,4.3c-.615,1.64-.205,2.05,1.64,2.05a44.413,44.413,0,0,0,5.126-.82c6.97-1.025,13.941-2.049,20.707-3.279,7.38-1.23,14.351-3.484,20.092-8.607a14.144,14.144,0,0,0,2.255-2.664c2.46-4.1,5.125-7.992,7.585-12.091C611.161,209.733,609.111,210.143,610.546,207.274ZM217.73,165.468a43.842,43.842,0,0,1-13.326-5.123c-4.716-2.869-10.046-3.279-15.377-2.459-4.3.615-8.815,1.639-13.121,2.459a18.054,18.054,0,0,1-3.485.41c-4.511-.41-7.791,1.639-11.276,4.1l-13.531,9.837c-2.051,1.64-3.9,3.484-5.946,4.918-1.23,1.025-1.23,1.845-.205,2.869,2.05,2.05,4.715,2.665,7.381,3.279.615.205,1.23-.41,1.845-.819,5.945-3.894,11.481-8.4,18.041-11.067,7.586-3.074,15.787-4.713,23.783-3.074,6.97,1.435,13.941,2.255,20.912,1.435,4.51-.41,9.02-1.435,13.531-2.254,1.845-.205,3.69-.41,5.74-.615v-.205C227.776,167.723,222.855,166.493,217.73,165.468Zm31.983.82c-6.971,0-12.1-3.484-15.992-8.812a81.033,81.033,0,0,1-5.74-8.812c-3.9-6.353-8.406-12.091-14.351-16.6a2.029,2.029,0,0,1-1.025-1.435,28.705,28.705,0,0,1,3.28,2.05c5.535,4.1,9.636,9.426,13.121,15.369,2.255,3.689,4.715,7.173,7.381,10.862,3.69,5.328,9.021,6.762,15.581,6.352-1.64-.819-2.87-1.434-3.9-2.049a9.984,9.984,0,0,1-2.87-2.254c-.411-.41-.41-1.435-.616-2.254a1.56,1.56,0,0,1,.821-.41c-2.256-2.664-4.511-5.533-6.971-7.993a27.435,27.435,0,0,1-5.946-9.221,34.607,34.607,0,0,0-7.995-12.091c-5.536-5.328-12.1-8.4-20.3-5.738-2.05.615-2.665,1.639-2.255,3.279,1.23,4.3,2.665,8.4,4.1,12.5,1.64,4.919,5.535,8.2,9.021,11.681a88.686,88.686,0,0,0,17.016,13.321,36.533,36.533,0,0,0,11.891,4.508c2.871.615,4.716-.205,7.791-2.459A3.922,3.922,0,0,1,249.713,166.288Zm-79.342-88.53c-7.176-3.074-13.327-7.582-19.887-11.886a117.465,117.465,0,0,0-17.222-9.427C122.6,51.937,112.35,54.4,102.509,59.93c-3.69,2.254-7.585,4.3-11.276,6.353-1.025.615-2.05,1.435-3.075,2.049a.753.753,0,0,0,.205.615,28.989,28.989,0,0,0,4.51,1.229,18.725,18.725,0,0,1,8.816,4.3c5.536,4.508,5.536,4.508,12.1,1.844,6.356-2.459,12.712-5.738,19.682-6.763a33.775,33.775,0,0,0-12.711-2.049c-4.305,0-8.611.205-12.916-.2,2.665-.2,5.33-.2,8-.41A60.165,60.165,0,0,1,134.9,68.537a46.405,46.405,0,0,0,9.226.41c4.921,0,9.021,1.844,13.121,4.1,3.691,2.049,7.381,4.1,11.071,5.943a18.486,18.486,0,0,0,3.281.615c0-.2.205-.41.205-.615C171.191,78.578,170.781,77.963,170.371,77.758Zm224.29,152.468c-4.92.615-9.225-1.025-13.736-2.664a13.733,13.733,0,0,1-8.611-16.189c.615-2.46,1.23-4.919,1.64-7.173.41-2.664-.82-3.894-3.485-3.894a11.349,11.349,0,0,0-5.33,1.23c-5.946,3.689-11.891,7.172-16.607,12.5-3.28,3.688-3.075,6.967,0,10.656a23.141,23.141,0,0,0,9.431,6.558,2.178,2.178,0,0,0,1.64.2l-2.87-2.869a7.827,7.827,0,0,1-1.435-9.427c2.05-4.1,4.92-7.583,9.636-9.017a2.83,2.83,0,0,1,.615.82,2.6,2.6,0,0,0-1.23.205c-.41.205-.616.409-1.026.614a19.552,19.552,0,0,0-6.765,7.378c-1.845,3.484-1.435,6.148,1.23,9.017a19.818,19.818,0,0,0,16.2,6.967c7.381-.205,14.557,0,21.937-1.639,3.281-.82,6.971-2.664,8.816-4.713C401.427,229.406,398.147,229.816,394.661,230.226Zm45.925-111.482c-.2-3.688.2-7.377-.2-11.066-.82-6.763-3.9-12.5-8-17.829C424.8,80.423,414.343,75.5,403.477,71.406a95.866,95.866,0,0,0-10.866-3.484,16.669,16.669,0,0,0-4.51-.2q-1.538,0-1.23,1.844c1.025,5.123,4.51,8.607,8.815,11.066a70.281,70.281,0,0,0,11.276,5.123c11.482,3.894,19.682,11.271,24.4,22.132a108.225,108.225,0,0,1,5.74,16.19c.82,3.278.41,6.762.615,9.836C439.355,129.2,441,124.073,440.586,118.744ZM415.368,250.719a59.4,59.4,0,0,0-16.606,13.525,44.67,44.67,0,0,0-9.431,19.264,11.686,11.686,0,0,0,.41,6.967c11.481-8.607,23.577-15.779,33.418-26.026l-12.3,6.148c-.2-.2-.2-.41-.41-.615,3.075-1.639,6.15-3.483,9.431-5.123a24.459,24.459,0,0,0,11.276-11.886c2.05-4.918,4.51-9.631,6.765-14.55-.205-.205-.41-.205-.41-.41C430.745,243.342,422.749,246.415,415.368,250.719ZM359.4,149.689c-.82,1.024-1.845,1.639-2.46,2.869-4.921,8.4-10.866,16.394-14.146,25.821-.821,2.254-.821,4.508-1.231,7.172.821-.205,1.436,0,2.051-.409,3.895-2.05,7.79-4.3,11.686-6.353,3.485-2.05,5.125-5.533,6.765-8.812,2.051-3.894,3.486-8.2,5.331-12.3,3.28-6.968,8.406-11.886,16.2-12.706,2.461-.205,5.126.82,7.586,1.435.82.205,1.435,1.229,1.845,2.049a17.977,17.977,0,0,0,12.916,9.427,15.526,15.526,0,0,0,3.076-.205,17.8,17.8,0,0,1,4.715.205,26.067,26.067,0,0,1,4.716,1.639,2.824,2.824,0,0,0-.615-.819c-3.691-2.46-7.586-4.919-11.277-7.173-2.87-1.844-5.535-3.484-8.4-5.123a35.507,35.507,0,0,0-6.356-2.869c-4.3-.82-8.611-1.435-13.121-1.845-9.431-.819-15.992,3.689-20.5,11.681a55.772,55.772,0,0,0-6.356,16.805c-.205.614-.205,1.229-.41,1.844l-.205.205A57.661,57.661,0,0,1,359.4,149.689Zm-143.1,4.713c-1.025-1.025-2.665-1.229-3.9-1.639l-11.687-3.689c-4.3-1.23-8.815-2.869-13.326-3.689-2.46-.41-5.33.205-8,.41-8.405.615-16.4,2.869-24.4,5.533l-11.071,3.689c-.41.205-.82.205-1.025.41a21.456,21.456,0,0,0-1.64,2.254c.615.41,1.435,1.025,2.05,1.434a7.061,7.061,0,0,0,6.971-.819c4.92-3.074,10.046-3.279,15.376-1.025,5.536,2.459,11.071,1.025,16.607-.41a35,35,0,0,1,19.477.205,14.234,14.234,0,0,1,2.665,1.025c4.51,3.279,9.841,4.713,15.171,5.738,4.921,1.024,9.841,2.459,14.762,3.484A90.945,90.945,0,0,1,216.295,154.4Zm397.942,55.741q-3.077,4.611-6.151,9.222c-2.255,3.688-4.715,7.172-8.611,9.222-1.23.614-2.255,1.844-3.485,2.664-5.536,4.508-11.891,7.787-18.042,11.066a5.675,5.675,0,0,1-2.665.615c6.561-3.689,12.916-7.378,19.477-11.067-.205-.2-.205-.409-.41-.819-1.025.41-2.05.615-2.87,1.024-5.331,2.05-11.071,2.664-16.607,3.279-1.845.205-3.69.615-5.535.82a3.753,3.753,0,0,0-3.486,2.664,25.566,25.566,0,0,1-8.406,12.3c-.2.205-.41.615-.615.82v.614c1.025,0,2.051.205,3.076.205h10.661c7.79,0,15.376-1.024,21.732-6.353a38.612,38.612,0,0,0,10.046-12.91c3.69-6.968,7.38-13.73,11.276-20.7.82-1.435,2.05-2.869,2.87-4.3l-.615-.614C615.672,209.118,614.647,209.528,614.237,210.143Zm-588.4-73.98c4.305-1.639,8.406-3.688,12.916-4.918A122.365,122.365,0,0,1,51.255,129.2a11.433,11.433,0,0,0,3.28-1.435,33.823,33.823,0,0,0,5.125-3.074,31.654,31.654,0,0,1-6.151.82c-5.741.2-11.481.2-17.222.41-9.431.205-17.837,2.664-24.807,9.427-2.05,2.049-4.1,3.893-6.151,5.738-1.845,1.639-1.64,2.254.615,3.483,7.791,3.894,15.581,2.869,23.372.205,9.431-3.074,17.837-7.992,25.832-13.73.41-.2.615-.615,1.025-1.229-1.23.2-2.46.2-3.485.409-9.226.41-17.632,3.279-26.037,6.763-2.665,1.025-5.33,1.64-8.2,2.459,0-.205-.2-.41-.2-.615C20.707,138.008,23.372,137.188,25.832,136.163Zm498.4,93.038c12.1-4.508,19.887-13.115,23.988-25.206.615-2.049,1.435-3.894,2.05-5.943v-1.434a38.974,38.974,0,0,0-4.1,3.688c-2.05,2.459-4.1,5.124-6.15,7.788-4.716,6.352-10.866,11.271-17.222,15.984a3.863,3.863,0,0,1-1.845.82c9.226-6.968,17.222-14.755,23.372-24.592-1.025-1.024-1.025-1.024.615-4.1-3.28-.41-6.15.615-8.816,1.639-6.97,2.664-11.891,7.787-15.581,14.14-3.075,5.533-5.946,11.066-9.021,17.009C515.828,229.611,520.133,230.841,524.233,229.2ZM370.674,165.878a12.159,12.159,0,0,1,12.1-.615c2.666,1.23,5.331,2.46,8.2,3.689a12.367,12.367,0,0,0,3.895,1.23c1.641.2,3.076.41,4.306-1.64.615-1.229,2.46-1.639,4.1-2.664.2-.615.2-1.639.41-2.664-2.255-1.23-4.51-2.664-6.97-3.894-6.151-3.074-12.3-5.943-19.477-4.1a14.575,14.575,0,0,1-4.306.615c.41-.205,1.025-.615,1.436-.82a18.1,18.1,0,0,1,12.711-.615c4.51,1.435,9.02,2.869,12.711,5.943a8.858,8.858,0,0,0,7.175,1.639,12.937,12.937,0,0,1,8.611,1.435c1.23.615,3.076.615,4.716.82a9.233,9.233,0,0,0-9.431-5.533c-6.356,1.024-11.276-1.64-15.582-5.533a11.277,11.277,0,0,1-2.665-3.484c-1.64-3.689-4.715-4.1-8-4.1-6.765,0-13.531,5.738-16.4,12.911-1.845,4.918-4.1,9.631-5.741,13.32C364.729,170.387,367.6,167.927,370.674,165.878Zm355.3-.205c-.82,11.066-1.025,22.338-4.92,33.2a36.033,36.033,0,0,0-1.846,18.648,8.062,8.062,0,0,0,.41,1.23c1.846-5.328,5.946-8.607,9.226-12.706,4.511-5.738,7.586-12.091,8.2-19.263a36.921,36.921,0,0,0-1.025-9.427,50.231,50.231,0,0,1-1.025-13.525,2.209,2.209,0,0,0-.41-1.64,41.474,41.474,0,0,1-6.766-12.09l-.82-1.64C726.382,154.607,726.382,160.14,725.972,165.673Zm-334.8,83.611a125.82,125.82,0,0,1-12.1,5.124c-4.3,1.639-8.816,3.279-12.916,5.123a29.078,29.078,0,0,1-11.071,2.459,36.027,36.027,0,0,0-14.557,4.1c-2.05,1.024-3.28,3.074-3.69,5.738h2.05c6.561,0,13.121.205,19.682,0a20.992,20.992,0,0,0,7.176-1.025c4.1-1.434,7.995-3.279,11.891-4.918a39.205,39.205,0,0,0,12.916-10.247,59.344,59.344,0,0,1,12.711-12.091c1.025-.614,1.435-1.844,2.46-3.073C400.4,243.546,395.891,246.825,391.176,249.284ZM371.084,126.122a62.888,62.888,0,0,1-8.611-7.788c-6.765-7.377-14.761-12.91-24.6-15.574a37.8,37.8,0,0,0-8.406-1.23,59.7,59.7,0,0,0-14.761,1.025c-2.665.615-5.331.615-8.2,1.025a13.435,13.435,0,0,0-3.075.819,1.841,1.841,0,0,0-.615,3.074c4.305,5.738,9.841,8.4,17.016,3.894a69.657,69.657,0,0,1,10.251-5.328c3.691-1.435,7.586-1.23,10.661,1.434,4.511,3.894,8.816,7.583,12.917,11.886a28.285,28.285,0,0,0,13.326,8.812c4.51,1.435,8.816,3.484,13.121,5.328.615.205,1.23.615,1.845.82v-.41A89.51,89.51,0,0,1,371.084,126.122Zm87.133-52.257c-2.665-2.049-4.92-4.3-7.585-6.558a5.158,5.158,0,0,0-2.871-1.23c-5.33-.41-10.661-.82-15.991-1.025-2.665-.2-5.331.2-8,.2-.41,0-.615.205-.82.205-.615.2-1.435.615-1.435,1.025a2.529,2.529,0,0,0,.82,1.639,13.745,13.745,0,0,0,2.87,1.844c4.1,2.254,8.406,4.3,12.506,6.763,6.151,3.689,12.917,5.123,19.887,6.353l14.762,2.459h1.23Zm247.868,12.5a70.607,70.607,0,0,0-17.426-1.025c-9.431.615-18.862,1.435-28.088,2.049-3.69.2-7.176.2-11.071.615,3.075,1.844,5.945,3.894,9.021,5.533,5.535,2.869,11.276,3.279,17.426,2.254,7.586-1.229,15.172-1.639,22.552-3.689,4.511-1.435,9.226-2.459,13.737-3.689C710.6,86.775,708.34,86.775,706.085,86.366ZM512.547,210.553c1.435-3.279,8-9.017,12.1-10.861a54.335,54.335,0,0,1,20.3-4.714c1.025,0,2.05-.82,3.076-1.434-1.641-1.025-2.871-1.64-4.306-2.46a2.926,2.926,0,0,0-1.23-.409c-6.151.614-12.3.819-18.452,2.049-8.61,1.844-15.171,6.763-18.246,15.165a34.222,34.222,0,0,0-1.23,7.992c0,2.254.82,2.664,3.075,2.459a23.7,23.7,0,0,1,6.56.205c1.231.205,1.436-.41,1.846-1.23,2.46-3.893,4.715-7.992,7.38-11.885,1.845-2.665,4.511-4.714,6.766-6.968C523,200.511,517.673,205.43,512.547,210.553ZM54.33,121.613a56.482,56.482,0,0,1-10.251-1.844c-4.305-1.025-8.816-2.664-13.121-3.074-9.431-1.025-17.017,3.074-23.782,9.427-3.28,3.074-4.51,6.967-5.536,11.271,2.665.205,5.125,1.025,7.381-1.435,8.2-8.812,18.862-11.066,30.548-11.066,5.33,0,10.661-.205,15.992-.41a14.362,14.362,0,0,0,2.87-.614C57.405,121.818,56.175,121.613,54.33,121.613Zm369.649,46.519c.2,3.074,2.46,3.074,4.716,3.279a17.458,17.458,0,0,1,9.43,3.279c.615.41,1.025,1.025,1.23,1.025-4.305-1.23-8.815-2.459-13.736-3.894a5.57,5.57,0,0,0,2.05,4.918c1.641,1.845,3.691,3.484,5.126,5.738a96.7,96.7,0,0,1,10.866,20.288c0,.205.2.41.615,1.025a46.091,46.091,0,0,0,1.64-6.763c1.23-10.861-.41-21.312-6.766-30.739-.41-.615-.82-1.025-1.23-1.639-1.64-2.05-3.28-2.869-5.945-1.64-2.87,1.23-5.741,2.254-9.226,3.484C423.364,167.518,423.979,167.927,423.979,168.132Zm-254.428-27.05c4.51.614,9.02.41,13.531,1.434,8,2.049,15.786,4.509,23.577,6.968,1.845.615,3.9,1.229,6.151,2.049-2.051-2.459-4.306-4.3-5.741-6.558-1.64-2.664-3.9-3.688-6.561-4.713a86.871,86.871,0,0,1-9.635-5.123c-4.1-2.459-8.611-2.869-13.327-2.869-4.92,0-9.226,1.844-13.736,3.483-2.05.615-3.9,1.23-6.151,1.845C161.35,139.647,165.45,140.467,169.551,141.082ZM537.97,85.546c-4.306-3.484-8.611-7.377-13.327-10.246-7.995-5.123-13.941-12.091-19.271-19.673a44.6,44.6,0,0,0-4.921-5.943c-1.435-1.435-2.255-1.23-2.87.615A24.253,24.253,0,0,0,497.171,63c.41,1.844,1.64,2.664,3.28,3.484,12.506,6.558,24.807,13.73,35.673,22.952a31.2,31.2,0,0,1,4.511,4.508A7.384,7.384,0,0,0,537.97,85.546Zm12.711,107.383A42.2,42.2,0,0,1,547.4,196l.2.2c1.231-.41,2.666-1.025,4.1-1.64.205,2.869.205,5.328.41,8.2.615-2.664,1.23-4.713,1.64-6.967a4.149,4.149,0,0,1,2.665-2.869c9.226-4.1,18.452-7.992,27.473-12.3a49.376,49.376,0,0,1,15.171-4.3c3.486-.41,6.971,0,10.251-.41,3.9-.41,7.586-1.435,11.481-2.05,1.845-.409,3.9-.409,5.536-1.024,3.9-1.23,7.585-2.459,11.276-3.894a2.13,2.13,0,0,0,.82-1.639c.2-1.025.41-2.05.615-3.279-8.816,6.558-18.862,7.377-29.113,6.967a37.561,37.561,0,0,0-12.711,2.05c-7.586,2.459-15.171,4.918-22.757,7.787-4.3,1.639-8.406,3.894-12.711,5.533a94.534,94.534,0,0,1-10.866,3.074c-2.05.41-4.306,0-6.356,0a.2.2,0,0,1-.205.2C546.58,190.675,548.426,191.7,550.681,192.929ZM165.45,67.717a42.563,42.563,0,0,0-6.97-4.918c-7.176-3.894-14.762-7.377-21.938-11.271a46.935,46.935,0,0,0-19.066-4.918c-3.9-.2-7.791-.615-11.686-.82-1.641,0-3.281.2-4.921.2a1.232,1.232,0,0,1-.205.82c4.716,1.435,9.226,3.279,14.146,4.508a103.06,103.06,0,0,0,11.072,1.639c6.97.82,12.916,3.894,18.656,7.582,7.586,4.713,15.172,9.632,22.552,14.345.82.41,1.64.82,2.666,1.23A12.016,12.016,0,0,0,165.45,67.717Zm301.583.41c-1.845-2.459-3.485-5.123-5.74-7.173-3.486-3.484-8-4.918-12.712-6.148a31.841,31.841,0,0,0-4.3-.82h-1.435a3.994,3.994,0,0,0,.2,1.639c1.025,1.435,2.05,2.869,3.075,4.1,9.431,10.861,20.092,20.288,32.8,27.051L482,88c1.026.41,2.051.615,3.076,1.025C476.874,84.316,472.364,75.914,467.033,68.127ZM305.273,212.4c-1.025-4.508,1.435-7.582,3.895-10.861a4.622,4.622,0,0,0,.2-5.738c-2.255-3.279-1.845-6.353.205-9.427,1.026-1.639,1.436-3.484,2.461-5.123,1.435-2.869,3.075-5.738,4.715-8.607-3.485,2.664-7.586,4.713-10.456,8.4-2.87,3.894-5.535,7.992-8,12.091-2.05,3.484-.82,5.328,3.281,5.738.82,0,1.64.205,2.665.205-2.255,1.229-4.92.819-7.791-1.23C295.432,204.815,296.867,208.3,305.273,212.4Zm-66.426.615c-1.64,3.689-1.435,7.377-1.025,11.271.2,2.049.82,4.1,1.23,6.353h.41c.82-2.049,1.64-4.3,2.665-6.353,3.691-7.787,7.586-15.575,10.866-23.567,2.05-5.328,3.281-11.066,4.716-16.6.2-.615,0-1.435.2-1.845A163.675,163.675,0,0,0,238.847,213.012Zm373.134,6.558c-3.69,6.762-7.175,13.525-11.071,20.288A29.435,29.435,0,0,1,590.865,249.9a45.245,45.245,0,0,0-12.507,11.681,9.6,9.6,0,0,0-1.64,2.869,46.631,46.631,0,0,0,6.151-3.484c5.945-4.1,12.506-7.377,16.811-13.525,2.255-3.279,4.306-6.558,6.561-9.837,2.46-3.688,4.92-7.172,7.586-10.861,3.075-4.508,4.92-9.222,3.485-14.755-.205,0-.41-.205-.615-.205C614.852,214.446,613.417,217.111,611.981,219.57ZM679.433,83.087c-8-.2-15.992,0-23.988-.2-7.79-.205-14.351-3.894-20.091-8.812-2.256-1.844-4.511-3.894-6.766-5.943a7.346,7.346,0,0,0-2.255-.82c-.205.82-.615,1.64-.41,2.254.41,4.713,2.665,8.4,7.38,10.246s9.226,3.894,13.942,5.328c5.535,1.434,11.276.615,17.016.2,8.611-.615,17.222-1.025,25.833-1.434a5.678,5.678,0,0,0,1.845-.2v-.41C687.633,83.5,683.533,83.291,679.433,83.087ZM57.61,131.04c-9.636,8.4-20.912,13.73-33.213,17.009a27.033,27.033,0,0,1-14.556-.41c-2.665-.819-2.665-1.024-4.92,1.23a18.26,18.26,0,0,0,12.1,3.484c10.251-.41,19.887-3.074,28.293-9.222,1.845-1.23,3.28-3.074,4.92-4.508,2.665-2.255,5.535-4.3,8.2-6.558.41-.41.82-1.025,1.23-1.435-.205-.205-.205-.41-.41-.615A11.442,11.442,0,0,0,57.61,131.04ZM616.492,204.4c0,.205.205.41.205.615-1.64.819-3.28,1.844-4.921,2.664.205.41.41.615.615,1.024,1.641-.2,3.281-.614,5.126-1.024.615,2.664,1.23,5.123,1.845,7.787h.615V212.4c0-3.689.615-6.967,3.075-10.041,4.921-6.148,9.431-12.3,14.352-18.444,1.435-1.639,1.23-3.279,1.025-5.738-1.845,2.254-3.28,4.3-4.716,6.148-3.485,4.3-6.97,8.607-10.456,12.7s-7.995,5.738-13.121,6.148a4.617,4.617,0,0,0-1.435.205C611.161,205.225,614.032,204.2,616.492,204.4ZM246.638,219.16a122.017,122.017,0,0,0-5.126,11.886,18.938,18.938,0,0,0-.82,5.943c-.205,3.074,0,5.943,0,9.017,0,4.508,1.64,7.787,5.946,9.631a16.632,16.632,0,0,0,2.255.615,13.492,13.492,0,0,0-.82-3.074c-1.23-3.894-2.665-7.582-3.691-11.476-1.23-4.918-.615-10.041.821-14.96,1.64-4.918,3.69-9.836,5.535-14.55.82-2.254,1.64-4.713,2.46-6.967h-.205C250.943,209.938,248.688,214.446,246.638,219.16ZM101.484,48.044a14.979,14.979,0,0,0-9.021-.2c2.665,3.484,3.9,7.582,7.791,9.837a2.694,2.694,0,0,0,2.05.615c4.306-1.639,8.611-3.484,12.3-5.123C110.5,51.527,106,49.888,101.484,48.044ZM575.693,263.22c2.665-3.279,5.536-6.558,8.2-9.837-1.23.205-2.46.615-3.691.82-2.255.41-4.715.41-6.97.819-.82.205-2.05.82-2.255,1.435a47.11,47.11,0,0,0-1.436,5.738,36.32,36.32,0,0,0-.2,4.918A14.456,14.456,0,0,0,575.693,263.22ZM435.46,90.054c1.23,2.254,2.87,5.533,4.511,8.607,0,.205.2.41.2.615.615,1.23.82,3.074,1.845,3.689.82.615,2.665,0,3.895,0a50.3,50.3,0,0,0,5.536-.41h0C445.916,98.251,440.381,93.948,435.46,90.054Zm59.661,120.294a6.349,6.349,0,0,0,4.715,2.459c3.485.615,3.485.615,4.3-2.869.616-2.254,1.641-4.508,2.461-6.763A20.791,20.791,0,0,0,495.121,210.348Zm16.4,13.525c1.23,0,2.46-2.254,3.486-3.689-.206-.2-.206-.409-.411-.614-1.845.2-3.895.2-5.74.41-2.255,0-4.511.409-5.536-2.46-.41,1.64-1.025,3.074-1.435,4.919C505.372,223.053,508.447,224.078,511.522,223.873Zm1.845-28.28c-4.715,2.254-9.226,4.508-13.121,8.4A19.531,19.531,0,0,0,513.367,195.593Z" fill="#fff"/>
    <path id="Path_24" data-name="Path 24" d="M415.573,178.994c-1.845-.205-3.28.82-4.51,2.049-1.025,1.025-4.1,1.025-4.921,0-.2-.205,0-1.025.2-1.434a31.2,31.2,0,0,1,2.461-2.664l-.411-.41a34,34,0,0,0-3.28,2.459c-1.435,1.639-1.025,2.869,1.025,3.689a4.846,4.846,0,0,0,1.64.409h1.641c.615,3.074,3.075,3.894,6.15,1.435a21.532,21.532,0,0,1-2.665.41,2.862,2.862,0,0,1-1.845-.615,1.99,1.99,0,0,1,.205-1.844A32.022,32.022,0,0,1,415.573,178.994Z" fill="#fff"/>
    <path id="Path_25" data-name="Path 25" d="M421.519,173.051c-2.051-.41-3.486.41-4.921,1.434-1.025.82-1.845,1.845-1.025,3.279a2.752,2.752,0,0,0,3.895,1.025c-.615-.205-1.025-.41-1.64-.615-1.435-.615-1.845-1.64-.615-2.664Q419.366,174.28,421.519,173.051Z" fill="#fff"/>
    <path id="Path_26" data-name="Path 26" d="M414.343,177.764c-.2-.205-.2-.41-.41-.41-.615-.615-2.05-1.229-2.05-1.639a5.219,5.219,0,0,1,1.64-2.459,15.125,15.125,0,0,1,2.665-1.64c-2.255-.615-5.535,1.64-5.74,3.689A2.713,2.713,0,0,0,414.343,177.764Z" fill="#fff"/>
    <path id="Path_27" data-name="Path 27" d="M409.218,171.207a22.622,22.622,0,0,0-3.9,1.844c-.41.205-1.025,1.229-.82,1.639a1.922,1.922,0,0,0,1.845,1.025c.82.205,1.435-.205,2.256-.615-1.026-.205-1.846-.205-2.871-.41,0-.205-.2-.205-.2-.41a46.309,46.309,0,0,0,4.1-2.664C409.423,171.616,409.423,171.411,409.218,171.207Z" fill="#fff"/>
    <path id="Path_28" data-name="Path 28" d="M414.753,181.863a18.968,18.968,0,0,1,2.051-1.025v-.205c-.41,0-.821-.205-1.231,0a18.615,18.615,0,0,1-2.665,1.639c.82.41,1.845.82,2.665,1.23.205-.205.205-.41.41-.82A12.007,12.007,0,0,0,414.753,181.863Z" fill="#fff"/>
    <path id="Path_29" data-name="Path 29" d="M402.247,172.641a24.03,24.03,0,0,0-4.1,1.434,1.726,1.726,0,0,0-.82,1.435c0,.41.615.614,1.23,1.229,0-3.074,2.665-2.459,3.895-3.484C402.452,173.05,402.247,172.846,402.247,172.641Z" fill="#fff"/>
    <path id="Path_30" data-name="Path 30" d="M410.038,177.969a2.6,2.6,0,0,0-2.871,1.64,3.452,3.452,0,0,0,.411,1.024c.2-.205.615-.205.82-.41A7.829,7.829,0,0,0,410.038,177.969Z" fill="#fff"/>
  </g>
</svg>
