<svg xmlns="http://www.w3.org/2000/svg" width="267.937" height="419.755" viewBox="0 0 267.937 419.755">
  <g id="vector2" transform="translate(0 -0.25)">
    <path id="Path_1" data-name="Path 1" d="M139.156.694a72.832,72.832,0,0,0-4.287,6.43c-6.259,10.032-9.088,14.319-10.889,16.2a7.864,7.864,0,0,0-1.457,2.315c-.172.6-.429.943-.686.857s-.6.343-.943.943c-.6,1.2-.858,1.458-4.287,5.487-1.458,1.715-2.658,3.258-2.744,3.43-.085.343-1.2,1.715-7.459,8.831a39.751,39.751,0,0,0-4.63,6.173,6.461,6.461,0,0,1-1.458,1.972,8.942,8.942,0,0,0-1.543,2.315A16.9,16.9,0,0,1,97.23,58.74a78.594,78.594,0,0,0-5.659,12.347c-3.687,10.289-5.059,16.2-5.487,23.064-.171,2.315-.343,5.316-.429,6.773a23.077,23.077,0,0,0,0,3.516,5.185,5.185,0,0,1,0,1.629,6.631,6.631,0,0,0,.171,2.486,18.144,18.144,0,0,1,.257,2.315c-.257.772,1.2,9.6,2.229,13.29.257.857.686,2.572.943,3.772a13.352,13.352,0,0,0,.943,2.83,1.848,1.848,0,0,1,.343,1.2c-.086.343,0,.6.257.686a.592.592,0,0,1,.257.686,2.785,2.785,0,0,0,.686,1.8,25.085,25.085,0,0,1,1.543,3.344,38.505,38.505,0,0,0,1.886,4.716c5.487,11.318,5.83,17.662,1.972,30.866-.857,3-2.058,7.374-2.658,9.861-.943,3.858-5.059,15.776-6.859,20.063-.343.857-.943,2.229-1.286,3.086s-1.8,4.2-3.172,7.46-2.658,6.173-2.744,6.516c-.172.429-.343.257-.772-.686-1.286-2.829-1.886-4.973-1.715-5.487a19.273,19.273,0,0,0-1.2-4.63,39.789,39.789,0,0,1-1.629-6.517,16.972,16.972,0,0,0-.772-3.515,42.233,42.233,0,0,1-1.886-7.116,19.437,19.437,0,0,0-.772-2.487,26.234,26.234,0,0,1-1.286-4.63c-.257-1.372-.772-3.6-1.2-5.144a53.487,53.487,0,0,1-1.886-7.545,12.606,12.606,0,0,0-.772-2.915,2.953,2.953,0,0,1-.343-1.629,1.494,1.494,0,0,0-.429-1.287c-.6-.771-.429-1.629,1.115-4.2,1.972-3.258,4.03-7.631,4.2-8.745.086-.6.257-1.715.343-2.573a10.208,10.208,0,0,0-.086-2.829,13.86,13.86,0,0,1-.172-2.744,43.338,43.338,0,0,0-1.543-9.774c-1.886-6-2.572-7.031-6.6-10.717-1.286-1.2-2.315-1.63-6.688-3-5.4-1.629-8.231-1.972-9.517-1.115-2.4,1.629-5.744,11.4-5.83,16.891a44.428,44.428,0,0,0,1.8,11.746c2.4,6.431,7.2,12.347,11.318,13.89,3.43,1.286,5.23,2.315,6.431,3.944a7.125,7.125,0,0,0,1.543,1.629c.943.257,3.344,7.46,4.287,12.6a20.347,20.347,0,0,0,1.543,4.544,64.634,64.634,0,0,1,2.315,6.688,60.022,60.022,0,0,0,1.886,6.259,15.959,15.959,0,0,1,.857,2.829,101.48,101.48,0,0,0,3.087,11.747,7.55,7.55,0,0,1,.514,1.8,10.92,10.92,0,0,0,.171,1.972c.429,3.773.514,9.432.172,10.8a12.6,12.6,0,0,1-1.286,2.915,27.554,27.554,0,0,0-2.572,6.259l-.429,1.286-1.458-1.458a17.14,17.14,0,0,1-2.4-3.172c-.514-.943-1.2-1.715-1.543-1.715s-.6-.343-.6-.857c0-1.029.086-1.029-1.286-.943-1.2.085-1.115-.086-4.287,8.4a22.791,22.791,0,0,0-1.8,6.773c-.343,4.373.257,11.661,1.029,13.033a1.842,1.842,0,0,1,.257,1.286,3.434,3.434,0,0,0,.686,1.715c1.715,2.4,1.629,3.258-.171,8.4-1.629,4.459-5.487,16.462-7.716,23.836-.6,1.886-1.972,7.288-3.258,12-1.2,4.715-2.486,9.088-2.744,9.517-.343.514-.514.6-.429.257a22.279,22.279,0,0,0-1.2-6.345,11.607,11.607,0,0,1-.772-2.572,9.393,9.393,0,0,0-.514-1.972,11.4,11.4,0,0,1-.514-1.972c-.343-1.457-1.886-7.031-3.172-11.06-.172-.686-.514-1.887-.686-2.658a10.12,10.12,0,0,0-.686-1.972,21.313,21.313,0,0,1-1.029-3.258c-.429-1.458-1.715-5.316-2.829-8.489A45.856,45.856,0,0,1,33.526,270a1.535,1.535,0,0,0-.343-1.115,14.981,14.981,0,0,1-1.029-3.172,6.391,6.391,0,0,0-1.029-2.658c-.171-.086-.257-.515-.171-.944a2.917,2.917,0,0,0,0-1.714,12.293,12.293,0,0,1,.257-3.258,14.211,14.211,0,0,0,.343-3.43,70.68,70.68,0,0,1,.772-8.831,39.428,39.428,0,0,0,.343-4.2,32.007,32.007,0,0,1,.343-3.944,96.983,96.983,0,0,0,.514-10.8c0-1.8.086-3.772.172-4.544.171-1.715-.086-5.316-.429-5.745a1.405,1.405,0,0,1,0-1.2c.343-1.115-.772-10.632-1.458-12.947-.343-1.029-.772-3-1.029-4.287a24.031,24.031,0,0,0-1.629-4.973,13.029,13.029,0,0,1-1.2-3.6c0-.514-.172-1.029-.343-1.029a8.156,8.156,0,0,1-1.115-2.229,27.623,27.623,0,0,0-1.972-4.287c-.6-1.2-1.629-3-2.058-3.944-.514-.943-1.115-2.143-1.372-2.658a94.335,94.335,0,0,1-4.03-8.66c-1.2-2.829-2.658-5.744-3-5.83-.257-.086-1.715,2.4-2.572,4.459a13.21,13.21,0,0,1-1.115,2.4c-.343.343-3.687,8.231-5.4,12.776C3.26,183.663.773,193.18.859,194.552a8.2,8.2,0,0,1-.257,2.4c-.857,2.915-.772,13.976.086,15.776a2.427,2.427,0,0,1,.171,1.286c-.257.858,1.115,8.146,2.058,10.889A22.165,22.165,0,0,1,4.2,229.877a14.574,14.574,0,0,0,1.2,3.6,22.427,22.427,0,0,1,.943,2.572,7.469,7.469,0,0,0,.943,2.4c.514,1.2,1.372,3,1.972,4.2,1.458,3.087,3.43,6.6,3.773,6.688A17.085,17.085,0,0,1,14.92,252a8.719,8.719,0,0,0,2.058,2.744,5.114,5.114,0,0,1,1.372,1.543c1.029,1.715,3.087,3.944,3.772,4.2a1.41,1.41,0,0,1,.857.858,1.41,1.41,0,0,0,.857.857,16.458,16.458,0,0,1,2.572,2.229c1.115,1.2,2.229,2.144,2.315,2.23.943.343,3.087,5.658,4.287,10.974.172.686.6,1.972.943,2.916.6,1.543,1.886,6.087,3,10.46l.514,1.886-1.115-1.115c-.6-.685-1.372-1.371-1.629-1.714a107.864,107.864,0,0,0-10.8-8.832c-2.829-1.972-3.6-2.829-4.544-4.63-.857-1.543-1.458-2.315-2.229-2.486-2.486-.686-3.687.6-3.172,3.344.343,1.629.943,2.058,3.944,3.087a17.448,17.448,0,0,1,4.973,3c1.458,1.2,4.287,3.344,6.345,4.716,3.944,2.572,6.516,5.145,7.716,7.545a3.553,3.553,0,0,0,1.372,1.544c.6.171,1.115,1.629,3.858,10.717a15.227,15.227,0,0,0,1.458,3.773c.257.085.343.343.171.686a2.711,2.711,0,0,0,.429,1.629,2.708,2.708,0,0,1,.429,1.629,9.172,9.172,0,0,0,.257,2.743c.857,4.459.943,9.346.171,10.032a13.97,13.97,0,0,0-.857,3.515c-.257,1.8-1.029,5.745-1.629,8.917-1.286,6.088-1.715,8.66-1.543,9.346a16.03,16.03,0,0,1-.515,3.344A32.3,32.3,0,0,0,39.87,359c-.086,1.371-.257,3.344-.429,4.544l-.343,2.143-.686-1.2c-.857-1.372-2.829-10.2-2.915-12.947-.171-4.544-.6-9.345-1.029-10.117a3.176,3.176,0,0,1-.343-1.286c.257-.772-2.4-10.8-2.915-11.232a9.327,9.327,0,0,1-.772-2.487c-.6-3-2.143-6.259-5.144-10.631-.772-1.2-1.972-3-2.572-4.116-1.286-2.229-2.229-2.486-1.8-.429a45.526,45.526,0,0,0,2.829,5.745,30.652,30.652,0,0,1,2.658,5.4,1.217,1.217,0,0,0,.343.943c.6.171,4.116,11.918,5.059,16.719a82.423,82.423,0,0,1,1.2,9.517c.172,2.744.429,5.573.6,6.345l.257,1.458-.943-1.715c-.514-.943-1.715-3.516-2.658-5.659s-2.315-5.144-3.172-6.6a9.145,9.145,0,0,1-1.372-3.087c.086-.257-.429-.943-1.029-1.629a4.424,4.424,0,0,1-1.115-2.315c0-1.029-.6-1.715-.857-.857-.171.514,2.058,8.059,2.4,8.317a10.6,10.6,0,0,1,1.029,2.315,24.926,24.926,0,0,0,1.029,2.743,25.866,25.866,0,0,1,1.029,2.573,40.3,40.3,0,0,0,1.8,4.115c.6,1.2.943,2.144.6,2.058a3.469,3.469,0,0,1-1.115-1.286,50.945,50.945,0,0,0-4.115-6,156.964,156.964,0,0,1-8.231-15.262,7.88,7.88,0,0,0-1.115-2.315c-.257-.086-.429-.6-.514-1.2a13.526,13.526,0,0,0-.686-2.658,66.4,66.4,0,0,1-3.258-18.52,9.054,9.054,0,0,0-.172-1.972,29.529,29.529,0,0,1,.172-5.4c.086-.257.429-.257.772-.171.6.171.6.171.172-.686a2.442,2.442,0,0,1-.343-1.372.875.875,0,0,0-.343-.857.856.856,0,0,1-.343-.943c.086-.343,0-.6-.257-.686-.171-.086-.429.257-.514.686s0,.771.172.686c.429-.172.086,2.572-.686,5.315a5.567,5.567,0,0,0-.343,2.573,8.085,8.085,0,0,1-.086,3.772c-.686,1.372,1.458,15.862,2.658,17.748a8.8,8.8,0,0,1,.857,2.658,20.043,20.043,0,0,0,1.886,5.059c2.058,4.2,7.8,14.4,8.231,14.576.429.086,1.029,1.114,3.172,4.63a20.486,20.486,0,0,0,1.972,2.915,4.368,4.368,0,0,1,.943,1.372,4.161,4.161,0,0,0,1.029,1.372,34.555,34.555,0,0,1,2.915,3.172,17.962,17.962,0,0,0,3.687,3.687c1.372.686,1.715,2.229,1.2,5.659a16.251,16.251,0,0,0-.172,3.343,14.838,14.838,0,0,1-.343,3.516,14.082,14.082,0,0,0-.343,3.258,6.5,6.5,0,0,1-.257,2.4,3.09,3.09,0,0,0-.171,1.886,5.123,5.123,0,0,1-.514,2.486c-.686,1.715-.686,2.23-.257,2.573.429.257.429.686,0,1.2a6.521,6.521,0,0,0-.686,1.8c-.086.6-.686,2.829-1.286,4.887-.6,2.229-.943,3.944-.772,4.029,1.2.343,5.487-16.89,5.23-20.92a18.064,18.064,0,0,1,.514-3.087c.343-1.372.6-3.429.772-4.715.086-1.287.171-2.658.257-3.173,0-.429.086-1.8.172-2.915a33.223,33.223,0,0,1,.686-6.259,19.475,19.475,0,0,0,.343-3.944,10.459,10.459,0,0,1,.171-2.744c.172-.857.514-3.086.772-4.715.943-7.2,3-11.318,8.317-16.72a33.108,33.108,0,0,1,10.2-7.545c4.716-2.315,10.8-4.8,12.6-5.144a8.69,8.69,0,0,0,2.658-.943,2.48,2.48,0,0,1,1.543-.429,3.763,3.763,0,0,0,1.972-.343c.772-.257,3.43-.857,5.83-1.372,4.116-.772,4.458-.772,4.973,0,1.115,1.8,6.088,1.2,6.6-.772.772-2.743-2.744-4.458-5.916-2.829a29.677,29.677,0,0,1-5.659,1.629,96.812,96.812,0,0,0-18.948,5.487c-2.658,1.115-10.632,5.316-13.375,7.031-1.972,1.286-1.972,1.286-1.458.257.343-.6,1.115-1.8,1.715-2.743a28.019,28.019,0,0,0,1.629-2.744c1.458-3.087,1.8-3.687,2.829-4.63a7.324,7.324,0,0,0,1.286-1.543,9.944,9.944,0,0,1,1.715-2.315,17.114,17.114,0,0,0,2.058-2.83,3.782,3.782,0,0,1,1.029-1.372,12.808,12.808,0,0,0,1.886-2.572c1.286-2.057,4.973-7.03,7.116-9.688a4.617,4.617,0,0,0,1.029-1.544c.171-.514,5.23-6.43,14.747-16.976,6.345-7.031,7.974-8.574,11.06-10.632,5.487-3.6,5.4-3.515,8.145-3.515a23.017,23.017,0,0,1,3.258.171,112.923,112.923,0,0,1,13.633,4.973c6.43,3.087,7.03,3.344,10.117,4.2,1.715.515,3.086,1.029,3,1.2a15.628,15.628,0,0,0,4.287,1.286c2.4.514,4.973,1.2,5.744,1.372a5.8,5.8,0,0,0,2.315.257,21.706,21.706,0,0,1,3.773.171c5.23.686,6.687.6,10.631-.085a46.335,46.335,0,0,0,14.319-5.059c3.429-1.8,9.345-5.659,9.86-6.431a16.373,16.373,0,0,1,3.6-2.657c1.715-1.029,3.172-2.058,3.258-2.4.429-1.372-2.658-2.658-15-6.088a126.519,126.519,0,0,0-14.233-3.086c-1.286-.086-3.344-.343-4.63-.515a49.5,49.5,0,0,0-5.487-.343c-1.715,0-3.944-.171-4.887-.257a79.158,79.158,0,0,0-9.946.257c-.772.086-2.315.172-3.6.257a7.365,7.365,0,0,0-2.915.515,1.768,1.768,0,0,1-1.287.257,4.8,4.8,0,0,0-1.8.172c-.6.171-1.972.428-2.915.6a46.594,46.594,0,0,0-8.917,2.229c-1.029.429-3,1.029-4.287,1.458a44.717,44.717,0,0,0-4.887,1.972c-1.372.686-2.915,1.371-3.43,1.543-.857.343-.857.343-.171-.343a3.825,3.825,0,0,1,1.114-.857,2.123,2.123,0,0,0,.944-1.115,8.115,8.115,0,0,1,1.886-1.972,46.308,46.308,0,0,0,6.687-5.573,5.911,5.911,0,0,1,1.715-1.458,16.184,16.184,0,0,0,3.087-2.486c1.029-.943,2.744-2.4,3.687-3.173a8.915,8.915,0,0,0,2.057-1.972,3.436,3.436,0,0,1,.944-1.028c1.028-.6,8.316-8.574,10.031-10.718a40.288,40.288,0,0,1,3.258-3.687,13.58,13.58,0,0,0,2.058-2.315,6.771,6.771,0,0,1,.943-1.2c.429-.515,2.658-3.6,4.8-6.859,3.344-5.059,4.116-5.831,4.63-5.488.686.515,1.286-.6.6-1.029a.541.541,0,0,1-.085-.771c.171-.257.943.257,2.057,1.629a65.249,65.249,0,0,0,12.261,9.774c1.543.943,3.173,1.972,3.6,2.315a3.856,3.856,0,0,0,3.087,1.2.952.952,0,0,1,1.2.428c.515.686.772.772,9.089,3.173,6.43,1.8,10.031,2.572,12.86,2.658a22.54,22.54,0,0,1,2.83.171c1.2.171,4.887.429,6.259.429.771,0,.943.171.771.771-.257.944.858,2.658,1.715,2.573.943-.086.943-.772.172-2.144l-.686-1.2h1.543a12.961,12.961,0,0,1,2.229.171,1.765,1.765,0,0,0,1.286-.257c.772-.514,1.8-.343,1.629.257-.085.257.515.343,1.458.257,1.629-.171,1.715-.171,2.315,0,.257.086.514-.085.6-.428s.343-.429.6-.258c.6.429,5.23-.171,5.916-.771.343-.257.257-.343-.171-.257-.343.085-.429,0-.257-.172a2.463,2.463,0,0,1,1.629,0,5.589,5.589,0,0,0,2.829-.343,10.1,10.1,0,0,1,1.886-.6,50.911,50.911,0,0,0,6.516-1.972,20.128,20.128,0,0,1,2.23-.6,12.371,12.371,0,0,0,3.172-1.115,2.881,2.881,0,0,1,1.629-.6c.514.171,4.973-2.4,5.916-3.344a46.8,46.8,0,0,1,9.774-6.6l4.2-2.229-1.115-1.372c-1.458-1.715-7.288-6.945-8.06-7.2a5.007,5.007,0,0,1-1.629-1.372,6.98,6.98,0,0,0-2.229-1.543c-1.372-.343-1.372-.858-.257-1.544.429-.257.857-.6.857-.857a.471.471,0,0,1,.515-.343c.257.086.514-.171.6-.514s.086-.6,0-.686a5.979,5.979,0,0,0-2.486,1.457c0,.172-.772.515-1.715.858a32.621,32.621,0,0,0-4.03,1.886,38.042,38.042,0,0,1-5.316,2.229,8.7,8.7,0,0,0-3.086,1.372,7.987,7.987,0,0,1-2.658,1.029,22.706,22.706,0,0,0-3.173,1.029,5.357,5.357,0,0,1-2.057.6,12.5,12.5,0,0,0-3.087.943,12.134,12.134,0,0,1-2.744.858,13.965,13.965,0,0,0-3.429.685A131.447,131.447,0,0,1,206.89,215.3c-1.457.086-3.6.258-4.887.429a11.034,11.034,0,0,1-3.086-.086,4.9,4.9,0,0,0-2.23,0c-.686.172-1.372.086-1.457-.085a2.85,2.85,0,0,0-1.887-.086,22.839,22.839,0,0,1-5.573-.686,49.165,49.165,0,0,0-5.744-1.029c-3.944-.257-6.516-.6-7.717-1.2l-1.2-.6,1.886-.258c1.029-.171,3.687-.6,5.745-.943,2.143-.343,4.887-.772,6.087-.943,6.516-1.029,12.432-2.315,12.861-2.744a9.151,9.151,0,0,1,2.744-.686,5.728,5.728,0,0,0,2.486-.685c.086-.429-2.057-.258-2.658.171a1.777,1.777,0,0,1-1.2.086c-.429-.086-.943,0-.943.171-.086.343-1.972.6-3.6.429a5.446,5.446,0,0,0-2.229.343,7.826,7.826,0,0,1-2.315.429,32.047,32.047,0,0,0-3.859.428,28.053,28.053,0,0,1-3.172.343,25.268,25.268,0,0,0-4.115.515c-2.058.343-4.888.686-6.345.771s-2.915.258-3.344.258c-.772.085-6.773-.172-8.745-.343-1.2-.086-1.2-.172.686-.772,1.028-.343,2.057-.772,2.229-.857a25.671,25.671,0,0,1,2.829-.858,60.369,60.369,0,0,0,16.891-7.288c1.715-1.029,6.173-3.6,10.031-5.659,8.746-4.715,7.888-4.2,10.975-6.087,3.172-1.886,5.83-3.087,6.516-2.83a1.532,1.532,0,0,0,1.115-.343,5.687,5.687,0,0,1,2.229-.685,10.23,10.23,0,0,0,3.258-1.029,5.884,5.884,0,0,1,2.229-.686,15.5,15.5,0,0,0,3.515-.257,29.158,29.158,0,0,1,3.516-.343,15.88,15.88,0,0,0,3.258-.343c1.543-.258,2.829-.429,2.915-.429.086.086,3.858.257,5.659.257,2.315-.086,4.544.429,11.575,2.487,3.858,1.114,7.888,2.315,9.088,2.658,2.486.771,2.315.943-2.229,2.4a26.181,26.181,0,0,0-3.944,1.544,9.07,9.07,0,0,1-2.315.771,13.982,13.982,0,0,0-3.173,1.115,15.422,15.422,0,0,1-2.915,1.114,3.968,3.968,0,0,0-1.8.772,2.372,2.372,0,0,1-1.544.429c-1.286,0-9.088,2.572-9.86,3.344a1.125,1.125,0,0,1-1.028.257,1.7,1.7,0,0,0-1.2.257c-.428.257-.514.515-.257.6a.824.824,0,0,0,.772-.171c.171-.172.514-.172.857.086a.627.627,0,0,0,.943-.172,2.182,2.182,0,0,1,1.629-.514c.686,0,1.458-.086,1.629-.343.429-.343,4.116-1.115,7.888-1.715a17.719,17.719,0,0,0,4.03-1.286c1.372-.6,3.087-1.2,3.858-1.458a49.4,49.4,0,0,0,9.089-3.944l3.343-1.886-.943,1.886a31.62,31.62,0,0,1-2.143,3.687,11.018,11.018,0,0,0-1.372,2.572,2.486,2.486,0,0,1-.772,1.286c-.6.429-.514.429.429.172,1.458-.429,6.431-6.945,7.116-9.346.343-1.115-1.286-2.4-4.544-3.515-1.2-.429-3.6-1.286-5.23-1.972-4.887-1.972-14.576-4.373-15.947-3.944a56.38,56.38,0,0,1-6.345.085h-1.372l2.229-1.8c3.6-3,4.2-4.116,6.431-11.746,1.715-5.917,1.972-6.945,1.715-8.489a11.05,11.05,0,0,1,.343-4.287c.514-2.058.6-2.658.085-2.915-1.372-.857-17.148-4.887-17.576-4.544a3.555,3.555,0,0,1-2.058.171c-2.4-.257-6,.343-7.031,1.115-1.371,1.115-1.457.6-.685-2.229,1.114-3.773,2.057-8.489,1.971-10.2a13.675,13.675,0,0,1,.858-3.944c.857-2.23.857-2.487.257-2.916a1.327,1.327,0,0,1-.6-.857c.257-.943-9.6-1.2-11.746-.343-.772.257-7.2.686-7.631.429a12.189,12.189,0,0,0-4.287.171,1.626,1.626,0,0,1-1.115.086,2.07,2.07,0,0,0-1.372.257c-.857.515-2.229.172-2.057-.514.085-.257-.429.086-1.029.771a8.668,8.668,0,0,1-2.058,1.715c-.772.429-.857.343-.343-1.286.943-2.915,1.115-6.6.6-11.232a6.441,6.441,0,0,1-.085-1.715,13.647,13.647,0,0,0-.258-3,9.655,9.655,0,0,1,.6-3.173,6.007,6.007,0,0,0,.428-2.915c-.428-.772-2.915-.171-3.6.772-.257.428-.6.6-.771.428-.6-.686-8.06,4.8-11.661,8.489a12.282,12.282,0,0,1-2.058,1.8,4.99,4.99,0,0,0-1.457,1.543,4.975,4.975,0,0,1-1.286,1.372,11.005,11.005,0,0,0-1.544,1.715c-.428.686-1.714,2.572-2.743,4.116-2.315,3.429-6.516,10.374-6.345,10.46a5.714,5.714,0,0,1-.943,1.372,32.416,32.416,0,0,0-2.915,6c-2.4,6.087-6.945,22.549-6.688,24.435a17.414,17.414,0,0,1,0,3c-.686,7.631-.686,9.089-.171,12.861a12.183,12.183,0,0,1,.085,1.715,70.939,70.939,0,0,0,1.372,8.574c.086.515.429,1.715.6,2.658a41.473,41.473,0,0,0,1.972,5.573c.858,2.058,1.544,4.2,1.372,4.63a1.42,1.42,0,0,0,.086,1.2,6.234,6.234,0,0,1,.6,1.714c.257,1.286.172,1.458-1.972,3.944a23.86,23.86,0,0,0-2.4,3.087,1.368,1.368,0,0,1-.6.772,19.368,19.368,0,0,0-2.058,2.572,19.515,19.515,0,0,1-2.314,3,5.3,5.3,0,0,0-1.287,1.715,13.4,13.4,0,0,1-2.229,2.572,34.742,34.742,0,0,0-3.515,4.03c-2.229,3-10.546,12.175-11.746,13.032-.515.343-2.315,1.972-4.03,3.6-3.858,3.6-5.745,5.316-9.774,8.746a56.668,56.668,0,0,0-6.774,6.43,32.7,32.7,0,0,1-3.172,2.915,9.955,9.955,0,0,0-2.144,2.144,8.508,8.508,0,0,1-1.972,1.972c-1.8,1.372-2.572,2.229-12.347,12.775-6.859,7.459-9.088,9.689-7.631,7.8a56.694,56.694,0,0,0,3.43-7.459c.343-.943,1.029-2.4,1.372-3.258,1.286-3.087,3.687-16.977,3.087-18.177a3.558,3.558,0,0,1-.086-2.144c.343-1.371-.172-5.4-.686-5.487a1.085,1.085,0,0,1-.343-.943c0-.943-2.143-4.887-2.744-5.059a4.51,4.51,0,0,1-1.029-1.543,3.944,3.944,0,0,0-1.115-1.629,3.832,3.832,0,0,1-1.2-1.2c-.772-1.029-.772-1.029.343-2.4.6-.772,2.144-2.83,3.344-4.544,1.286-1.8,2.658-3.687,3.172-4.287,1.2-1.544,2.486-3.087,5.316-6.688a31.593,31.593,0,0,1,4.116-4.459c2.058-1.714,8.916-8.745,9.089-9.345.086-.429,16.976-14.833,17.662-15.176a55.326,55.326,0,0,0,5.23-3.944c1.029-.943,1.544-1.286,4.544-3a3.832,3.832,0,0,1,2.23-.515,4.839,4.839,0,0,0,5.83-4.029c.171-1.972-1.029-3.087-3.172-2.744a5.209,5.209,0,0,0-3.944,2.572,34.916,34.916,0,0,1-4.973,4.2,89.145,89.145,0,0,0-10.118,7.888c-1.286,1.115-3.686,3.259-5.23,4.545-6.259,5.4-9.774,8.745-9.945,9.345a2.755,2.755,0,0,1-1.2,1.286c-.943.686-.943.6.772-3.515,2.229-5.316,2.572-6.173,4.115-10.2,4.2-11.575,5.745-14.147,11.832-20.149a48.615,48.615,0,0,0,4.03-4.287,3.167,3.167,0,0,1,1.8-.6c3.6-.6,4.715-4.63,1.8-6.259-.857-.429-1.286-.429-2.572.257a3.49,3.49,0,0,0-2.058,2.744,5.858,5.858,0,0,1-1.457,2.658,64.568,64.568,0,0,0-7.545,8.231c-2.487,3.429-6.945,11.918-7.717,14.661-.086.343-.686,2.058-1.286,3.773s-1.715,4.716-2.315,6.516c-.686,1.886-1.372,3.687-1.543,4.116-3.087,6-7.116,11.489-15.176,20.663a11.907,11.907,0,0,0-1.457,2.058,6.979,6.979,0,0,1-1.458,1.972,9.39,9.39,0,0,0-1.8,2.572c-.772,1.629-2.572,3.6-3.087,3.258a.9.9,0,0,1-.086-.943c.172-.429.772-1.972,1.286-3.43a68.463,68.463,0,0,1,2.658-6.344c2.4-5.23,3-6.688,4.459-10.375a16.845,16.845,0,0,1,1.715-3.687,12.058,12.058,0,0,0,1.372-2.829,32.494,32.494,0,0,1,1.8-4.116,45.2,45.2,0,0,0,2.144-5.23c.686-1.972,1.629-4.373,2.058-5.487s2.915-9.432,5.573-18.691,4.973-16.891,5.23-17.063a22.287,22.287,0,0,0,1.886-3.172,37.812,37.812,0,0,1,7.974-10.289c1.286-1.115,2.915-2.572,3.515-3.258s2.058-2.4,3.258-3.773c1.2-1.457,3-3.515,3.859-4.544a111.2,111.2,0,0,0,8.831-11.918c.857-1.372,2.486-4.115,3.686-6.087a39.332,39.332,0,0,0,2.658-4.8c.343-.771,1.029-2.315,1.544-3.429,5.4-11.232,7.287-16.462,9.431-27.094A100.28,100.28,0,0,0,151.246,64.4c-.086-1.115-.086-2.229-.086-2.572a28.32,28.32,0,0,0-.772-6.774A2.114,2.114,0,0,1,150.3,53.6a3.257,3.257,0,0,0-.085-1.8,27.268,27.268,0,0,1-.6-3.344c-.086-1.286-.343-3-.429-3.773s-.172-1.543-.172-1.629a14.132,14.132,0,0,0-.428-1.972,25.528,25.528,0,0,1-.686-3.344,5,5,0,0,0-.429-1.886,10.335,10.335,0,0,1-1.2-4.63c.171-.429.085-.857-.086-.857a5.839,5.839,0,0,1-.772-2.229c-.257-1.2-.6-2.658-.771-3.344-.686-2.315-3.773-18.434-3.6-18.949.085-.343,0-.6-.172-.686a6.552,6.552,0,0,1-.429-2.486C140.271.265,140.014-.249,139.156.694Zm-4.115,20.492c-1.286,4.544-2.658,8.917-3.087,9.946-.428.943-1.286,3.6-2.058,5.916a25.346,25.346,0,0,1-1.714,4.544,26.675,26.675,0,0,0-1.544,3.858,130.569,130.569,0,0,1-4.972,12.518c-.944,1.972-2.058,4.716-2.573,5.916a10.576,10.576,0,0,1-1.286,2.658c-.514.429-1.372,3.344-1.029,3.43a15.462,15.462,0,0,0,2.23-3.773c1.114-2.144,2.229-4.373,2.572-4.973s1.372-2.744,2.4-4.716,2.23-4.2,2.658-4.887c.686-1.115,2.4-4.63,4.973-10.46.515-1.2.6-1.8.257-2.4-.342-.686-.342-.857.258-1.115s.943-1.372,2.143-6.259c1.629-6.6,2.315-7.374,1.115-1.115-.429,2.143-1.029,5.316-1.286,7.031s-.686,4.716-.943,6.6c-.258,1.972-.515,4.544-.515,5.745a82.545,82.545,0,0,1-1.114,10.2,5.333,5.333,0,0,0,0,2.4.752.752,0,0,1-.086.857,7.01,7.01,0,0,0-.343,2.658,22.506,22.506,0,0,1-.515,4.287,4.741,4.741,0,0,0-.257,2.229c.172.172-.086.772-.429,1.372a4.012,4.012,0,0,0-.6,2.058c.086.515.172.772.258.6s.257-.086.342.171c.258.857,2.058-7.374,2.658-12.261a24.709,24.709,0,0,1,.6-3.687c.6-2.315,2.057-11.489,1.886-12.175a11.25,11.25,0,0,1,.343-3,52.829,52.829,0,0,0,1.029-6.773c.257-2.572.686-5.573.943-6.859.257-1.2.514-2.744.6-3.43l.086-1.115.6,1.115a4.314,4.314,0,0,1,.343,2.572,4.9,4.9,0,0,0-.086,1.886,6.478,6.478,0,0,1,.086,1.972,11.2,11.2,0,0,0,.257,2.915c.172.772.343,2.143.429,3a2.765,2.765,0,0,0,.428,1.715c.172.086.258.429.172.857a1.52,1.52,0,0,0,.086,1.115,1.2,1.2,0,0,1,.085,1.115,4.7,4.7,0,0,0-.085,1.543c.428,2.144,1.2,7.888,1.371,10.032.086,1.372.258,3.087.343,3.773a10.287,10.287,0,0,1,0,3.258,24.151,24.151,0,0,0,.172,4.116l.343,2.572.343-2.058a12.755,12.755,0,0,0,.171-2.915c-.085-.514-.085-.943.086-.943.172-.086.257-.772.257-1.543a24.038,24.038,0,0,1,.086-2.572,16.227,16.227,0,0,0-.086-2.829c-.085-.857-.171-2.315-.171-3.087a87.246,87.246,0,0,0-.858-12.175,15.88,15.88,0,0,1-.343-3.258,8.4,8.4,0,0,0-.257-2.144,32.382,32.382,0,0,1-.6-6.345,4.428,4.428,0,0,0-.6-1.8,3.609,3.609,0,0,1,0-3.258,14.2,14.2,0,0,0,0-2.83c-.172-2.658.086-3.344.514-1.2a35.107,35.107,0,0,0,1.029,3.515,7.459,7.459,0,0,1,.6,2.572,9.41,9.41,0,0,0,.515,2.658,21.021,21.021,0,0,1,.6,2.572,6.873,6.873,0,0,0,.686,2.229,7.718,7.718,0,0,1,.686,3,10.345,10.345,0,0,0,.428,2.915,6.068,6.068,0,0,1,.429,2.229,58.358,58.358,0,0,0,.943,8.231,16.61,16.61,0,0,1,.258,2.915,3.911,3.911,0,0,0,.342,1.715,4.524,4.524,0,0,1,.343,1.972A15.677,15.677,0,0,0,147.9,61.4a83.385,83.385,0,0,1-1.458,22.121,122.992,122.992,0,0,1-7.03,22.378c-3.944,8.317-4.716,9.86-6.088,12.347-.772,1.457-1.886,3.429-2.572,4.458-.6,1.029-1.629,2.658-2.229,3.687a10.569,10.569,0,0,1-1.458,2.143,18.5,18.5,0,0,0-1.972,2.658c-1.629,2.315-3.258,4.116-2.315,2.573.257-.429.943-1.887,1.629-3.173.6-1.372,1.629-3.429,2.144-4.544a105.874,105.874,0,0,0,4.372-10.117,8.2,8.2,0,0,1,1.286-2.658c.258-.172,1.458-3.859,2.744-8.146s2.829-9.259,3.43-11.06a14.647,14.647,0,0,0,.943-4.8c-.086-.772,0-1.543.171-1.629s.086-.172-.257-.086c-.429.086-.6.514-.686,1.372-.086,1.2-3.772,14.661-4.2,15.433-.086.171-.686,1.972-1.286,3.944-1.543,4.887-3,8.574-3.6,8.917a4.579,4.579,0,0,0-.943,1.972c-.258.943-.686,1.629-.858,1.629-.257-.086-.6.514-.771,1.286-.258.772-.6,1.458-.772,1.458a3.81,3.81,0,0,0-1.115,1.714,8.284,8.284,0,0,1-1.543,2.23,4.259,4.259,0,0,0-1.115,1.629,48.27,48.27,0,0,1-4.629,7.2c-.343.429-1.2,1.543-2.058,2.658a70,70,0,0,1-6.859,8.4l-1.029.772.686-1.372c.343-.772,1.114-2.315,1.629-3.43,1.029-2.057,5.316-13.289,7.545-19.805.6-1.8,1.715-4.888,2.4-6.86,1.8-5.23,6.174-20.406,7.46-25.807.857-3.772.943-4.973.6-5.659-.429-.772-.514-.772-.514.171a20.231,20.231,0,0,1-.686,3.258c-.429,1.2-1.372,4.716-2.23,7.631-.771,3-1.543,5.573-1.629,5.831-.085.171-.771,2.4-1.629,4.887a51.826,51.826,0,0,1-2.4,6.259,59.726,59.726,0,0,0-3.859,8.659,120.965,120.965,0,0,1-4.8,13.29c-2.829,7.031-3.344,8.146-4.287,9.517a9.368,9.368,0,0,0-1.629,3.258c-.172.429-.257.343-.6-.171-.343-.686-.429-3.43-.086-5.916a2.966,2.966,0,0,0-.171-1.543,2.6,2.6,0,0,1,0-1.629,25.471,25.471,0,0,0,.171-5.059,32.764,32.764,0,0,1,.086-4.716c.085-.343.257-3.258.343-6.43s.343-6.774.514-8.06a7.506,7.506,0,0,0,.086-2.744,10.764,10.764,0,0,1,.257-2.915c.943-5.058,1.115-6.773.772-7.373-.429-.6-1.286-.172-1.029.6a32.706,32.706,0,0,1-.858,4.8,27.419,27.419,0,0,0-.771,4.973,2.434,2.434,0,0,1-.086,1.543,19.377,19.377,0,0,0-.772,6.174,35.531,35.531,0,0,1-.342,4.887,104.017,104.017,0,0,0,.085,16.376,20.553,20.553,0,0,1,.086,3.344,11.68,11.68,0,0,0,.171,2.4.82.82,0,0,1,.172.772c-.086.343-.172.343-.429-.172-.343-.6-.514-1.115-1.114-3.944A19.139,19.139,0,0,0,99.8,139.85a5.306,5.306,0,0,1-.6-2.143.944.944,0,0,0-.343-.858A7.867,7.867,0,0,1,98,134.363a4.105,4.105,0,0,0-.943-2.144c-.257-.085-.515-.771-.6-1.543-.172-2.4-.772-4.63-1.2-4.544a.416.416,0,0,0-.257.514c0,.257.086,1.544.171,2.83a9.952,9.952,0,0,0,.686,3.429,2.924,2.924,0,0,1,.343,1.8,7.18,7.18,0,0,0,.343,2.4c.343.944.429,1.8.257,1.887s-.343-.172-.429-.515a27.238,27.238,0,0,0-.943-2.658c-.429-1.028-1.029-2.829-1.457-3.858a20.9,20.9,0,0,0-1.286-3,3.163,3.163,0,0,1-.514-1.715,3.551,3.551,0,0,0-.343-1.714c-.943-2.23-1.372-4.373-2.487-11.232a100.077,100.077,0,0,1-.514-19.721c.943-9.6,4.373-22.035,8.231-29.752.857-1.629,2.143-4.2,2.915-5.745a43.981,43.981,0,0,1,2.486-4.373c.6-.772,1.8-2.572,2.744-4.03a48.476,48.476,0,0,1,3.086-4.03,9.76,9.76,0,0,0,1.629-2.143c.086-.343.686-.857,1.2-1.2.514-.257,1.028-.6,1.028-.772a11.819,11.819,0,0,1,2.058-3.087,152.531,152.531,0,0,0,10.032-13.29c.428-.686,1.714-2.572,2.829-4.115a21.228,21.228,0,0,0,2.315-3.687c.172-.514.429-.943.772-1.029a3.8,3.8,0,0,0,1.2-1.029c.943-1.2,1.115-.686.257.686-.428.6-1.2,1.972-1.8,3.087s-1.629,3.172-2.4,4.458c-.686,1.372-1.629,3.087-1.972,3.858a12.813,12.813,0,0,1-1.543,2.572,23.14,23.14,0,0,0-1.972,3.172,28.927,28.927,0,0,1-2.658,3.944c-.858,1.115-2.144,2.915-2.915,4.115s-1.715,2.744-2.23,3.43c-.943,1.2-3.172,4.716-5.83,9a11.1,11.1,0,0,0-1.457,3.087,2.566,2.566,0,0,1-.858,1.543,7.254,7.254,0,0,0-1.372,2.829c-.343,1.115-.685,2.058-.857,2.058-.343-.086-2.315,4.03-2.315,4.973,0,1.286.686,1.115,1.029-.257.514-1.715,1.715-4.287,2.229-4.63a9.571,9.571,0,0,0,1.629-2.315,79.9,79.9,0,0,1,5.059-7.717c.257-.257,1.8-2.4,3.344-4.716,3.944-5.83,5.23-7.8,6.859-10.032,1.972-2.829,6.516-10.46,6.859-11.746a8.138,8.138,0,0,1,1.029-2.143c.857-1.286,4.8-9.517,5.83-12a18.616,18.616,0,0,1,1.629-3.43c.086-.086.086.515.086,1.286C137.356,12.269,136.327,16.642,135.041,21.186Zm2.143,1.372c-.171.429-.428.772-.6.686-.257-.086-.343-.429-.171-.943.171-.429.428-.772.6-.686A.733.733,0,0,1,137.184,22.558ZM185.455,114.9a19.176,19.176,0,0,1-.085,3.6,19.616,19.616,0,0,0,.428,3.344,8.578,8.578,0,0,1-.343,5.83,16.364,16.364,0,0,1-1.714,3.944,7.255,7.255,0,0,0-1.029,1.972,11.041,11.041,0,0,1-1.629,2.658c-2.229,2.658-2.4,2.915-4.887,6.259a93.957,93.957,0,0,0-7.117,10.2,16.077,16.077,0,0,1-2.057,3.087c-.686.514-4.03,6.859-5.745,10.717-1.543,3.516-2.572,6.431-4.8,14.147-1.2,4.03-1.544,4.8-1.715,4.03a6.252,6.252,0,0,1,.171-2.743,35.79,35.79,0,0,0,.343-4.8,10.032,10.032,0,0,1,.257-3.172,2.451,2.451,0,0,0,0-1.629,5.126,5.126,0,0,1,.086-2.315c1.029-2.916,1.372-5.23.858-5.23-1.715.085-5.916,21.777-4.973,25.807.257,1.2.428,3,.171,2.915a71.421,71.421,0,0,1-1.543-8.659,24.477,24.477,0,0,1-.257-3.087v-4.716a28.8,28.8,0,0,1,.257-4.715,2.327,2.327,0,0,0,0-1.544c-.343-.6.171-3.772,1.286-8.488a15.491,15.491,0,0,0,.6-4.458,22.26,22.26,0,0,1,1.029-5.231c.686-2.315,1.372-4.63,1.458-5.058a48.292,48.292,0,0,1,4.2-8.574c.857-1.286,2.143-3.516,2.915-4.973a19.624,19.624,0,0,1,1.972-3.087c.6-.6,3.6-4.63,5.23-7.03a13.591,13.591,0,0,1,1.629-2.144,6.588,6.588,0,0,0,1.115-1.715,4.46,4.46,0,0,1,1.629-1.715,3.637,3.637,0,0,0,1.114-.857c0-.171.686-.772,1.458-1.458,1.115-.943,1.372-1.028,1.2-.343-.171.429-.428.858-.686.944a1.951,1.951,0,0,0-.771,1.114,4.569,4.569,0,0,1-1.115,1.715,9.639,9.639,0,0,0-1.8,3.344,40.757,40.757,0,0,1-1.715,4.03,6.569,6.569,0,0,0-.772,2.315c.086.686.257.514,1.286-.943,1.2-1.887,2.572-3.773,3.516-5.059.257-.429,1.972-2.315,3.686-4.373,1.715-1.972,3.859-4.458,4.63-5.487a8.432,8.432,0,0,1,1.715-1.8A9.5,9.5,0,0,1,185.455,114.9Zm30.1,13.547c-.257.085-1.372.6-2.487,1.029-5.23,2.057-18.176,11.317-22.635,16.119a19.079,19.079,0,0,1-1.972,1.972,6.72,6.72,0,0,0-1.972,2.143,3.358,3.358,0,0,1-1.114,1.115c-1.286.772-7.288,7.288-7.545,8.231a1.83,1.83,0,0,1-.943,1.029c-1.029.429-2.058,2.658-1.372,2.829.343.086.943-.257,1.372-.771a16.107,16.107,0,0,1,1.629-1.8c.771-.772,1.8-1.972,4.2-4.887a12.373,12.373,0,0,1,1.457-1.543c.6-.6,2.23-2.058,4.973-4.63a7.953,7.953,0,0,0,1.2-1.2c.257-.257,1.028-.857,1.714-1.372a5.71,5.71,0,0,0,1.458-1.457.563.563,0,0,1,.686-.429c.257.086.943-.343,1.543-.857a15.4,15.4,0,0,1,2.572-1.887,5.238,5.238,0,0,0,1.715-1.371c.086-.343.686-.686,1.372-.858a10.768,10.768,0,0,0,2.915-1.543c.943-.686,1.8-1.286,1.972-1.2.172,0,2.572-1.543,5.4-3.429s5.23-3.43,5.23-3.43-.257,1.286-.6,2.744-1.115,5.144-1.715,8.06c-1.372,7.287-2.4,10.8-4.373,14.49-.943,1.8-4.887,6.087-9.26,10.031a65.893,65.893,0,0,0-5.058,4.8,3.408,3.408,0,0,1-1.115.771,21.886,21.886,0,0,0-3.772,3c-1.458,1.372-3.516,3.087-4.459,3.773a7.777,7.777,0,0,0-1.886,1.715,9.023,9.023,0,0,1-1.972,1.714c-3.173,2.23-6.431,4.63-8.231,6.174-.943.771-1.972,1.629-2.315,1.886a108.841,108.841,0,0,0-9.431,8.317,7.688,7.688,0,0,1-1.629,1.972,9.943,9.943,0,0,0-1.887,2.486,4.916,4.916,0,0,1-.771,1.286,2.676,2.676,0,0,0-.6,1.029c-.171.515-.342.686-.514.343-.429-.772,2.486-11.146,4.716-16.805,1.114-2.744,2.315-5.83,2.658-6.773A28.734,28.734,0,0,1,166.078,178c.686-1.457.6-1.457-.171-1.028a18.352,18.352,0,0,0-2.829,3.772,34.3,34.3,0,0,1-2.4,3.687c-.515.429-1.972,3.515-4.287,9l-1.629,3.858.429-2.829c.771-4.63,1.371-6.86,4.029-14.833,2.4-7.117,5.488-14.833,7.117-17.577,1.8-3.258,7.716-12,11.832-17.748.6-.858,2.057-2.83,3.172-4.373a35.547,35.547,0,0,1,6.173-6.945c2.83-1.886,12.861-4.116,19.377-4.287,1.629-.086,4.2-.172,5.745-.257C215.464,128.018,216.236,128.1,215.55,128.447ZM240.757,149.8a5.086,5.086,0,0,1-2.486,1.543A24.519,24.519,0,0,0,233.727,154c-2.315,1.544-5.059,3.258-6.088,3.859a7.042,7.042,0,0,0-2.058,1.543,4.228,4.228,0,0,1-1.543,1.2,13.487,13.487,0,0,0-2.4,1.8,12.019,12.019,0,0,1-2.486,1.972,32.326,32.326,0,0,0-4.887,3.344l-1.115.943,1.372-.429a23.646,23.646,0,0,0,5.83-3.258c5.059-3.515,7.888-5.23,18.777-11.4a10.873,10.873,0,0,0,2.315-1.63.437.437,0,0,1,.429-.342c.171.085-.172,1.714-.686,3.772s-1.458,5.4-1.972,7.545c-2.144,8.231-3,9.775-7.8,13.033a23.592,23.592,0,0,0-3.173,2.572,4.366,4.366,0,0,1-2.486,1.286c-.858.171-2.83.514-4.287.686a17.075,17.075,0,0,0-4.116,1.2,3.935,3.935,0,0,1-1.8.686c-.515-.171-5.916,1.544-6.773,2.144a1.541,1.541,0,0,1-1.115.343c-.429-.086-2.658,1.114-14.661,7.888-4.287,2.4-8.574,4.8-9.518,5.316-3.686,1.886-5.058,2.572-7.63,3.772-5.059,2.4-6.259,2.915-6.774,2.744a2.428,2.428,0,0,0-1.286.171c-.428.172-1.715.6-2.915.944l-2.143.6,2.829-1.715a64.483,64.483,0,0,0,8.66-6c5.23-4.03,5.487-4.287,7.459-5.4a7.333,7.333,0,0,0,2.4-2.057,2.935,2.935,0,0,1,1.543-1.115c.429,0,2.058-1.2,3.515-2.572s2.315-2.315,1.8-2.144a5.871,5.871,0,0,0-2.658,1.972,5.036,5.036,0,0,1-2.744,1.629c-.514-.171-2.315,1.372-2.915,2.4a1.39,1.39,0,0,1-1.2.6,6.643,6.643,0,0,0-2.744,1.2c-1.115.686-4.2,2.743-6.945,4.458-2.743,1.8-6.173,4.03-7.716,5.059-1.458,1.029-3.258,2.229-3.859,2.658a6.435,6.435,0,0,0-1.286,1.114c-.085.258-.171.343-.257.172-.257-.515,2.572-4.973,4.459-7.031a37.7,37.7,0,0,1,3.858-3.6c1.114-.943,2.829-2.315,3.772-3.087,2.058-1.714,6.259-4.972,7.545-5.83,1.887-1.2,7.888-5.916,9-6.945.686-.6,1.715-1.457,2.229-1.8a13.742,13.742,0,0,0,2.487-2.23,20.411,20.411,0,0,1,3.258-2.743,8.919,8.919,0,0,0,1.886-1.544,15.707,15.707,0,0,1,2.315-2.143,52.54,52.54,0,0,0,6.945-6.688,35.7,35.7,0,0,1,3-3.086,13.74,13.74,0,0,0,3.6-5.231c.343-.857,1.2-2.829,1.886-4.287,1.115-2.315,1.458-2.657,2.144-2.486,1.457.429,4.115.343,7.459-.086a25.312,25.312,0,0,1,11.232.943,9.777,9.777,0,0,0,3.686.6C240.071,149.2,240.843,149.367,240.757,149.8ZM60.534,126.9a18.636,18.636,0,0,1,4.458,4.545c.857,1.286,2.4,6.259,2.915,9.431a19.937,19.937,0,0,0,.857,3.6,2.292,2.292,0,0,1,.172,1.543,9.616,9.616,0,0,0,0,2.744,15.692,15.692,0,0,1-1.115,7.888l-.857,1.8-.086-1.715c-.171-2.572-1.2-7.545-1.715-7.888-.6-.429-.943,1.114-.429,1.972.257.343.343.772.171.943a7.513,7.513,0,0,0-.429,2.486c-.086,2.23-1.029,5.917-1.543,6.26-.172.085-.172-.258-.086-.686a1.871,1.871,0,0,0,0-1.2,11.6,11.6,0,0,1-.686-2.743,16.775,16.775,0,0,0-.943-3.344A4.229,4.229,0,0,1,60.791,151a3.262,3.262,0,0,0-.343-1.457,2.236,2.236,0,0,1-.257-1.372c.086-.257-.257-.943-.686-1.372a2.4,2.4,0,0,1-.6-1.629,1.555,1.555,0,0,0-.172-1.115c-.514-.6-.686,2.23-.086,3.344a2.954,2.954,0,0,1,.343,1.629,5.339,5.339,0,0,0,.086,1.629c.086.515.257,2.23.514,3.773.171,1.543.429,3.43.6,4.115.429,1.715.257,1.887-.772.686a12.912,12.912,0,0,0-1.543-1.543,4.139,4.139,0,0,1-1.029-2.143,6.015,6.015,0,0,0-1.029-2.23c-.6-.514-.6-.428-.429,1.458a9.985,9.985,0,0,0,1.543,4.373c.772,1.286,1.286,2.4,1.115,2.486-.343.172-2.486-1.457-3.172-2.572a13.978,13.978,0,0,0-1.458-1.715,5.662,5.662,0,0,1-1.2-1.715,1.624,1.624,0,0,0-.943-1.029,1.04,1.04,0,0,1-.686-.857.8.8,0,0,0-.429-.772c-.6-.171-.686,1.029-.171,1.972a7.878,7.878,0,0,1,.772,1.972c.171.944.171.944-.857.258-1.115-.772-5.23-7.374-5.059-8.06a5.622,5.622,0,0,0-.514-2.058c-1.115-2.829-1.029-9.174.086-13.118.514-1.886,1.115-3.344,1.286-3.258s.086.772-.086,1.543a16.184,16.184,0,0,0,.171,6.688,4.538,4.538,0,0,1-.086,2.4c-.343,1.2.343,3.172,1.115,3.429a.488.488,0,0,1,.343.6c-.086.342,0,.428.257.085a1.657,1.657,0,0,0,0-1.286,12.373,12.373,0,0,1-.429-3.258,7.708,7.708,0,0,0-.514-3.087,2.923,2.923,0,0,1-.086-1.972,4.5,4.5,0,0,0,.171-1.714c-.429-.772.086-7.546.514-7.374a6.775,6.775,0,0,1,.514,1.972c.514,2.915.857,4.63,1.286,5.316a1.5,1.5,0,0,1,.257,1.114c-.172.515,1.715,4.8,1.972,4.63a7.374,7.374,0,0,0-.257-2.315,10.045,10.045,0,0,1-.257-2.915,1.35,1.35,0,0,0-.086-1.029,37.1,37.1,0,0,1-1.543-6.945c0-.085.6.343,1.2,1.029a8.833,8.833,0,0,1,1.115,1.458,51.767,51.767,0,0,0,3.687,7.8c.514.6.6.6.686,0a7.459,7.459,0,0,0,0-1.972,13.09,13.09,0,0,1-.086-1.543c.086-.172-.257-.857-.6-1.543a3.1,3.1,0,0,1-.6-1.629c.171-.515-1.372-2.658-2.915-4.116s-1.286-1.8,1.629-1.715A13.884,13.884,0,0,1,60.534,126.9Zm194.028,79.053a7.457,7.457,0,0,0,1.972,1.372,57.633,57.633,0,0,1,7.117,5.487l1.114,1.029-2.572,1.372c-1.372.771-4.03,2.486-5.83,3.686-3.773,2.658-10.375,6.517-10.889,6.345a9.686,9.686,0,0,0-2.829.772,10.024,10.024,0,0,1-2.573.772c-.085-.172-1.629.257-4.973,1.286-4.372,1.372-16.976,3.515-18.433,3.086a2.1,2.1,0,0,0-1.458,0,3.643,3.643,0,0,1-1.972,0,5.157,5.157,0,0,0-1.8-.171c-.857.257-5.315.171-9.517-.172-11.832-.943-27.179-5.83-32.58-10.374-.858-.772-1.8-1.544-2.058-1.715-.257-.257.943.171,2.743.857,3.944,1.544,10.032,3.173,11.832,3.259a20.482,20.482,0,0,1,2.916.342c4.2.686,6.259.858,7.116.686a10.948,10.948,0,0,1,2.829.086,8.959,8.959,0,0,0,3.687-.257,4.525,4.525,0,0,1,2.058-.343c.171.171.6.086.943-.172.6-.428.429-.514-.857-.685a17.486,17.486,0,0,0-3,0,9.461,9.461,0,0,1-3.344-.343,15.774,15.774,0,0,0-2.4-.429c-.857.257-9.26-1.115-12.775-2.144-4.716-1.371-15-5.658-15.519-6.516-.257-.514,4.03.172,9,1.372,5.316,1.286,8.145,1.8,9.088,1.629a22.457,22.457,0,0,1,4.716.6,42.733,42.733,0,0,0,5.573.858c.943,0,2.4.171,3.172.257a5.858,5.858,0,0,0,2.229-.172,2.8,2.8,0,0,1,1.887-.085c1.372.343,9-.172,13.632-1.029,1.715-.343,4.2-.686,5.4-.858a17.66,17.66,0,0,0,3.687-.943,18.474,18.474,0,0,1,3.6-.857,17.384,17.384,0,0,0,3.515-.943c.772-.343,2.4-.943,3.515-1.286,5.059-1.458,7.545-2.4,8.488-3.173.515-.429,1.115-.771,1.372-.686a20.962,20.962,0,0,0,4.459-1.972C251.389,203.9,252.246,203.812,254.561,205.956ZM154.675,186.75c-.171.257-.257.171-.171-.343.085-.429.257-.6.343-.514A1.056,1.056,0,0,1,154.675,186.75ZM15.949,166.773a14.619,14.619,0,0,0,1.115,3.429,20.5,20.5,0,0,1,1.286,3.172,6.254,6.254,0,0,0,1.2,2.4,8.3,8.3,0,0,1,1.458,2.915,9.858,9.858,0,0,0,1.286,2.83,5.365,5.365,0,0,1,.943,2.315,11.5,11.5,0,0,0,1.2,3.258,4.85,4.85,0,0,1,.772,1.972,14.827,14.827,0,0,0,1.115,3.43,83.271,83.271,0,0,1,4.2,19.805c.086,1.63.171,3.945.343,5.059a19.2,19.2,0,0,1-.086,3.858c-.086,1.029-.257,4.545-.343,7.889a62.067,62.067,0,0,1-.429,7.116,6.707,6.707,0,0,0-.171,2.315,12.065,12.065,0,0,1-.086,2.486,11.8,11.8,0,0,0-.343,2.23c0,.6-.257,2.572-.429,4.287a28.758,28.758,0,0,0-.257,5.144c.172,2.144-.257,5.83-.6,5.745-.429-.172-2.829-4.459-3.687-6.86-.514-1.286-1.029-2.658-1.286-3.172s-.857-2.143-1.372-3.6c-.514-1.543-1.115-3-1.286-3.43-.171-.343-.257-.686-.171-.6a4.557,4.557,0,0,0-.172-1.629c-.772-3.087-1.458-6.859-1.286-7.288.086-.257-.172-.771-.514-1.286a2.582,2.582,0,0,1-.429-1.629,9.247,9.247,0,0,0-.6-3.087c-.429-1.286-.686-2.486-.514-2.572s.172-.428.086-.771a11.3,11.3,0,0,1-.429-2.744,4.659,4.659,0,0,0-.514-2.229c-.514-.172-.6.428-.429,2.315.086.943.172,2.486.172,3.515a5.848,5.848,0,0,0,.772,2.915,1.733,1.733,0,0,1,.257,1.972,2.884,2.884,0,0,0,.172,2.487,14,14,0,0,1,.686,3.172c.086,1.886,2.486,11.146,3.172,12.175a1.536,1.536,0,0,1,.343,1.115,8.887,8.887,0,0,0,.6,2.829c.429,1.286,1.029,3.6,1.372,5.059.6,2.658.6,2.658-.257,2.143a10.354,10.354,0,0,1-2.144-2.4,9.683,9.683,0,0,0-1.629-1.972,8.387,8.387,0,0,1-1.8-2.487,9.857,9.857,0,0,0-1.715-2.4c-.514-.171-4.2-7.288-5.23-10.117-.514-1.458-1.286-3.258-1.629-4.116a33.024,33.024,0,0,1-1.286-4.629,42.858,42.858,0,0,0-1.286-4.888,24.339,24.339,0,0,1-.857-3.772c-.171-1.115-.343-2.4-.429-2.915s-.257-1.887-.343-3.087-.257-3.858-.429-5.916a29.674,29.674,0,0,1,0-5.573,24.726,24.726,0,0,0,.257-3.344,4.123,4.123,0,0,1,.171-1.543,4.736,4.736,0,0,0,.257-2.144c0-4.458,3.344-18.6,6-25.722a18.056,18.056,0,0,0,.857-2.572c.6-1.886.772-.857.6,3.172-.343,7.545-.429,11.318-.343,13.033a51.44,51.44,0,0,0,.6,6.6,6.5,6.5,0,0,1,.086,1.972,10.327,10.327,0,0,0,0,2.315c.086.514.172,1.715.343,2.658a24.085,24.085,0,0,0,.514,3,5.276,5.276,0,0,1,.086,1.972,2.8,2.8,0,0,0,0,1.2,8.615,8.615,0,0,1,.257,2.058,4.735,4.735,0,0,0,.514,2.229.9.9,0,0,1,0,1.115c-.171.257-.171.6,0,.6.257.086.343.6.343,1.2s.086,1.029.171.943c.429-.257.429-2.743-.086-3.687a1.65,1.65,0,0,1-.172-1.371c.429-.6.257-3.516-.172-3.6-.171-.086-.171-.6,0-1.2a6.894,6.894,0,0,0,0-2.658,11.2,11.2,0,0,1-.257-2.829c.086-4.887.343-12.261.429-13.633.086-.943.172-3.258.172-5.144s.086-3.944.172-4.459c.086-.6.086-2.4.086-4.029C14.92,164.543,15.435,163.257,15.949,166.773ZM188.628,263.4l1.715.771L187.6,264a11.634,11.634,0,0,0-3.258.085,1.825,1.825,0,0,1-1.2.086c-.944-.257-3.859.257-4.03.686-.086.172-.686.172-1.286,0-.858-.257-1.286-.171-1.372.343-.172.515.171.686,2.143,1.029,4.287.686,10.461.857,11.661.343.343-.172,0,.343-.858,1.029-2.057,1.715-13.889,8.4-17.233,9.688-7.374,2.83-12.089,3.43-20.063,2.315-1.972-.257-4.373-.6-5.487-.686a96.592,96.592,0,0,1-13.461-3.944c-.772-.343-3.859-1.714-6.86-3.086A91.564,91.564,0,0,0,113.349,267c-.6-.172-.943-.515-.772-.686a.54.54,0,0,1,.6-.086,10.923,10.923,0,0,0,3.516.171,42.632,42.632,0,0,1,4.715,0c.858.086,3.173.086,5.145.086,2.057,0,4.63,0,5.744-.086a21.839,21.839,0,0,1,2.915.172c1.8.429,6.6.257,5.316-.257-.171-.086-.686-.343-1.114-.515a2.643,2.643,0,0,0-1.63-.257,11.686,11.686,0,0,1-2.829-.171c-1.115-.172-2.058-.086-2.058.085-.085.257-.343.257-.6,0a9.086,9.086,0,0,0-3.344-.6c-6.173-.429-13.289-1.029-13.889-1.2-.429-.172-.343-.343.514-.686a3.51,3.51,0,0,1,1.458-.429,19.605,19.605,0,0,0,3.858-1.286c4.03-1.543,13.118-3.344,18.777-3.687,8.831-.514,13.2-.6,18.262-.257,1.029.086,2.572.171,3.6.257a70.948,70.948,0,0,1,11.232,1.629,26.464,26.464,0,0,0,5.745.858C179.711,259.972,183.4,261.172,188.628,263.4ZM68.25,237.937a1.671,1.671,0,0,1,.772.771,30.876,30.876,0,0,0,2.4,3.173c.172.171,0,.771-.429,1.372a8.75,8.75,0,0,0-1.2,2.829l-.514,1.8-1.029-3.259a13.5,13.5,0,0,1-.857-3.858,16.829,16.829,0,0,0-.429-3.772c-.772-3.859-.686-4.459.257-1.458A5.173,5.173,0,0,0,68.25,237.937Zm-4.03,1.972c0,2.743.257,3.6,1.972,6.859l1.972,3.773-.943,2.572c-.514,1.457-1.372,3.858-1.972,5.4-1.029,2.744-1.115,2.83-1.458,1.715a21.176,21.176,0,0,1-1.115-7.373,21.2,21.2,0,0,0-.086-2.83,27.415,27.415,0,0,1,.257-6.859,52.435,52.435,0,0,0,.857-6.088c0-.257.172-.514.343-.428C63.963,236.736,64.134,238.194,64.22,239.909Zm9,4.887c-.515.514-.6.514-.429-.086.172-.686.772-1.2.943-.771C73.823,244.11,73.566,244.539,73.223,244.8Zm3.087,1.886a1.53,1.53,0,0,1,.857,1.029,7.662,7.662,0,0,0,1.286,1.972c.514.6,1.115,1.372,1.372,1.715.172.343.514.686.6.857.857.686,2.229,6.174,1.886,7.46a4.877,4.877,0,0,0,0,2.229,7.838,7.838,0,0,1,0,2.829c-.172.772-.514,3-.772,4.973a61.423,61.423,0,0,1-3.258,12.433c-3.087,8.145-3.858,8.745-2.915,2.572a6.192,6.192,0,0,0-.086-2.658c-.257-.429-.257-.772-.086-.858.343-.171.257-3.686-.086-3.772-.171-.086-.429.257-.6.686s-.086.857.086.857c.171.086.171.772-.086,1.629-.172.858-.6,2.744-.857,4.2-.343,1.714-.515,2.229-.6,1.543a13.725,13.725,0,0,0-.257-1.972c-.086-.515-.343-1.886-.514-3.173a11.856,11.856,0,0,0-.514-2.486c-.086-.171-.343-.857-.6-1.543a61.123,61.123,0,0,0-3.772-8.146,15.539,15.539,0,0,1-1.629-4.287c0-1.028,1.115-3.686,3.172-7.716q1.029-1.929,1.543-1.8c.686.172,1.115-.771.6-1.286s.257-2.829,1.286-3.515a2.9,2.9,0,0,0,.943-1.2c.257-.857,2.4-3.429,2.4-2.915C75.8,246.339,76.052,246.6,76.31,246.682ZM66.106,272.4c2.229,4.8,2.487,5.4,2.315,5.916a.877.877,0,0,0,.343.858,17.229,17.229,0,0,1,1.372,4.2c.514,2.143,1.029,4.2,1.115,4.544.857,3,1.372,7.2,1.115,8.231a11.24,11.24,0,0,1-1.972,3.087,9.86,9.86,0,0,0-1.715,2.4,5.963,5.963,0,0,1-1.029,1.543,49.474,49.474,0,0,0-3.087,4.115c-1.2,1.8-2.486,3.516-2.829,3.944s-1.115,1.544-1.8,2.487c-.686,1.029-2.315,3.515-3.772,5.573a29.1,29.1,0,0,0-3,5.144,5.164,5.164,0,0,1-1.115,2.058c-1.115,1.115-3.687,6-5.487,10.2-1.372,3.258-1.629,3.6-1.543,2.4.086-.857.6-3.6,1.2-6.173,1.029-4.373,1.543-7.117,2.229-10.8.257-1.371,5.23-21.435,5.745-22.892,1.886-6.173,9.26-28.552,9.774-29.666C64.306,268.8,64.649,269.232,66.106,272.4ZM32.668,360.2a.407.407,0,1,1-.257-.514A.416.416,0,0,1,32.668,360.2Z" fill="#93745f"/>
    <path id="Path_2" data-name="Path 2" d="M228.668,199.789c-.686.429-.686.515.257.258,1.029-.258,1.372-.516.772-.687C229.525,199.274,229.1,199.446,228.668,199.789Z" fill="#93745f"/>
    <path id="Path_3" data-name="Path 3" d="M65.764,229.366a1.125,1.125,0,0,0-.172.944c.086.344.343.515.514.344a1.127,1.127,0,0,0,.172-.945C66.192,229.366,66.021,229.194,65.764,229.366Z" fill="#93745f"/>
    <path id="Path_4" data-name="Path 4" d="M14.491,302.076c.257,1.029.943,2.314,1.286,2.4.6.172.686-.943.086-1.8C15.263,301.647,14.32,301.219,14.491,302.076Z" fill="#93745f"/>
    <path id="Path_5" data-name="Path 5" d="M16.549,304.735c-.171.6,2.486,5.484,3,5.655.6.171.857-.685.514-1.714-.429-1.028-2.658-4.112-3.087-4.2A.289.289,0,0,0,16.549,304.735Z" fill="#93745f"/>
    <path id="Path_6" data-name="Path 6" d="M12.691,304.73c-.172.6-.086,1.114.086,1.114.172.086.514-.257.6-.685a1.522,1.522,0,0,0-.086-1.114C13.12,303.788,12.863,304.131,12.691,304.73Z" fill="#93745f"/>
    <path id="Path_7" data-name="Path 7" d="M13.377,306.709c-.343,1.2,1.372,9.516,1.972,9.688a3.193,3.193,0,0,1,.515,1.457,4.216,4.216,0,0,0,.429,1.458c.171.085.343.6.429,1.2.086.686.343,1.2.514,1.2.943.257.429-3.172-1.115-7.2a32.988,32.988,0,0,1-1.372-5.058C14.234,307.052,13.634,305.766,13.377,306.709Z" fill="#93745f"/>
    <path id="Path_8" data-name="Path 8" d="M18.007,322.394a.407.407,0,1,0,.514-.256A.36.36,0,0,0,18.007,322.394Z" fill="#93745f"/>
    <path id="Path_9" data-name="Path 9" d="M19.122,324.538a1.337,1.337,0,0,0,.171,1.032c.6.6.772.172.429-.774C19.293,323.936,19.293,323.936,19.122,324.538Z" fill="#93745f"/>
    <path id="Path_10" data-name="Path 10" d="M32.325,409.764c-.6,2.058-1.372,4.373-1.629,5.145-.6,1.973.086,1.458,1.029-.686,1.543-3.687,2.486-6.946,2.058-7.546C33.526,406.162,33.183,406.848,32.325,409.764Z" fill="#93745f"/>
    <path id="Path_11" data-name="Path 11" d="M29.667,419.538c-.086.431,0,.6.172.345a.935.935,0,0,0,.171-.776C29.924,418.848,29.753,419.107,29.667,419.538Z" fill="#93745f"/>
    <path id="Path_12" data-name="Path 12" d="M141.814,71.783a.407.407,0,1,0,.515-.256C142.071,71.441,141.814,71.526,141.814,71.783Z" fill="#93745f"/>
    <path id="Path_13" data-name="Path 13" d="M115.835,70.665c-.086.431,0,.6.172.345a.936.936,0,0,0,.171-.776C116.092,70.061,115.921,70.233,115.835,70.665Z" fill="#93745f"/>
    <path id="Path_14" data-name="Path 14" d="M129.468,78.81c-.343,1.11-.343,1.452.086,1.281.428-.256.514-.683.428-1.537C129.9,77.272,129.9,77.272,129.468,78.81Z" fill="#93745f"/>
    <path id="Path_15" data-name="Path 15" d="M101.345,70.668a65.736,65.736,0,0,0-2.4,6.773c-1.115,3.515-2.058,6.6-2.144,6.773-.257.686-1.886,7.973-2.229,10.2-.686,3.944-1.372,15.089-1.029,16.8a9.162,9.162,0,0,1,.172,2.486c-.514,1.629,0,7.116.6,6.859.6-.172,1.372-7.545.943-9.517-.171-.685,0-4.715.514-10.8.086-1.2.086-2.4.086-2.743a3.883,3.883,0,0,1,.257-1.372,24.041,24.041,0,0,0,.686-4.544c.257-2.143.514-4.287.686-4.887,1.029-3.6,4.458-16.461,4.373-16.461A1.891,1.891,0,0,0,101.345,70.668Z" fill="#93745f"/>
    <path id="Path_16" data-name="Path 16" d="M114.035,74.609a10.671,10.671,0,0,0-1.115,2.4c-.857,2.312-.686,2.227,1.029-.6C114.892,74.78,114.978,73.752,114.035,74.609Z" fill="#93745f"/>
    <path id="Path_17" data-name="Path 17" d="M140.871,82.58c-.086.428,0,.6.172.343a.925.925,0,0,0,.171-.771C141.128,81.894,140.957,82.151,140.871,82.58Z" fill="#93745f"/>
    <path id="Path_18" data-name="Path 18" d="M140.014,84.208c-.172.516-.086.774.085.516a1.447,1.447,0,0,0,.258-1.032C140.357,83.434,140.185,83.692,140.014,84.208Z" fill="#93745f"/>
    <path id="Path_19" data-name="Path 19" d="M128.439,83.442c-.343.6-.343.767,0,.6a.936.936,0,0,0,.514-.853C128.953,82.845,128.7,82.931,128.439,83.442Z" fill="#93745f"/>
    <path id="Path_20" data-name="Path 20" d="M94.743,121.341a6.335,6.335,0,0,1-.086,1.713c-.343,1.969.343,2.739.857.941.515-1.883.429-2.825-.257-3C94.829,120.913,94.658,121.085,94.743,121.341Z" fill="#93745f"/>
    <path id="Path_21" data-name="Path 21" d="M168.822,130.6c-.6.767-.6.852-.171.937.514.171,1.2-.852.857-1.193C169.422,130.171,169.079,130.256,168.822,130.6Z" fill="#93745f"/>
    <path id="Path_22" data-name="Path 22" d="M158.791,155.807c-.858,1.97-1.115,3.255-.858,3.34.343.086.343.086,1.115-1.713a2.306,2.306,0,0,0,.171-1.627C159.048,155.636,158.876,155.636,158.791,155.807Z" fill="#93745f"/>
    <path id="Path_23" data-name="Path 23" d="M156.818,162.318c-.685,1.289-.6,1.718.172,1.546.6-.172.943-1.288.686-2.147C157.5,161.287,157.247,161.459,156.818,162.318Z" fill="#93745f"/>
    <path id="Path_24" data-name="Path 24" d="M174.567,163.69a3.568,3.568,0,0,0-1.115,1.2,10.362,10.362,0,0,1-1.458,2.145,5.279,5.279,0,0,0-1.114,1.716c.171.257,1.286-.687,1.372-1.116,0-.171.428-.6.943-1.029s.857-.944.771-1.115.172-.515.686-.858c.429-.257.858-.772.858-1.029S175.081,163.347,174.567,163.69Z" fill="#93745f"/>
    <path id="Path_25" data-name="Path 25" d="M169.508,169.689a1.524,1.524,0,0,0,.086,1.116c.171.171.428-.086.6-.687s.086-1.116-.086-1.116S169.679,169.259,169.508,169.689Z" fill="#93745f"/>
    <path id="Path_26" data-name="Path 26" d="M166.593,174.925c-.172.173-.172.346.086.432a.415.415,0,0,0,.514-.259c.086-.26,0-.432-.086-.432A.935.935,0,0,0,166.593,174.925Z" fill="#93745f"/>
    <path id="Path_27" data-name="Path 27" d="M212.978,169.182c-.6.6-.172.86.514.344.429-.258.515-.516.257-.6A1.623,1.623,0,0,0,212.978,169.182Z" fill="#93745f"/>
    <path id="Path_28" data-name="Path 28" d="M194.029,183.752c-.771.687-.686.687.172.258.514-.258.857-.6.771-.773S194.458,183.323,194.029,183.752Z" fill="#93745f"/>
    <path id="Path_29" data-name="Path 29" d="M192.4,184.868c-.257.945-.085,1.117.515.344.171-.258.257-.687.086-.859S192.572,184.353,192.4,184.868Z" fill="#93745f"/>
    <path id="Path_30" data-name="Path 30" d="M54.189,125.706a3.154,3.154,0,0,0,.857,1.2c.514.514.686.514.514.171a3.965,3.965,0,0,0-.857-1.2C54.275,125.449,54.1,125.363,54.189,125.706Z" fill="#93745f"/>
    <path id="Path_31" data-name="Path 31" d="M56.161,127.426c0,.085.6,1.2,1.286,2.658a95.214,95.214,0,0,1,5.4,11.406c.172.6.514,1.2.772,1.287.429.171.514-.086.343-1.287a19.719,19.719,0,0,0-.857-3,4.852,4.852,0,0,1-.429-2.144c.172-.686-1.715-4.546-3.172-6.175C58.647,129.055,56.246,127.168,56.161,127.426Z" fill="#93745f"/>
    <path id="Path_32" data-name="Path 32" d="M64.22,146.024a4.536,4.536,0,0,0,.515,1.292c.343.775.6.947.686.6.172-.689-.343-1.808-.857-1.9C64.392,145.852,64.22,145.938,64.22,146.024Z" fill="#93745f"/>
    <path id="Path_33" data-name="Path 33" d="M46.472,146.374a5.034,5.034,0,0,0,.772,2.057l.857,1.714-.429-1.971C47.244,146.374,46.644,145.517,46.472,146.374Z" fill="#93745f"/>
    <path id="Path_34" data-name="Path 34" d="M261.592,214.448c-.429.343-.943.514-1.029.343a.367.367,0,0,0-.6.086,1.382,1.382,0,0,1-1.2.085,27.705,27.705,0,0,0-6.088.686c-5.744,1.029-9,1.544-12.432,2.058-7.974,1.115-12.432,1.973-13.976,2.659a6.469,6.469,0,0,1-1.972.171,2.947,2.947,0,0,0-2.057.515,1.751,1.751,0,0,1-1.372.428c-.343-.085-.858-.085-1.029.172a1.2,1.2,0,0,1-1.115.086,2.69,2.69,0,0,0-1.714.428c-.772.515-.858.686-.343.6,1.714-.086,7.545-.944,9.088-1.2a8.174,8.174,0,0,1,2.315-.171,9.7,9.7,0,0,0,2.829-.258,18.407,18.407,0,0,1,2.744-.343c.514.172,4.458-.6,6.43-1.286a105.161,105.161,0,0,1,11.061-2.144,27.936,27.936,0,0,0,4.63-1.114,4.444,4.444,0,0,1,2.4-.343c1.715.257,6-1.458,4.545-1.887C262.535,213.848,262.021,214.1,261.592,214.448Z" fill="#93745f"/>
    <path id="Path_35" data-name="Path 35" d="M213.063,222.164c-.171.171-.171.428.086.428.257.085.515-.086.515-.257.085-.257,0-.428-.086-.428A.948.948,0,0,0,213.063,222.164Z" fill="#93745f"/>
    <path id="Path_36" data-name="Path 36" d="M14.92,214.964c.257,1.8.6,2.4.772,1.115.171-1.372,0-2.058-.515-2.229C14.92,213.764,14.835,214.279,14.92,214.964Z" fill="#93745f"/>
    <path id="Path_37" data-name="Path 37" d="M174.652,265.551a.407.407,0,1,0,.515-.258A.416.416,0,0,0,174.652,265.551Z" fill="#93745f"/>
    <path id="Path_38" data-name="Path 38" d="M172.938,265.549a.407.407,0,1,0,.514-.259A.359.359,0,0,0,172.938,265.549Z" fill="#93745f"/>
    <path id="Path_39" data-name="Path 39" d="M154.761,266.407c-.172.173-.172.347,0,.433a.729.729,0,0,0,.772-.26c.171-.173.171-.346,0-.433A1.189,1.189,0,0,0,154.761,266.407Z" fill="#93745f"/>
    <path id="Path_40" data-name="Path 40" d="M153.046,266.319c-.171.172-.171.429.086.429.257.085.514-.086.514-.257.086-.257,0-.429-.086-.429A1.334,1.334,0,0,0,153.046,266.319Z" fill="#93745f"/>
    <path id="Path_41" data-name="Path 41" d="M148.931,265.98c-.6.342-.515.855.171.769a.805.805,0,0,0,.772-.427C149.959,265.894,149.445,265.638,148.931,265.98Z" fill="#93745f"/>
    <path id="Path_42" data-name="Path 42" d="M143.958,265.892c-.515.171-.429.343.171.686.943.6,1.372.429,1.2-.257C145.158,265.806,144.815,265.634,143.958,265.892Z" fill="#93745f"/>
    <path id="Path_43" data-name="Path 43" d="M141.557,266.151a1.191,1.191,0,0,0,.686.6c.343.085.6,0,.686-.257s-.257-.513-.686-.6C141.728,265.723,141.471,265.809,141.557,266.151Z" fill="#93745f"/>
    <path id="Path_44" data-name="Path 44" d="M70.822,255.513c-.171.171-.171.343,0,.429a2.033,2.033,0,0,1,.429,1.458c0,.686.257,1.372.514,1.458s.343.429.257.858a1.907,1.907,0,0,0,.257,1.372,6.085,6.085,0,0,1,.514,2.23,3.746,3.746,0,0,0,.514,2.058,1.646,1.646,0,0,1,.172,1.458,1.411,1.411,0,0,0,.257,1.373.856.856,0,0,1,.343.943c-.086.343,0,.6.257.686.172.086.172.6-.172,1.115a2.363,2.363,0,0,0,0,2.145c.257.6.429,1.115.343,1.2a3.638,3.638,0,0,0-.172,1.373v1.286l.6-1.029a1.927,1.927,0,0,0,.257-1.887,4.556,4.556,0,0,1-.172-2.487,5.412,5.412,0,0,0-.257-2.488,2.152,2.152,0,0,1-.257-1.372c.257-.858-1.029-8.577-1.458-9.006-.171-.086-.171-.429-.086-.686a4.758,4.758,0,0,0-1.458-2.83A1.056,1.056,0,0,0,70.822,255.513Z" fill="#93745f"/>
  </g>
</svg>
