<svg xmlns="http://www.w3.org/2000/svg" width="150.454" height="207.999" viewBox="0 0 150.454 207.999">
  <g id="vector-leaf-5" transform="translate(0 -0.5)" opacity="0.2">
    <path id="Path_1" data-name="Path 1" d="M19.823.861c-.073.365.438,1.023.986,1.315.329.146.511.329.438.475-.146.256.548,1.424,1.1,1.826.219.183.365.438.329.584a7.952,7.952,0,0,0,.876,2.009c1.278,2.337,2.045,3.8,2.775,5.332.657,1.388,1.388,2.7,3.542,6.537.767,1.388,1.424,2.593,1.424,2.7a62.587,62.587,0,0,0,3.725,7.377c.694,1.242,1.315,2.374,1.388,2.447.073.109.548.84,1.1,1.607.986,1.461,1.643,2.045.986.876A23.309,23.309,0,0,1,36.731,30.4a27.677,27.677,0,0,0-1.388-2.958c-.548-1.023-1.424-2.849-1.972-4.054a86.806,86.806,0,0,0-4.054-7.961c-1.169-2.155-2.483-4.565-2.958-5.441-1.5-2.775-3.652-6.172-3.981-6.281a.489.489,0,0,1-.292-.475q0-.329.11-.329a17.018,17.018,0,0,1,2.629,2.337,7.461,7.461,0,0,0,1.351,1.205c.329.183.621.475.621.621a3.827,3.827,0,0,0,.986,1.023c.511.4,1.205,1.023,1.534,1.351.329.365.877.949,1.242,1.315.84.84,3.4,3.433,3.652,3.725s1.351,1.607,2.593,3.177c.584.73,1.68,2.082,2.447,3.031,5.222,6.391,7.085,8.838,7.085,9.166A11.643,11.643,0,0,0,47.8,31.865c2.52,2.994,6.9,10.262,9.678,16.032.548,1.132,1.169,2.447,1.424,2.921,1.315,2.666,2.41,5,3.25,6.975.511,1.205,1.169,2.666,1.461,3.25a15.094,15.094,0,0,1,.8,1.862,41.873,41.873,0,0,0,1.716,4.346,31.088,31.088,0,0,1,1.132,3.214c.365,1.132.84,2.483,1.059,3.031s.548,1.424.694,1.972a3.127,3.127,0,0,0,.475,1.132,2.068,2.068,0,0,1,.438,1.023,56.062,56.062,0,0,0,2.885,7.231,6.737,6.737,0,0,1,.329,1.023,16.619,16.619,0,0,0,1.023,2.337,10.623,10.623,0,0,1,.876,2.045,12.176,12.176,0,0,0,1.242,3.287,5.587,5.587,0,0,1,.621,1.972,7.333,7.333,0,0,0,.73,2.374,12.074,12.074,0,0,1,.8,2.264,7.526,7.526,0,0,1-1.424-1.826c-.767-1.132-1.789-2.447-2.228-2.995-.475-.548-1.169-1.351-1.534-1.862a8.743,8.743,0,0,0-.877-1.023c-.84-.438-11.905-18.515-18.114-29.617-.475-.84-1.57-2.775-2.41-4.309s-1.936-3.506-2.447-4.419c-2.3-4.236-3.141-5.66-3.542-5.953q-.384-.329-.219-.329c.146,0-.11-.511-.548-1.278a10.877,10.877,0,0,1-.876-1.68,1.472,1.472,0,0,0-.511-.657c-.256-.146-.365-.329-.292-.475.183-.329-.292-.986-.511-.694-.11.146.11.694.767,1.79a6.755,6.755,0,0,1,.84,1.789,16.7,16.7,0,0,0,1.607,3.287,34.482,34.482,0,0,1,1.716,3.287,28.871,28.871,0,0,0,1.643,3.1c.913,1.57,1.716,3.1,1.826,3.36s1.132,2.155,2.337,4.236c1.169,2.082,2.41,4.236,2.739,4.82s1.205,2.082,1.936,3.25,1.388,2.3,1.5,2.52C61.638,77.7,71.206,93.217,71.534,93.51c.292.292.365.438.183.438a.677.677,0,0,1-.475-.329,32.325,32.325,0,0,0-3.4-3.177,4.853,4.853,0,0,1-.8-.73c-1.57-1.789-2.155-2.41-2.41-2.447a1.638,1.638,0,0,1-.621-.621,1.638,1.638,0,0,0-.621-.621,6.394,6.394,0,0,1-1.169-1.1A3.33,3.33,0,0,0,61.09,83.9c-.146,0-.548-.4-.949-.913a16,16,0,0,0-2.556-2.849,22.917,22.917,0,0,1-1.9-2.045,18.654,18.654,0,0,0-1.278-1.424,6.066,6.066,0,0,1-.95-1.023c-.621-.84-2.52-3.177-3.506-4.309a16.211,16.211,0,0,1-1.132-1.424c-.109-.219-.949-1.315-1.826-2.447-1.936-2.447-5.989-8.29-7.852-11.284a101,101,0,0,1-5.4-9.751,1.461,1.461,0,0,0-.511-.8,1.386,1.386,0,0,1-.438-.657,10.385,10.385,0,0,0-1.169-2.958,8.893,8.893,0,0,1-1.242-3.1A29,29,0,0,0,28.4,33.655.991.991,0,0,1,28.222,33a6.219,6.219,0,0,0-.767-2.483,5.363,5.363,0,0,1-.365-1.351,6.356,6.356,0,0,0-.8-2.666c-.11-.037-.183-.183-.146-.4a19.268,19.268,0,0,0-1.351-4.748c-.219-.4-.292-.73-.183-.8s.146-.4.037-.694-.256-.8-.329-1.1-.292-1.022-.511-1.643a6.647,6.647,0,0,1-.4-1.826,8.924,8.924,0,0,0-.438-1.972,14.477,14.477,0,0,1-.584-2.41c-.146-1.169-.621-2.3-.8-1.936a3.553,3.553,0,0,0,.11,1.1,5,5,0,0,1,.183,1.059,6.911,6.911,0,0,0,.621,2.52c.256.11.511,1.461.329,1.57-.073.036-.036.219.073.438s.146.4.073.438c-.182.11.219,1.643.548,2.191.146.256.219.548.146.657s0,.4.11.621a4.256,4.256,0,0,1,.329,1.315,3.723,3.723,0,0,0,.219,1.132c.109.219.949,3.579,1.753,6.975.183.73.475,1.68.657,2.191a13.889,13.889,0,0,1,.621,1.972A30,30,0,0,0,29.1,38.256a1.259,1.259,0,0,1,.256.767,9.5,9.5,0,0,0,1.132,3.36,13.988,13.988,0,0,1,.913,2.264,3.006,3.006,0,0,0,.767,1.461,1,1,0,0,1,.438.767c-.11.767,4.93,9.6,8.217,14.462.8,1.169,1.972,2.922,2.593,3.8a128.861,128.861,0,0,0,8.947,11.357c.219.256.8.95,1.315,1.534s1.461,1.607,2.118,2.264,1.607,1.68,2.118,2.264,1.388,1.461,1.972,2.009,1.5,1.388,2.045,1.936,1.205,1.132,1.424,1.315a16.053,16.053,0,0,1,1.461,1.424c.584.621,2.009,1.936,3.177,2.995,1.169,1.022,2.739,2.41,3.469,3.031a12.625,12.625,0,0,0,1.57,1.242,1.134,1.134,0,0,1,.438.4,7.33,7.33,0,0,0,.8.876c.329.292,1.023.949,1.57,1.461s1.278,1.169,1.716,1.534c.84.694,2.045,2.264,5.076,6.573,3.031,4.346,5.04,7.049,5.953,8.144.913,1.059,4.017,5.113,5.478,7.085,1.169,1.607,1.57,2.154,3.542,4.6.876,1.1,2.7,3.616,4.054,5.624s2.812,4.09,3.25,4.638.84,1.132.949,1.278c.621.95,6.574,11.212,7.195,12.453.913,1.79,2.848,5.624,3.14,6.282.11.255.621,1.351,1.1,2.373a64.4,64.4,0,0,1,3.323,8.29,25.883,25.883,0,0,0,.95,2.885,29.037,29.037,0,0,1,1.1,3.579,5.627,5.627,0,0,0,.439,1.57c.219.4.219.4-.147.146a2.958,2.958,0,0,1-.73-.766,23.17,23.17,0,0,0-3.141-3.032,24.977,24.977,0,0,1-2.483-2.337,21.613,21.613,0,0,0-2.191-1.935c-1.242-1.023-2.3-1.972-2.447-2.155a8.518,8.518,0,0,0-2.41-1.935,1.051,1.051,0,0,1-.511-.4,1.972,1.972,0,0,0-.548-.548c-.183-.109-1.1-.767-2.009-1.424a17.549,17.549,0,0,0-2.045-1.351,5.7,5.7,0,0,1-1.862-1.242c-.11-.146-2.7-1.862-5.807-3.835-8.618-5.4-9.166-5.916-12.928-11.686-.95-1.424-2.082-3.1-2.52-3.725-.438-.584-1.424-2.045-2.191-3.14a18.225,18.225,0,0,0-1.57-2.155,19.5,19.5,0,0,1-1.68-2.447,15.962,15.962,0,0,0-1.936-2.7,10.186,10.186,0,0,1-1.205-1.461c-.4-.621-1.022-1.461-1.351-1.862s-.876-1.132-1.242-1.571a20.515,20.515,0,0,0-1.5-1.789,47.4,47.4,0,0,1-3.177-4.309c-.11-.146-.511-.585-.95-1.023a8.132,8.132,0,0,1-1.315-1.643,20.744,20.744,0,0,0-1.862-2.41,19.877,19.877,0,0,1-1.534-1.9c-.183-.329-.986-1.242-3.835-4.638a8.122,8.122,0,0,0-1.023-1.1,13.561,13.561,0,0,1-1.169-1.461,8.855,8.855,0,0,0-1.1-1.351,8.416,8.416,0,0,1-1.132-1.424,13.6,13.6,0,0,0-1.643-1.9,5.821,5.821,0,0,1-1.1-1.242,8.357,8.357,0,0,0-1.059-1.315c-1.936-1.972-3.4-3.542-3.981-4.273-1.169-1.424-1.461-1.753-1.789-1.935A5.305,5.305,0,0,1,41,89.858c-.365-.438-1.059-1.242-1.57-1.753-1.132-1.132-1.534-1.57-2.739-2.848-.511-.548-1.5-1.534-2.155-2.118a11.684,11.684,0,0,1-1.424-1.461,10.5,10.5,0,0,0-1.5-1.534c-.73-.657-2.082-1.972-3.031-2.922s-1.9-1.863-2.082-1.972a16.942,16.942,0,0,1-1.315-1.169,51.065,51.065,0,0,0-3.834-3.615c-.8-.73-1.936-1.716-2.447-2.191a34.049,34.049,0,0,0-3.835-3.068c-.913-.657-1.863-1.388-2.155-1.643a30.36,30.36,0,0,0-3.4-2.337c-1.826-1.1-3.031-1.9-4.163-2.7a7.338,7.338,0,0,0-1.57-.913,1.059,1.059,0,0,1-.548-.329,1.1,1.1,0,0,0-.8-.292,1.034,1.034,0,0,1-.73-.183,2.315,2.315,0,0,0-.84-.365l-.73-.219-.11.8a2.628,2.628,0,0,0,.11,1.242A5.332,5.332,0,0,1,.8,60.241a55.915,55.915,0,0,0,2.045,6.683,4.153,4.153,0,0,1,.365,1.132,1.33,1.33,0,0,0,.256.767,2.248,2.248,0,0,1,.329.986,6.18,6.18,0,0,0,.438,1.5c.219.548.548,1.388.694,1.826.219.73.621,1.643,1.9,4.6C7,78.1,7.3,78.9,7.516,79.523a6.963,6.963,0,0,0,.694,1.534,2.987,2.987,0,0,1,.365.876,18.675,18.675,0,0,0,.95,2.374c.475,1.059.986,2.118,1.1,2.41.11.256.548,1.169.95,2.009.4.8.95,1.862,1.169,2.337s1.461,2.629,2.7,4.857a55.76,55.76,0,0,0,7.121,10.116c.876.986,1.716,1.935,1.9,2.154.4.475,2.52,2.776,3.506,3.871.4.439,1.059,1.1,1.461,1.461s1.789,1.716,3.068,2.995,2.52,2.483,2.7,2.629c.219.146,1.023.95,1.826,1.753,1.643,1.643,3.8,3.652,4.455,4.163.256.183.949.877,1.57,1.5a17.685,17.685,0,0,0,2.885,2.3,23.277,23.277,0,0,1,2.191,1.57,25.136,25.136,0,0,0,3.871,2.7,6.32,6.32,0,0,1,1.5,1.059,9.321,9.321,0,0,0,1.716,1.242c.877.547,2.3,1.46,3.214,2.081.913.584,2.082,1.315,2.593,1.607s1.351.84,1.9,1.169a51.977,51.977,0,0,0,6.756,3.761,7.356,7.356,0,0,1,1.351.657,4.334,4.334,0,0,0,1.205.585,4.718,4.718,0,0,1,1.242.657,1.62,1.62,0,0,0,.73.365,13.875,13.875,0,0,1,1.9.913,3.875,3.875,0,0,0,1.5.621c.11-.073.365.037.584.219a16.386,16.386,0,0,0,2.155,1.132,14.256,14.256,0,0,1,1.862.95,2.306,2.306,0,0,0,.913.292c.475.109.913.256.95.365a2.584,2.584,0,0,0,1.1.4,4.946,4.946,0,0,1,1.388.475,13.6,13.6,0,0,0,2.7,1.022,18.28,18.28,0,0,1,1.862.73c.365.183.767.4.986.512.183.073,1.242.767,2.41,1.5,1.132.73,2.191,1.388,2.374,1.5s.73.475,1.242.84,1.388.95,2.009,1.351c.621.366,1.278.84,1.534,1.023.219.219,1.534,1.1,2.921,2.009s3,2.008,3.579,2.41a5.166,5.166,0,0,0,1.242.767c.109,0,.328.182.438.365a3.637,3.637,0,0,0,.73.8,52.437,52.437,0,0,0,4.456,3.652,2.082,2.082,0,0,1,.694.767,10.41,10.41,0,0,0,2.483,2.447,5.1,5.1,0,0,1,.913.913,5.1,5.1,0,0,0,.913.913,5.253,5.253,0,0,1,.986,1.022c2.739,3.543,2.483,3.1,2.922,4.711.182.694.511,1.644.693,2.155a21.449,21.449,0,0,1,.694,2.264,7.9,7.9,0,0,0,.548,1.68c.11.183.11.365,0,.4-.183.109-.4-.073-1.461-1.169A8.9,8.9,0,0,0,123.1,185.1a13.461,13.461,0,0,1-1.242-.986,5.541,5.541,0,0,0-1.132-.8,1.8,1.8,0,0,1-.694-.584,4.316,4.316,0,0,0-1.169-.986,16.286,16.286,0,0,1-1.57-1.132,13.376,13.376,0,0,0-2.812-1.972,1.151,1.151,0,0,1-.621-.4,2.084,2.084,0,0,0-.657-.548,19,19,0,0,1-1.644-1.205,9.552,9.552,0,0,0-1.825-1.205,4.1,4.1,0,0,1-.767-.4,5.737,5.737,0,0,0-1.79-1.351.87.87,0,0,1-.511-.292,5.03,5.03,0,0,0-.913-.694,19.08,19.08,0,0,1-1.79-1.278,3.439,3.439,0,0,0-1.314-.731.551.551,0,0,1-.512-.292,44.975,44.975,0,0,0-5.55-3.652,8.521,8.521,0,0,1-1.022-.657,14.075,14.075,0,0,0-1.68-.986,26.494,26.494,0,0,1-2.629-1.534c-.584-.365-1.607-.913-2.228-1.205-.657-.292-1.57-.767-2.118-1.059a7.1,7.1,0,0,0-1.534-.657,1.506,1.506,0,0,1-.73-.329,4.851,4.851,0,0,0-1.351-.657c-.657-.256-1.534-.621-1.9-.8a20.392,20.392,0,0,0-3.761-1.57,10.2,10.2,0,0,1-1.461-.511,11.191,11.191,0,0,0-1.789-.621c-1.534-.475-3.761-1.205-5.113-1.717-1.059-.4-8.728-2.227-11.065-2.665-.95-.183-2.3-.439-2.995-.548a5.056,5.056,0,0,0-1.424-.146,5.412,5.412,0,0,1-1.461-.146c-.73-.146-2.155-.329-3.177-.439-1.059-.109-2.666-.292-3.652-.4-3.068-.366-2.995-.366-3.068.292-.11.913.256,1.314,4.419,4.82,2.812,2.374,5.77,4.748,6.245,5.04a10.613,10.613,0,0,1,1.169.876,35.071,35.071,0,0,0,4.273,3.251,1.605,1.605,0,0,1,.694.584,6.443,6.443,0,0,0,1.5,1.132c.694.438,1.753,1.169,2.374,1.643a5.264,5.264,0,0,0,1.461.913.715.715,0,0,1,.511.293,8.121,8.121,0,0,0,1.388,1.059,9.722,9.722,0,0,1,1.351,1.022,3.364,3.364,0,0,0,.84.584c.4.22.913.548,1.205.694.256.146.621.365.8.475s.767.475,1.315.84a3.3,3.3,0,0,0,1.351.621.449.449,0,0,1,.475.182,17.112,17.112,0,0,0,3.287,2.045c.438.22,1.132.548,1.5.767.4.219,1.242.585,1.863.84,1.205.475,1.789.731,3.761,1.607a10.531,10.531,0,0,0,1.607.621c.183.036.876.256,1.57.511s1.716.585,2.3.767a15.254,15.254,0,0,1,1.461.511,27.113,27.113,0,0,0,2.666.877c1.242.365,3.762,1.1,5.624,1.643a73.016,73.016,0,0,0,12.782,2.63c1.132.146,3.36.4,4.893.584s3.068.365,3.4.4a6,6,0,0,1,1.607.4c.547.219,1.862.658,2.812.986l1.789.621.073.913a14.866,14.866,0,0,0,.986,4.017,3.6,3.6,0,0,1,.365,1.205c.037.4.219,1.315.365,2.009.147.73.329,1.826.4,2.447a10.247,10.247,0,0,0,.4,1.862,8.929,8.929,0,0,1,.511,3.871c-.219,1.023-.182,1.1.767,1.753.694.475,1.57.475,1.789,0,.11-.182-.146-1.205-.766-3.469-.439-1.461-.95-3.4-1.5-5.478a18.566,18.566,0,0,0-.547-1.9,8.255,8.255,0,0,1-.22-1.534,5.621,5.621,0,0,0-.219-1.388,2.421,2.421,0,0,1-.219-.949,5.521,5.521,0,0,0-.548-1.68,9.758,9.758,0,0,1-.876-3.652,4.061,4.061,0,0,0-.183-1.1,2.264,2.264,0,0,1-.182-.877,5.265,5.265,0,0,0-.365-1.388,16.494,16.494,0,0,1-.512-1.606,13.151,13.151,0,0,0-.475-1.571,1.6,1.6,0,0,1-.146-.913,3.4,3.4,0,0,0-.4-1.424,7.739,7.739,0,0,1-.658-2.264,5.616,5.616,0,0,0-.474-1.79,4.964,4.964,0,0,1-.475-1.351c-.037-.292-.256-1.424-.475-2.52a9.4,9.4,0,0,1-.292-2.337.546.546,0,0,0-.11-.511.977.977,0,0,1-.182-.767,3.36,3.36,0,0,0-.037-.767,37.934,37.934,0,0,1,.438-8.107c.11-.438.256-1.023.329-1.315a3.956,3.956,0,0,1,.511-1.169,19.861,19.861,0,0,0,1.79-3.505c.438-.95,1.351-2.7,2.045-3.908a28.42,28.42,0,0,0,1.461-2.775,1.557,1.557,0,0,1,.511-.767,34.976,34.976,0,0,0,2.885-5.259.494.494,0,0,1,.256-.365,3.023,3.023,0,0,0,.694-1.132c.255-.512.876-1.753,1.424-2.739,1.57-2.776,1.68-2.995,1.789-3.433a8.5,8.5,0,0,1,.585-1.132,3.275,3.275,0,0,0,.474-1.023,3.221,3.221,0,0,1,.621-1.132,6.727,6.727,0,0,0,.84-1.716,4.923,4.923,0,0,1,.548-1.315,63.938,63.938,0,0,0,2.556-6.1c.986-2.519,2.411-6.683,2.52-7.376a13.271,13.271,0,0,1,.694-2.045c1.132-2.776,3.287-12.344,4.017-17.749.146-1.1.329-2.264.4-2.593s.182-1.461.255-2.483c.073-1.059.183-2.082.22-2.228a2.513,2.513,0,0,0-.183-1.716c-.219-.329-.292-.329-.84.146-.329.292-.913.913-1.315,1.351a4.586,4.586,0,0,1-1.059.986,1.12,1.12,0,0,0-.475.438,2.879,2.879,0,0,1-.657.8,56.661,56.661,0,0,0-4.638,7.158,3.367,3.367,0,0,1-.694,1.132,3.1,3.1,0,0,0-.547,1.205,3.027,3.027,0,0,1-.585,1.205.987.987,0,0,0-.365.657,2.305,2.305,0,0,1-.949,1.534,4.464,4.464,0,0,0-1.1,2.009,3.065,3.065,0,0,1-.584.986,2.078,2.078,0,0,0-.548,1.1,2.391,2.391,0,0,1-.548,1.1,5.046,5.046,0,0,0-.8,1.424,14.87,14.87,0,0,1-.95,2.082,9.46,9.46,0,0,0-.694,1.607,3.89,3.89,0,0,1-.548,1.241,3.148,3.148,0,0,0-.474,1.242c0,.292-.073.511-.183.475-.073,0-.219.292-.292.657a1.9,1.9,0,0,1-.329.8c-.438.256-1.5,4.273-1.278,4.821.183.4.475-.146.73-1.424a3.5,3.5,0,0,1,.366-1.132,2.715,2.715,0,0,0,.365-.84,16.2,16.2,0,0,1,.8-2.009c.475-1.059,1.1-2.593,1.753-4.455a10.819,10.819,0,0,1,.8-1.5,4.7,4.7,0,0,0,.657-1.388,2.667,2.667,0,0,1,.475-1.023,10.951,10.951,0,0,0,.8-1.607,2.878,2.878,0,0,1,.731-1.132,2.5,2.5,0,0,0,.657-1.132,3.949,3.949,0,0,1,.73-1.351,9.656,9.656,0,0,0,1.1-1.643,5.283,5.283,0,0,1,.8-1.315,1.9,1.9,0,0,0,.329-.8,1.644,1.644,0,0,1,.365-.84,11.645,11.645,0,0,0,1.753-2.958,3.125,3.125,0,0,1,.584-.8,8.576,8.576,0,0,0,1.133-1.753,9.21,9.21,0,0,1,.766-1.388,3.339,3.339,0,0,0,.293-.329,12.411,12.411,0,0,1,2.483-2.629c.109.036.073.183-.073.365a12.5,12.5,0,0,0-1.388,3.141c-.109.4-.256.767-.4.8-.109.037-.219.329-.255.694,0,.329-.146.657-.292.694a.837.837,0,0,0-.4.621,1.385,1.385,0,0,1-.292.694,5.936,5.936,0,0,0-.585,1.643c-.438,1.57-.8,2.41-1.168,2.629a4.913,4.913,0,0,0-.584,1.388,28.125,28.125,0,0,1-.987,2.738,27.21,27.21,0,0,0-1.752,5.077c.036.073-.037.219-.183.292a5.26,5.26,0,0,0-.73,1.753,19.682,19.682,0,0,1-1.023,2.739c-.329.62-.511,1.278-.4,1.424.073.146.073.292,0,.329a6.638,6.638,0,0,0-.84,2.154,2.452,2.452,0,0,1-.438.84c-.146.073-.219.219-.146.292a5.513,5.513,0,0,1-.438,1.315c-.292.657-.621,1.57-.767,2.009a2.658,2.658,0,0,1-.365.876,7.114,7.114,0,0,0-.512,1.607,11.568,11.568,0,0,1-.839,2.3,19.3,19.3,0,0,0-1.571,4.017c-.073.328-.182.62-.328.694a8.14,8.14,0,0,0-1.06,2.446,7.982,7.982,0,0,1-.547,1.5c-.329.73-.767,1.789-.95,2.337-.548,1.424-2.52,6.61-2.958,7.7-.365.95-1.169,3.36-1.424,4.383-.073.328-.256.84-.365,1.205-.183.584-.219.584-.146.109.036-.255.073-.694.109-.913a7.861,7.861,0,0,0,.11-2.7.811.811,0,0,1,.073-.694,14.259,14.259,0,0,0,.474-2.082c.22-1.424.585-3.213,2.265-11.028.182-.877.4-1.936.511-2.374s.475-1.826.84-3.1c1.059-3.652,1.57-5.88,1.388-6.172-.11-.146-.219-.219-.293-.182a21.861,21.861,0,0,0-.8,2.994,17.869,17.869,0,0,1-.913,3.177,24.263,24.263,0,0,0-1.315,5.113,1.915,1.915,0,0,1-.365,1.1c-.146.074-.182.329-.146.512a7.611,7.611,0,0,1-.219,1.68c-.183.694-.4,1.68-.475,2.118-.109.438-.255,1.1-.365,1.461s-.292,1.205-.438,1.9-.438,2.081-.694,3.14a14.46,14.46,0,0,0-.548,4.163,4.148,4.148,0,0,1-.073,1.059c-.109.475-.256,1.461-.365,2.155-.11.73-.329,1.936-.475,2.739s-.292,1.972-.329,2.593a19.26,19.26,0,0,1-.511,2.958,7.053,7.053,0,0,0-.328,2.081.522.522,0,0,1-.037.512,4.786,4.786,0,0,0,0,1.68c.183,1.533-.146,1.5-.657-.073-.548-1.607-2.557-6.209-2.995-6.939a3.151,3.151,0,0,1-.4-.877c0-.255-2.045-4.236-3.834-7.559a25.012,25.012,0,0,1-2.739-6.72c-.11-.657-.365-1.752-.548-2.446s-.475-1.936-.584-2.7c-.146-.767-.329-1.789-.4-2.191-.146-.694-.219-1.315-.657-4.784a8.4,8.4,0,0,0-.256-1.461,6.326,6.326,0,0,1-.183-1.533,6.642,6.642,0,0,0-.219-1.571,40.361,40.361,0,0,1,.146-6.865,10.681,10.681,0,0,0,.147-1.5,8.961,8.961,0,0,1,.4-2.848,10.682,10.682,0,0,0,.292-1.936,14.417,14.417,0,0,1,.439-3.213c.146-.658.365-2.228.511-3.543s.365-3.1.548-4.017a6.948,6.948,0,0,0,.146-1.9,1.2,1.2,0,0,1,0-.73,64.964,64.964,0,0,0,.146-8.947c-.037-.73-.073-2.228-.11-3.4a123.37,123.37,0,0,0-1.205-13.037,70.837,70.837,0,0,0-1.68-6.975,5.717,5.717,0,0,1-.4-1.315,60.342,60.342,0,0,0-3.579-8.618,43.054,43.054,0,0,0-5.551-8.144,15.532,15.532,0,0,1-1.242-1.716c-.657-1.022-1.023-1.388-1.5-1.57L94.5,43.88l-.219.986A2.2,2.2,0,0,1,93.811,46c-.4.256-1.607,6.208-1.716,8.509-.037.73-.11,1.826-.146,2.447a3.568,3.568,0,0,0,.073,1.388,1.217,1.217,0,0,1,0,.73,30.975,30.975,0,0,0,.11,6.281c.109,1.132.256,2.228.256,2.447.073.986.11,1.388.438,4.09.219,1.57.438,3.1.548,3.4a1.612,1.612,0,0,1,.073.913.705.705,0,0,0,0,.548,2.237,2.237,0,0,1,.146.877,8.683,8.683,0,0,0,.219,1.351c.11.365.292,1.424.438,2.374a18,18,0,0,0,.986,3.834,8.421,8.421,0,0,1,.219.986,23.1,23.1,0,0,0,1.1,3.615,5.78,5.78,0,0,1,.365,1.716,14.636,14.636,0,0,0,1.1,3.542c1.9,4.674,2.812,7.158,3.615,9.678.438,1.351.913,2.775,1.059,3.141a6.909,6.909,0,0,1,.329,1.1,8.256,8.256,0,0,0,.475,1.68,55.047,55.047,0,0,1,1.935,6.72,3.425,3.425,0,0,0,.4,1.57,2.666,2.666,0,0,1,.183,1.351,3,3,0,0,0,.109,1.351,3.606,3.606,0,0,1,.183,1.242,2.082,2.082,0,0,0,.109.913,4.837,4.837,0,0,1,.037,1.68,7.252,7.252,0,0,0,.182,2.337,24.674,24.674,0,0,1,.439,2.776,7.521,7.521,0,0,0,.328,1.9,1.72,1.72,0,0,1,.11.8,1.585,1.585,0,0,0,.182.84,4.02,4.02,0,0,1,.329,1.059,34.18,34.18,0,0,0,.877,4.273c.292.949.255.913-1.315-1.388-.877-1.278-2.264-3.323-3.031-4.528-2.155-3.251-5.076-7.268-6.574-9.13-.73-.913-1.789-2.264-2.374-3.068s-1.9-2.52-2.958-3.834C89.21,113.23,87.457,111,86,109.03c-.8-1.059-1.826-2.337-2.3-2.848a5.648,5.648,0,0,1-.913-1.169c-.037-.109-.584-1.169-1.205-2.374a56.678,56.678,0,0,1-2.629-5.514,46.152,46.152,0,0,0-2.3-5,1.63,1.63,0,0,1-.329-.876A18.413,18.413,0,0,0,74.675,86.9a2.222,2.222,0,0,1-.4-.986,1.088,1.088,0,0,0-.036-.475c-.183-.584-.95-2.52-1.388-3.615-.913-2.118-1.059-2.52-1.461-3.615-.219-.621-.621-1.607-.876-2.191A8.3,8.3,0,0,1,70,74.447,5.977,5.977,0,0,0,69.38,72.8a6.658,6.658,0,0,1-.584-1.351,33.87,33.87,0,0,0-1.461-4.638A12.268,12.268,0,0,1,66.75,65.5c-.584-1.68-1.534-4.236-2.045-5.4-.292-.657-.95-2.155-1.424-3.323-.913-2.118-2.3-5.113-3.177-6.792-.219-.475-.73-1.534-1.132-2.374a64.568,64.568,0,0,0-5.953-10.773c-1.972-3.141-3.908-6.026-4.273-6.391a18.229,18.229,0,0,1-1.826-2.447c-.621-.95-1.716-2.447-2.41-3.323-2.52-3.177-3.25-4.09-4.821-5.989-.876-1.059-2.045-2.52-2.593-3.214a27.771,27.771,0,0,0-3.908-4.127,4.453,4.453,0,0,1-.84-.767,28.169,28.169,0,0,0-3.834-3.652,2.77,2.77,0,0,1-.876-.84,1.9,1.9,0,0,0-.767-.657,2.334,2.334,0,0,1-.84-.767c-.219-.146-1.242-1.023-2.337-1.789a15.675,15.675,0,0,1-2.118-1.643C21.1.459,19.969.24,19.823.861ZM2.476,58.78c.475.694,1.315,1.826,1.862,2.483,1.023,1.242,3.542,4.674,5.332,7.267a17.573,17.573,0,0,0,1.278,1.68,16.734,16.734,0,0,1,1.315,1.753c.584.84,1.5,2.082,2.045,2.7,1.242,1.461,1.753,2.082,5.3,6.719,1.643,2.118,5.368,6.793,6.866,8.582.8.95,1.607,1.936,1.789,2.191,1.607,2.045,2.009,2.556,2.337,2.885a15.213,15.213,0,0,1,1.862,2.191c1.059,1.388,1.607,2.009,4.309,5a11.178,11.178,0,0,1,1.643,2.118.812.812,0,0,0,.365.475A5.658,5.658,0,0,1,39.909,106a6.775,6.775,0,0,0,1.059,1.205,2.722,2.722,0,0,1,.621.658,16.762,16.762,0,0,0,2.155,2.629,11.966,11.966,0,0,1,1.826,1.935c.584.877,1.461,1.644,1.461,1.315a.57.57,0,0,0-.219-.438,6.184,6.184,0,0,1-1.023-1.351,5.144,5.144,0,0,0-1.461-1.644,2.137,2.137,0,0,1-.876-.949A9.392,9.392,0,0,0,41,106.4c-.329-.219-.511-.365-.4-.365s0-.219-.219-.512S39.251,104.1,38.375,103c-2.7-3.4-3.323-4.127-4.127-5.04a5.794,5.794,0,0,1-.95-1.315c-.219-.548-1.753-2.3-2.045-2.264-.11,0-.292-.292-.438-.657a40.869,40.869,0,0,0-4.273-5.478,19.62,19.62,0,0,1-1.607-2.008c-.584-.84-1.607-2.191-2.191-2.958-1.132-1.461-1.278-1.643-3.25-4.382-.657-.876-2.155-2.849-3.323-4.346s-2.922-3.761-3.908-4.967c-.95-1.242-2.118-2.666-2.593-3.214s-.913-1.132-1.059-1.315c-.4-.694-5-6.1-5.989-7.085a3.023,3.023,0,0,1-.511-.584,19.24,19.24,0,0,1,3.1,1.9c.183.183,1.169.876,3.287,2.3a21.079,21.079,0,0,1,2.045,1.461,4.759,4.759,0,0,0,1.023.621,1.472,1.472,0,0,1,.657.511,5.9,5.9,0,0,0,1.388,1.1,23.513,23.513,0,0,1,2.337,1.789,5.79,5.79,0,0,0,1.424,1.059c.109,0,.329.183.475.365a3.616,3.616,0,0,0,.73.84c.292.256.95.84,1.461,1.315.548.475,1.242,1.022,1.534,1.242a4.343,4.343,0,0,1,1.023.986,24.165,24.165,0,0,0,1.789,1.862c1.607,1.461,4.821,4.455,5.514,5.076.256.256.876.8,1.388,1.242a16.114,16.114,0,0,1,1.57,1.607,17.521,17.521,0,0,0,1.643,1.68c.876.8,1.68,1.607,3.542,3.542.365.365.876.913,1.205,1.205s.986,1.022,1.5,1.57a6.879,6.879,0,0,0,1.205,1.132,3.453,3.453,0,0,1,.876.913,24.328,24.328,0,0,0,2.264,2.629c1.424,1.534,2.191,2.41,2.995,3.433a7.31,7.31,0,0,0,1.315,1.315,4.531,4.531,0,0,1,1.023,1.132,31.886,31.886,0,0,0,2.155,2.7,16.97,16.97,0,0,1,1.716,2.118,1.358,1.358,0,0,0,.438.547,9.561,9.561,0,0,1,1.022,1.169,5.8,5.8,0,0,0,.986,1.059,11.889,11.889,0,0,1,1.57,1.936,27.037,27.037,0,0,0,1.68,2.154,21.74,21.74,0,0,1,1.534,1.9c.584.8,1.57,2.009,2.191,2.7s1.424,1.643,1.753,2.118c.73,1.022,4.2,5.514,4.747,6.171.219.256.767.913,1.242,1.425a14.61,14.61,0,0,1,1.388,1.9,2.855,2.855,0,0,0,.8.949c.146,0,.438.365.694.767a43.774,43.774,0,0,0,3.8,5.4c.292.256.511.548.438.657a2.9,2.9,0,0,0,.621,1.169c.767,1.1,2.629,3.871,5.186,7.669l1.68,2.52-2.045-1.461c-1.132-.8-2.264-1.607-2.556-1.789a2.392,2.392,0,0,1-.694-.585,3.035,3.035,0,0,0-.913-.694,8.575,8.575,0,0,1-1.242-.986,9.6,9.6,0,0,0-1.5-1.241c-.548-.4-1.315-.986-1.716-1.351-.365-.366-1.351-1.169-2.191-1.826a34.886,34.886,0,0,1-3.616-2.958,2.462,2.462,0,0,0-.657-.512,2.778,2.778,0,0,1-.73-.657,25.7,25.7,0,0,0-3.725-3.469.721.721,0,0,1-.4-.4,12.207,12.207,0,0,0-2.228-2.009,4.5,4.5,0,0,1-.438-.365c-.073-.073-.475-.475-.876-.84s-.95-.949-1.278-1.315c-.329-.328-1.132-1.1-1.826-1.679s-1.789-1.607-2.447-2.265c-1.388-1.387-2.118-1.679-1.424-.584.256.4.548.731.657.731a4.015,4.015,0,0,1,.986.949,6.689,6.689,0,0,0,1.059,1.132,21.833,21.833,0,0,1,1.789,1.753c1.643,1.753,1.643,1.753,2.629,2.7s1.826,1.79,2.447,2.411c.292.292.8.767,1.132,1.059s1.57,1.461,2.739,2.629a71.229,71.229,0,0,0,6.172,5.661,6.338,6.338,0,0,1,1.059.986,13.166,13.166,0,0,0,1.461,1.314,10.207,10.207,0,0,1,1.424,1.169,28.371,28.371,0,0,0,3.944,3.068,4.817,4.817,0,0,1,1.169.876,16.636,16.636,0,0,0,1.936,1.388c1.936,1.205,1.936,1.168,1.716,1.314a13.161,13.161,0,0,1-3.177-1.351c-.365-.182-1.205-.584-1.9-.949-.694-.329-1.716-.84-2.337-1.132S76.282,145.951,75,145.33c-1.315-.621-2.775-1.351-3.25-1.643a2.571,2.571,0,0,0-1.022-.438,6.247,6.247,0,0,1-1.643-.767c-.8-.475-2.009-1.169-2.666-1.5-.657-.365-1.57-.913-2.045-1.2-.84-.547-3.031-1.9-3.871-2.41-.219-.146-.621-.4-.876-.548-.256-.182-.621-.4-.767-.511-.913-.511-4.054-2.556-4.127-2.7a13.635,13.635,0,0,0-1.68-1.169c-.876-.584-2.374-1.643-3.323-2.374a32.092,32.092,0,0,0-2.885-2.045,11.9,11.9,0,0,1-1.9-1.5c-.4-.438-2.045-2.009-3.652-3.542-3.506-3.324-3.8-3.579-4.748-4.6-.4-.438-1.315-1.351-2.045-2.081-.73-.694-1.424-1.425-1.57-1.607a10.365,10.365,0,0,0-.913-.913A144.39,144.39,0,0,1,19.9,99.827c-.95-1.351-4.054-6.391-4.528-7.377-.292-.584-1.059-2.045-1.716-3.25s-1.716-3.287-2.3-4.6-1.388-3.031-1.716-3.761-.95-2.191-1.351-3.214S7.37,75.36,7.114,74.885A12.957,12.957,0,0,1,6.493,73.5c-.11-.292-.365-1.022-.621-1.68s-.694-1.936-.986-2.849-.694-2.118-.913-2.666c-.511-1.278-.584-1.57-1.023-2.812-.183-.548-.511-1.388-.694-1.826-.219-.475-.292-.877-.219-.913.11-.073-.037-.621-.876-2.885C.833,56.954,1.563,57.465,2.476,58.78ZM94.8,47.349a4.73,4.73,0,0,0,.219,1.205.8.8,0,0,1,.036.584,2.635,2.635,0,0,0,.11,1.242,5.826,5.826,0,0,1,.219,1.169,6.1,6.1,0,0,0,.292,1.278,14.563,14.563,0,0,1,.438,2.118,4.865,4.865,0,0,0,.219,1.315,3.248,3.248,0,0,1,.183.84,12.829,12.829,0,0,0,.329,1.789,10.168,10.168,0,0,1,.256,1.643,2.577,2.577,0,0,0,.219.913,2.042,2.042,0,0,1,.256.95,10.421,10.421,0,0,0,.4,1.9c.219.73.621,2.337.84,3.542s.548,2.739.694,3.36c.146.657.329,1.5.4,1.935.073.511.182.8.4.84.182.037.255-.292.146-1.022a4.636,4.636,0,0,0-.293-1.278,1.12,1.12,0,0,1,.037-.767,1.287,1.287,0,0,0-.073-.913,3.8,3.8,0,0,1-.219-1.351,3.588,3.588,0,0,0-.183-1.315,1.955,1.955,0,0,1-.183-.877,16.857,16.857,0,0,0-.4-2.3,10.933,10.933,0,0,1-.329-1.972c.073-.11,0-.4-.146-.621a3.923,3.923,0,0,1-.329-1.461,23.887,23.887,0,0,0-.4-2.666c-.183-.876-.365-2.045-.438-2.556s-.329-1.826-.584-2.958a23.339,23.339,0,0,1-.511-2.666,1.845,1.845,0,0,0-.183-.877,9.141,9.141,0,0,1-.329-1.461l-.183-1.205,1.461,2.264a101.368,101.368,0,0,1,5.989,10.189c.329.8.84,2.008,1.1,2.666s.657,1.607.876,2.155.584,1.716.84,2.556c.219.877.584,2.082.73,2.666a3.987,3.987,0,0,1,.22,1.315c-.074.11,0,.329.073.511a49.12,49.12,0,0,1,1.424,8.765c0,.183.073,1.059.146,1.862.146,1.534.292,4.747.329,7.158,0,.73.073,2.155.109,3.177a30.542,30.542,0,0,1,.073,3.068c0,.694-.036,1.972-.036,2.848a37.608,37.608,0,0,1-.329,5.113,7.455,7.455,0,0,0-.11,1.205,3.674,3.674,0,0,1-.182,1.168.639.639,0,0,0-.037.439,15.237,15.237,0,0,1-.438,3.688,6.338,6.338,0,0,0-.219,1.789,13.172,13.172,0,0,1-.365,2.739l-.292,1.023L107,112.463a6.82,6.82,0,0,0-.293-1.936,2.608,2.608,0,0,1-.109-1.168,4.765,4.765,0,0,0-.146-1.5,6.142,6.142,0,0,1-.219-1.5,5.775,5.775,0,0,0-.073-1.059,16.476,16.476,0,0,1-.512-3.25c.073-.584-.255-1.57-.474-1.351a.288.288,0,0,1-.4,0c-.183-.146-.146-.219.256-.475a1.028,1.028,0,0,0,.182-.4c.11-.438-.146-.694-.365-.292-.073.146-.11-.073-.073-.511.073-.986-.219-2.191-.438-2.045-.11.073-.183-.146-.146-.475a1.413,1.413,0,0,0-.11-.767A4.124,4.124,0,0,1,104,94.386,4.173,4.173,0,0,0,103.89,93a4.362,4.362,0,0,1-.219-1.132,2.085,2.085,0,0,0-.255-1.023,1.9,1.9,0,0,1-.183-1.022c.037-1.461-.694-4.93-1.059-5-.073-.036-.11-.183-.073-.4.073-.548-.219-.511-.365.036a.939.939,0,0,0,.255.84c.256.256.293.438.183.621a1.672,1.672,0,0,0,0,1.059,3.455,3.455,0,0,1,.146,1.059,1.287,1.287,0,0,0,.183.657,1.143,1.143,0,0,1,.109.767,1.757,1.757,0,0,0,.11,1.022,7.745,7.745,0,0,1,.292,1.315c.036.365.11.584.183.438.073-.109.146-.183.182-.146a4.922,4.922,0,0,1,.073,2.045,8.757,8.757,0,0,0,.694,3.542,1.426,1.426,0,0,1,.183.913.889.889,0,0,0,.073.694.7.7,0,0,1-.073.694c-.183.292-.11.584.182,1.022.219.365.365.73.292.876a1.54,1.54,0,0,0,.293,1.023c.219.438.365.73.292.73-.219-.036-.256,1.242-.037,1.607a.729.729,0,0,1,.11.585,6.408,6.408,0,0,0,.036,2.629,2.372,2.372,0,0,1,.037,1.132,2.979,2.979,0,0,0,.036,1.132,3.065,3.065,0,0,1,.11,1.132,8.181,8.181,0,0,0,0,1.351c.109.913,0,.658-.8-2.081-.584-2.009-.913-3.141-1.205-4.236-.109-.366-.438-1.315-.73-2.119-.913-2.41-.986-2.629-1.059-3.359a20.516,20.516,0,0,0-1.1-3.141c-.548-1.351-1.132-2.812-1.278-3.287a15.562,15.562,0,0,0-.84-1.936,9.355,9.355,0,0,1-.767-2.118,13.646,13.646,0,0,0-.621-1.972,38.176,38.176,0,0,1-2.118-8.692,4.34,4.34,0,0,0-.219-1.132,9.644,9.644,0,0,1-.292-1.9,10.23,10.23,0,0,0-.4-2.3A3.646,3.646,0,0,1,94.1,73.5a2.128,2.128,0,0,0-.11-1.132,4.733,4.733,0,0,1-.256-1.643,3.759,3.759,0,0,0-.256-1.461.865.865,0,0,1-.11-.73,30.763,30.763,0,0,0-.365-5.368,3.8,3.8,0,0,1,.036-1.278,19.592,19.592,0,0,0,.073-3.8,2.575,2.575,0,0,1,.073-1.132,8.5,8.5,0,0,0,.11-1.57,5.347,5.347,0,0,1,.146-1.461c.109-.438.292-1.5.4-2.3a17.645,17.645,0,0,1,.365-2.082,14.9,14.9,0,0,0,.219-1.789C94.432,46.363,94.688,46.108,94.8,47.349Zm54.816,39.7c-.146,1.059-.585,3.615-.913,5.332a10.578,10.578,0,0,0-.256,2.191c.037.292,0,.548-.073.584a3.517,3.517,0,0,0-.329,1.132c-.657,3.506-2.812,11.832-3.652,14.206-.547,1.534-1.022,2.922-1.059,3.1s-.438,1.242-.876,2.374-.84,2.228-.913,2.41c-.037.183-.475,1.205-.913,2.264s-.95,2.374-1.132,2.922a4.943,4.943,0,0,1-.621,1.315,7.025,7.025,0,0,0-.8,1.606,5.318,5.318,0,0,1-.621,1.352,6.457,6.457,0,0,0-.694,1.351,12.653,12.653,0,0,1-.877,1.753c-.182.255-.511.949-.8,1.5-.256.548-.657,1.351-.877,1.789-.584,1.1-.766,1.461-1.46,2.849a20.208,20.208,0,0,1-1.1,2.045,24.646,24.646,0,0,0-1.534,2.885,23.709,23.709,0,0,1-1.314,2.3,19.832,19.832,0,0,0-1.352,2.41,7.318,7.318,0,0,1-.584,1.242c-.4.657-.4.584-.036-.877a20.012,20.012,0,0,1,.876-2.629c.511-1.1,2.41-6.208,3.1-8.4.95-2.958,1.79-5.478,1.936-5.624a28.716,28.716,0,0,0,1.241-3.578,5.993,5.993,0,0,1,.512-1.206,11.44,11.44,0,0,0,.73-2.3,8.6,8.6,0,0,1,.548-1.826,10.572,10.572,0,0,0,.621-2.118,8.047,8.047,0,0,1,.767-2.192,1.046,1.046,0,0,0,.365-.657,6.637,6.637,0,0,1,.511-1.278,6.52,6.52,0,0,0,.511-1.388,10.989,10.989,0,0,1,.658-1.716,22,22,0,0,0,.949-2.483,7.752,7.752,0,0,1,.511-1.461,24.938,24.938,0,0,0,1.425-3.981,2.017,2.017,0,0,1,.365-.84,6.108,6.108,0,0,0,.621-1.351,13.323,13.323,0,0,1,.657-1.643.765.765,0,0,0,.073-.621c-.183-.292.511-1.68.95-1.936a6.289,6.289,0,0,0,.73-1.936,10.276,10.276,0,0,1,.584-1.826A28.411,28.411,0,0,0,147.9,89.6a3.878,3.878,0,0,1,.4-1.059.75.75,0,0,0,.183-.511c.036-.365.876-1.607,1.1-1.57C149.649,86.425,149.649,86.717,149.613,87.046ZM47.651,151.465a20.032,20.032,0,0,0,3.433.512,8.816,8.816,0,0,1,1.534.219,5.085,5.085,0,0,0,1.169.146c1.826,0,12.782,2.52,16.58,3.834,1.5.512,3.177,1.059,3.835,1.206a7.657,7.657,0,0,1,1.607.584,7.429,7.429,0,0,0,1.607.621c.913.255,4.382,1.643,7.523,3.031.657.292,3.177,1.461,3.981,1.862.183.11.876.438,1.5.731a6.387,6.387,0,0,1,1.205.657,14.289,14.289,0,0,0,1.643.949,31.62,31.62,0,0,1,2.775,1.571,8.706,8.706,0,0,0,1.607.84,6.018,6.018,0,0,1,1.972,1.314.909.909,0,0,0,.62.293,2.189,2.189,0,0,1,1.644.986,2.48,2.48,0,0,0,1.168.73,2.144,2.144,0,0,1,1.133.657,13.276,13.276,0,0,0,2.264,1.68c3.323,2.082,3.98,2.52,4.126,2.739a3.622,3.622,0,0,0,.877.621,4.37,4.37,0,0,1,1.022.73,17.651,17.651,0,0,0,1.9,1.315,9.5,9.5,0,0,1,1.79,1.315,1.6,1.6,0,0,0,.657.511,9.326,9.326,0,0,1,1.68,1.315,41.8,41.8,0,0,0,4.675,3.944c.4.146.913.73.73.876a1.633,1.633,0,0,1-.767-.182c-.329-.146-1.169-.475-1.9-.767-.694-.256-1.862-.767-2.593-1.1s-2.556-1.022-4.09-1.534a33.69,33.69,0,0,1-3.214-1.205,5.43,5.43,0,0,0-1.46-.438,4.237,4.237,0,0,1-1.388-.475c-.584-.511-1.826-1.022-2.045-.876a.284.284,0,0,1-.365-.073,16.965,16.965,0,0,0-4.346-1.863c-.548-.036-.548-.036-.073.183a1.226,1.226,0,0,0,.621.146c.073-.037.219.073.328.256a.952.952,0,0,0,.585.4,2.583,2.583,0,0,1,.913.438c.292.22.62.329.693.22.073-.073.366.073.621.292a6.955,6.955,0,0,0,1.571.986,5.3,5.3,0,0,1,1.241.73,4.818,4.818,0,0,0,1.5.621,7.138,7.138,0,0,1,1.46.584,1.014,1.014,0,0,0,.658.256,50.392,50.392,0,0,1,5.624,2.41l1.168.548-.949-.219a4.065,4.065,0,0,0-1.169-.11c-.109.073-.329,0-.511-.146a2.471,2.471,0,0,0-1.242-.292,21.313,21.313,0,0,1-2.264-.292c-.73-.146-1.936-.365-2.739-.511-.767-.146-2.337-.439-3.4-.694a11.592,11.592,0,0,0-2.118-.365,1.137,1.137,0,0,1-.621-.11c-.256-.11-1.79-.548-3.36-.949-3.323-.877-7.158-2.009-7.925-2.338-.475-.219-1.643-.584-4.309-1.387a32.058,32.058,0,0,1-5.66-2.228,4.411,4.411,0,0,0-1.278-.511,2.5,2.5,0,0,1-1.1-.4c-.438-.256-1.278-.694-1.9-1.023a25.217,25.217,0,0,1-2.447-1.387,10.1,10.1,0,0,0-1.57-.84,6.773,6.773,0,0,1-1.534-.84c-.694-.475-1.9-1.278-2.629-1.753s-1.936-1.315-2.666-1.79c-.73-.511-1.5-1.022-1.716-1.132-.548-.292-3.177-2.154-4.784-3.359-.73-.548-1.753-1.315-2.264-1.68s-1.1-.84-1.315-1.023-.986-.8-1.68-1.315a82.591,82.591,0,0,1-6.793-5.66,28.351,28.351,0,0,1-2.3-2.228c-.037-.073.475.037,1.1.219a3.834,3.834,0,0,1,1.388.621,3.658,3.658,0,0,0,1.169.694,3.083,3.083,0,0,1,1.132.657,2.278,2.278,0,0,0,.95.439,14.226,14.226,0,0,1,2.41,1.059,16.068,16.068,0,0,0,1.936.949,19.405,19.405,0,0,1,1.753.84,22.178,22.178,0,0,0,2.264,1.059,18.441,18.441,0,0,1,2.045.95,15.4,15.4,0,0,0,2.118.913,7.573,7.573,0,0,1,1.57.694,6.1,6.1,0,0,0,1.278.547,1.506,1.506,0,0,1,.73.329,1.344,1.344,0,0,0,.694.329,1.352,1.352,0,0,1,.694.328,1.361,1.361,0,0,0,.767.4c.329.11,1.57.657,2.775,1.242s2.337,1.132,2.556,1.241,1.059.548,1.862.95a11.2,11.2,0,0,0,1.643.73,4.049,4.049,0,0,1,1.315.731c.621.4,1.169.657,1.205.584.037-.11.329,0,.657.256a22.256,22.256,0,0,0,3.469,2.045c.475.219,1.315.621,1.826.913a3.066,3.066,0,0,0,2.118.511c.11-.037-.256-.183-.73-.329-.475-.109-.95-.328-.986-.511a.436.436,0,0,0-.475-.256,2.579,2.579,0,0,1-1.169-.511,6.217,6.217,0,0,0-1.351-.73,2.883,2.883,0,0,1-.986-.548,5.547,5.547,0,0,0-1.278-.8,12.29,12.29,0,0,1-2.41-1.461,1.932,1.932,0,0,0-.877-.4,5.049,5.049,0,0,1-1.1-.548,3.4,3.4,0,0,0-1.1-.548c-.4-.146-.767-.292-.8-.4-.036-.073-1.68-.95-3.652-1.972s-4.492-2.3-5.624-2.885a25.54,25.54,0,0,0-2.885-1.315,5.046,5.046,0,0,1-1.169-.548,5.84,5.84,0,0,0-1.388-.73c-.584-.219-1.57-.657-2.191-.95-1.68-.8-1.936-.913-2.629-1.205-.329-.146-1.315-.548-2.118-.913a11.833,11.833,0,0,0-1.936-.73,7.377,7.377,0,0,1-1.351-.548,20.708,20.708,0,0,0-4.163-1.789c-.657-.146-1.022-.366-.8-.512A4.578,4.578,0,0,1,47.651,151.465Z" fill="#fff"/>
    <path id="Path_2" data-name="Path 2" d="M20.3,2.867a.194.194,0,0,0,.219.22c.11,0,.183-.147.146-.331C20.59,2.426,20.3,2.5,20.3,2.867Z" fill="#fff"/>
    <path id="Path_3" data-name="Path 3" d="M20.626,4.008c-.036.223.037.409.183.409.11,0,.219-.186.183-.371C20.882,3.562,20.7,3.525,20.626,4.008Z" fill="#fff"/>
    <path id="Path_4" data-name="Path 4" d="M20.772,5.349A13.652,13.652,0,0,0,21.43,7.4a.137.137,0,0,0,.219.037,4.254,4.254,0,0,0-.73-2.381C20.809,5.056,20.736,5.166,20.772,5.349Z" fill="#fff"/>
    <path id="Path_5" data-name="Path 5" d="M21.539,8.393c.109.183.256.219.329.11a.286.286,0,0,0-.292-.475C21.466,8.064,21.43,8.21,21.539,8.393Z" fill="#fff"/>
    <path id="Path_6" data-name="Path 6" d="M39.068,35.726c.11.145.219.182.292.073a.392.392,0,0,0,0-.4.23.23,0,0,0-.292-.073C38.958,35.4,38.958,35.581,39.068,35.726Z" fill="#fff"/>
    <path id="Path_7" data-name="Path 7" d="M39.872,37.673c.146.11.292.183.329.146s0-.146-.073-.329-.219-.219-.329-.146S39.726,37.563,39.872,37.673Z" fill="#fff"/>
    <path id="Path_8" data-name="Path 8" d="M41.077,39.748c.256.148.438.185.438.148.037-.185-.548-.592-.73-.481C40.712,39.489,40.821,39.637,41.077,39.748Z" fill="#fff"/>
    <path id="Path_9" data-name="Path 9" d="M41.7,41.285a1.406,1.406,0,0,0,.548.479c.256.11.256.037-.036-.4C41.771,40.806,41.333,40.732,41.7,41.285Z" fill="#fff"/>
    <path id="Path_10" data-name="Path 10" d="M42.282,42.611c.11.146.219.22.329.146s.11-.219,0-.366-.219-.219-.329-.146C42.172,42.282,42.172,42.464,42.282,42.611Z" fill="#fff"/>
    <path id="Path_11" data-name="Path 11" d="M47.249,114.328a4.711,4.711,0,0,1,.767.839c.292.365.621.8.694.912.11.109.219.109.256.036a5.3,5.3,0,0,0-1.351-1.969.394.394,0,0,0-.4,0C47.1,114.146,47.139,114.255,47.249,114.328Z" fill="#fff"/>
    <path id="Path_12" data-name="Path 12" d="M49.623,116.8c.073.106.183.071.219-.036a.524.524,0,0,0,.073-.284.179.179,0,0,0-.219.035C49.586,116.549,49.586,116.691,49.623,116.8Z" fill="#fff"/>
    <path id="Path_13" data-name="Path 13" d="M50.28,117.648c0,.291.657.545.913.4.11-.072-.036-.181-.292-.254s-.475-.218-.438-.327,0-.181-.073-.145S50.28,117.5,50.28,117.648Z" fill="#fff"/>
    <path id="Path_14" data-name="Path 14" d="M51.595,119.109c.95.989,1.424,1.282,1.68,1.1.146-.073.11-.146-.037-.146s-.475-.33-.767-.7c-.548-.732-1.132-1.172-1.388-1.025C51.01,118.413,51.229,118.743,51.595,119.109Z" fill="#fff"/>
    <path id="Path_15" data-name="Path 15" d="M100.385,75.757c.109.186.255.223.328.112s.11-.261.037-.335a.291.291,0,0,0-.329-.112C100.311,75.422,100.275,75.571,100.385,75.757Z" fill="#fff"/>
    <path id="Path_16" data-name="Path 16" d="M101.042,78.134a.414.414,0,0,0,.073.359c.073.108.146.072.183-.144.036-.18,0-.359-.073-.359C101.115,77.955,101.042,77.991,101.042,78.134Z" fill="#fff"/>
    <path id="Path_17" data-name="Path 17" d="M101.444,82.3c.073.619.073.619.255.073.183-.583.11-.947-.182-.765C101.444,81.646,101.407,81.938,101.444,82.3Z" fill="#fff"/>
    <path id="Path_18" data-name="Path 18" d="M101.662,83.435a.2.2,0,0,0,.293.075.2.2,0,0,0,.073-.3.2.2,0,0,0-.292-.074A.208.208,0,0,0,101.662,83.435Z" fill="#fff"/>
    <path id="Path_19" data-name="Path 19" d="M93.263,174.8a.23.23,0,0,0,.292.073c.11-.073.073-.182-.037-.219a.559.559,0,0,0-.292-.072C93.19,174.614,93.19,174.687,93.263,174.8Z" fill="#fff"/>
    <path id="Path_20" data-name="Path 20" d="M95.783,175.823a.525.525,0,0,0,.438.111c.11-.074,0-.148-.219-.259a2.273,2.273,0,0,0-.438-.111C95.527,175.6,95.637,175.712,95.783,175.823Z" fill="#fff"/>
    <path id="Path_21" data-name="Path 21" d="M99.252,177.75c.073.106.183.071.219-.036a.522.522,0,0,0,.073-.283.182.182,0,0,0-.219.035C99.216,177.537,99.179,177.679,99.252,177.75Z" fill="#fff"/>
    <path id="Path_22" data-name="Path 22" d="M100.494,178.094a1.963,1.963,0,0,1,.4.394c.073.107.146.107.256.071.219-.143-.365-.68-.73-.68C100.275,177.844,100.311,177.951,100.494,178.094Z" fill="#fff"/>
  </g>
</svg>
