<svg xmlns="http://www.w3.org/2000/svg" width="150.454" height="207.999" viewBox="0 0 150.454 207.999">
  <g id="vector-leaf-4" transform="translate(-0.917 -0.25)" opacity="0.2">
    <path id="Path_53" data-name="Path 53" d="M20.739.611c-.073.365.438,1.023.986,1.315.329.146.511.329.438.475-.146.256.548,1.424,1.1,1.826.219.183.365.438.329.584a7.952,7.952,0,0,0,.876,2.009c1.278,2.337,2.045,3.8,2.775,5.332.657,1.388,1.388,2.7,3.542,6.537.767,1.388,1.424,2.593,1.424,2.7a62.587,62.587,0,0,0,3.725,7.377c.694,1.242,1.315,2.374,1.388,2.447.073.109.548.84,1.1,1.607.986,1.461,1.643,2.045.986.876a23.309,23.309,0,0,1-1.753-3.542A27.677,27.677,0,0,0,36.26,27.2c-.548-1.023-1.424-2.849-1.972-4.054a86.779,86.779,0,0,0-4.054-7.961c-1.169-2.155-2.483-4.565-2.958-5.441-1.5-2.775-3.652-6.172-3.981-6.281A.489.489,0,0,1,23,2.984q0-.329.11-.329a17.018,17.018,0,0,1,2.629,2.337A7.461,7.461,0,0,0,27.094,6.2c.329.183.621.475.621.621A3.827,3.827,0,0,0,28.7,7.841c.511.4,1.205,1.023,1.534,1.351.329.365.877.949,1.242,1.315.84.84,3.4,3.433,3.652,3.725s1.351,1.607,2.593,3.177c.584.73,1.68,2.082,2.447,3.031,5.222,6.391,7.085,8.838,7.085,9.166a11.643,11.643,0,0,0,1.461,2.009c2.52,2.994,6.9,10.262,9.678,16.032.548,1.132,1.169,2.447,1.424,2.921,1.315,2.666,2.41,5,3.25,6.975.511,1.205,1.169,2.666,1.461,3.25a15.093,15.093,0,0,1,.8,1.862A41.875,41.875,0,0,0,67.046,67a31.09,31.09,0,0,1,1.132,3.214c.365,1.132.84,2.483,1.059,3.031s.548,1.424.694,1.972a3.127,3.127,0,0,0,.475,1.132,2.068,2.068,0,0,1,.438,1.023A56.061,56.061,0,0,0,73.729,84.6a6.737,6.737,0,0,1,.329,1.023,16.618,16.618,0,0,0,1.023,2.337,10.623,10.623,0,0,1,.876,2.045A12.177,12.177,0,0,0,77.2,93.3a5.587,5.587,0,0,1,.621,1.972,7.336,7.336,0,0,0,.73,2.374,12.049,12.049,0,0,1,.8,2.264,7.531,7.531,0,0,1-1.424-1.826c-.767-1.132-1.79-2.447-2.228-2.995-.475-.548-1.169-1.351-1.534-1.862a8.744,8.744,0,0,0-.876-1.023c-.84-.438-11.905-18.515-18.114-29.617-.475-.84-1.57-2.775-2.41-4.309s-1.936-3.506-2.447-4.419c-2.3-4.236-3.141-5.66-3.542-5.953q-.384-.329-.219-.329c.146,0-.11-.511-.548-1.278a10.877,10.877,0,0,1-.876-1.68,1.472,1.472,0,0,0-.511-.657c-.256-.146-.365-.329-.292-.475.183-.329-.292-.986-.511-.694-.11.146.11.694.767,1.79a6.755,6.755,0,0,1,.84,1.789,16.7,16.7,0,0,0,1.607,3.287,34.482,34.482,0,0,1,1.716,3.287,28.871,28.871,0,0,0,1.643,3.1c.913,1.57,1.716,3.1,1.826,3.36s1.132,2.155,2.337,4.236c1.169,2.082,2.41,4.236,2.739,4.82s1.205,2.082,1.936,3.25,1.388,2.3,1.5,2.52c1.826,3.214,11.394,18.734,11.723,19.026.292.292.365.438.183.438a.677.677,0,0,1-.475-.329,32.324,32.324,0,0,0-3.4-3.177,4.853,4.853,0,0,1-.8-.73c-1.57-1.789-2.155-2.41-2.41-2.447a1.638,1.638,0,0,1-.621-.621,1.638,1.638,0,0,0-.621-.621,6.394,6.394,0,0,1-1.169-1.1,3.33,3.33,0,0,0-1.132-1.023c-.146,0-.548-.4-.949-.913A16,16,0,0,0,58.5,79.894a22.917,22.917,0,0,1-1.9-2.045,18.654,18.654,0,0,0-1.278-1.424,6.066,6.066,0,0,1-.95-1.023c-.621-.84-2.52-3.177-3.506-4.309a16.211,16.211,0,0,1-1.132-1.424c-.109-.219-.949-1.315-1.826-2.447-1.936-2.447-5.989-8.29-7.852-11.284a101,101,0,0,1-5.4-9.751,1.461,1.461,0,0,0-.511-.8,1.386,1.386,0,0,1-.438-.657,10.385,10.385,0,0,0-1.169-2.958,8.893,8.893,0,0,1-1.242-3.1A29,29,0,0,0,29.321,33.4a.991.991,0,0,1-.183-.657,6.219,6.219,0,0,0-.767-2.483,5.363,5.363,0,0,1-.365-1.351,6.356,6.356,0,0,0-.8-2.666c-.11-.037-.183-.183-.146-.4A19.263,19.263,0,0,0,25.706,21.1c-.219-.4-.292-.73-.183-.8s.146-.4.037-.694-.256-.8-.329-1.1-.292-1.022-.511-1.643a6.647,6.647,0,0,1-.4-1.826,8.928,8.928,0,0,0-.438-1.972,14.468,14.468,0,0,1-.584-2.41c-.146-1.169-.621-2.3-.8-1.936a3.552,3.552,0,0,0,.11,1.1,5,5,0,0,1,.183,1.059,6.911,6.911,0,0,0,.621,2.52c.256.11.511,1.461.329,1.57-.073.036-.036.219.073.438s.146.4.073.438c-.183.11.219,1.643.548,2.191.146.256.219.548.146.657s0,.4.11.621a4.258,4.258,0,0,1,.329,1.315,3.721,3.721,0,0,0,.219,1.132c.109.219.949,3.579,1.753,6.975.183.73.475,1.68.657,2.191a13.889,13.889,0,0,1,.621,1.972,30,30,0,0,0,1.753,5.113,1.259,1.259,0,0,1,.256.767,9.5,9.5,0,0,0,1.132,3.36,13.988,13.988,0,0,1,.913,2.264,3.006,3.006,0,0,0,.767,1.461,1,1,0,0,1,.438.767c-.11.767,4.93,9.6,8.217,14.462.8,1.169,1.972,2.922,2.593,3.8a128.88,128.88,0,0,0,8.947,11.357c.219.256.8.95,1.315,1.534s1.461,1.607,2.118,2.264,1.607,1.68,2.118,2.264,1.388,1.461,1.972,2.009,1.5,1.388,2.045,1.936,1.205,1.132,1.424,1.315a16.053,16.053,0,0,1,1.461,1.424c.584.621,2.009,1.936,3.177,2.995,1.169,1.022,2.739,2.41,3.469,3.031a12.626,12.626,0,0,0,1.57,1.242,1.134,1.134,0,0,1,.438.4,7.339,7.339,0,0,0,.8.876c.329.292,1.023.949,1.57,1.461s1.278,1.169,1.716,1.534c.84.694,2.045,2.264,5.076,6.573,3.031,4.346,5.04,7.049,5.953,8.144.913,1.059,4.017,5.113,5.478,7.085,1.169,1.607,1.57,2.154,3.542,4.6.876,1.1,2.7,3.616,4.053,5.624s2.812,4.09,3.25,4.638.84,1.132.95,1.278c.621.95,6.573,11.212,7.194,12.453.913,1.79,2.849,5.624,3.141,6.282.109.255.621,1.351,1.1,2.373a64.55,64.55,0,0,1,3.323,8.29,25.789,25.789,0,0,0,.949,2.885,29.254,29.254,0,0,1,1.1,3.579,5.6,5.6,0,0,0,.438,1.57c.219.4.219.4-.146.146a2.942,2.942,0,0,1-.73-.766A23.3,23.3,0,0,0,120,172.25a24.977,24.977,0,0,1-2.483-2.337,21.7,21.7,0,0,0-2.192-1.935c-1.241-1.023-2.3-1.972-2.446-2.155a8.536,8.536,0,0,0-2.411-1.935,1.055,1.055,0,0,1-.511-.4,1.945,1.945,0,0,0-.548-.548c-.182-.109-1.095-.767-2.008-1.424a17.549,17.549,0,0,0-2.045-1.351,5.718,5.718,0,0,1-1.863-1.242c-.109-.146-2.7-1.862-5.806-3.835-8.618-5.4-9.166-5.916-12.928-11.686-.95-1.424-2.082-3.1-2.52-3.725-.438-.584-1.424-2.045-2.191-3.14a18.227,18.227,0,0,0-1.57-2.155,19.5,19.5,0,0,1-1.68-2.447,15.969,15.969,0,0,0-1.936-2.7,10.178,10.178,0,0,1-1.205-1.461c-.4-.621-1.022-1.461-1.351-1.862s-.877-1.132-1.242-1.571a20.533,20.533,0,0,0-1.5-1.789,47.381,47.381,0,0,1-3.177-4.309c-.11-.146-.511-.585-.95-1.023a8.132,8.132,0,0,1-1.315-1.643,20.744,20.744,0,0,0-1.862-2.41,19.877,19.877,0,0,1-1.534-1.9c-.183-.329-.986-1.242-3.835-4.638a8.122,8.122,0,0,0-1.023-1.1,13.561,13.561,0,0,1-1.169-1.461,8.855,8.855,0,0,0-1.1-1.351,8.416,8.416,0,0,1-1.132-1.424,13.6,13.6,0,0,0-1.643-1.9,5.821,5.821,0,0,1-1.1-1.242,8.357,8.357,0,0,0-1.059-1.315c-1.936-1.972-3.4-3.542-3.981-4.273-1.169-1.424-1.461-1.753-1.789-1.935a5.305,5.305,0,0,1-.986-1.023c-.365-.438-1.059-1.242-1.57-1.753-1.132-1.132-1.534-1.57-2.739-2.848-.511-.548-1.5-1.534-2.155-2.118a11.684,11.684,0,0,1-1.424-1.461,10.5,10.5,0,0,0-1.5-1.534c-.73-.657-2.082-1.972-3.031-2.922S27.6,75.11,27.422,75a16.942,16.942,0,0,1-1.315-1.169,51.046,51.046,0,0,0-3.835-3.615c-.8-.73-1.935-1.716-2.447-2.191a34.04,34.04,0,0,0-3.835-3.068c-.913-.657-1.863-1.388-2.155-1.643a30.358,30.358,0,0,0-3.4-2.337c-1.826-1.1-3.031-1.9-4.163-2.7a7.338,7.338,0,0,0-1.57-.913,1.059,1.059,0,0,1-.548-.329,1.1,1.1,0,0,0-.8-.292,1.034,1.034,0,0,1-.73-.183,2.315,2.315,0,0,0-.84-.365l-.73-.219-.11.8a2.628,2.628,0,0,0,.11,1.242,5.332,5.332,0,0,1,.657,1.972,55.915,55.915,0,0,0,2.045,6.683,4.153,4.153,0,0,1,.365,1.132,1.33,1.33,0,0,0,.256.767,2.248,2.248,0,0,1,.329.986,6.18,6.18,0,0,0,.438,1.5c.219.548.548,1.388.694,1.826.219.73.621,1.643,1.9,4.6.183.365.475,1.169.694,1.789a6.963,6.963,0,0,0,.694,1.534,2.987,2.987,0,0,1,.365.876,18.678,18.678,0,0,0,.949,2.374c.475,1.059.986,2.118,1.1,2.41.11.256.548,1.169.95,2.009.4.8.95,1.862,1.169,2.337s1.461,2.629,2.7,4.857a55.756,55.756,0,0,0,7.121,10.116c.876.986,1.716,1.935,1.9,2.154.4.475,2.52,2.776,3.506,3.871.4.439,1.059,1.1,1.461,1.461s1.789,1.716,3.068,2.995,2.52,2.483,2.7,2.629c.219.146,1.023.95,1.826,1.753,1.643,1.643,3.8,3.652,4.455,4.163.256.183.949.877,1.57,1.5a17.685,17.685,0,0,0,2.885,2.3,23.277,23.277,0,0,1,2.191,1.57,25.136,25.136,0,0,0,3.871,2.7,6.32,6.32,0,0,1,1.5,1.059,9.321,9.321,0,0,0,1.716,1.242c.877.547,2.3,1.46,3.214,2.081.913.584,2.082,1.315,2.593,1.607s1.351.84,1.9,1.169a51.977,51.977,0,0,0,6.756,3.761,7.356,7.356,0,0,1,1.351.657,4.334,4.334,0,0,0,1.205.585,4.718,4.718,0,0,1,1.242.657,1.62,1.62,0,0,0,.73.365,13.875,13.875,0,0,1,1.9.913,3.875,3.875,0,0,0,1.5.621c.11-.073.365.037.584.219a16.386,16.386,0,0,0,2.155,1.132,14.257,14.257,0,0,1,1.863.95,2.306,2.306,0,0,0,.913.292c.475.109.913.256.95.365a2.584,2.584,0,0,0,1.1.4,4.946,4.946,0,0,1,1.388.475,13.6,13.6,0,0,0,2.7,1.022,18.28,18.28,0,0,1,1.862.73c.365.183.767.4.986.512.183.073,1.242.767,2.41,1.5,1.132.73,2.191,1.388,2.374,1.5s.73.475,1.242.84,1.388.95,2.008,1.351c.621.366,1.279.84,1.534,1.023.219.219,1.534,1.1,2.922,2.009s2.994,2.008,3.579,2.41a5.189,5.189,0,0,0,1.241.767c.11,0,.329.182.439.365a3.637,3.637,0,0,0,.73.8,52.53,52.53,0,0,0,4.455,3.652,2.073,2.073,0,0,1,.694.767,10.428,10.428,0,0,0,2.483,2.447,5.062,5.062,0,0,1,.913.913,5.129,5.129,0,0,0,.913.913,5.194,5.194,0,0,1,.986,1.022c2.739,3.543,2.484,3.1,2.922,4.711.183.694.511,1.644.694,2.155a21.932,21.932,0,0,1,.694,2.264,7.845,7.845,0,0,0,.548,1.68c.109.183.109.365,0,.4-.183.109-.4-.073-1.461-1.169a8.9,8.9,0,0,0-1.315-1.168,13.6,13.6,0,0,1-1.242-.986,5.514,5.514,0,0,0-1.132-.8,1.813,1.813,0,0,1-.694-.584,4.308,4.308,0,0,0-1.168-.986,16.162,16.162,0,0,1-1.57-1.132,13.4,13.4,0,0,0-2.812-1.972,1.151,1.151,0,0,1-.621-.4,2.078,2.078,0,0,0-.658-.548,19.021,19.021,0,0,1-1.643-1.205,9.584,9.584,0,0,0-1.826-1.205,4.17,4.17,0,0,1-.767-.4,5.723,5.723,0,0,0-1.789-1.351.873.873,0,0,1-.512-.292,5.03,5.03,0,0,0-.913-.694,19.078,19.078,0,0,1-1.789-1.278,3.441,3.441,0,0,0-1.315-.731.55.55,0,0,1-.511-.292,44.993,44.993,0,0,0-5.551-3.652,8.521,8.521,0,0,1-1.022-.657,14.073,14.073,0,0,0-1.68-.986,26.5,26.5,0,0,1-2.629-1.534c-.584-.365-1.607-.913-2.228-1.205-.657-.292-1.57-.767-2.118-1.059a7.1,7.1,0,0,0-1.534-.657,1.506,1.506,0,0,1-.73-.329,4.851,4.851,0,0,0-1.351-.657c-.657-.256-1.534-.621-1.9-.8a20.392,20.392,0,0,0-3.761-1.57,10.2,10.2,0,0,1-1.461-.511,11.191,11.191,0,0,0-1.789-.621c-1.534-.475-3.761-1.205-5.113-1.717-1.059-.4-8.728-2.227-11.065-2.665-.95-.183-2.3-.439-2.995-.548a5.056,5.056,0,0,0-1.424-.146,5.412,5.412,0,0,1-1.461-.146c-.73-.146-2.155-.329-3.177-.439-1.059-.109-2.666-.292-3.652-.4-3.068-.366-2.995-.366-3.068.292-.11.913.256,1.314,4.419,4.82,2.812,2.374,5.77,4.748,6.245,5.04a10.613,10.613,0,0,1,1.169.876,35.071,35.071,0,0,0,4.273,3.251,1.605,1.605,0,0,1,.694.584,6.443,6.443,0,0,0,1.5,1.132c.694.438,1.753,1.169,2.374,1.643a5.264,5.264,0,0,0,1.461.913.715.715,0,0,1,.511.293,8.121,8.121,0,0,0,1.388,1.059,9.722,9.722,0,0,1,1.351,1.022,3.363,3.363,0,0,0,.84.584c.4.22.913.548,1.205.694.256.146.621.365.8.475s.767.475,1.315.84a3.3,3.3,0,0,0,1.351.621.449.449,0,0,1,.475.182A17.115,17.115,0,0,0,78,176.048c.438.22,1.132.548,1.5.767.4.219,1.242.585,1.863.84,1.205.475,1.789.731,3.761,1.607a10.531,10.531,0,0,0,1.607.621c.183.036.877.256,1.57.511s1.716.585,2.3.767a15.253,15.253,0,0,1,1.461.511,27.113,27.113,0,0,0,2.666.877c1.242.365,3.761,1.1,5.624,1.643a73.005,73.005,0,0,0,12.781,2.63c1.132.146,3.36.4,4.894.584s3.068.365,3.4.4a5.983,5.983,0,0,1,1.607.4c.548.219,1.863.658,2.812.986l1.79.621.073.913a14.866,14.866,0,0,0,.986,4.017,3.623,3.623,0,0,1,.365,1.205c.036.4.219,1.315.365,2.009.146.73.329,1.826.4,2.447a10.254,10.254,0,0,0,.4,1.862,8.932,8.932,0,0,1,.512,3.871c-.219,1.023-.183,1.1.767,1.753.693.475,1.57.475,1.789,0,.11-.182-.146-1.205-.767-3.469-.438-1.461-.949-3.4-1.5-5.478a18.226,18.226,0,0,0-.548-1.9,8.274,8.274,0,0,1-.219-1.534,5.671,5.671,0,0,0-.219-1.388,2.386,2.386,0,0,1-.219-.949,5.577,5.577,0,0,0-.548-1.68,9.777,9.777,0,0,1-.877-3.652,4.031,4.031,0,0,0-.182-1.1,2.261,2.261,0,0,1-.183-.877,5.19,5.19,0,0,0-.365-1.388,16.5,16.5,0,0,1-.511-1.606,13.529,13.529,0,0,0-.475-1.571,1.6,1.6,0,0,1-.146-.913,3.412,3.412,0,0,0-.4-1.424,7.734,7.734,0,0,1-.657-2.264,5.643,5.643,0,0,0-.475-1.79,5.033,5.033,0,0,1-.475-1.351c-.036-.292-.255-1.424-.474-2.52a9.368,9.368,0,0,1-.293-2.337.546.546,0,0,0-.109-.511.976.976,0,0,1-.183-.767,3.452,3.452,0,0,0-.036-.767,37.869,37.869,0,0,1,.438-8.107c.11-.438.256-1.023.329-1.315a3.93,3.93,0,0,1,.511-1.169,19.9,19.9,0,0,0,1.789-3.505c.439-.95,1.352-2.7,2.045-3.908a28.191,28.191,0,0,0,1.461-2.775,1.565,1.565,0,0,1,.512-.767,34.974,34.974,0,0,0,2.885-5.259.492.492,0,0,1,.255-.365,3.009,3.009,0,0,0,.694-1.132c.256-.512.877-1.753,1.424-2.739,1.571-2.776,1.68-2.995,1.79-3.433a8.47,8.47,0,0,1,.584-1.132,3.261,3.261,0,0,0,.475-1.023,3.2,3.2,0,0,1,.621-1.132,6.794,6.794,0,0,0,.84-1.716,4.923,4.923,0,0,1,.547-1.315,63.445,63.445,0,0,0,2.557-6.1c.986-2.519,2.41-6.683,2.52-7.376a13.24,13.24,0,0,1,.693-2.045c1.133-2.776,3.287-12.344,4.018-17.749.146-1.1.328-2.264.4-2.593s.183-1.461.256-2.483c.073-1.059.183-2.082.219-2.228a2.513,2.513,0,0,0-.183-1.716c-.219-.329-.292-.329-.84.146-.328.292-.912.913-1.314,1.351a4.627,4.627,0,0,1-1.059.986,1.109,1.109,0,0,0-.475.438,2.879,2.879,0,0,1-.657.8,56.55,56.55,0,0,0-4.638,7.158,3.367,3.367,0,0,1-.694,1.132,3.093,3.093,0,0,0-.548,1.205,3.016,3.016,0,0,1-.584,1.205.979.979,0,0,0-.365.657,2.307,2.307,0,0,1-.95,1.534,4.464,4.464,0,0,0-1.1,2.009,3.065,3.065,0,0,1-.584.986,2.085,2.085,0,0,0-.548,1.1,2.4,2.4,0,0,1-.547,1.1,5.045,5.045,0,0,0-.8,1.424,14.86,14.86,0,0,1-.949,2.082,9.461,9.461,0,0,0-.694,1.607,3.912,3.912,0,0,1-.548,1.241,3.137,3.137,0,0,0-.475,1.242c0,.292-.073.511-.182.475-.073,0-.22.292-.293.657a1.9,1.9,0,0,1-.328.8c-.438.256-1.5,4.273-1.278,4.821.182.4.474-.146.73-1.424a3.514,3.514,0,0,1,.365-1.132,2.715,2.715,0,0,0,.365-.84,16.233,16.233,0,0,1,.8-2.009c.475-1.059,1.1-2.593,1.753-4.455a10.9,10.9,0,0,1,.8-1.5,4.714,4.714,0,0,0,.658-1.388,2.677,2.677,0,0,1,.474-1.023,10.957,10.957,0,0,0,.8-1.607,2.878,2.878,0,0,1,.73-1.132,2.5,2.5,0,0,0,.657-1.132,3.933,3.933,0,0,1,.731-1.351,9.723,9.723,0,0,0,1.1-1.643,5.242,5.242,0,0,1,.8-1.315,1.908,1.908,0,0,0,.328-.8,1.643,1.643,0,0,1,.366-.84,11.675,11.675,0,0,0,1.753-2.958,3.1,3.1,0,0,1,.584-.8A8.538,8.538,0,0,0,145.6,90.63a9.17,9.17,0,0,1,.767-1.388,3.368,3.368,0,0,0,.292-.329,12.438,12.438,0,0,1,2.483-2.629c.11.036.073.183-.073.365a12.532,12.532,0,0,0-1.387,3.141c-.11.4-.256.767-.4.8-.11.037-.219.329-.256.694,0,.329-.146.657-.292.694a.837.837,0,0,0-.4.621,1.376,1.376,0,0,1-.292.694,5.948,5.948,0,0,0-.584,1.643c-.438,1.57-.8,2.41-1.169,2.629a4.944,4.944,0,0,0-.584,1.388,28.108,28.108,0,0,1-.986,2.738,27.324,27.324,0,0,0-1.753,5.077c.037.073-.036.219-.183.292a5.283,5.283,0,0,0-.73,1.753,19.814,19.814,0,0,1-1.022,2.739c-.329.62-.512,1.278-.4,1.424.073.146.073.292,0,.329a6.639,6.639,0,0,0-.84,2.154,2.487,2.487,0,0,1-.438.84c-.146.073-.219.219-.146.292a5.538,5.538,0,0,1-.439,1.315c-.292.657-.62,1.57-.767,2.009a2.658,2.658,0,0,1-.365.876,7.083,7.083,0,0,0-.511,1.607,11.5,11.5,0,0,1-.84,2.3,19.293,19.293,0,0,0-1.57,4.017c-.073.328-.183.62-.329.694a8.138,8.138,0,0,0-1.059,2.446,7.941,7.941,0,0,1-.548,1.5c-.329.73-.767,1.789-.949,2.337-.548,1.424-2.52,6.61-2.958,7.7-.366.95-1.169,3.36-1.425,4.383-.073.328-.255.84-.365,1.205-.182.584-.219.584-.146.109.037-.255.073-.694.11-.913a7.878,7.878,0,0,0,.109-2.7.811.811,0,0,1,.073-.694,14.09,14.09,0,0,0,.475-2.082c.219-1.424.584-3.213,2.264-11.028.183-.877.4-1.936.511-2.374s.475-1.826.84-3.1c1.059-3.652,1.571-5.88,1.388-6.172-.109-.146-.219-.219-.292-.182a21.86,21.86,0,0,0-.8,2.994,17.961,17.961,0,0,1-.913,3.177,24.2,24.2,0,0,0-1.315,5.113,1.915,1.915,0,0,1-.365,1.1c-.146.074-.183.329-.146.512a7.631,7.631,0,0,1-.22,1.68c-.182.694-.4,1.68-.474,2.118-.11.438-.256,1.1-.365,1.461s-.293,1.205-.439,1.9-.438,2.081-.694,3.14a14.444,14.444,0,0,0-.547,4.163,4.2,4.2,0,0,1-.073,1.059c-.11.475-.256,1.461-.366,2.155-.109.73-.328,1.936-.474,2.739s-.292,1.972-.329,2.593a19.508,19.508,0,0,1-.511,2.958,7.07,7.07,0,0,0-.329,2.081.524.524,0,0,1-.036.512,4.76,4.76,0,0,0,0,1.68c.182,1.533-.147,1.5-.658-.073-.548-1.607-2.556-6.209-2.994-6.939a3.12,3.12,0,0,1-.4-.877c0-.255-2.045-4.236-3.835-7.559a25.045,25.045,0,0,1-2.739-6.72c-.109-.657-.365-1.752-.547-2.446s-.475-1.936-.585-2.7c-.146-.767-.328-1.789-.4-2.191-.146-.694-.22-1.315-.658-4.784a8.553,8.553,0,0,0-.255-1.461,6.326,6.326,0,0,1-.183-1.533,6.7,6.7,0,0,0-.219-1.571,40.258,40.258,0,0,1,.146-6.865,10.712,10.712,0,0,0,.146-1.5,8.96,8.96,0,0,1,.4-2.848,10.771,10.771,0,0,0,.292-1.936,14.414,14.414,0,0,1,.438-3.213c.146-.658.365-2.228.511-3.543s.366-3.1.548-4.017a6.948,6.948,0,0,0,.146-1.9,1.2,1.2,0,0,1,0-.73,64.964,64.964,0,0,0,.146-8.947c-.036-.73-.073-2.228-.109-3.4a123.9,123.9,0,0,0-1.205-13.037,71.5,71.5,0,0,0-1.68-6.975,5.707,5.707,0,0,1-.4-1.315,60.225,60.225,0,0,0-3.579-8.618,43.077,43.077,0,0,0-5.551-8.144,15.533,15.533,0,0,1-1.242-1.716c-.657-1.022-1.023-1.388-1.5-1.57l-.621-.219-.219.986a2.2,2.2,0,0,1-.475,1.132c-.4.256-1.607,6.208-1.716,8.509-.037.73-.11,1.826-.146,2.447a3.568,3.568,0,0,0,.073,1.388,1.217,1.217,0,0,1,0,.73,30.982,30.982,0,0,0,.11,6.281c.11,1.132.256,2.228.256,2.447.073.986.11,1.388.438,4.09.219,1.57.438,3.1.548,3.4a1.612,1.612,0,0,1,.073.913.705.705,0,0,0,0,.548,2.236,2.236,0,0,1,.146.877,8.67,8.67,0,0,0,.219,1.351c.109.365.292,1.424.438,2.374a18,18,0,0,0,.986,3.834,8.424,8.424,0,0,1,.219.986,23.1,23.1,0,0,0,1.1,3.615,5.78,5.78,0,0,1,.365,1.716,14.64,14.64,0,0,0,1.1,3.542c1.9,4.674,2.812,7.158,3.616,9.678.438,1.351.913,2.775,1.059,3.141a6.786,6.786,0,0,1,.328,1.1,8.324,8.324,0,0,0,.475,1.68,55.106,55.106,0,0,1,1.936,6.72,3.42,3.42,0,0,0,.4,1.57,2.666,2.666,0,0,1,.183,1.351,3.012,3.012,0,0,0,.11,1.351,3.575,3.575,0,0,1,.182,1.242,2.084,2.084,0,0,0,.11.913,4.867,4.867,0,0,1,.036,1.68,7.225,7.225,0,0,0,.183,2.337,24.688,24.688,0,0,1,.438,2.776,7.459,7.459,0,0,0,.329,1.9,1.708,1.708,0,0,1,.109.8,1.585,1.585,0,0,0,.183.84,4.058,4.058,0,0,1,.329,1.059,34.207,34.207,0,0,0,.876,4.273c.292.949.256.913-1.315-1.388-.876-1.278-2.264-3.323-3.031-4.528-2.154-3.251-5.076-7.268-6.573-9.13-.73-.913-1.789-2.264-2.374-3.068s-1.9-2.52-2.958-3.834c-3.433-4.273-5.186-6.5-6.647-8.473-.8-1.059-1.826-2.337-2.3-2.848a5.652,5.652,0,0,1-.913-1.169c-.036-.109-.584-1.169-1.205-2.374a56.68,56.68,0,0,1-2.629-5.514,46.149,46.149,0,0,0-2.3-5A1.63,1.63,0,0,1,77.235,91a18.409,18.409,0,0,0-1.643-4.346,2.222,2.222,0,0,1-.4-.986,1.088,1.088,0,0,0-.036-.475c-.183-.584-.95-2.52-1.388-3.615-.913-2.118-1.059-2.52-1.461-3.615-.219-.621-.621-1.607-.877-2.191a8.3,8.3,0,0,1-.511-1.57,5.976,5.976,0,0,0-.621-1.643,6.658,6.658,0,0,1-.584-1.351,33.883,33.883,0,0,0-1.461-4.638,12.246,12.246,0,0,1-.584-1.315c-.584-1.68-1.534-4.236-2.045-5.4-.292-.657-.949-2.155-1.424-3.323-.913-2.118-2.3-5.113-3.177-6.792-.219-.475-.73-1.534-1.132-2.374a64.568,64.568,0,0,0-5.953-10.773c-1.972-3.141-3.908-6.026-4.273-6.391a18.229,18.229,0,0,1-1.826-2.447c-.621-.95-1.716-2.447-2.41-3.323-2.52-3.177-3.25-4.09-4.821-5.989-.876-1.059-2.045-2.52-2.593-3.214a27.766,27.766,0,0,0-3.908-4.127,4.453,4.453,0,0,1-.84-.767,28.172,28.172,0,0,0-3.834-3.652,2.77,2.77,0,0,1-.876-.84,1.9,1.9,0,0,0-.767-.657,2.334,2.334,0,0,1-.84-.767c-.219-.146-1.242-1.023-2.337-1.789A15.674,15.674,0,0,1,22.492.976C22.018.209,20.885-.01,20.739.611ZM3.393,58.53c.475.694,1.315,1.826,1.862,2.483,1.023,1.242,3.542,4.674,5.332,7.267a17.574,17.574,0,0,0,1.278,1.68,16.734,16.734,0,0,1,1.315,1.753c.584.84,1.5,2.082,2.045,2.7,1.242,1.461,1.753,2.082,5.3,6.719,1.643,2.118,5.368,6.793,6.866,8.582.8.95,1.607,1.936,1.789,2.191,1.607,2.045,2.009,2.556,2.337,2.885a15.213,15.213,0,0,1,1.862,2.191c1.059,1.388,1.607,2.009,4.309,5a11.178,11.178,0,0,1,1.643,2.118.813.813,0,0,0,.365.475,5.658,5.658,0,0,1,1.132,1.168,6.775,6.775,0,0,0,1.059,1.205,2.722,2.722,0,0,1,.621.658,16.762,16.762,0,0,0,2.155,2.629,11.966,11.966,0,0,1,1.826,1.935c.584.877,1.461,1.644,1.461,1.315a.57.57,0,0,0-.219-.438A6.184,6.184,0,0,1,46.7,111.7a5.144,5.144,0,0,0-1.461-1.644,2.137,2.137,0,0,1-.876-.949,9.392,9.392,0,0,0-2.447-2.958c-.329-.219-.511-.365-.4-.365s0-.219-.219-.512-1.132-1.424-2.009-2.519c-2.7-3.4-3.323-4.127-4.127-5.04a5.794,5.794,0,0,1-.95-1.315c-.219-.548-1.753-2.3-2.045-2.264-.11,0-.292-.292-.438-.657A40.869,40.869,0,0,0,27.459,88a19.62,19.62,0,0,1-1.607-2.008c-.584-.84-1.607-2.191-2.191-2.958-1.132-1.461-1.278-1.643-3.25-4.382-.657-.876-2.155-2.849-3.323-4.346s-2.922-3.761-3.908-4.967c-.95-1.242-2.118-2.666-2.593-3.214s-.913-1.132-1.059-1.315c-.4-.694-5-6.1-5.989-7.085a3.022,3.022,0,0,1-.511-.584,19.24,19.24,0,0,1,3.1,1.9c.183.183,1.169.876,3.287,2.3A21.081,21.081,0,0,1,11.464,62.8a4.759,4.759,0,0,0,1.023.621,1.472,1.472,0,0,1,.657.511,5.9,5.9,0,0,0,1.388,1.1,23.513,23.513,0,0,1,2.337,1.789,5.79,5.79,0,0,0,1.424,1.059c.109,0,.329.183.475.365a3.616,3.616,0,0,0,.73.84c.292.256.95.84,1.461,1.315.548.475,1.242,1.022,1.534,1.242a4.343,4.343,0,0,1,1.023.986A24.165,24.165,0,0,0,25.3,74.489c1.607,1.461,4.821,4.455,5.514,5.076.256.256.876.8,1.388,1.242a16.114,16.114,0,0,1,1.57,1.607,17.521,17.521,0,0,0,1.643,1.68c.876.8,1.68,1.607,3.542,3.542.365.365.876.913,1.205,1.205s.986,1.022,1.5,1.57a6.879,6.879,0,0,0,1.205,1.132,3.453,3.453,0,0,1,.877.913,24.328,24.328,0,0,0,2.264,2.629c1.424,1.534,2.191,2.41,2.995,3.433a7.307,7.307,0,0,0,1.315,1.315,4.533,4.533,0,0,1,1.023,1.132,31.907,31.907,0,0,0,2.155,2.7,16.97,16.97,0,0,1,1.716,2.118,1.358,1.358,0,0,0,.438.547,9.561,9.561,0,0,1,1.022,1.169,5.8,5.8,0,0,0,.986,1.059,11.889,11.889,0,0,1,1.57,1.936,27.037,27.037,0,0,0,1.68,2.154,21.74,21.74,0,0,1,1.534,1.9c.584.8,1.57,2.009,2.191,2.7s1.424,1.643,1.753,2.118c.73,1.022,4.2,5.514,4.747,6.171.219.256.767.913,1.242,1.425a14.611,14.611,0,0,1,1.388,1.9,2.854,2.854,0,0,0,.8.949c.146,0,.438.365.694.767a43.774,43.774,0,0,0,3.8,5.4c.292.256.511.548.438.657a2.9,2.9,0,0,0,.621,1.169c.767,1.1,2.629,3.871,5.186,7.669l1.68,2.52-2.045-1.461c-1.132-.8-2.264-1.607-2.556-1.789a2.392,2.392,0,0,1-.694-.585,3.035,3.035,0,0,0-.913-.694,8.576,8.576,0,0,1-1.242-.986,9.6,9.6,0,0,0-1.5-1.241c-.548-.4-1.315-.986-1.716-1.351-.365-.366-1.351-1.169-2.191-1.826a34.881,34.881,0,0,1-3.615-2.958,2.464,2.464,0,0,0-.657-.512,2.778,2.778,0,0,1-.73-.657,25.7,25.7,0,0,0-3.725-3.469.721.721,0,0,1-.4-.4,12.208,12.208,0,0,0-2.228-2.009,4.493,4.493,0,0,1-.438-.365c-.073-.073-.475-.475-.876-.84s-.95-.949-1.278-1.315c-.329-.328-1.132-1.1-1.826-1.679s-1.789-1.607-2.447-2.265c-1.388-1.387-2.118-1.679-1.424-.584.256.4.548.731.657.731a4.015,4.015,0,0,1,.986.949,6.689,6.689,0,0,0,1.059,1.132,21.833,21.833,0,0,1,1.789,1.753c1.643,1.753,1.643,1.753,2.629,2.7s1.826,1.79,2.447,2.411c.292.292.8.767,1.132,1.059s1.57,1.461,2.739,2.629a71.227,71.227,0,0,0,6.172,5.661,6.334,6.334,0,0,1,1.059.986,13.167,13.167,0,0,0,1.461,1.314,10.2,10.2,0,0,1,1.424,1.169,28.371,28.371,0,0,0,3.944,3.068,4.817,4.817,0,0,1,1.169.876,16.635,16.635,0,0,0,1.936,1.388c1.936,1.205,1.936,1.168,1.716,1.314a13.16,13.16,0,0,1-3.177-1.351c-.365-.182-1.205-.584-1.9-.949-.694-.329-1.716-.84-2.337-1.132S77.2,145.7,75.92,145.08c-1.315-.621-2.775-1.351-3.25-1.643A2.571,2.571,0,0,0,71.647,143,6.248,6.248,0,0,1,70,142.232c-.8-.475-2.009-1.169-2.666-1.5-.657-.365-1.57-.913-2.045-1.2-.84-.547-3.031-1.9-3.871-2.41-.219-.146-.621-.4-.876-.548-.256-.182-.621-.4-.767-.511-.913-.511-4.054-2.556-4.127-2.7a13.627,13.627,0,0,0-1.68-1.169c-.876-.584-2.374-1.643-3.323-2.374a32.094,32.094,0,0,0-2.885-2.045,11.9,11.9,0,0,1-1.9-1.5c-.4-.438-2.045-2.009-3.652-3.542-3.506-3.324-3.8-3.579-4.748-4.6-.4-.438-1.315-1.351-2.045-2.081-.73-.694-1.424-1.425-1.57-1.607a10.376,10.376,0,0,0-.913-.913A144.379,144.379,0,0,1,20.812,99.577c-.95-1.351-4.054-6.391-4.528-7.377-.292-.584-1.059-2.045-1.716-3.25s-1.716-3.287-2.3-4.6-1.388-3.031-1.716-3.761S9.6,78.4,9.2,77.374s-.913-2.264-1.169-2.739a12.956,12.956,0,0,1-.621-1.388c-.11-.292-.365-1.022-.621-1.68S6.1,69.632,5.8,68.719,5.109,66.6,4.89,66.053c-.511-1.278-.584-1.57-1.023-2.812-.183-.548-.511-1.388-.694-1.826-.219-.475-.292-.877-.219-.913.11-.073-.037-.621-.876-2.885C1.749,56.7,2.48,57.215,3.393,58.53ZM95.714,47.1a4.729,4.729,0,0,0,.219,1.205.8.8,0,0,1,.036.584,2.635,2.635,0,0,0,.11,1.242A5.826,5.826,0,0,1,96.3,51.3a6.1,6.1,0,0,0,.292,1.278,14.563,14.563,0,0,1,.438,2.118,4.866,4.866,0,0,0,.219,1.315,3.248,3.248,0,0,1,.183.84,12.829,12.829,0,0,0,.329,1.789,10.167,10.167,0,0,1,.256,1.643,2.577,2.577,0,0,0,.219.913,2.042,2.042,0,0,1,.256.95,10.421,10.421,0,0,0,.4,1.9c.219.73.621,2.337.84,3.542s.548,2.739.694,3.36c.146.657.328,1.5.4,1.935.073.511.183.8.4.84.183.037.256-.292.146-1.022a4.649,4.649,0,0,0-.292-1.278,1.124,1.124,0,0,1,.036-.767,1.287,1.287,0,0,0-.073-.913,3.821,3.821,0,0,1-.219-1.351,3.6,3.6,0,0,0-.182-1.315,1.95,1.95,0,0,1-.183-.877,16.728,16.728,0,0,0-.4-2.3,10.955,10.955,0,0,1-.328-1.972c.073-.11,0-.4-.146-.621a3.923,3.923,0,0,1-.329-1.461,23.865,23.865,0,0,0-.4-2.666c-.183-.876-.365-2.045-.438-2.556s-.329-1.826-.584-2.958A23.34,23.34,0,0,1,97.32,49a1.845,1.845,0,0,0-.183-.877,9.141,9.141,0,0,1-.329-1.461l-.183-1.205,1.461,2.264a101.44,101.44,0,0,1,5.99,10.189c.328.8.839,2.008,1.095,2.666s.657,1.607.877,2.155.584,1.716.84,2.556c.219.877.584,2.082.73,2.666a3.975,3.975,0,0,1,.219,1.315c-.073.11,0,.329.073.511a49.12,49.12,0,0,1,1.424,8.765c0,.183.073,1.059.146,1.862.146,1.534.293,4.747.329,7.158,0,.73.073,2.155.11,3.177.073,1.022.109,2.374.073,3.068,0,.694-.037,1.972-.037,2.848a37.443,37.443,0,0,1-.329,5.113,7.6,7.6,0,0,0-.109,1.205,3.667,3.667,0,0,1-.183,1.168.632.632,0,0,0-.036.439,15.237,15.237,0,0,1-.438,3.688,6.36,6.36,0,0,0-.22,1.789,13.038,13.038,0,0,1-.365,2.739l-.292,1.023-.073-1.607a6.831,6.831,0,0,0-.292-1.936,2.605,2.605,0,0,1-.11-1.168,4.706,4.706,0,0,0-.146-1.5,6.19,6.19,0,0,1-.219-1.5,5.683,5.683,0,0,0-.073-1.059,16.543,16.543,0,0,1-.511-3.25c.073-.584-.256-1.57-.475-1.351a.288.288,0,0,1-.4,0c-.182-.146-.146-.219.256-.475a1.03,1.03,0,0,0,.183-.4c.109-.438-.146-.694-.366-.292-.073.146-.109-.073-.073-.511.073-.986-.219-2.191-.438-2.045-.109.073-.182-.146-.146-.475a1.405,1.405,0,0,0-.109-.767,4.113,4.113,0,0,1-.074-1.351,4.154,4.154,0,0,0-.109-1.388,4.319,4.319,0,0,1-.219-1.132,2.082,2.082,0,0,0-.256-1.023,1.913,1.913,0,0,1-.182-1.022c.036-1.461-.694-4.93-1.06-5-.073-.036-.109-.183-.073-.4.074-.548-.219-.511-.365.036a.939.939,0,0,0,.256.84c.256.256.292.438.182.621a1.686,1.686,0,0,0,0,1.059,3.5,3.5,0,0,1,.147,1.059,1.284,1.284,0,0,0,.182.657,1.138,1.138,0,0,1,.11.767,1.755,1.755,0,0,0,.109,1.022,7.557,7.557,0,0,1,.292,1.315c.037.365.11.584.183.438.073-.109.146-.183.183-.146a4.922,4.922,0,0,1,.073,2.045,8.74,8.74,0,0,0,.694,3.542,1.425,1.425,0,0,1,.182.913.893.893,0,0,0,.073.694.7.7,0,0,1-.073.694c-.182.292-.109.584.183,1.022.219.365.365.73.292.876a1.537,1.537,0,0,0,.292,1.023c.219.438.365.73.292.73-.219-.036-.255,1.242-.036,1.607a.732.732,0,0,1,.109.585,6.41,6.41,0,0,0,.037,2.629,2.384,2.384,0,0,1,.036,1.132,2.98,2.98,0,0,0,.037,1.132,3.064,3.064,0,0,1,.109,1.132,8.407,8.407,0,0,0,0,1.351c.11.913,0,.658-.8-2.081-.584-2.009-.913-3.141-1.205-4.236-.11-.366-.438-1.315-.731-2.119-.913-2.41-.986-2.629-1.059-3.359a20.361,20.361,0,0,0-1.095-3.141c-.548-1.351-1.132-2.812-1.278-3.287a15.557,15.557,0,0,0-.84-1.936,9.354,9.354,0,0,1-.767-2.118,13.646,13.646,0,0,0-.621-1.972A38.176,38.176,0,0,1,96.079,80a4.34,4.34,0,0,0-.219-1.132,9.643,9.643,0,0,1-.292-1.9,10.231,10.231,0,0,0-.4-2.3,3.646,3.646,0,0,1-.146-1.424,2.128,2.128,0,0,0-.109-1.132,4.732,4.732,0,0,1-.256-1.643,3.759,3.759,0,0,0-.256-1.461.865.865,0,0,1-.11-.73,30.754,30.754,0,0,0-.365-5.368,3.8,3.8,0,0,1,.036-1.278,19.592,19.592,0,0,0,.073-3.8,2.574,2.574,0,0,1,.073-1.132,8.5,8.5,0,0,0,.11-1.57,5.347,5.347,0,0,1,.146-1.461c.11-.438.292-1.5.4-2.3a17.644,17.644,0,0,1,.365-2.082,14.9,14.9,0,0,0,.219-1.789C95.348,46.113,95.6,45.858,95.714,47.1Zm54.815,39.7c-.146,1.059-.584,3.615-.913,5.332a10.629,10.629,0,0,0-.255,2.191c.036.292,0,.548-.074.584a3.5,3.5,0,0,0-.328,1.132c-.658,3.506-2.812,11.832-3.652,14.206-.548,1.534-1.023,2.922-1.059,3.1s-.438,1.242-.877,2.374-.84,2.228-.913,2.41c-.036.183-.474,1.205-.913,2.264s-.949,2.374-1.132,2.922a4.912,4.912,0,0,1-.621,1.315,7.109,7.109,0,0,0-.8,1.606,5.281,5.281,0,0,1-.621,1.352,6.457,6.457,0,0,0-.694,1.351,12.789,12.789,0,0,1-.876,1.753c-.183.255-.511.949-.8,1.5-.255.548-.657,1.351-.876,1.789-.584,1.1-.767,1.461-1.461,2.849a20.021,20.021,0,0,1-1.1,2.045,24.483,24.483,0,0,0-1.534,2.885,23.807,23.807,0,0,1-1.315,2.3,19.776,19.776,0,0,0-1.351,2.41,7.318,7.318,0,0,1-.584,1.242c-.4.657-.4.584-.037-.877a20,20,0,0,1,.877-2.629c.511-1.1,2.41-6.208,3.1-8.4.949-2.958,1.789-5.478,1.935-5.624A28.683,28.683,0,0,0,134.9,126.6a5.99,5.99,0,0,1,.511-1.206,11.425,11.425,0,0,0,.731-2.3,8.634,8.634,0,0,1,.547-1.826,10.572,10.572,0,0,0,.621-2.118,8.083,8.083,0,0,1,.767-2.192,1.042,1.042,0,0,0,.365-.657,6.637,6.637,0,0,1,.511-1.278,6.474,6.474,0,0,0,.512-1.388,11.067,11.067,0,0,1,.657-1.716,22,22,0,0,0,.95-2.483,7.751,7.751,0,0,1,.511-1.461A24.86,24.86,0,0,0,143.006,104a2.044,2.044,0,0,1,.365-.84,6.012,6.012,0,0,0,.621-1.351,13.284,13.284,0,0,1,.658-1.643.769.769,0,0,0,.073-.621c-.183-.292.511-1.68.949-1.936a6.261,6.261,0,0,0,.73-1.936,10.236,10.236,0,0,1,.585-1.826,28.508,28.508,0,0,0,1.826-4.492,3.89,3.89,0,0,1,.4-1.059.75.75,0,0,0,.183-.511c.037-.365.876-1.607,1.1-1.57C150.566,86.175,150.566,86.467,150.529,86.8ZM48.567,151.215a20.032,20.032,0,0,0,3.433.512,8.816,8.816,0,0,1,1.534.219,5.085,5.085,0,0,0,1.169.146c1.826,0,12.782,2.52,16.58,3.834,1.5.512,3.177,1.059,3.834,1.206a7.657,7.657,0,0,1,1.607.584,7.429,7.429,0,0,0,1.607.621c.913.255,4.382,1.643,7.523,3.031.657.292,3.177,1.461,3.981,1.862.183.11.876.438,1.5.731a6.387,6.387,0,0,1,1.205.657,14.289,14.289,0,0,0,1.643.949,31.625,31.625,0,0,1,2.775,1.571,8.7,8.7,0,0,0,1.607.84,6.011,6.011,0,0,1,1.972,1.314.909.909,0,0,0,.621.293,2.186,2.186,0,0,1,1.643.986,2.484,2.484,0,0,0,1.169.73,2.14,2.14,0,0,1,1.132.657,13.321,13.321,0,0,0,2.264,1.68c3.324,2.082,3.981,2.52,4.127,2.739a3.632,3.632,0,0,0,.876.621,4.379,4.379,0,0,1,1.023.73,17.543,17.543,0,0,0,1.9,1.315,9.48,9.48,0,0,1,1.789,1.315,1.6,1.6,0,0,0,.658.511,9.4,9.4,0,0,1,1.68,1.315,41.836,41.836,0,0,0,4.674,3.944c.4.146.913.73.731.876a1.629,1.629,0,0,1-.767-.182c-.329-.146-1.169-.475-1.9-.767-.694-.256-1.863-.767-2.593-1.1s-2.557-1.022-4.09-1.534a33.574,33.574,0,0,1-3.214-1.205,5.44,5.44,0,0,0-1.461-.438,4.256,4.256,0,0,1-1.388-.475c-.584-.511-1.826-1.022-2.045-.876a.284.284,0,0,1-.365-.073,16.935,16.935,0,0,0-4.346-1.863c-.548-.036-.548-.036-.073.183a1.23,1.23,0,0,0,.621.146c.073-.037.219.073.329.256a.95.95,0,0,0,.584.4,2.575,2.575,0,0,1,.913.438c.292.22.621.329.694.22.073-.073.365.073.621.292a6.922,6.922,0,0,0,1.57.986,5.3,5.3,0,0,1,1.242.73,4.808,4.808,0,0,0,1.5.621,7.16,7.16,0,0,1,1.461.584,1.011,1.011,0,0,0,.657.256,50.392,50.392,0,0,1,5.624,2.41l1.169.548-.95-.219a4.061,4.061,0,0,0-1.168-.11c-.11.073-.329,0-.512-.146a2.463,2.463,0,0,0-1.241-.292,21.329,21.329,0,0,1-2.265-.292c-.73-.146-1.935-.365-2.738-.511-.767-.146-2.338-.439-3.4-.694a11.578,11.578,0,0,0-2.118-.365,1.138,1.138,0,0,1-.621-.11c-.255-.11-1.789-.548-3.36-.949-3.323-.877-7.157-2.009-7.924-2.338-.475-.219-1.643-.584-4.309-1.387a32.058,32.058,0,0,1-5.66-2.228,4.411,4.411,0,0,0-1.278-.511,2.5,2.5,0,0,1-1.1-.4c-.438-.256-1.278-.694-1.9-1.023a25.23,25.23,0,0,1-2.447-1.387,10.1,10.1,0,0,0-1.57-.84,6.775,6.775,0,0,1-1.534-.84c-.694-.475-1.9-1.278-2.629-1.753s-1.936-1.315-2.666-1.79c-.73-.511-1.5-1.022-1.716-1.132-.548-.292-3.177-2.154-4.784-3.359-.73-.548-1.753-1.315-2.264-1.68s-1.1-.84-1.315-1.023-.986-.8-1.68-1.315a82.591,82.591,0,0,1-6.793-5.66,28.351,28.351,0,0,1-2.3-2.228c-.037-.073.475.037,1.1.219a3.835,3.835,0,0,1,1.388.621,3.658,3.658,0,0,0,1.169.694,3.083,3.083,0,0,1,1.132.657,2.278,2.278,0,0,0,.949.439,14.226,14.226,0,0,1,2.41,1.059,16.068,16.068,0,0,0,1.936.949,19.405,19.405,0,0,1,1.753.84,22.178,22.178,0,0,0,2.264,1.059,18.433,18.433,0,0,1,2.045.95,15.4,15.4,0,0,0,2.118.913,7.573,7.573,0,0,1,1.57.694,6.1,6.1,0,0,0,1.278.547,1.506,1.506,0,0,1,.73.329,1.344,1.344,0,0,0,.694.329,1.353,1.353,0,0,1,.694.328,1.361,1.361,0,0,0,.767.4c.329.11,1.57.657,2.775,1.242s2.337,1.132,2.556,1.241,1.059.548,1.863.95a11.2,11.2,0,0,0,1.643.73,4.049,4.049,0,0,1,1.315.731c.621.4,1.169.657,1.205.584.036-.11.329,0,.657.256A22.256,22.256,0,0,0,86.8,170.79c.475.219,1.315.621,1.826.913a3.066,3.066,0,0,0,2.118.511c.109-.037-.256-.183-.73-.329-.475-.109-.95-.328-.986-.511a.436.436,0,0,0-.475-.256,2.579,2.579,0,0,1-1.169-.511,6.217,6.217,0,0,0-1.351-.73,2.883,2.883,0,0,1-.986-.548,5.546,5.546,0,0,0-1.278-.8,12.29,12.29,0,0,1-2.41-1.461,1.932,1.932,0,0,0-.877-.4,5.048,5.048,0,0,1-1.1-.548,3.4,3.4,0,0,0-1.1-.548c-.4-.146-.767-.292-.8-.4-.036-.073-1.68-.95-3.652-1.972s-4.492-2.3-5.624-2.885a25.541,25.541,0,0,0-2.885-1.315,5.046,5.046,0,0,1-1.169-.548,5.841,5.841,0,0,0-1.388-.73c-.584-.219-1.57-.657-2.191-.95-1.68-.8-1.936-.913-2.629-1.205-.329-.146-1.315-.548-2.118-.913a11.833,11.833,0,0,0-1.936-.73,7.374,7.374,0,0,1-1.351-.548,20.708,20.708,0,0,0-4.163-1.789c-.657-.146-1.022-.366-.8-.512A4.578,4.578,0,0,1,48.567,151.215Z" fill="#fff"/>
    <path id="Path_54" data-name="Path 54" d="M21.214,2.617a.194.194,0,0,0,.219.22c.11,0,.183-.147.146-.331C21.506,2.176,21.214,2.25,21.214,2.617Z" fill="#fff"/>
    <path id="Path_55" data-name="Path 55" d="M21.543,3.758c-.037.223.036.409.183.409.109,0,.219-.186.183-.371C21.8,3.312,21.616,3.275,21.543,3.758Z" fill="#fff"/>
    <path id="Path_56" data-name="Path 56" d="M21.689,5.1a13.652,13.652,0,0,0,.657,2.051.137.137,0,0,0,.219.037,4.254,4.254,0,0,0-.73-2.381C21.725,4.806,21.652,4.916,21.689,5.1Z" fill="#fff"/>
    <path id="Path_57" data-name="Path 57" d="M22.455,8.143c.11.183.256.219.329.11a.286.286,0,0,0-.292-.475C22.382,7.814,22.346,7.96,22.455,8.143Z" fill="#fff"/>
    <path id="Path_58" data-name="Path 58" d="M39.985,35.476c.11.145.219.182.292.073a.391.391,0,0,0,0-.4.23.23,0,0,0-.292-.073C39.875,35.149,39.875,35.331,39.985,35.476Z" fill="#fff"/>
    <path id="Path_59" data-name="Path 59" d="M40.789,37.423c.146.11.292.183.329.146s0-.146-.073-.329-.219-.219-.329-.146S40.643,37.313,40.789,37.423Z" fill="#fff"/>
    <path id="Path_60" data-name="Path 60" d="M41.993,39.5c.256.148.438.185.438.148.036-.185-.548-.592-.73-.481C41.628,39.239,41.738,39.387,41.993,39.5Z" fill="#fff"/>
    <path id="Path_61" data-name="Path 61" d="M42.614,41.035a1.406,1.406,0,0,0,.548.479c.256.11.256.037-.037-.4C42.687,40.556,42.249,40.482,42.614,41.035Z" fill="#fff"/>
    <path id="Path_62" data-name="Path 62" d="M43.2,42.361c.11.146.219.22.329.146s.109-.219,0-.366-.219-.219-.329-.146C43.089,42.032,43.089,42.214,43.2,42.361Z" fill="#fff"/>
    <path id="Path_63" data-name="Path 63" d="M48.165,114.078a4.706,4.706,0,0,1,.767.839c.292.365.621.8.694.912.11.109.219.109.256.036a5.3,5.3,0,0,0-1.351-1.969.394.394,0,0,0-.4,0C48.019,113.9,48.056,114,48.165,114.078Z" fill="#fff"/>
    <path id="Path_64" data-name="Path 64" d="M50.539,116.548c.073.106.183.071.219-.036a.525.525,0,0,0,.073-.284.179.179,0,0,0-.219.035C50.5,116.3,50.5,116.441,50.539,116.548Z" fill="#fff"/>
    <path id="Path_65" data-name="Path 65" d="M51.2,117.4c0,.291.657.545.913.4.11-.072-.036-.181-.292-.254s-.475-.218-.438-.327,0-.181-.073-.145S51.2,117.253,51.2,117.4Z" fill="#fff"/>
    <path id="Path_66" data-name="Path 66" d="M52.511,118.859c.95.989,1.424,1.282,1.68,1.1.146-.073.11-.146-.037-.146s-.475-.33-.767-.7c-.548-.732-1.132-1.172-1.388-1.025C51.927,118.163,52.146,118.493,52.511,118.859Z" fill="#fff"/>
    <path id="Path_67" data-name="Path 67" d="M101.3,75.507c.11.186.256.223.329.112s.109-.261.036-.335a.291.291,0,0,0-.328-.112C101.228,75.172,101.191,75.321,101.3,75.507Z" fill="#fff"/>
    <path id="Path_68" data-name="Path 68" d="M101.958,77.884a.414.414,0,0,0,.073.359c.073.108.146.072.183-.144.036-.18,0-.359-.073-.359C102.031,77.7,101.958,77.741,101.958,77.884Z" fill="#fff"/>
    <path id="Path_69" data-name="Path 69" d="M102.36,82.052c.073.619.073.619.256.073.182-.583.109-.947-.183-.765C102.36,81.4,102.324,81.688,102.36,82.052Z" fill="#fff"/>
    <path id="Path_70" data-name="Path 70" d="M102.579,83.185a.2.2,0,0,0,.292.075.2.2,0,0,0,.073-.3.2.2,0,0,0-.292-.074A.209.209,0,0,0,102.579,83.185Z" fill="#fff"/>
    <path id="Path_71" data-name="Path 71" d="M94.18,174.546a.23.23,0,0,0,.292.073c.109-.073.073-.182-.037-.219a.559.559,0,0,0-.292-.072C94.107,174.364,94.107,174.437,94.18,174.546Z" fill="#fff"/>
    <path id="Path_72" data-name="Path 72" d="M96.7,175.573a.525.525,0,0,0,.438.111c.11-.074,0-.148-.219-.259a2.273,2.273,0,0,0-.438-.111C96.444,175.351,96.553,175.462,96.7,175.573Z" fill="#fff"/>
    <path id="Path_73" data-name="Path 73" d="M100.169,177.5c.073.106.183.071.219-.036a.522.522,0,0,0,.073-.283.182.182,0,0,0-.219.035C100.133,177.287,100.1,177.429,100.169,177.5Z" fill="#fff"/>
    <path id="Path_74" data-name="Path 74" d="M101.41,177.844a1.948,1.948,0,0,1,.4.394c.073.107.146.107.256.071.219-.143-.365-.68-.731-.68C101.191,177.594,101.228,177.7,101.41,177.844Z" fill="#fff"/>
  </g>
</svg>
