<svg xmlns="http://www.w3.org/2000/svg" width="304.238" height="379.292" viewBox="0 0 304.238 379.292">
  <g id="vector-leaf-3" opacity="0.2">
    <path id="Path_1" data-name="Path 1" d="M152.922,379.292a1.53,1.53,0,0,0-.054-.271c-.055-.326-.163-1.412-.272-2.443s-.162-2.28-.162-2.822a21.239,21.239,0,0,0-.272-2.768,7.583,7.583,0,0,1-.163-2.28,9.516,9.516,0,0,0-.325-2.931,10.125,10.125,0,0,1-.217-3.2,1.771,1.771,0,0,0-.109-1.52.491.491,0,0,1-.054-.543,2.118,2.118,0,0,0-.163-1.683,44.024,44.024,0,0,1-1.139-5.1,23.515,23.515,0,0,0-1.14-4.613,1.11,1.11,0,0,1-.217-.977,3.484,3.484,0,0,0-.542-1.846c-.163-.325-.705-1.357-1.194-1.465a.265.265,0,0,1-.163-.326c.217-.814-7.162-13.244-7.976-13.406a1.635,1.635,0,0,1-.759-.652,10.352,10.352,0,0,0-3.69-2.877c-.379-.108-.6-.271-.6-.325.108-.489-3.256-3.257-4.287-3.854a2.467,2.467,0,0,1-.922-1.194c-.109-.434-.38-.868-.706-.868h-.054c-.922,0-11.34-9.445-13.13-12.321a22.516,22.516,0,0,0-1.954-2.28,8.66,8.66,0,0,1-1.573-2.063,1.153,1.153,0,0,0-.76-.814,4.963,4.963,0,0,1-1.3-1.737,39.461,39.461,0,0,0-2.5-3.582,36.928,36.928,0,0,1-2.387-3.257c-1.465-2.334-5.48-9.933-5.914-11.127-.217-.651-1.411-2.876-2.6-5.047-1.194-2.117-2.659-4.723-3.2-5.7-1.9-3.473-3.907-6.3-4.666-6.784-.434-.272-.6-.543-.6-.6.109-.435-.977-1.14-1.139-1.194a64.973,64.973,0,0,1-5.7-3.908c-1.194-.977-2.279-1.412-6.457-2.443a48.719,48.719,0,0,0-11.231-1.465,34.853,34.853,0,0,0-4.286.271,15.3,15.3,0,0,1-2.333.163h-.705a11.184,11.184,0,0,0-1.682.108,24.4,24.4,0,0,1-4.124.652.928.928,0,0,1-.38-.055.47.47,0,0,0-.326-.162.306.306,0,0,0-.326.271,19.467,19.467,0,0,1-3.039,1.628c-3.147,1.411-8.518,4.451-8.681,5.211,0,.054,0,.054-.054.054a.168.168,0,0,1-.108-.054.494.494,0,0,0-.271-.163c-.217,0-.38.163-.434.489a.557.557,0,0,1-.271.38h-.163c-.271,0-.488.217-.6.6a1.712,1.712,0,0,1-.814.868,2.8,2.8,0,0,0-.922.814,7.759,7.759,0,0,1-1.3,1.194,7.474,7.474,0,0,0-1.845,2.334,3.59,3.59,0,0,1-.814,1.357c-.271.109-.434.6-.434,1.031,0,.326-.054.435-.108.489a.19.19,0,0,1-.109.054h-.326c-.488,0-.6.543-.651,1.086a3.14,3.14,0,0,1-.651,1.628,17.979,17.979,0,0,0-1.736,3.474,39.954,39.954,0,0,1-2.224,4.559L22,286.8l-.543-1.574a51.3,51.3,0,0,1-1.194-6.4c-.326-2.5-.814-5.59-1.085-6.893a58.193,58.193,0,0,1-.814-11.181c0-1.249.163-1.954.434-2.117a1.922,1.922,0,0,0,.76-1.194,13.477,13.477,0,0,1,3.255-4.071,10.116,10.116,0,0,0,1.519-1.411c2.876-3.094,11.611-8.413,15.084-9.227a13.785,13.785,0,0,1,2.93-.326h.434a6.228,6.228,0,0,0,1.628-.163,3,3,0,0,1,.651-.054,39.259,39.259,0,0,1,5.589.6c3.961.651,11.991,2.877,13.347,3.745a19.174,19.174,0,0,0,2.659,1.465,20.99,20.99,0,0,1,2.984,1.954,10.692,10.692,0,0,0,2.442,1.629.763.763,0,0,1,.543.434,3.807,3.807,0,0,0,1.356,1.194,50.459,50.459,0,0,1,6.565,4.668c1.3,1.031,2.713,2.171,3.2,2.442a12.935,12.935,0,0,1,2.007,1.737,7.506,7.506,0,0,0,1.574,1.357c.109,0,.434.38.705.923a2.944,2.944,0,0,0,1.465,1.248c.488.109.868.38.868.543v.054a.236.236,0,0,1-.163.055h-.271a.282.282,0,0,0-.217.108c-.054.109-.217.38,1.411,2.768,1.031,1.52,2.17,3.311,2.55,3.963,3.473,6.079,4.775,8.358,5.372,9.715.38.869,1.79,3.583,3.147,5.971,1.356,2.5,2.387,4.505,2.441,4.668a17.926,17.926,0,0,0,1.954,2.822c1.03,1.3,2.55,3.42,3.309,4.614.163.217,1.465,2.334,1.845,2.442.109,0,.38.272.6.6s.651.869.976,1.249c.326.325,1.086,1.248,1.682,1.9.6.706,1.574,1.683,2.062,2.226a7.393,7.393,0,0,1,1.194,1.465,3.706,3.706,0,0,0,1.411,1.3,2.621,2.621,0,0,0,.976.434c.38,0,.38-.434.38-.705,0-.489-.271-.977-.651-1.032a.462.462,0,0,1-.271-.162.2.2,0,0,1-.055-.163c.109-.326-.379-.814-.813-1.14a1.566,1.566,0,0,1-.706-.814.6.6,0,0,0-.434-.706c-.542-.163-3.2-3.528-3.527-4.668-.162-.543-.488-1.14-.868-1.248-.6-.217-4.069-6.785-4.449-8.25a15.152,15.152,0,0,1,1.031,1.628c2.713,5.048,3.527,6.133,3.961,6.242a6.259,6.259,0,0,1,1.356,2.28c.543,1.139,1.3,2.388,1.737,2.5a1.361,1.361,0,0,1,.759.869,4.539,4.539,0,0,0,1.411,1.845c1.248,1.031,3.472,4.668,3.31,5.1a.217.217,0,0,0-.109.217c.054.163.271.163.326.163h.325c.38,0,1.194.38,3.093,2.931a7.456,7.456,0,0,0,1.79,1.52l1.574,1.031-.543-1.519c-.217-.543-.6-1.2-.922-1.249a6.556,6.556,0,0,1-1.465-1.628c-1.139-1.628-2.5-3.528-5.263-7.382a15.592,15.592,0,0,1-1.736-2.768c-.109-.326-1.628-2.985-2.984-5.374a52.686,52.686,0,0,1-2.768-5.047,9.639,9.639,0,0,0-1.139-2.5c-.651-1.14-1.628-3.094-2.225-4.288a95.053,95.053,0,0,0-4.612-8.467,25.368,25.368,0,0,0-8.192-8.088c-.922-.6-2.062-1.3-2.442-1.574s-1.411-.923-2.279-1.465c-.977-.6-1.465-1.14-1.465-1.574,0-.38.054-.38.108-.38a4.333,4.333,0,0,1,.705.271c.6.271,1.465.706,2.062.977a55.808,55.808,0,0,1,8.627,5.536,26.46,26.46,0,0,1,6.077,7.328c.271.543,1.031,2.008,1.79,3.311,1.574,2.714,4.992,9.39,6.294,12.267,3.527,7.816,12.154,21.331,17.091,26.813,3.2,3.528,6.945,8.521,7.271,9.715a20.505,20.505,0,0,0,1.628,2.823,12.543,12.543,0,0,1,1.465,2.931,11.462,11.462,0,0,0,1.139,2.822,6.685,6.685,0,0,1,.922,2.5c-.108.434.055.868.326.923h.163a.413.413,0,0,0,.434-.326,1.606,1.606,0,0,0-.217-1.52,2.657,2.657,0,0,1-.434-1.3,20.336,20.336,0,0,0-.706-2.714,13.246,13.246,0,0,1-.705-2.823,8.3,8.3,0,0,0-.76-2.442,10.79,10.79,0,0,1-.922-2.823c-.434-2.279-1.519-5.807-2.008-6.3a1.159,1.159,0,0,1-.162-.977,1.528,1.528,0,0,0-.272-1.3,9.279,9.279,0,0,1-.813-2.389c-.217-.977-.6-2.171-1.248-2.334a.813.813,0,0,1-.6-.76,10.093,10.093,0,0,0-1.357-2.985,7.266,7.266,0,0,1-1.085-2.714c.109-.38.109-.488,0-.6l-.054-.054h-.109c-.108,0-.217.054-.379.271l-.055.055a3.288,3.288,0,0,1,0-.815c.055-.759.109-1.845.109-2.442,0-.76.163-.868.163-.868a3.278,3.278,0,0,1,.542,1.628c0,.163.272,1.791.706,1.9a2.19,2.19,0,0,1,.379,1.3c.217,1.412.977,3.148,1.628,3.148a.411.411,0,0,0,.217-.054c.271-.163.271-.706.109-1.14a29.415,29.415,0,0,1-1.411-7.436,3.32,3.32,0,0,0-.38-1.954,2.51,2.51,0,0,1-.434-1.357,5.309,5.309,0,0,0-.325-2.062,5.08,5.08,0,0,1-.326-1.846,5.993,5.993,0,0,0-.109-1.9c-.434-2.28-1.085-11.073-.868-11.941a1.571,1.571,0,0,0-.108-1.249,12.3,12.3,0,0,1-.163-3.257,31.614,31.614,0,0,0-.054-4.179,30.929,30.929,0,0,1,0-3.2c.054-1.194.163-2.931.217-3.8.108-3.311.814-11.507,1.139-13.732.217-1.3.434-3.311.543-4.505s.6-4.234,1.085-6.785c1.194-5.916,1.031-7.273-2.008-18.291a34.538,34.538,0,0,1-1.03-4.885,3.255,3.255,0,0,0-.6-1.846,31.911,31.911,0,0,1-2.388-6.187,32.826,32.826,0,0,0-2.333-4.125c-3.092-4.94-3.255-5.157-5.317-7.654a22.314,22.314,0,0,1-2.442-3.636c-2.658-5.482-7.813-14.764-8.681-14.981-1.085-.271-8.084-10.421-12.642-18.726a41.464,41.464,0,0,0-4.015-4.993,27.391,27.391,0,0,1-1.845-2.171,10.159,10.159,0,0,0-2.387-2.171,6.761,6.761,0,0,1-1.79-1.466c-2.713-3.854-16.549-12.267-23.114-14.058-1.139-.325-2.5-.651-2.659-.651h-.054a11.115,11.115,0,0,1-1.3-.163,10.037,10.037,0,0,0-1.791-.163h-.38c-.38,0-.705-.163-.76-.325a.321.321,0,0,1,.054-.38,2.241,2.241,0,0,1,1.628-.435,10.653,10.653,0,0,1,1.248.109,13.628,13.628,0,0,0,2.279.217h.326a65.5,65.5,0,0,1,9.658,2.768,28.444,28.444,0,0,1,3.2,1.574c1.085.6,2.333,1.357,2.821,1.629a4.359,4.359,0,0,1,1.139.868,7.384,7.384,0,0,0,1.953,1.14c1.845.814,7.054,4.885,7.759,6.133a2.6,2.6,0,0,0,1.248,1.086c1.574.38,8.9,9.878,11.34,14.709a43.543,43.543,0,0,0,2.658,4.614c.706,1.031,1.9,2.876,2.605,4.016a36.978,36.978,0,0,0,3.418,4.342c2.224,2.389,4.775,6.3,8.41,13.027a84.584,84.584,0,0,0,4.558,7.382c1.193,1.682,2.387,3.365,2.55,3.745.217.488.434.543.488.543s.163,0,.217-.217c.163-.543-.977-3.583-2.116-6.134a91.476,91.476,0,0,1-3.69-10.964,26.775,26.775,0,0,0-1.356-3.636,40.04,40.04,0,0,1-1.9-4.723,42,42,0,0,0-2.225-4.342,13.7,13.7,0,0,1-1.682-3.636c.109-.435-.434-1.357-.922-2.063a4.671,4.671,0,0,1-.922-1.737c0-.054.054-.271.217-.271s.379.217.434.543a.957.957,0,0,0,.651.868,7.026,7.026,0,0,1,1.736,2.931c-.108.38,2.5,4.342,3.364,5.536a64.812,64.812,0,0,1,7.054,14.764,36.588,36.588,0,0,0,2.278,5.97,28.229,28.229,0,0,1,1.248,6.459c-.108.326.217.869.543,1.195.271.325.434.434.6.434h.054l.109-.055c.108-.108.108-.325.108-.922a67.571,67.571,0,0,0-1.248-9.065c-.271-1.139-.705-3.8-.976-5.807-.435-3.691-3.31-16.5-3.961-17.8a15.829,15.829,0,0,1-.814-2.551c-1.194-4.5-2.279-7.708-2.767-8.251a8.95,8.95,0,0,1-.868-2.116c-1.14-3.528-8.682-14.438-12.046-17.369a2.011,2.011,0,0,1-.759-.977c.054-.326-.38-.6-.814-.706a3.779,3.779,0,0,1-1.519-1.085,10.833,10.833,0,0,0-1.737-1.52,25.344,25.344,0,0,1-2.984-2.388,35.737,35.737,0,0,0-6.023-4.343c-.38-.162-1.411-.705-2.279-1.194-1.411-.76-5.1-1.628-9.387-2.171a7.318,7.318,0,0,0-1.139-.054,29.153,29.153,0,0,0-6.511.923,13.755,13.755,0,0,1-2.984.488c-.217,0-.271-.054-.271-.054a.414.414,0,0,0-.217-.109q-.407,0-.488.977c-.108.76-.217.814-.434.814a.691.691,0,0,1-.326-.054c-.109,0-.217-.054-.38-.054-1.9,0-7.108,2.171-10.2,4.179-1.736,1.14-3.961,2.606-5.046,3.257a23.735,23.735,0,0,0-2.442,1.682c-.271.272-1.519,1.3-2.767,2.226-4.015,3.094-5.48,4.288-6.4,5.1a5.392,5.392,0,0,1-1.356.923,14.56,14.56,0,0,0-2.713,2.225c-2.55,2.388-6.131,5.482-7.65,6.676-1.194.923-2.876,2.28-7.325,5.754a31.547,31.547,0,0,1-9.17,5.319c-1.357.543-2.93,1.248-3.527,1.574a10.148,10.148,0,0,1-2.659.868c-.326.055-1.79.326-1.9.76a.651.651,0,0,1-.271.055.4.4,0,0,1-.271-.055,1.21,1.21,0,0,0-.488-.054,12.987,12.987,0,0,0-1.845.217,15.828,15.828,0,0,1-3.31.38,8.936,8.936,0,0,1-2.93-.38c-1.139-.38-1.139-.488-.977-1.194.109-.543.326-.706.76-.706h.38c.434,0,1.031-.162,1.194-.488.109-.163.38-.217.705-.217a.927.927,0,0,1,.38.054,1.681,1.681,0,0,0,.488.054.661.661,0,0,0,.488-.163.4.4,0,0,0,.054-.271.411.411,0,0,1,.054-.217,3.154,3.154,0,0,1,1.9-.923.4.4,0,0,1,.271.055c.163.162.271.217.38.217h.109l.054-.109c.054-.054.054-.163,0-.38-.054-.108.326-.6,1.194-1.085a10.543,10.543,0,0,0,2.387-1.9,3.166,3.166,0,0,1,1.085-.977h.108a.571.571,0,0,0,.543-.434,7.86,7.86,0,0,1,1.519-1.629,52.563,52.563,0,0,0,6.511-7.544c1.194-1.574,2.55-3.311,2.984-3.854a4.974,4.974,0,0,0,1.031-1.52,5.846,5.846,0,0,1,1.682-2.008,11.528,11.528,0,0,0,.977-1.086,29.484,29.484,0,0,1,2.821-2.659,37.812,37.812,0,0,1,8.573-5.645c1.574-.814,4.286-2.28,5.968-3.257,3.527-2.062,14.975-6.242,17.037-6.242h.326a7.859,7.859,0,0,0,2.008-.434,28.965,28.965,0,0,1,4.5-.868c1.574-.217,3.635-.543,4.5-.76a7.58,7.58,0,0,1,1.845-.272c.217,0,.326,0,.38.055a1.681,1.681,0,0,0,.543.054,3.84,3.84,0,0,0,1.139-.163,4.6,4.6,0,0,1,1.031-.108,12.437,12.437,0,0,1,1.465.108,20.322,20.322,0,0,0,2.55.326c.434,0,3.093.271,5.751.543,4.341.434,5.209.651,7.922,1.791a39.839,39.839,0,0,1,5.48,2.876c2.984,1.954,9.441,7.274,9.658,7.816a1.226,1.226,0,0,0,.868.652,8.556,8.556,0,0,1,2.17,2.117,14.587,14.587,0,0,0,1.953,2.116c.489.163,3.907,4.777,5.752,7.925a37.646,37.646,0,0,0,2.333,3.637,16.437,16.437,0,0,1,2.007,4.45,1.257,1.257,0,0,0,.38.977,7.523,7.523,0,0,1,.977,2.009,15.75,15.75,0,0,0,1.085,2.442,2.207,2.207,0,0,1,.271,1.411c-.108.435-.054.923.272.977.813.543,4.991,17.858,5.8,24.7.217,1.954.6,4.179.76,5.047a42.932,42.932,0,0,1,1.031,7.654c.162,1.791.325,3.636.434,4.07a29.377,29.377,0,0,1,.488,5.862,11.2,11.2,0,0,0,.543,2.769,9.286,9.286,0,0,1,.434,3.039c-.109.543-.109,1.14.271,1.194.108.054.271.489.326,1.249a15.419,15.419,0,0,0,.759,5.1,9.007,9.007,0,0,1,.38,2.6,12.97,12.97,0,0,0,.38,2.822l.054.109h.109c.162,0,.705,0,6.348-23.068,2.821-11.453,5.968-25.185,6.782-30.07.651-3.8,1.465-8.738,1.9-11.018.434-2.226.814-4.559.922-5.211.869-5.753.814-6.947.651-7.273a.193.193,0,0,0,.109.054.876.876,0,0,0,.543.217.3.3,0,0,0,.325-.271c.217-.868-2.062-9.824-2.93-11.887a16.226,16.226,0,0,1-1.085-3.419,5.8,5.8,0,0,0-.38-1.737,26.639,26.639,0,0,1-1.41-6.188,5.952,5.952,0,0,0-.272-2.171,32.8,32.8,0,0,1-.542-4.016c-.109-1.357-.272-4.234-.434-6.514-.434-6.459-.272-9.01,1.627-25.076.977-8.413,7.325-28.6,10.743-34.3a11.419,11.419,0,0,0,1.14-2.768,13.341,13.341,0,0,1,.976-2.5A80.024,80.024,0,0,0,169.308,47a15.95,15.95,0,0,1,1.248-2.714c.542-.977,3.635-8.25,5.317-12.592.38-.923,1.031-2.931,1.519-4.559a45.368,45.368,0,0,1,1.9-4.939c.543-1.14,1.411-3.04,1.9-4.288,1.031-2.605,1.628-3.691,2.5-4.505A37.38,37.38,0,0,0,187.7,5.971a6.783,6.783,0,0,0,.814-3.908c-.108-1.031-.108-1.845-.108-1.954s.054-.109.054-.109c.054,0,.488.109,1.736,1.683,1.465,1.954,1.682,2.768,1.736,7,0,1.031.109,3.419.543,3.528.054,0,.108.271.054.6a7.191,7.191,0,0,0,0,2.171,13.751,13.751,0,0,1,.109,2.551c-.055.651-.055,2.171,0,3.419a14.974,14.974,0,0,1-.217,3.365c-.109.488-.217,1.411.054,1.628.217.217.163,2.66-.6,6.4-.271,1.357-.705,3.962-.922,5.808-.543,4.016-4.938,20.843-7,26.813-1.736,5.048-5.7,15.415-7.7,20.191-.814,1.9-1.845,4.451-2.279,5.645a16.234,16.234,0,0,1-1.356,2.985,11.6,11.6,0,0,0-1.086,3.094,10.412,10.412,0,0,1-.759,2.442A32.179,32.179,0,0,0,169.091,104c-.706,2.388-1.954,6.188-2.713,8.467a25.786,25.786,0,0,0-1.357,5.428,51.192,51.192,0,0,1-1.248,6.4,33.768,33.768,0,0,0-1.139,6.187c.271,1.086-.054,5.157-.651,7.925a2.912,2.912,0,0,0,.108,1.194c.272.6-1.247,7.979-1.79,8.684h-.054a.528.528,0,0,0-.543.435.448.448,0,0,0,.054.38.418.418,0,0,0,.272.108,6.666,6.666,0,0,1-.272,1.846c-.271,1.194-.759,4.179-1.031,6.676-.651,5.97-.922,8.033-2.116,14.872-.217,1.248-.868,5.319-.6,5.645l.054.054h.217c.325-.163.705-1.3.814-1.845a26.857,26.857,0,0,1,1.573-3.963c.651-1.357,1.465-3.148,1.791-3.962a15.933,15.933,0,0,1,1.248-2.551c.379-.6,1.031-2.008,1.573-3.148a19.565,19.565,0,0,1,1.791-3.148,17.642,17.642,0,0,0,1.573-2.334c.651-1.14,2.55-4.071,4.938-7.545,1.627-2.442,3.8-4.993,4.177-5.1.326-.108.76-.76,1.086-1.357a48.869,48.869,0,0,1,6.4-7.653,20.142,20.142,0,0,0,2.442-1.954,63.454,63.454,0,0,1,10.96-8.087c2.658-1.52,2.984-1.737,6.131-3.637a43.624,43.624,0,0,1,4.558-2.334c2.495-1.14,2.875-1.465,3.2-2.768a36.236,36.236,0,0,1,1.465-4.125c.651-1.52,1.736-4.668,2.441-7.056,2.985-9.987,3.636-11.941,4.4-11.941h.109c.434.054.705.217.814,1.14A11.981,11.981,0,0,0,221.016,99c.162.326.217.543.271.6a.117.117,0,0,0-.109.109c-.108.217.055.6.217.923a16.461,16.461,0,0,1,.543,4.4,39.748,39.748,0,0,0,.38,4.994c.163.76.38,2.008.542,2.768a14.584,14.584,0,0,1,.272,2.551V116.7l3.255.868c3.256.869,9.441,3.637,10.635,4.722a4.333,4.333,0,0,0,1.627.869,4.954,4.954,0,0,1,1.628.923c1.845,1.628,6.728,4.233,8.3,4.4a2.889,2.889,0,0,1,1.9,1.194,1.041,1.041,0,0,1,.217.706.967.967,0,0,1-.543.651c-.108,0-.163.054-.217.163-.163.38.923,1.466,1.357,1.9,1.736,1.682,2.984,3.039,5.7,6.079a36.859,36.859,0,0,1,4.937,7.273l2.116,3.745c.434.814,1.357,2.877,2.062,4.559a122.946,122.946,0,0,0,8.084,15.578,40,40,0,0,1,3.2,6.079.935.935,0,0,0,.054.543.788.788,0,0,0,.326.271,30.446,30.446,0,0,1,3.146,4.668c1.52,2.551,3.31,5.32,3.907,6.134a30.686,30.686,0,0,1,1.736,2.551c.217.38.76,1.14,1.031,1.194.109,0,.434.326.706.705a10.614,10.614,0,0,0,3.96,3.257,1.067,1.067,0,0,0,.38.054.33.33,0,0,0,.326-.162c.163-.326-.054-.869-1.628-3.691A28.476,28.476,0,0,1,289,186.878a8.383,8.383,0,0,0-1.031-2.5,20.469,20.469,0,0,1-1.573-4.342,38.465,38.465,0,0,0-2.008-6.188,8.281,8.281,0,0,1-.977-3.908c.109-.434.163-1.085-.108-1.3a12.093,12.093,0,0,1-1.465-3.366,22.368,22.368,0,0,1,1.682,3.42,3.753,3.753,0,0,1,.325,1.465c-.108.435.76,2.063,1.357,3.094a13.488,13.488,0,0,1,1.682,3.637,26.867,26.867,0,0,0,2.767,6.947,24.167,24.167,0,0,1,1.519,3.474c.054.109.272,1.14.651,1.248a11.39,11.39,0,0,1,1.14,2.443,9,9,0,0,0,1.682,2.931,8.613,8.613,0,0,1,1.465,1.574c.7.923.922.977,1.031.977a.282.282,0,0,0,.217-.109c.217-.434-.543-1.791-.76-2.171a13.4,13.4,0,0,1-1.953-4.722,8.462,8.462,0,0,0-.76-2.225,10.325,10.325,0,0,1-.434-1.737,5.176,5.176,0,0,0-.6-1.954c-.38-.38-1.519-5.591-1.519-7.165a8.9,8.9,0,0,0-.543-2.714,32.05,32.05,0,0,1-.922-3.636c-.217-1.194-.6-3.04-.868-4.125a45.653,45.653,0,0,1-.76-4.614c-.488-3.962-2.387-11.561-3.255-12.267a1.443,1.443,0,0,1-.6-.705c.163-.706-3.581-4.342-4.829-4.994a41.123,41.123,0,0,0-9.278-2.768c-.109,0-.163,0-.217.054a.493.493,0,0,0-.326.326c-.054.271.217.651,1.085,1.357,2.225,1.845,5.263,6.513,6.457,9.824a15.881,15.881,0,0,0,1.465,3.257,2.111,2.111,0,0,1,.434,1.248,1.546,1.546,0,0,0,.543,1.249,1.333,1.333,0,0,1,.488.705,1.658,1.658,0,0,0,.434,2.171c.271.163.38.326.38.435v.054a.472.472,0,0,1-.326.163c-.271,0-.488-.435-.705-1.249a21.229,21.229,0,0,0-1.3-3.256c-3.2-6.134-4.341-8.2-5.155-9.119a4.177,4.177,0,0,1-.922-1.574,5.41,5.41,0,0,0-1.628-2.063,6.648,6.648,0,0,1-1.79-2.225,4.608,4.608,0,0,0-1.737-1.845,42.067,42.067,0,0,0-7.541-3.149,4.836,4.836,0,0,1-2.062-1.3,5.679,5.679,0,0,0-1.791-1.3,14.977,14.977,0,0,1-4.557-2.931,1.037,1.037,0,0,1,0-.977.482.482,0,0,1,.434-.271,3.247,3.247,0,0,1,1.139.38,12.875,12.875,0,0,1,2.17,1.194,3.209,3.209,0,0,0,1.3.651,15.44,15.44,0,0,1,2.17.869,52.446,52.446,0,0,0,12.8,4.45c5.914,1.412,10.689,3.583,12.1,5.591a5.2,5.2,0,0,0,1.3,1.357,11.87,11.87,0,0,1,1.844,2.714c1.574,2.822,3.039,8.141,3.636,13.243.162,1.629.542,3.963.813,5.265s.489,2.66.6,3.149c.055.488.326,2.062.651,3.582.272,1.52.652,3.691.814,4.831s.489,2.768.706,3.582.868,3.148,1.41,5.156a48.271,48.271,0,0,0,2.225,6.242c.651,1.357,1.9,3.962,2.713,5.754a22.211,22.211,0,0,0,2.821,4.667c1.248,1.357,1.248,1.357.814,2.009a.659.659,0,0,1-.542.325c-.489,0-1.3-.542-2.442-1.736a10.1,10.1,0,0,0-2.767-2.117,27.1,27.1,0,0,1-9.6-5.862c-3.31-2.986-5.317-5.754-9.875-13.353-4.286-7.164-5.317-9.01-5.209-9.444a.609.609,0,0,0-.054-.434.791.791,0,0,0-.325-.271c-.652-.326-6.62-10.8-8.193-14.764a74.443,74.443,0,0,0-7.488-11.941,7.466,7.466,0,0,1-1.465-2.063c.054-.325-.326-.6-.76-.705a5.558,5.558,0,0,1-1.736-1.194,19.459,19.459,0,0,0-8.844-4.18,24.208,24.208,0,0,0-3.635-.271,32.877,32.877,0,0,0-8.681,1.248c-1.682.543-3.961,1.194-5.046,1.52-2.008.6-2.117.651-2.5,2.551-1.14,5.591-4.232,16.826-6.131,22.688-.38,1.14-1.3,4.125-2.062,6.731-1.628,5.644-4.612,14.437-4.938,14.872a49,49,0,0,0-2.55,5.373c-.542,1.249-1.682,3.311-4.558,8.2a36.744,36.744,0,0,1-3.038,4.234c-.922,1.031-2.713,3.2-4.015,4.776a20.6,20.6,0,0,1-2.984,3.2,1.574,1.574,0,0,0-.868.922,8.216,8.216,0,0,1-2.225,1.683c-.38.217-2.225,1.411-2.116,1.9,0,.108-.38.434-1.139.759a4.262,4.262,0,0,0-1.845,1.412,24.233,24.233,0,0,1-4.558,3.365c-4.286,2.714-5.588,3.908-8.084,7.6-.76,1.14-1.9,2.714-2.5,3.474a7.157,7.157,0,0,0-1.3,2.171,54.356,54.356,0,0,1-3.364,5.536c-1.791,2.714-4.124,6.676-5.263,8.739a25.94,25.94,0,0,1-2.388,4.016,14.469,14.469,0,0,0-1.573,3.311c-.651,1.628-1.682,3.962-2.333,5.211a20.92,20.92,0,0,0-1.52,3.582,8.123,8.123,0,0,1-.813,1.954c-1.411,1.954-6.457,19.323-7.542,25.836-.868,5.157-1.248,13.732-.76,15.795a5.172,5.172,0,0,1,.217,1.791,17.123,17.123,0,0,0,.109,2.66c.108,1.14.325,3.365.379,4.885.326,7,.6,9.553,1.248,12.049.977,3.691,1.248,4.94,1.628,6.839a8.584,8.584,0,0,0,.651,2.226,10.754,10.754,0,0,1,.76,2.442c.217.923.542,2.009.868,2.009h.054c.326-.109,1.14-1.52,1.248-1.683.488-.814,1.3-2.225,1.845-3.148a14.434,14.434,0,0,0,1.139-2.226,7.433,7.433,0,0,1,1.3-1.736,6.774,6.774,0,0,0,1.464-2.5,8.779,8.779,0,0,1,.923-2.226,13.693,13.693,0,0,0,1.139-2.388c.217-.651.706-1.954,1.085-2.877A152.063,152.063,0,0,0,166,308.08c3.69-13.732,6.619-20.3,13.782-30.667a45.122,45.122,0,0,1,4.232-5.374c.705-.814,1.573-1.791,1.953-2.225,2.225-2.551,10.526-8.413,11.611-8.413h.109a3.928,3.928,0,0,0,1.573-.706,26.312,26.312,0,0,1,6.077-2.605h.109a2.893,2.893,0,0,0,1.139-.488c.977-.652,5.426-1.574,7.054-1.574a2.075,2.075,0,0,1,.434.054.944.944,0,0,0,.434.651,49.215,49.215,0,0,0-7.6,2.226c-1.628.7-2.985,1.248-3.2,1.3a49.649,49.649,0,0,0-7,3.257c-2.5,1.3-9.658,6.947-10.417,8.142a7.268,7.268,0,0,1-1.357,1.574c-3.364,3.093-10.038,14.22-12.262,20.571-.434,1.194-1.248,3.474-1.845,4.885-.76,1.954-3.147,10.258-2.821,10.692l.054.055h.163l.054-.055a3.779,3.779,0,0,0,.705-1.3c.651-1.52,8.193-13.352,8.9-13.95.379-.054.813-1.031.922-1.194a15.637,15.637,0,0,1,2.713-3.419,16.255,16.255,0,0,0,2.387-2.823c0-.054.163-.162.38-.162a.49.49,0,0,1,.271.054.693.693,0,0,0,.326.054.66.66,0,0,0,.488-.163.456.456,0,0,0,.109-.38,4.44,4.44,0,0,1,1.031-2.334c.162-.162.217-.217.271-.217s.054.055.054.109c.163.543-.76,2.334-2.821,4.831a34.359,34.359,0,0,0-3.364,4.83c-.6,1.194-1.411,2.551-1.791,3.148-.705,1.086-5.8,10.585-6.565,12.267-.217.489-.868,1.628-1.411,2.605-1.031,1.683-1.139,1.954-1.031,2.172l.055.108h.162c.217,0,.706-.38,2.333-1.791,1.357-1.194,2.768-2.388,3.093-2.605a20.282,20.282,0,0,0,4.829-5.428,11.767,11.767,0,0,1,1.791-2.5,10.838,10.838,0,0,0,2.007-3.528,52.8,52.8,0,0,1,4.449-6.3,4.263,4.263,0,0,0,1.031-1.357,15.474,15.474,0,0,1,2.171-2.5,18.322,18.322,0,0,0,2.6-3.094c.488-.977,5.209-5.373,7.922-7.327a39.976,39.976,0,0,1,5.7-3.474,81.354,81.354,0,0,1,9.875-4.451h.108a5.66,5.66,0,0,0,1.953-.76c1.357-.759,2.985-1.139,10.147-2.5a10.96,10.96,0,0,1,2.333-.217,4.42,4.42,0,0,1,.922.054,4.779,4.779,0,0,0,.868.108,1.511,1.511,0,0,0,.706-.162c.054-.055.325-.163,1.031-.163a4.118,4.118,0,0,1,.813.054,10.531,10.531,0,0,0,1.248.054c.923,0,1.465-.163,1.628-.434a.507.507,0,0,0-.054-.543,17.647,17.647,0,0,0-2.984-2.062c-1.411-.869-3.8-2.334-5.1-3.148a10.279,10.279,0,0,0-3.255-1.52h-.163a.612.612,0,0,1-.6-.38c-.271-.869-4.069-1.9-6.348-1.9h-.163a39.037,39.037,0,0,0-5.751.869.812.812,0,0,0,.109-.543c-.055-.272.271-.543.759-.652a3.475,3.475,0,0,0,1.248-.488,55.891,55.891,0,0,1,7.922-1.357,13.806,13.806,0,0,0,2.333-.38,8.634,8.634,0,0,1,1.465-.271h.108a2.37,2.37,0,0,0,.923-.326,1.353,1.353,0,0,1,.759-.217c.217,0,.38.054.434.163,0,0,.055.054,0,.163a7.605,7.605,0,0,1-3.418,1.085h-.38a.7.7,0,0,0-.651.651c-.054.489.543.978,1.519,1.412a44.107,44.107,0,0,1,4.4,2.388,35.778,35.778,0,0,0,3.581,1.954c.651.163,5.806,4.559,7.976,6.839a5.206,5.206,0,0,1,1.357,2.008.725.725,0,0,0,.054.489.329.329,0,0,0,.326.163h.162c.543,0,3.636,3.419,5.155,5.97.542.923,1.3,1.9,1.79,2.008a.905.905,0,0,1,.6.652c.109.814,3.69,4.885,4.5,5.047.108.055.271.109.325.218a.075.075,0,0,1,0,.108c-.054.163.054.326.163.489a1.268,1.268,0,0,0,.543.271,9.348,9.348,0,0,1,2.333,1.574,14.361,14.361,0,0,0,2.333,1.628,15.9,15.9,0,0,1,2.5,1.357,32.3,32.3,0,0,0,3.309,1.846,91.191,91.191,0,0,0,11.069,3.962c4.015,1.14,8.193,3.148,10.2,4.939a5.1,5.1,0,0,0,2.171,1.249.338.338,0,0,0,.271-.163c.054-.163-.054-.38-.38-.706a11.645,11.645,0,0,1-1.248-1.52c-.325-.488-1.3-1.682-2.17-2.659-4.72-5.265-6.023-7-10.743-14.384a22.162,22.162,0,0,0-2.822-3.691c-.434-.325-.705-.651-.705-.759.109-.326-.488-.76-.868-.977-.814-.435-3.418-4.234-3.31-4.723,0-.108.055-.108.055-.108.271,0,.976.543,1.573,1.628a19.012,19.012,0,0,0,3.147,3.42,18.249,18.249,0,0,1,2.767,2.768c.326.488,1.085,1.465,1.682,2.171a9.215,9.215,0,0,1,1.248,1.737,1.182,1.182,0,0,0,.76.76c.542.163,5.154,6.024,6.945,8.25,5.914,7.544,7.379,9.607,7.759,11.073.054.217.271.922.6.922h.055l.054-.054c.6-.326-.326-2.985-1.194-4.668a57.263,57.263,0,0,1-3.526-8.087,37.14,37.14,0,0,0-2.388-5.319,11.993,11.993,0,0,1-.977-1.9c.163-.706-2.712-6.134-4.557-8.739-2.333-3.257-6.891-9.336-7.325-9.444a9.011,9.011,0,0,1-1.194-1.249,5.087,5.087,0,0,0-1.519-1.411,1.338,1.338,0,0,1-.6-.7,2,2,0,0,0-1.139-.977c-.326-.109-.651-.38-.651-.652a1.153,1.153,0,0,0-.977-.922,18.881,18.881,0,0,1-3.364-2.443,22.137,22.137,0,0,0-3.2-2.442,1.465,1.465,0,0,1-.7-.706,2.055,2.055,0,0,0-1.248-.977,12.018,12.018,0,0,1-3.744-1.628,1.944,1.944,0,0,1,1.356-.815c.055,0,.109,0,.109.055.108.325.868.76,1.519,1.031.7.271,1.953.814,2.713,1.14a8.918,8.918,0,0,1,2.279,1.574c.38.488.976.977,1.3.977h.054a3.549,3.549,0,0,1,1.194.868,4.853,4.853,0,0,0,1.519,1.194c.6.163,6.565,5.265,6.837,5.917a2.2,2.2,0,0,0,.868.868c.488.217,4.883,5.7,7.325,9.282a59.255,59.255,0,0,1,4.937,8.793c.543,1.248,1.248,2.768,1.574,3.419a31.354,31.354,0,0,1,2.6,6.188,4.262,4.262,0,0,0,.651,1.791,12.552,12.552,0,0,1,1.031,2.551,6.994,6.994,0,0,0,1.031,2.225c.759.977,2.17,5.808,2.007,6.948-.162,1.085-.325,1.411-.651,1.411-.488,0-1.465-.6-3.255-1.791-7.813-5.319-12.317-7.653-17.851-9.282a49.533,49.533,0,0,1-12.8-5.7c-.868-.543-1.845-1.14-2.225-1.3a2.792,2.792,0,0,1-.976-.76,1,1,0,0,0-.651-.434.2.2,0,0,0-.163.054,27.637,27.637,0,0,1-6.131-4.125c-.326-.489-1.248-1.52-2.008-2.389s-1.845-2.225-2.441-3.093a17.5,17.5,0,0,0-1.9-2.443,4.568,4.568,0,0,1-1.031-1.3c-.272-.815-3.093-3.963-4.829-5.591a21.544,21.544,0,0,1-1.954-1.954,1.4,1.4,0,0,0-1.248-.6,1.682,1.682,0,0,0-.488.054,3.853,3.853,0,0,1-.759.054c-.326,0-.435,0-.489-.054a.408.408,0,0,0-.271-.054,14.241,14.241,0,0,0-2.062.271,15.327,15.327,0,0,1-2.17.272h-.38a48.333,48.333,0,0,0-7,1.248,8,8,0,0,1-1.737.271,1.117,1.117,0,0,1-.434-.054.516.516,0,0,0-.379-.108.361.361,0,0,0-.38.271,11.3,11.3,0,0,1-2.5,1.194c-13.076,4.831-19.262,9.064-27.617,18.889-2.225,2.605-3.961,4.505-4.178,4.668-.38.054-.651,1.085-.651,1.194a2.144,2.144,0,0,1-.651,1.194,15.815,15.815,0,0,0-2.117,3.311,24.719,24.719,0,0,1-2.224,3.582,13.417,13.417,0,0,0-1.682,2.66,10.846,10.846,0,0,1-2.17,2.931,4.948,4.948,0,0,0-1.3,1.411,93.339,93.339,0,0,1-7.487,6.785,23.651,23.651,0,0,0-4.124,4.4c-.759.977-2.55,3.582-2.387,3.962v.055a3.191,3.191,0,0,1-.814.922,14.9,14.9,0,0,0-2.116,3.474c-1.628,3.8-3.2,6.73-4.124,7.6a6.375,6.375,0,0,0-1.248,1.683,25.687,25.687,0,0,1-4.069,5.644,4.1,4.1,0,0,0-1.085,1.3.859.859,0,0,1-.488.326.563.563,0,0,0-.435.217c-.108.217-.108.488.055,1.085a27.133,27.133,0,0,1,1.085,5.428l-.054.054c-.055.055-.109.163.162,1.412.923,3.908,1.52,8.087,1.3,9.01a9.664,9.664,0,0,0,.271,3.039,8.627,8.627,0,0,1,.271,2.823,6.938,6.938,0,0,0,.217,2.442,5.833,5.833,0,0,1,.217,2.171,11.89,11.89,0,0,0,.109,2.986c.217,2.008.163,2.171-.38,2.551A4.293,4.293,0,0,1,152.922,379.292ZM185.585,163.43c-.814,0-6.185,2.28-6.348,2.877a1.068,1.068,0,0,1-.76.38c-1.085.054-7.921,4.667-10.526,6.893-2.116,1.845-10.146,10.8-10.363,11.778a21.165,21.165,0,0,1-2.984,4.179c-.326.163-2.5,8.3-3.093,10.8-1.519,5.97-2.767,10.747-2.821,10.964s-1.574,6.73-3.473,14.818c-3.689,15.794-4.775,20.842-5.1,23.447-.38,3.474-.705,5.7-.868,6.405a20.319,20.319,0,0,0-.326,2.931c-.108,1.14-.325,4.234-.542,6.785a48.722,48.722,0,0,0-.272,5.156,12.745,12.745,0,0,1-.054,2.443,95.193,95.193,0,0,0,.054,10.367c.055.977.109,2.605.109,3.636a25.022,25.022,0,0,0,.217,3.094,63.371,63.371,0,0,1,.76,7.328,9.016,9.016,0,0,0,.217,2.117c.162.922.488,2.713.651,4.016.434,2.985,1.248,7.545,1.519,8.522a27.445,27.445,0,0,1,.434,3.148,17.367,17.367,0,0,0,.7,3.528,12.638,12.638,0,0,1,.489,1.682c.054.326.054.543.271.543.163,0,.217-.163.326-.543a7.874,7.874,0,0,0-.652-4.179,3.2,3.2,0,0,1-.271-1.628,8.947,8.947,0,0,0-.325-2.877,17.019,17.019,0,0,1-.435-2.822,12.944,12.944,0,0,0-.271-2.5,26.128,26.128,0,0,1-.325-5.482,3.406,3.406,0,0,0-.217-1.357,23.7,23.7,0,0,1-.326-3.2c-.108-1.682-.271-3.8-.38-4.667a19.586,19.586,0,0,1,.272-4.125c.217-1.466.434-3.366.488-4.4a14.08,14.08,0,0,1,.542-3.419,27.336,27.336,0,0,0,.706-3.094c.488-3.257,5.48-22.254,7.053-26.759a121.471,121.471,0,0,1,4.612-11.887c2.659-5.319,3.636-6.622,4.015-6.948a3.37,3.37,0,0,0,.977-1.628c.217-.977,2.062-3.962,4.992-8.141a35.31,35.31,0,0,0,2.17-3.529,10.668,10.668,0,0,1,1.14-1.736,17.84,17.84,0,0,0,1.9-2.769c.651-1.139,1.736-2.931,2.441-3.962s1.574-2.388,1.9-2.985a16.125,16.125,0,0,1,1.3-1.846,9.719,9.719,0,0,0,1.411-2.279c.38-.814,1.139-2.334,1.736-3.365.6-1.086,1.9-3.908,2.876-6.351,1.031-2.5,1.845-4.342,1.953-4.505.868-.868,4.5-13.352,5.1-17.1.108-.869.488-3.04.759-4.831.434-2.823.543-3.691.217-4.071a.617.617,0,0,0-.434-.163,2.7,2.7,0,0,0-.814.163,6.9,6.9,0,0,0-1.573.814.99.99,0,0,1-.6.272h-.054C185.694,163.43,185.639,163.43,185.585,163.43ZM139.9,315.027c-.054,0-.163,0-.217.217a2.305,2.305,0,0,0,.163,1.14c.108.326.271.489.379.489.055,0,.163,0,.218-.217a2.305,2.305,0,0,0-.163-1.14C140.171,315.19,140.063,315.027,139.9,315.027Zm2.713-19.214a5.54,5.54,0,0,0,0,2.171c.108,1.3.325,1.3.434,1.3s.163-.054.217-.217a7.162,7.162,0,0,0-.054-2.117c-.163-1.086-.272-1.194-.434-1.194h-.055Zm29.57-67.358c-.217,0-3.852,2.116-4.937,2.768-5.155,3.039-6.62,4.342-9.224,8.3a25.573,25.573,0,0,1-2.116,2.877,14.435,14.435,0,0,0-1.845,3.257c-4.774,10.312-9.875,28.984-11.177,40.653-.217,1.9-.542,3.908-.651,4.4a4.2,4.2,0,0,0,.054,2.008,3.7,3.7,0,0,1,.163,1.683,1.127,1.127,0,0,0,.054.76.418.418,0,0,0,.272.108h.108c.6-.217.6-.977.38-2.117-.217-1.248,3.093-14.166,4.829-18.671.868-2.334,1.79-4.722,2.007-5.374a56.587,56.587,0,0,1,2.93-6.73,9.2,9.2,0,0,0,1.194-2.28,164.824,164.824,0,0,1,12.859-23.5c.434-.651,1.519-2.388,2.388-3.854a22.706,22.706,0,0,1,2.278-3.31c.706-.706.651-.869.651-.923V228.4ZM31.547,258.524a.416.416,0,0,0-.271.109.3.3,0,0,0-.054.326,4.573,4.573,0,0,1-.814,1.356l-.054.109a11.9,11.9,0,0,0-1.628,2.443l-.054.108a6.908,6.908,0,0,1-.922,1.3,5.118,5.118,0,0,0-.922,1.9,6.488,6.488,0,0,1-.814,1.737c-.814.652-2.387,7.979-2.387,10.2,0,1.845.217,1.845.38,1.845.108,0,.163-.054.217-.217a8.517,8.517,0,0,0,.38-.923c.054-.163.6-1.574,1.085-2.768a7.712,7.712,0,0,1,1.682-2.931,2.875,2.875,0,0,0,1.194-1.628c.38-1.14,1.682-2.5,2.116-2.5.163.108.217.163.326.163.054,0,.326-.055.326-.489.163-1.357.542-1.682,1.139-1.737a1.242,1.242,0,0,0,.814-.325.665.665,0,0,0,.163-.489c-.054-.271.108-.488.217-.488a8.1,8.1,0,0,0,1.736-1.683,3.549,3.549,0,0,1,1.628-1.3h.109a.916.916,0,0,0,.76-.7,1.317,1.317,0,0,1,1.085-.977.282.282,0,0,1,.217.108.3.3,0,0,0,.271.163c.109,0,.271-.054.38-.488a3.617,3.617,0,0,1,2.55-1.52h.163c.054,0,.163.054.217.054a.793.793,0,0,0,.76-.488.755.755,0,0,1,.705-.435,21.424,21.424,0,0,0,3.2-1.031,14.154,14.154,0,0,1,6.294-1.3c1.248-.055,3.418-.218,3.69-.76a.347.347,0,0,0,0-.326,1.469,1.469,0,0,1,.542.488.659.659,0,0,0,.543.326,1.5,1.5,0,0,0,.651-.271,1.733,1.733,0,0,1,.977-.272.8.8,0,0,1,.38.055,2.043,2.043,0,0,0,.6.054c.163,0,.6,0,.76-.217a.87.87,0,0,1,.543-.109,1.822,1.822,0,0,1,.543.055,2.444,2.444,0,0,0,.6.054,1.244,1.244,0,0,0,.76-.217,1,1,0,0,1,.543-.109,1.509,1.509,0,0,1,.488.054,4.133,4.133,0,0,0,.814.109,1.073,1.073,0,0,0,.488-.109,1.38,1.38,0,0,1,.651-.108,35.665,35.665,0,0,1,4.395.651l3.472.6.109-.271-1.139-.869c-2.713-2.062-3.256-2.333-7.271-3.962a37.506,37.506,0,0,1-3.744-1.737,60.981,60.981,0,0,0-9.332-3.2,38.623,38.623,0,0,0-5.154-.326,6.9,6.9,0,0,0-1.574.109,1.878,1.878,0,0,1-.488.054,1.144,1.144,0,0,1-.922-.434c-.326-.38-.488-.434-.6-.434H45l-.109.054c-.109.108-.054.217-.054.488a.687.687,0,0,1-.054.326.2.2,0,0,1-.163.054c-.543-.054-.868-.108-1.139-.108a4.005,4.005,0,0,0-1.248.217,5.4,5.4,0,0,1-.977.108,2.246,2.246,0,0,1-.651-.054c-.109,0-.217-.054-.326-.054a2.232,2.232,0,0,0-1.411.488,2.213,2.213,0,0,1-1.085.489h-.217c-1.085,0-4.883,2.117-8.356,4.614-2.062,1.465-4.124,2.93-4.666,3.31-.434.272-1.031.815-1.085,1.086a9.065,9.065,0,0,1-1.791,1.845l-1.845,1.629.163,4.288a37.606,37.606,0,0,0,.488,5.21A4.013,4.013,0,0,1,20.7,270.3a5.442,5.442,0,0,0,.488,2.116L22,274.428l.705-3.2a17.02,17.02,0,0,1,3.364-7.11,7.654,7.654,0,0,0,1.139-1.683,10.086,10.086,0,0,1,1.465-1.791,20.871,20.871,0,0,0,1.682-1.791.966.966,0,0,1,.6-.434h.163a.636.636,0,0,0,.6-.489,2.2,2.2,0,0,1,1.465-1.248c.054,0,.109,0,.109.054,0,0,.054.109-.054.326-.271.651-1.194,1.574-1.519,1.574C31.6,258.524,31.547,258.524,31.547,258.524Zm154.8-69.529a2.7,2.7,0,0,1-.217.542c-.217.435-.76,1.575-1.194,2.552a10.861,10.861,0,0,1-1.356,2.279,4.178,4.178,0,0,0-.814,1.628,2.039,2.039,0,0,1-.543.978c-.488.162-1.736,2.659-1.79,2.768a16.56,16.56,0,0,1-1.628,2.822,3.842,3.842,0,0,0-.76,1.411,6.1,6.1,0,0,1-1.085,1.9,13.931,13.931,0,0,0-1.465,2.388,13.8,13.8,0,0,1-1.9,2.877,16.477,16.477,0,0,0-2.062,3.365,12.624,12.624,0,0,1-1.736,2.931c-.542.651-1.682,2.226-2.442,3.42-2.061,3.311-4.123,6.622-5.1,7.978a21.431,21.431,0,0,0-1.356,2.334c-.163.326-.217.543-.109.706a.322.322,0,0,0,.272.109c.379,0,1.356-.543,4.232-2.334,2.55-1.574,7.324-4.505,10.688-6.568a56.79,56.79,0,0,0,6.186-3.962c.054-.109,1.031-.923,2.6-2.226,1.465-1.194,3.093-2.5,3.636-2.985.6-.488,1.573-1.194,2.278-1.682a6.341,6.341,0,0,0,1.737-1.52c.217-.326.434-.489.542-.489h.054c.435,0,1.3-.922,6.023-6.839a28.061,28.061,0,0,0,2.822-3.962c.054-.217.922-1.791,2.116-3.8,1.682-2.823,3.635-6.839,3.635-7.816a3.031,3.031,0,0,1,.542-.869c.706-.814,2.768-6.567,4.775-13.352.76-2.6,2.062-6.676,2.93-9.119,2.659-7.544,5.7-18.834,5.806-21.982.325-7.111.217-12.1-.272-13.3a6.11,6.11,0,0,1-.108-1.954,25.312,25.312,0,0,0,.054-2.823c-.163-4.288-.271-6.187-.38-6.567-.054-.217-.217-1.629-.325-3.474-.109-1.683-.271-3.637-.38-4.342a29.372,29.372,0,0,1,.054-7.273,2.611,2.611,0,0,0-.271-1.954c-.271-.326-.38-.489-.543-.489-.271,0-.271.38-.271.869-.054,3.745-1.682,11.126-4.123,18.834l-.218.651c-1.247,3.908-1.247,3.908-1.41,5.591l-.054.271c-.109,1.14-.38,1.628-.543,1.683h-.054c-.055-.055-.109-.163-.055-.38.055-.38.217-1.14.272-1.683.434-3.528,1.519-9.336,3.2-16.88l.814-3.637-.326-.108-1.193,3.311c-.652,1.845-1.357,3.8-1.628,4.4-.217.6-.868,2.28-1.357,3.691a20.068,20.068,0,0,1-1.79,3.854,11.331,11.331,0,0,0-1.3,2.985c-.489,2.008-6.023,12.918-7.108,14.112a10.2,10.2,0,0,0-1.248,2.388,16.019,16.019,0,0,1-1.465,2.769,13.8,13.8,0,0,0-1.356,2.333,38.939,38.939,0,0,1-3.039,5.862c-.434.435-2.279,6.351-3.364,10.422-.488,1.9-1.356,6.187-1.9,9.607-.977,5.916-3.147,13.515-4.992,17.206-.325.651-.379.868-.325.977l.054.054h.163c.108,0,.271-.054.651-.325C185.8,189.32,186.182,189.1,186.345,188.995Zm-30.439-9.987c-.217,0-.38.325-.434.651-.109.38-.054.488,0,.543l.054.054h.109a.362.362,0,0,0,.271-.217c.217-.326.326-.706.163-.923A.773.773,0,0,0,155.906,179.008Zm21.92-25.077a8.553,8.553,0,0,1-1.519,1.357c-.217.163-1.9,1.411-1.628,1.9v.054a.763.763,0,0,1-.434.38,3.444,3.444,0,0,0-1.356,1.52,3.27,3.27,0,0,1-1.14,1.357,2.017,2.017,0,0,0-.922,1.085,6.491,6.491,0,0,1-1.519,1.792,15.637,15.637,0,0,0-2.822,3.745,25.6,25.6,0,0,1-2.278,3.636,12.051,12.051,0,0,0-1.086,1.574,25.3,25.3,0,0,1-2.278,3.42c-.38.488-2.659,3.745-2.442,4.071l.054.054h.109a15.662,15.662,0,0,0,2.713-2.822c1.356-1.574,3.309-3.637,4.232-4.505a9.262,9.262,0,0,0,1.844-2.117c.272-.706,11.123-7.545,13.836-8.522.055,0,1.737-.651,1.845-.977,0-.054.109-.108.217-.108h.217a7.5,7.5,0,0,0,2.062-.652,23.069,23.069,0,0,1,3.418-1.14c2.388-.6,3.961-2.388,4.829-5.753a10.246,10.246,0,0,1,1.14-2.877c.271-.271.542-.705.434-.922.108-.652,3.743-8.088,6.511-13.081.325-.6.379-.706.325-.815l-.054-.054h-.109c-.108,0-.162.055-.651.543-.38.38-1.736,1.52-2.984,2.5a34.691,34.691,0,0,0-3.038,2.6c-.76.814-1.465,1.3-8.736,5.862-.76.489-4.72,2.931-4.775,3.311-.271,1.194-2.5,2.822-3.743,2.822h-.217c-.055-.217.379-.759.922-.922A2.844,2.844,0,0,0,180.214,151c.542-1.031,3.581-3.636,5.8-5.047.651-.38,1.628-1.086,1.682-1.412a5.953,5.953,0,0,1,1.574-1.248,37.883,37.883,0,0,0,4.883-3.474,50.543,50.543,0,0,1,5.317-3.582l4.558-2.877,1.194-2.877c.651-1.574,1.3-3.039,1.465-3.311s.542-.922.813-1.465a6.96,6.96,0,0,0,.706-2.117l.163-1.411-2.008.651c-2.713.923-10.96,6.025-14.7,9.065-1.845,1.519-3.527,2.876-3.8,3.093-.488.38-3.255,2.877-3.8,3.42-.868.977-5.155,6.133-5.209,6.513a19.044,19.044,0,0,1-1.953,2.443c-1.031,1.194-2.279,2.822-2.767,3.528a10.073,10.073,0,0,1-1.248,1.682,41.249,41.249,0,0,0-3.093,4.614c-1.573,2.5-2.821,4.4-2.984,4.559l-.054.055c-.434.38-.434.38-1.9,3.311l-.163.271c-.706,1.411-1.519,3.094-1.791,3.8l-.488,1.249.271.163.868-.923a10.259,10.259,0,0,0,1.357-1.9,3.382,3.382,0,0,1,.814-1.194c.271-.217.488-.543.325-.814a10.339,10.339,0,0,1,2.876-3.365,2.536,2.536,0,0,0,.977-1.249,3.619,3.619,0,0,1,1.139-1.52,6.952,6.952,0,0,0,1.139-1.085,16.081,16.081,0,0,1,1.845-1.737,20.833,20.833,0,0,0,1.953-1.9C175.764,154.528,177.229,153.931,177.826,153.931ZM162.037,170.6c-.163,0-.271.108-.434.705s-.054.706-.054.76l.054.054h.109a.462.462,0,0,0,.271-.162,1.565,1.565,0,0,0,.271-1.086C162.2,170.649,162.091,170.6,162.037,170.6ZM38.112,146.332a.765.765,0,0,0-.76.706,2.185,2.185,0,0,1-1.031,1.086c-.488.271-1.031.651-1.085.977a10.886,10.886,0,0,1-2.17,1.791,30.747,30.747,0,0,0-3.635,3.094,35.052,35.052,0,0,1-3.581,3.093,43.516,43.516,0,0,0-3.581,3.04,38.469,38.469,0,0,1-4.829,3.419c-1.845,1.086-4.124,2.5-5.046,3.149-1.194.814-1.3.922-1.248,1.085,0,.054.054.163.217.163a4.427,4.427,0,0,0,.543-.109,6.058,6.058,0,0,0,1.628-.6c.271-.162,2.116-.922,4.015-1.628a44.533,44.533,0,0,0,5.534-2.66c2.767-1.791,10.58-7.761,11.557-8.9a3.528,3.528,0,0,1,1.248-1.031,7.2,7.2,0,0,0,1.953-1.466,10.52,10.52,0,0,1,2.062-1.628c.38-.217.868-.543.922-.814s1.736-1.737,5.209-4.18c1.953-1.411,5.1-3.8,7.325-5.59.6-.489,1.628-1.194,2.279-1.629a28.988,28.988,0,0,0,2.93-2.117c2.442-1.953,6.891-4.45,7.6-4.45.108,0,.217.054.326.054a.676.676,0,0,0,.6-.217c.271-.38,4.449-2.225,6.945-3.04,1.628-.542,2.333-.977,2.333-1.519-.054-.435-.054-.706-.326-.706-.163,0-.326.163-.76.6-.6.6-3.581,1.3-6.891,1.628-3.473.38-6.4,1.194-7.433,2.117a2.387,2.387,0,0,1-1.194.652c-.108,0-.163,0-.217-.055a1.367,1.367,0,0,0-.543-.108c-2.225,0-9.387,2.605-12.642,4.613-1.194.76-3.527,2.063-5.263,2.986-1.9,1.031-8.139,4.342-8.356,5.156a5.5,5.5,0,0,1-1.519,1.411c-.6.434-1.519,1.194-1.573,1.466a2.676,2.676,0,0,1-.705.76,13.012,13.012,0,0,0-2.062,2.388c-.76,1.031-2.279,2.931-3.31,4.179s-2.5,3.094-3.2,4.017a14.566,14.566,0,0,1-2.062,2.225c-.542.38-.542.489-.488.6l.054.109H18.2a23.648,23.648,0,0,0,3.31-2.389c4.178-3.365,8.084-6.4,9.061-7.056,1.085-.705,3.852-2.714,5.751-4.179a3.435,3.435,0,0,1,1.519-.76h.054a.493.493,0,0,0,.271.163h.109l.054-.109a.459.459,0,0,0,0-.38c-.108-.325,1.574-1.574,4.992-3.745a13.712,13.712,0,0,0,2.442-1.954,6.931,6.931,0,0,1,2.17-1.465c.922-.38,1.465-.869,1.411-1.3,0-.163,0-.271.054-.326h.054a7.354,7.354,0,0,0,2.333-1.682,6.987,6.987,0,0,1,2.225-1.574h.163a1.031,1.031,0,0,0,.868-.543,9.031,9.031,0,0,1,3.418-1.845,17.438,17.438,0,0,1-4.286,2.876.883.883,0,0,0-.814.6,4.6,4.6,0,0,1-1.3,1.249c-.054.054-1.3.922-1.356,1.248a.318.318,0,0,1-.217.054.327.327,0,0,1-.217-.054c-.109,0-.163-.054-.271-.054a.549.549,0,0,0-.6.434,4.141,4.141,0,0,1-1.194,1.031,12.756,12.756,0,0,0-2.333,1.954c-.977,1.086-1.953,1.846-5.154,3.963a6.451,6.451,0,0,0-1.519,1.357.991.991,0,0,1-.705.434h-.108A.717.717,0,0,0,38.112,146.332Zm120.832.923c-.217,0-.271.272-.325.434a1.822,1.822,0,0,0,.325,1.357c.326.435.489.435.543.435a.277.277,0,0,0,.271-.218,3.263,3.263,0,0,0-.271-1.3C159.216,147.472,159.107,147.255,158.944,147.255Zm-.488-38.863c.054,0,.163.218.163.923,0,2.5-.217,5.971-.326,6.839a32,32,0,0,0-.054,4.234c.054,1.791,0,4.288-.054,5.59a22.568,22.568,0,0,0,.054,3.474c.109.6.434,4.722.76,9.227.6,7.708.759,7.708.922,7.708h.109l.054-.163a.51.51,0,0,1,.434-.434c.108,0,.163.054.217.054a.234.234,0,0,0,.217-.109c.054-.162-.054-.325-.271-.542s-.326-1.194-.109-2.823a87.066,87.066,0,0,0,.6-11.887c-.217-.977.76-6.4,2.659-14.22,1.682-6.948,4.34-16.012,4.774-16.446a8.207,8.207,0,0,0,.923-2.28,80.915,80.915,0,0,1,3.689-9.824c.543-1.086,1.411-3.094,1.9-4.4s1.52-3.962,2.279-5.862c.814-1.9,1.953-4.722,2.55-6.242,1.248-3.094,3.636-11.561,6.077-21.6,2.388-9.716,2.55-10.8,3.256-16.718a102.215,102.215,0,0,0,.868-15.523c0-2.877-.054-6.079-.163-6.513a.2.2,0,0,0-.217-.163c-.163,0-.38,0-1.3,3.691-1.085,4.342-2.17,7.49-2.55,7.87a36.234,36.234,0,0,0-1.357,3.8c-3.418,10.91-4.5,14.655-7.433,25.13a47.757,47.757,0,0,1-2.008,6.242,8.559,8.559,0,0,0-1.031,2.388c-.922,3.311-2.007,5.211-2.387,5.265h-.054c-.054-.054-.054-.326.325-1.683a10.1,10.1,0,0,1,1.628-3.582,3.09,3.09,0,0,0,.488-1.683,2.991,2.991,0,0,1,.6-1.628,6.233,6.233,0,0,0,1.031-2.551c.163-.977.868-4.071,1.519-6.893a39.1,39.1,0,0,0,1.031-5.7,4.805,4.805,0,0,1,.814-1.9c.054-.054.977-1.683.76-2.062-.217-.326,0-1.3,1.845-9.119a56.821,56.821,0,0,1,2.333-7.979,47.936,47.936,0,0,0,1.9-4.994l1.031-3.365-.272-.163-2.007,3.148a34.952,34.952,0,0,0-2.6,4.777,10.158,10.158,0,0,1-.813,1.791,30.727,30.727,0,0,0-1.465,4.4c-1.465,5.048-5.86,16.012-11.232,27.9-.38.868-1.682,3.908-2.876,6.73s-2.821,6.622-3.635,8.521c-1.193,2.714-2.116,5.754-4.232,14.275-2.767,11.127-3.581,15.306-3.907,19.377-.108,1.3-.271,3.04-.325,3.963-.054.868-.163,3.473-.217,5.753-.054,2.334-.109,5.1-.109,6.188a15.275,15.275,0,0,0,.38,3.419,5.4,5.4,0,0,1,.109,2.443c-.109.434-.217,1.3,0,1.574a23.059,23.059,0,0,1,.705,4.233c.271,2.009.6,4.234.705,4.5.055.109.109.109.217.109h.055l.054-.054c.326-.38.217-4.885-.054-5.971a4.881,4.881,0,0,1,0-2.171,9.565,9.565,0,0,0,.217-2.551,74.866,74.866,0,0,1,1.845-14.384C158.022,108.772,158.348,108.392,158.456,108.392Zm74.5,20.3h-1.139c-5.914.163-6.945.217-7.325.6a.812.812,0,0,0-.108.489c.054.38.217,2.225.379,4.125l.272,3.637,1.3-.543a57.508,57.508,0,0,1,12.316-3.04c.435,0,.869-.054,1.357-.054,3.093,0,6.565.434,7.65.923a2.877,2.877,0,0,0,1.085.325.536.536,0,0,0,.435-.217c.217-.6-1.3-1.9-1.791-2.279C244.075,129.995,239.246,128.692,232.952,128.692Zm-1.844-2.388a30.827,30.827,0,0,1,5.534.543c1.248.271,2.442.488,2.659.488h.108c.217,0,.217-.108.271-.163.163-.6-4.232-3.148-5.914-4.016-1.9-.977-3.635-1.9-3.906-2.063a29.52,29.52,0,0,0-6.131-1.791c-.109,0-.163,0-.163.055-.543.325.6,5.427.6,5.7.162.868.325,1.574.325,1.628a.257.257,0,0,0,.271.163,4.9,4.9,0,0,0,1.248-.217,5.449,5.449,0,0,1,1.357-.163,3.613,3.613,0,0,1,.814.054,3.189,3.189,0,0,0,.705.109,1.16,1.16,0,0,0,.651-.163S229.7,126.3,231.108,126.3Zm-13.782-22.688c-.108,0-.271.054-.38.651-.162.6-.054.706,0,.706l.055.054h.108c.109,0,.163-.108.217-.163a1.557,1.557,0,0,0,.271-1.085C217.543,103.616,217.435,103.616,217.326,103.616Z" fill="#fff"/>
    <path id="Path_2" data-name="Path 2" d="M156.991,153.443a.2.2,0,0,1-.163-.054c-.759-.217-2.441-2.714-3.364-5.537,0-.054-.922-2.768-1.41-2.876a2.358,2.358,0,0,1-.814-.923,1.742,1.742,0,0,0-1.194-.923h-.108a1.037,1.037,0,0,1-.76-.38,39.443,39.443,0,0,0-3.038-2.822,28.091,28.091,0,0,1-5.7-6.514,32.969,32.969,0,0,1-3.363-6.187c-.489-1.14-1.14-2.551-1.465-3.148-2.334-4.614-2.985-6.188-3.419-7.871a12.031,12.031,0,0,0-.868-2.551,1.109,1.109,0,0,1-.217-.977,4.131,4.131,0,0,0-.542-2.008,4.12,4.12,0,0,1-.543-1.737,15.965,15.965,0,0,0-.543-3.582,12.565,12.565,0,0,1-.379-4.179,3.212,3.212,0,0,0-.109-2.063c-.38-.706-.488-2.28-.488-6.079V89.015c0-.977.108-2.931.271-4.342a53.863,53.863,0,0,0,.271-7.382,33.146,33.146,0,0,1,.489-4.451c.271-1.574.651-3.691.759-4.668l.163-1.3.814,1.248a5.759,5.759,0,0,1,.922,2.008c-.108.434.651,1.411,1.194,1.954a4.759,4.759,0,0,1,1.139,1.52c-.108.326,1.737,3.528,2.116,4.125a57,57,0,0,1,2.876,5.536c.434.977.868,2.008,1.031,2.28a30.99,30.99,0,0,1,2.116,5.319l.651,2.605a6.987,6.987,0,0,1,.217,1.845,1.823,1.823,0,0,0,.326,1.357,5.583,5.583,0,0,1,.488,2.008,20.444,20.444,0,0,0,.6,3.311,27.389,27.389,0,0,1,.76,7.381,3.205,3.205,0,0,0,.217,1.683,3,3,0,0,1,.162,1.52,3.891,3.891,0,0,0,.326,1.954,3.755,3.755,0,0,1,.217,2.171,1.85,1.85,0,0,0,0,1.086.281.281,0,0,0,.217.108,9.459,9.459,0,0,1,.977,2.823,22.466,22.466,0,0,0,.976,3.419,13,13,0,0,1,.651,2.714,24.707,24.707,0,0,0,.814,3.257,14.9,14.9,0,0,1,.6,2.551,15.881,15.881,0,0,0,.6,2.6c.325.706,1.411,4.613,1.845,6.459a5.611,5.611,0,0,0,.434,1.357c.054.163.542,1.574,1.139,3.474.543,1.791,1.3,4.016,1.628,4.993.163.434.7,1.791.542,2.063C157.1,153.443,157.1,153.443,156.991,153.443Zm-18.882-39.731c.109,0,.543.434,1.086,2.605a20,20,0,0,0,1.573,4.017,5.2,5.2,0,0,1,.814,1.954c-.109.379.217.922.543,1.3a6.076,6.076,0,0,1,.922,2.063,39.8,39.8,0,0,0,2.224,6.4,3.992,3.992,0,0,1,.489,1.574,13.382,13.382,0,0,0,1.736,3.528c2.333,3.691,2.713,4.233,3.473,4.5a.955.955,0,0,0,.325.054.316.316,0,0,0,.271-.109.78.78,0,0,0,0-.705,2.786,2.786,0,0,0-.542-1.14,2.632,2.632,0,0,1-.217-1.248,8.874,8.874,0,0,0-.6-2.606,4.289,4.289,0,0,1-.488-1.737,4.709,4.709,0,0,0-.326-1.682,4.859,4.859,0,0,1-.325-1.629,2.42,2.42,0,0,0-.38-1.411,12.274,12.274,0,0,1-.706-2.822,17.045,17.045,0,0,0-.6-2.823c-.109-.38-.326-1.248-.489-1.954-.163-.76-.542-2.334-.922-3.582a8.973,8.973,0,0,1-.543-2.551,3.637,3.637,0,0,0-.434-1.628,3.218,3.218,0,0,1-.38-1.629,8.482,8.482,0,0,0-.271-2.6c-.217-1.031-.434-2.28-.488-2.714-.272-2.768-1.411-9.716-1.682-10.367a11.963,11.963,0,0,1-.489-2.388,13.414,13.414,0,0,0-.705-2.985,4.794,4.794,0,0,1-.434-1.411,14.89,14.89,0,0,0-1.79-4.614,3.7,3.7,0,0,1-.435-1.031c.109-.38-1.03-2.225-1.085-2.28a8.954,8.954,0,0,1-1.031-2.117c.109-.38-.651-1.737-1.085-2.388a8.794,8.794,0,0,1-1.031-2.225c.055-.326,0-.706-.271-.76a15.01,15.01,0,0,1-1.682-2.388c-1.3-2.062-1.628-2.5-1.953-2.5-.272,0-.326.271-.38.434a4.841,4.841,0,0,0,.814,2.442.56.56,0,0,0,.38.271h.054a5.809,5.809,0,0,1,.488,1.737c.217,1.14.489,2.334.6,2.714a40.6,40.6,0,0,1,1.465,10.15,6.516,6.516,0,0,0,.38,2.877,1.6,1.6,0,0,1,.163,1.248,8.42,8.42,0,0,0,.813,4.505,2.4,2.4,0,0,1,.109,1.411c-.109.489-.163,1.086.108,1.357a1.243,1.243,0,0,1,.218,1.14c-.055.108-.055.162-.109.162h-.054a1.794,1.794,0,0,1-.38-1.194c0-.543-.163-1.14-.543-1.248-.054-.109-.054-.271.109-.543a.906.906,0,0,0,.163-.706.946.946,0,0,0-.543-.6c-.651-.38-1.3-2.5-1.031-3.528a1.737,1.737,0,0,0-.271-1.357,33.922,33.922,0,0,1-1.194-6.513c-.814-6.079-.922-6.079-1.085-6.079H130.4l-.054.054c-.055.054-.163.109-.218,2.605,0,1.3-.162,3.962-.325,5.862a31.142,31.142,0,0,0-.054,4.994,6.7,6.7,0,0,1,0,2.334,16.991,16.991,0,0,0,.108,3.582,15.433,15.433,0,0,1,.163,3.691,3.277,3.277,0,0,0,.326,2.063,2.373,2.373,0,0,1,.271,1.465,1.426,1.426,0,0,0,.163,1.194,5.174,5.174,0,0,1,.379,1.954,22.372,22.372,0,0,0,1.791,6.188,5.341,5.341,0,0,1,.38,1.845,5,5,0,0,0,.7,2.28,3.035,3.035,0,0,1,.543,1.52.6.6,0,0,0,.325.76,27.944,27.944,0,0,1,1.9,3.474c4.5,9.227,6.674,12.809,8.03,13.08a1.416,1.416,0,0,0,.38.055.234.234,0,0,0,.217-.109c.055-.163-.108-.271-.434-.488a5.983,5.983,0,0,1-1.465-3.094.557.557,0,0,0-.108-.489,1.2,1.2,0,0,0-.434-.271,2.607,2.607,0,0,1-.977-1.466,9.637,9.637,0,0,0-.76-1.736,15.114,15.114,0,0,1-.651-2.117,22.8,22.8,0,0,0-.922-2.877,7.331,7.331,0,0,1-.488-1.791,16.635,16.635,0,0,0-.6-2.551,9.089,9.089,0,0,1-.38-3.257c.108-.923,0-2.008-.38-2.279a.75.75,0,0,1-.271-.706C138.055,113.766,138.109,113.766,138.109,113.712Zm-7.216-39.08c-.217,0-.38.326-.434.651-.054.38-.054.489,0,.543l.054.054h.109a.36.36,0,0,0,.271-.217,1.013,1.013,0,0,0,.163-.923C131,74.632,130.947,74.632,130.893,74.632Z" fill="#fff"/>
    <path id="Path_3" data-name="Path 3" d="M281.676,163.539a.053.053,0,0,1-.054-.055.55.55,0,0,1-.163-.542c0-.109.109-.163.217-.163h.054c.055,0,.109.054.109.163a.461.461,0,0,1,0,.38A1.72,1.72,0,0,1,281.676,163.539Z" fill="#fff"/>
    <path id="Path_4" data-name="Path 4" d="M76.8,130.971c-.434,0-.922-.217-.977-.651V130.1h.109a2.232,2.232,0,0,1,.814.217c.705.217.814.326.814.38,0,0,0,.054-.109.109A1.047,1.047,0,0,1,76.8,130.971Z" fill="#fff"/>
    <path id="Path_5" data-name="Path 5" d="M90.145,137.919a1.049,1.049,0,0,1-.651-.325,8.6,8.6,0,0,0-2.333-1.3l-.109-.054a13.3,13.3,0,0,1-2.225-1.357,20.217,20.217,0,0,0-5.209-2.931c-.6-.217-.977-.6-.977-.814,0-.163.054-.218.217-.218a5.132,5.132,0,0,1,1.248.326,13.215,13.215,0,0,1,2.767,1.249c.651.379,1.574.922,2.116,1.194a4.467,4.467,0,0,1,1.3,1.085,2.332,2.332,0,0,0,1.3.977c.434.109.705.326.76.543a1.348,1.348,0,0,0,.977.706,1.15,1.15,0,0,1,.814.759C90.254,137.811,90.2,137.865,90.145,137.919Z" fill="#fff"/>
    <path id="Path_6" data-name="Path 6" d="M93.292,140.362h-.054a10.563,10.563,0,0,1-2.225-2.443c.054-.108.054-.108.109-.108.271,0,1.085.814,1.356,1.085C93.13,139.6,93.4,140.253,93.292,140.362Z" fill="#fff"/>
    <path id="Path_7" data-name="Path 7" d="M95.9,142.533a4.257,4.257,0,0,1-1.682-2.117.749.749,0,0,0,.217.163A5.094,5.094,0,0,1,95.9,142.533Z" fill="#fff"/>
    <path id="Path_8" data-name="Path 8" d="M99.152,145.464a.92.92,0,0,1-.271-.108,1.232,1.232,0,0,1-.651-.652,1.106,1.106,0,0,1,.054-.271c.163,0,.488.217.705.706A.877.877,0,0,0,99.152,145.464Z" fill="#fff"/>
    <path id="Path_9" data-name="Path 9" d="M100.671,147.038c-.108-.054-.217-.163-.162-.272,0-.108.054-.162.054-.217a.907.907,0,0,1,.163.326v.109h-.055Z" fill="#fff"/>
    <path id="Path_10" data-name="Path 10" d="M102.136,148.449h0c-.054-.054-.054-.108-.054-.271.054-.272.109-.38.163-.38a2.248,2.248,0,0,1,.108.271A.274.274,0,0,1,102.136,148.449Z" fill="#fff"/>
    <path id="Path_11" data-name="Path 11" d="M108.647,156.211a4.942,4.942,0,0,1-1.573-2.28c-.054-.326-.109-.434-.054-.543a5.217,5.217,0,0,1,1.085,1.574A12.1,12.1,0,0,1,108.647,156.211Z" fill="#fff"/>
    <path id="Path_12" data-name="Path 12" d="M112.174,160.879a3.673,3.673,0,0,0-.326-.489,5.3,5.3,0,0,1-.271-.6c.054.055.109.109.109.163A3.067,3.067,0,0,1,112.174,160.879Z" fill="#fff"/>
    <path id="Path_13" data-name="Path 13" d="M113.368,162.941a1.41,1.41,0,0,1-.217-.271,1.565,1.565,0,0,1-.272-1.032.234.234,0,0,1,.055-.162,1.494,1.494,0,0,1,.217.271,1.563,1.563,0,0,1,.271,1.031A.424.424,0,0,0,113.368,162.941Z" fill="#fff"/>
    <path id="Path_14" data-name="Path 14" d="M115.592,166.036a2.106,2.106,0,0,1-1.03-.977,1.7,1.7,0,0,1-.326-1.086c.054-.163.163-.271.271-.271s.109.054.163.108a.329.329,0,0,1,.054.217,2.465,2.465,0,0,0,.6,1.466,1.4,1.4,0,0,1,.271.543Z" fill="#fff"/>
    <path id="Path_15" data-name="Path 15" d="M135.668,306.234h-.163a.482.482,0,0,1-.326-.543c.163-.759-1.247-4.179-1.953-4.885a8.75,8.75,0,0,1-.976-2.116c-.217-.652-.706-1.846-1.14-1.954s-1.465-1.52-2.55-3.908a6.2,6.2,0,0,0-1.411-2.117,3.6,3.6,0,0,1-.868-1.737c-.108-.543-.434-1.574-.814-1.683-.922-.217-5.046-8.521-6.728-13.84-1.248-4.017-1.79-5.862-2.061-7.111l-.326-1.52h-.326l-.325,2.334a29.006,29.006,0,0,0,0,8.685c1.031,5.156,2.387,7.653,8.518,15.686,3.364,4.4,6.945,10.367,6.837,10.91-.163.163-.163.271-.109.38s.109.163.38.163h.054c.38,0,1.14,1.139,1.465,2.225.163.6.109.868,0,.977a.2.2,0,0,1-.162.054c-.217,0-.489-.325-.814-.922a5.287,5.287,0,0,1-.6-1.52,1.672,1.672,0,0,0-.6-1.194,1.332,1.332,0,0,1-.488-.977.678.678,0,0,0-.434-.815,4.463,4.463,0,0,1-1.3-1.3c-.543-.706-1.465-1.954-2.171-2.823-.651-.868-1.628-2.225-2.116-2.985a22.711,22.711,0,0,0-1.682-2.28c-.38-.434-1.248-1.628-1.9-2.6a31.692,31.692,0,0,0-2.333-3.148,7.877,7.877,0,0,1-1.356-2.225,2.859,2.859,0,0,0-.977-1.52c-.38-.217-.488-.434-.488-.489.108-.325-1.411-3.093-1.737-3.636-1.085-1.954-1.682-3.2-1.736-3.365.054-.272-.76-1.249-.922-1.466a2.671,2.671,0,0,1-.76-1.52,7.367,7.367,0,0,0-1.139-2.876,11.013,11.013,0,0,1-1.14-2.5,7.708,7.708,0,0,0-.705-2.063c-.434-.922-1.14-2.714-1.682-4.071s-1.031-2.659-1.14-2.931a65.915,65.915,0,0,1-4.72-16.554c-.054-.543-.326-2.28-.651-2.388a4.58,4.58,0,0,1-.217-1.629c-.054-.922-.163-2.334-.271-3.039-.6-3.963-.054-7.762,2.333-17.043,2.55-9.988,3.526-12.919,4.666-14.384l.868-1.14.814.814a3.883,3.883,0,0,1,1.031,1.574c.217,1.086,4.069,9.01,4.612,9.228a2.562,2.562,0,0,1,.651,1.194,37.805,37.805,0,0,0,2.5,4.885,33.538,33.538,0,0,1,2.387,4.83,3.04,3.04,0,0,0,.868,1.683,6.325,6.325,0,0,1,1.031,2.334c.326,1.14.76,2.6.977,3.2a31.921,31.921,0,0,1,.217,7.871c-.109,1.791-1.954,11.126-2.822,14.492a30.161,30.161,0,0,0-.162,14.275c.054.271.6,1.845,1.247,3.582a14.976,14.976,0,0,1,1.031,3.311,4.231,4.231,0,0,0,.651,1.628,2.841,2.841,0,0,1,.6,1.52.881.881,0,0,0,.055.651c.054.109.108.163.217.163a6.329,6.329,0,0,1,.759,1.629,43.69,43.69,0,0,0,2.767,5.264c3.473,5.808,7.271,12.919,7.705,14.33.163.543.543,1.465.922,1.519.326.272,1.52,4.614,1.3,5.374C135.939,306.18,135.831,306.234,135.668,306.234Zm-28.811-50.7c.108,0,.163.054.163.109a3.167,3.167,0,0,0,0,1.248,80.161,80.161,0,0,0,2.875,9.01c.109.109.706,1.683,1.411,3.637.868,2.442,1.573,3.69,2.008,3.69a.284.284,0,0,0,.217-.108c.108-.109.271-.434.162-1.574-.271-3.311.272-7.49,2.171-16.609,1.682-8.087,2.713-14.818,2.658-17.206-.054-1.248-.054-2.66-.054-3.2.109-3.2-1.79-8.3-6.023-16.012-1.085-1.954-2.278-4.234-2.658-5.157-.489-1.085-.6-1.3-.814-1.3s-.326.325-.38.651a5.609,5.609,0,0,0,0,1.9,32.177,32.177,0,0,1-.217,5.59c-.217,2.606-.434,5.157-.488,5.7s-.163,1.846-.326,2.931a12.761,12.761,0,0,0,0,3.528,3.677,3.677,0,0,1-.163,2.063c-.108.109-.162.217-.217.271-.054-.162-.054-.434-.108-.542a2.311,2.311,0,0,1,.108-1.086.335.335,0,0,0,.109-.38.554.554,0,0,0-.271-.434c-.109-.054-.217-.76.108-2.008a6.736,6.736,0,0,0,.163-2.66,4.711,4.711,0,0,1-.109-1.9,21.479,21.479,0,0,0-.325-4.505,16.148,16.148,0,0,1-.271-3.8,4.88,4.88,0,0,0-.272-2.226,4.859,4.859,0,0,1-.271-2.008,11.749,11.749,0,0,0-.434-4.939.271.271,0,0,0-.434,0c-1.248,1.954-4.341,13.678-4.341,16.5a24.516,24.516,0,0,1-.325,3.583,5.454,5.454,0,0,0-.055,2.279,9.942,9.942,0,0,1,.272,2.551,32.32,32.32,0,0,0,.6,4.994c.325,1.628.813,4.234,1.139,5.753a28.572,28.572,0,0,1,.488,2.986c-.054.217,1.14,3.636,1.357,4.288a34.905,34.905,0,0,1,1.41,4.776c.055.543.217.868.543.868h.109c.325-.108.488-.434.434-.922,0-.163,0-.272.054-.326Z" fill="#fff"/>
    <path id="Path_16" data-name="Path 16" d="M265.4,267.046a.629.629,0,0,1-.489-.434.748.748,0,0,0-.705-.543h-.054a8.436,8.436,0,0,1-2.225-1.357c-1.031-.76-2.17-1.628-2.55-1.954-.38-.271-1.628-1.031-2.821-1.737-1.954-1.085-6.023-3.8-7.6-4.939-2.117-1.52-9.007-4.451-10.581-4.451-.271,0-.38.055-.434.217,0,.055-.163.163-.325.163h-.38a10.6,10.6,0,0,0-2.5.6,8.568,8.568,0,0,1-2.333.543c-.326,0-.38-.109-.38-.109a.267.267,0,0,1,.054-.162.407.407,0,0,1,.163-.163c.054.054.109.054.217.054a5.755,5.755,0,0,0,1.736-.706,15.578,15.578,0,0,1,4.667-1.194,13.491,13.491,0,0,0,3.8-.76.875.875,0,0,1,.488-.162.2.2,0,0,1,.163.054.664.664,0,0,0,.488.163,2.772,2.772,0,0,0,1.085-.217,3,3,0,0,1,.814-.163c0,.054,0,.054.054.108a.282.282,0,0,0,.217.109,1.208,1.208,0,0,0,.543-.163,1.084,1.084,0,0,1,.488-.108,1.244,1.244,0,0,1,.76.217,1.3,1.3,0,0,0,.651.217.363.363,0,0,0,.38-.272,1.153,1.153,0,0,1,.814-.217h3.635c2.5,0,2.5,0,2.984.38l.054.054c.109.109.217.218.217.326a.2.2,0,0,1-.054.163c-.054.054-.163.163-.108.271l.054.109h.163c.054,0,.162,0,.651-.271a2.6,2.6,0,0,1,1.193-.326.886.886,0,0,1,.814.326.738.738,0,0,1-.271.705.821.821,0,0,1-.651.217,13.491,13.491,0,0,1-2.659-.543,18.284,18.284,0,0,0-4.449-.705h-.434c-.651.054-1.356.054-1.953.054h-1.3a9.235,9.235,0,0,0-1.248.054c-.163,0-.326.055-.489.055a2.155,2.155,0,0,1-.814-.109c-.054-.054-.162-.054-.325-.054a2.377,2.377,0,0,0-1.085.38c-.38.271-.6.434-.6.651,0,.272.38.434,1.356.869,3.581,1.519,4.07,1.791,4.938,2.5a6.029,6.029,0,0,0,1.736,1.032,7.689,7.689,0,0,1,2.17,1.3c2.171,1.683,3.961,2.986,6.186,4.4a17.455,17.455,0,0,1,2.821,2.279,12.609,12.609,0,0,0,2.171,1.954,3.249,3.249,0,0,1,1.139,1.14C265.561,266.938,265.507,267.046,265.4,267.046Z" fill="#fff"/>
    <path id="Path_17" data-name="Path 17" d="M267.84,269.325c.272.163.6.272.76.163s-.054-.271-.434-.326C267.732,269.054,267.569,269.162,267.84,269.325Z" fill="#fff"/>
    <path id="Path_18" data-name="Path 18" d="M270.39,271.116a.413.413,0,0,1-.217-.054.815.815,0,0,1-.488-.543v-.163a.587.587,0,0,1,.38.163c.38.217.542.489.488.6Z" fill="#fff"/>
    <path id="Path_19" data-name="Path 19" d="M102.462,283.058c-.109.434-.054.543.163.271.163-.271.271-.6.163-.76C102.733,282.461,102.57,282.678,102.462,283.058Z" fill="#fff"/>
    <path id="Path_20" data-name="Path 20" d="M105.772,287.509c-.109-.054-.217-.163-.163-.271,0-.109.054-.163.054-.217a.875.875,0,0,1,.163.325v.109h-.054C105.826,287.509,105.826,287.509,105.772,287.509Z" fill="#fff"/>
    <path id="Path_21" data-name="Path 21" d="M135.4,310.088c-.055,0-.163-.108-.38-.38a8.73,8.73,0,0,1-1.682-3.093c.054-.109.054-.163.108-.163.109,0,.38.163,1.248,1.465A3.909,3.909,0,0,1,135.4,310.088Z" fill="#fff"/>
    <path id="Path_22" data-name="Path 22" d="M170.339,69.584a.6.6,0,0,1-.217-.271c-.326-.543-.326-.6.379-1.3.326-.271.652-.706.6-.977,0-.108-.108-.163-.217-.217-.054,0-.054,0-.054-.054a.168.168,0,0,1,.054-.108c.163-.163.217-.163.272-.163.162.217.108.923-.326,1.954A4.75,4.75,0,0,1,170.339,69.584Z" fill="#fff"/>
    <path id="Path_23" data-name="Path 23" d="M168.874,72.624a.5.5,0,0,1,.162-.271l.163-.163a2.075,2.075,0,0,1-.163.217A.748.748,0,0,1,168.874,72.624Z" fill="#fff"/>
    <path id="Path_24" data-name="Path 24" d="M167.192,77.834a5.323,5.323,0,0,0,.163-.814c.217-.923.542-1.52.705-1.52a.411.411,0,0,0,.217-.109c-.217.543-.488,1.14-.7,1.628A6.2,6.2,0,0,1,167.192,77.834Zm1.3-2.931a.2.2,0,0,0-.054-.163.491.491,0,0,1,.162-.543c.109-.109.217-.163.272-.217a2.033,2.033,0,0,1-.272.76C168.548,74.794,168.494,74.848,168.494,74.9Z" fill="#fff"/>
    <path id="Path_25" data-name="Path 25" d="M158.131,107.09c-.055,0-.055-.055-.055-.109a3.847,3.847,0,0,1,.6-2.5,1.97,1.97,0,0,1,.217-.271,4.1,4.1,0,0,1-.163,1.628c-.217.977-.434,1.249-.6,1.249Z" fill="#fff"/>
    <path id="Path_26" data-name="Path 26" d="M211.737,131.786a.053.053,0,0,1-.054-.054c-.054-.109-.054-.434.543-1.574.163-.326.325-.434.38-.434a2.433,2.433,0,0,1-.38,1.519C212.009,131.623,211.792,131.786,211.737,131.786Z" fill="#fff"/>
    <path id="Path_27" data-name="Path 27" d="M208.645,140.525a3,3,0,0,1,.814-1.846l.488-.488a6.179,6.179,0,0,1-1.3,2.334C208.7,140.471,208.645,140.471,208.645,140.525Z" fill="#fff"/>
    <path id="Path_28" data-name="Path 28" d="M191.011,180.365a6.437,6.437,0,0,1,.163-.76,7.966,7.966,0,0,1,.922-2.062,6.235,6.235,0,0,0,.868-1.846,27.305,27.305,0,0,1,1.411-3.419c.705-1.466,1.465-3.04,1.682-3.583.217-.488.7-1.465,1.031-2.171a7.082,7.082,0,0,0,.6-1.682c0-.6,3.744-8.739,6.239-13.461a12.834,12.834,0,0,0,1.14-2.986,5.889,5.889,0,0,1,.976-2.116,2.467,2.467,0,0,0,.706-1.412,5.2,5.2,0,0,1,.868-1.628,3.307,3.307,0,0,1,.76-.868,7.806,7.806,0,0,1-.869,2.442c-.6,1.357-1.41,3.528-1.79,4.722s-1.14,3.42-1.736,4.777c-.6,1.411-1.52,3.636-2.062,4.885-.543,1.3-1.465,3.473-2.008,4.83a109.355,109.355,0,0,1-4.937,10.15c-1.519,2.877-2.225,4.234-2.5,4.234h-.054c-.055,0-.109,0-.217.109a1.2,1.2,0,0,0-.217.705,1.181,1.181,0,0,1-.6.923A.683.683,0,0,1,191.011,180.365Z" fill="#fff"/>
    <path id="Path_29" data-name="Path 29" d="M189.763,182.753c0-.054.054-.109.108-.217.163-.38.38-.869.489-1.14a.4.4,0,0,1,.325-.271c.055,0,.163.054.163.217a1.618,1.618,0,0,1-.814,1.357A.657.657,0,0,0,189.763,182.753Z" fill="#fff"/>
    <path id="Path_30" data-name="Path 30" d="M186.887,188.289h-.054c-.054,0-.108-.054-.163-.108a.1.1,0,0,1,0-.163c0-.109.109-.163.217-.163h.055c.108.054.217.163.162.271C187.1,188.235,187,188.289,186.887,188.289Z" fill="#fff"/>
    <path id="Path_31" data-name="Path 31" d="M223.946,258.633h-.055a.547.547,0,0,1,.109-.271.992.992,0,0,1,.542-.38c.109,0,.109.054.109.109A.719.719,0,0,1,223.946,258.633Z" fill="#fff"/>
    <path id="Path_32" data-name="Path 32" d="M219.822,259.284H219.5a1.483,1.483,0,0,1,.977-.543,4.473,4.473,0,0,1,.977-.162c.217,0,.271.054.271.054v.163A4.342,4.342,0,0,1,219.822,259.284Z" fill="#fff"/>
    <path id="Path_33" data-name="Path 33" d="M217.652,259.881a.959.959,0,0,1-.6-.163.557.557,0,0,1,.325-.271,2.441,2.441,0,0,1,.706-.163c.162,0,.325.054.38.38C218.411,259.773,218.086,259.881,217.652,259.881Z" fill="#fff"/>
    <path id="Path_34" data-name="Path 34" d="M212.117,262.432c-.108,0-.217,0-.217-.054-.054-.271.76-1.085,2.116-1.682a5.639,5.639,0,0,1,1.628-.489h.054c0,.109-.108.217-.217.326a2.839,2.839,0,0,1-1.627.868h-.272a.749.749,0,0,0-.705.543.8.8,0,0,1-.651.488Z" fill="#fff"/>
    <path id="Path_35" data-name="Path 35" d="M206.963,264.875a8.612,8.612,0,0,1,1.736-1.466,5.423,5.423,0,0,1,2.388-1.139c.054,0,.108,0,.108.054v.108a14.557,14.557,0,0,1-2.387,1.574A6.579,6.579,0,0,1,206.963,264.875Z" fill="#fff"/>
    <path id="Path_36" data-name="Path 36" d="M204.3,266.884h0c-.163-.109-.054-.38.217-.706a1.532,1.532,0,0,1,.923-.489h.108v.055A1.963,1.963,0,0,1,204.3,266.884Z" fill="#fff"/>
    <path id="Path_37" data-name="Path 37" d="M200.723,269.651a.422.422,0,0,1-.163-.325c0-.272.326-.6,1.085-1.14a3.711,3.711,0,0,1,.923-.543,1.741,1.741,0,0,1-.38.706A4,4,0,0,1,200.723,269.651Z" fill="#fff"/>
    <path id="Path_38" data-name="Path 38" d="M199.1,271.008a.116.116,0,0,1-.108-.108.656.656,0,0,1,.325-.489.539.539,0,0,1,.326-.108c.054,0,.054,0,.109.054a.536.536,0,0,1-.109.326.741.741,0,0,1-.543.325Z" fill="#fff"/>
    <path id="Path_39" data-name="Path 39" d="M197.847,272.582c-.054-.054-.054-.109-.054-.271.054-.272.217-.38.326-.38s.163.054.163.108a.1.1,0,0,1,0,.163C198.282,272.311,198.065,272.473,197.847,272.582Z" fill="#fff"/>
    <path id="Path_40" data-name="Path 40" d="M196.871,273.667h-.163a.537.537,0,0,1-.38-.271.52.52,0,0,1,.326-.38c.054,0,.054-.054.108-.054a.468.468,0,0,1,.326.163.421.421,0,0,1,.108.434A.457.457,0,0,1,196.871,273.667Z" fill="#fff"/>
    <path id="Path_41" data-name="Path 41" d="M188.244,283.112s-.055,0-.109-.271a3.176,3.176,0,0,1,.923-1.52c.6-.706,1.682-1.9,2.387-2.823a13.08,13.08,0,0,1,2.442-2.279c.6-.38,1.248-.977,1.3-1.357a1.6,1.6,0,0,1,.38-.6.2.2,0,0,1,.162-.055.193.193,0,0,1,.163.109.883.883,0,0,1-.108.706,9.173,9.173,0,0,1-1.465,1.465,15.267,15.267,0,0,0-2.062,2.117C189.871,281.484,188.569,283.112,188.244,283.112Z" fill="#fff"/>
    <path id="Path_42" data-name="Path 42" d="M54.5,250.98h-.108a.7.7,0,0,1-.6-.543.521.521,0,0,1,.163-.543.3.3,0,0,1,.271-.108.47.47,0,0,1,.326.162,1,1,0,0,1,.217.706C54.823,250.708,54.769,250.98,54.5,250.98Z" fill="#fff"/>
    <path id="Path_43" data-name="Path 43" d="M59.815,251.414c-.054,0-.109,0-.271-.108a1.133,1.133,0,0,0-.6-.217.614.614,0,0,0-.434.163.661.661,0,0,1-.271.054,1.439,1.439,0,0,1-.651-.163,8.767,8.767,0,0,0-1.519-.6h.6a6.131,6.131,0,0,1,3.255.76C59.924,251.414,59.869,251.414,59.815,251.414Z" fill="#fff"/>
    <path id="Path_44" data-name="Path 44" d="M62.637,252.066h-.109c-.109-.055-.217-.055-.271-.163a.17.17,0,0,1-.054-.109c0-.054.054-.108.163-.108h.054a.488.488,0,0,1,.326.325S62.745,252.066,62.637,252.066Z" fill="#fff"/>
    <path id="Path_45" data-name="Path 45" d="M64.644,252.716H64.59c-.108-.054-.217-.162-.163-.271,0-.108.108-.163.217-.163H64.7c.054,0,.108.055.163.109a.1.1,0,0,1,0,.163C64.861,252.662,64.753,252.716,64.644,252.716Z" fill="#fff"/>
    <path id="Path_46" data-name="Path 46" d="M51.242,251.088a3.87,3.87,0,0,1-2.55-.705,2.048,2.048,0,0,0-.434-.38c.434-.109.922-.217,1.248-.271.217,0,.38-.055.6-.055a3.968,3.968,0,0,1,2.55.706c.054.108.109.163.054.271C52.6,250.871,52.165,251.088,51.242,251.088Zm-5.426-.162c-.217,0-.38,0-.434-.055a1.01,1.01,0,0,1,.38-.108h.271a6.142,6.142,0,0,0,1.791-.652.692.692,0,0,0-.054.326.548.548,0,0,1-.108.38h-.326a9.666,9.666,0,0,0-1.194.054A.943.943,0,0,1,45.817,250.926Z" fill="#fff"/>
    <path id="Path_47" data-name="Path 47" d="M44.135,251.2H44.08c-.054,0-.108-.054-.163-.109a.1.1,0,0,1,0-.162c0-.109.109-.163.217-.163h.054c.054,0,.108.054.163.108a.1.1,0,0,1,0,.163C44.3,251.088,44.243,251.2,44.135,251.2Z" fill="#fff"/>
    <path id="Path_48" data-name="Path 48" d="M40.174,252.88a.053.053,0,0,1-.054-.055.551.551,0,0,1-.163-.543c0-.108.109-.162.217-.162h.054c.109,0,.163.217.109.488A1.24,1.24,0,0,1,40.174,252.88Z" fill="#fff"/>
    <path id="Path_49" data-name="Path 49" d="M34.694,256.028a.515.515,0,0,1-.38-.109c-.054-.054,0-.271.163-.38a.665.665,0,0,1,.488-.163.827.827,0,0,1,.543.218.2.2,0,0,1,.054.162A2.009,2.009,0,0,1,34.694,256.028Z" fill="#fff"/>
    <path id="Path_50" data-name="Path 50" d="M107.074,238.822c-.38-1.629-.271-3.04-.054-3.148l.217-.109c0,.054-.055.109-.109.217a1.311,1.311,0,0,0,.109,1.248,2.981,2.981,0,0,1,.054,1.737l-.163.543Z" fill="#fff"/>
    <path id="Path_51" data-name="Path 51" d="M106.423,242.241a1.44,1.44,0,0,1,.054-.38,4.691,4.691,0,0,0,.054-1.248c-.054-.217,0-.272.055-.326a.189.189,0,0,1,.108-.054h.163c.163.054.217.108.217.163.108.163.054.434-.109.922A2.062,2.062,0,0,1,106.423,242.241Z" fill="#fff"/>
    <path id="Path_52" data-name="Path 52" d="M106.531,254.4a2.139,2.139,0,0,1-.163-.706.054.054,0,0,0,.055.055,2.128,2.128,0,0,1,.162.705C106.531,254.453,106.531,254.453,106.531,254.4Z" fill="#fff"/>
  </g>
</svg>
