<svg xmlns="http://www.w3.org/2000/svg" width="312.502" height="472.728" viewBox="0 0 312.502 472.728">
  <g id="vector-leaf-1" transform="translate(0 -0.996)">
    <path id="Path_1" data-name="Path 1" d="M162.3,1.514a84.735,84.735,0,0,0-5,7.5c-7.3,11.7-10.6,16.7-12.7,18.9a9.183,9.183,0,0,0-1.7,2.7c-.2.7-.5,1.1-.8,1s-.7.4-1.1,1.1c-.7,1.4-1,1.7-5,6.4-1.7,2-3.1,3.8-3.2,4-.1.4-1.4,2-8.7,10.3a46.381,46.381,0,0,0-5.4,7.2,7.532,7.532,0,0,1-1.7,2.3,10.42,10.42,0,0,0-1.8,2.7,19.725,19.725,0,0,1-1.8,3.6,91.669,91.669,0,0,0-6.6,14.4c-4.3,12-5.9,18.9-6.4,26.9-.2,2.7-.4,6.2-.5,7.9a26.923,26.923,0,0,0,0,4.1,6.039,6.039,0,0,1,0,1.9,7.737,7.737,0,0,0,.2,2.9,21.165,21.165,0,0,1,.3,2.7c-.3.9,1.4,11.2,2.6,15.5.3,1,.8,3,1.1,4.4a15.566,15.566,0,0,0,1.1,3.3,2.156,2.156,0,0,1,.4,1.4c-.1.4,0,.7.3.8a.691.691,0,0,1,.3.8,3.252,3.252,0,0,0,.8,2.1,29.207,29.207,0,0,1,1.8,3.9,44.909,44.909,0,0,0,2.2,5.5c6.4,13.2,6.8,20.6,2.3,36-1,3.5-2.4,8.6-3.1,11.5-1.1,4.5-5.9,18.4-8,23.4-.4,1-1.1,2.6-1.5,3.6s-2.1,4.9-3.7,8.7-3.1,7.2-3.2,7.6c-.2.5-.4.3-.9-.8-1.5-3.3-2.2-5.8-2-6.4a22.484,22.484,0,0,0-1.4-5.4,46.384,46.384,0,0,1-1.9-7.6,19.79,19.79,0,0,0-.9-4.1,49.24,49.24,0,0,1-2.2-8.3,22.672,22.672,0,0,0-.9-2.9,30.62,30.62,0,0,1-1.5-5.4c-.3-1.6-.9-4.2-1.4-6a62.35,62.35,0,0,1-2.2-8.8,14.716,14.716,0,0,0-.9-3.4,3.443,3.443,0,0,1-.4-1.9,1.741,1.741,0,0,0-.5-1.5c-.7-.9-.5-1.9,1.3-4.9,2.3-3.8,4.7-8.9,4.9-10.2.1-.7.3-2,.4-3a11.912,11.912,0,0,0-.1-3.3,16.166,16.166,0,0,1-.2-3.2,50.548,50.548,0,0,0-1.8-11.4c-2.2-7-3-8.2-7.7-12.5-1.5-1.4-2.7-1.9-7.8-3.5-6.3-1.9-9.6-2.3-11.1-1.3-2.8,1.9-6.7,13.3-6.8,19.7a51.82,51.82,0,0,0,2.1,13.7c2.8,7.5,8.4,14.4,13.2,16.2,4,1.5,6.1,2.7,7.5,4.6a8.314,8.314,0,0,0,1.8,1.9c1.1.3,3.9,8.7,5,14.7a23.721,23.721,0,0,0,1.8,5.3,75.4,75.4,0,0,1,2.7,7.8,70.014,70.014,0,0,0,2.2,7.3,18.594,18.594,0,0,1,1,3.3c0,1.2,2.6,10.9,3.6,13.7a8.8,8.8,0,0,1,.6,2.1,12.744,12.744,0,0,0,.2,2.3c.5,4.4.6,11,.2,12.6a14.68,14.68,0,0,1-1.5,3.4,32.137,32.137,0,0,0-3,7.3l-.5,1.5-1.7-1.7a20.007,20.007,0,0,1-2.8-3.7c-.6-1.1-1.4-2-1.8-2s-.7-.4-.7-1c0-1.2.1-1.2-1.5-1.1-1.4.1-1.3-.1-5,9.8a26.579,26.579,0,0,0-2.1,7.9c-.4,5.1.3,13.6,1.2,15.2a2.149,2.149,0,0,1,.3,1.5,4,4,0,0,0,.8,2c2,2.8,1.9,3.8-.2,9.8-1.9,5.2-6.4,19.2-9,27.8-.7,2.2-2.3,8.5-3.8,14-1.4,5.5-2.9,10.6-3.2,11.1-.4.6-.6.7-.5.3.2-1-.8-6.1-1.4-7.4a13.543,13.543,0,0,1-.9-3,10.947,10.947,0,0,0-.6-2.3,13.314,13.314,0,0,1-.6-2.3c-.4-1.7-2.2-8.2-3.7-12.9-.2-.8-.6-2.2-.8-3.1a11.811,11.811,0,0,0-.8-2.3,24.832,24.832,0,0,1-1.2-3.8c-.5-1.7-2-6.2-3.3-9.9a53.476,53.476,0,0,1-2.3-7.4,1.791,1.791,0,0,0-.4-1.3,17.454,17.454,0,0,1-1.2-3.7c-.4-1.6-.9-3-1.2-3.1-.2-.1-.3-.6-.2-1.1a3.4,3.4,0,0,0,0-2,14.342,14.342,0,0,1,.3-3.8,16.569,16.569,0,0,0,.4-4c-.1-1.2.2-4.3.9-10.3a45.983,45.983,0,0,0,.4-4.9,37.311,37.311,0,0,1,.4-4.6,113.109,113.109,0,0,0,.6-12.6c0-2.1.1-4.4.2-5.3.2-2-.1-6.2-.5-6.7a1.64,1.64,0,0,1,0-1.4c.4-1.3-.9-12.4-1.7-15.1-.4-1.2-.9-3.5-1.2-5a28.021,28.021,0,0,0-1.9-5.8,15.211,15.211,0,0,1-1.4-4.2c0-.6-.2-1.2-.4-1.2a9.539,9.539,0,0,1-1.3-2.6,32.179,32.179,0,0,0-2.3-5c-.7-1.4-1.9-3.5-2.4-4.6-.6-1.1-1.3-2.5-1.6-3.1a110.05,110.05,0,0,1-4.7-10.1c-1.4-3.3-3.1-6.7-3.5-6.8-.3-.1-2,2.8-3,5.2a15.423,15.423,0,0,1-1.3,2.8c-.4.4-4.3,9.6-6.3,14.9-2,4.7-4.9,15.8-4.8,17.4a9.559,9.559,0,0,1-.3,2.8c-1,3.4-.9,16.3.1,18.4a2.83,2.83,0,0,1,.2,1.5c-.3,1,1.3,9.5,2.4,12.7a25.844,25.844,0,0,1,1.5,5.8,17.006,17.006,0,0,0,1.4,4.2,26.122,26.122,0,0,1,1.1,3,8.72,8.72,0,0,0,1.1,2.8c.6,1.4,1.6,3.5,2.3,4.9,1.7,3.6,4,7.7,4.4,7.8a19.908,19.908,0,0,1,2.2,3.1c1,1.7,2,3.1,2.4,3.2a5.99,5.99,0,0,1,1.6,1.8c1.2,2,3.6,4.6,4.4,4.9a1.643,1.643,0,0,1,1,1,1.643,1.643,0,0,0,1,1,19.142,19.142,0,0,1,3,2.6c1.3,1.4,2.6,2.5,2.7,2.6,1.1.4,3.6,6.6,5,12.8.2.8.7,2.3,1.1,3.4.7,1.8,2.2,7.1,3.5,12.2l.6,2.2-1.3-1.3c-.7-.8-1.6-1.6-1.9-2a125.873,125.873,0,0,0-12.6-10.3c-3.3-2.3-4.2-3.3-5.3-5.4-1-1.8-1.7-2.7-2.6-2.9-2.9-.8-4.3.7-3.7,3.9.4,1.9,1.1,2.4,4.6,3.6a20.344,20.344,0,0,1,5.8,3.5c1.7,1.4,5,3.9,7.4,5.5,4.6,3,7.6,6,9,8.8a4.139,4.139,0,0,0,1.6,1.8c.7.2,1.3,1.9,4.5,12.5a17.751,17.751,0,0,0,1.7,4.4c.3.1.4.4.2.8a3.16,3.16,0,0,0,.5,1.9,3.16,3.16,0,0,1,.5,1.9,10.7,10.7,0,0,0,.3,3.2c1,5.2,1.1,10.9.2,11.7a16.312,16.312,0,0,0-1,4.1c-.3,2.1-1.2,6.7-1.9,10.4-1.5,7.1-2,10.1-1.8,10.9a18.69,18.69,0,0,1-.6,3.9,37.658,37.658,0,0,0-.8,6.2c-.1,1.6-.3,3.9-.5,5.3l-.4,2.5-.8-1.4c-1-1.6-3.3-11.9-3.4-15.1-.2-5.3-.7-10.9-1.2-11.8a3.7,3.7,0,0,1-.4-1.5c.3-.9-2.8-12.6-3.4-13.1a10.874,10.874,0,0,1-.9-2.9c-.7-3.5-2.5-7.3-6-12.4-.9-1.4-2.3-3.5-3-4.8-1.5-2.6-2.6-2.9-2.1-.5a53.171,53.171,0,0,0,3.3,6.7,35.783,35.783,0,0,1,3.1,6.3,1.417,1.417,0,0,0,.4,1.1c.7.2,4.8,13.9,5.9,19.5a96.122,96.122,0,0,1,1.4,11.1c.2,3.2.5,6.5.7,7.4l.3,1.7-1.1-2c-.6-1.1-2-4.1-3.1-6.6s-2.7-6-3.7-7.7a10.664,10.664,0,0,1-1.6-3.6c.1-.3-.5-1.1-1.2-1.9a5.159,5.159,0,0,1-1.3-2.7c0-1.2-.7-2-1-1-.2.6,2.4,9.4,2.8,9.7a12.391,12.391,0,0,1,1.2,2.7,29.056,29.056,0,0,0,1.2,3.2,30.132,30.132,0,0,1,1.2,3,46.948,46.948,0,0,0,2.1,4.8c.7,1.4,1.1,2.5.7,2.4a4.043,4.043,0,0,1-1.3-1.5,59.489,59.489,0,0,0-4.8-7c-1.6-2.2-8.9-15.7-9.6-17.8a9.18,9.18,0,0,0-1.3-2.7c-.3-.1-.5-.7-.6-1.4a15.778,15.778,0,0,0-.8-3.1c-1.9-4.9-3.8-15.5-3.8-21.6a10.564,10.564,0,0,0-.2-2.3,34.438,34.438,0,0,1,.2-6.3c.1-.3.5-.3.9-.2.7.2.7.2.2-.8a2.849,2.849,0,0,1-.4-1.6,1.022,1.022,0,0,0-.4-1,1,1,0,0,1-.4-1.1c.1-.4,0-.7-.3-.8-.2-.1-.5.3-.6.8s0,.9.2.8c.5-.2.1,3-.8,6.2-.4,1.5-.6,2.8-.4,3a9.431,9.431,0,0,1-.1,4.4c-.8,1.6,1.7,18.5,3.1,20.7a10.258,10.258,0,0,1,1,3.1,23.378,23.378,0,0,0,2.2,5.9c2.4,4.9,9.1,16.8,9.6,17,.5.1,1.2,1.3,3.7,5.4a23.863,23.863,0,0,0,2.3,3.4,5.087,5.087,0,0,1,1.1,1.6,4.85,4.85,0,0,0,1.2,1.6,40.486,40.486,0,0,1,3.4,3.7,20.952,20.952,0,0,0,4.3,4.3c1.6.8,2,2.6,1.4,6.6a18.961,18.961,0,0,0-.2,3.9,17.308,17.308,0,0,1-.4,4.1,16.42,16.42,0,0,0-.4,3.8,7.583,7.583,0,0,1-.3,2.8,3.6,3.6,0,0,0-.2,2.2c.2.2-.1,1.5-.6,2.9-.8,2-.8,2.6-.3,3,.5.3.5.8,0,1.4a7.607,7.607,0,0,0-.8,2.1c-.1.7-.8,3.3-1.5,5.7-.7,2.6-1.1,4.6-.9,4.7,1.4.4,6.4-19.7,6.1-24.4a21.065,21.065,0,0,1,.6-3.6c.4-1.6.7-4,.9-5.5.1-1.5.2-3.1.3-3.7,0-.5.1-2.1.2-3.4a38.752,38.752,0,0,1,.8-7.3,22.709,22.709,0,0,0,.4-4.6,12.193,12.193,0,0,1,.2-3.2c.2-1,.6-3.6.9-5.5,1.1-8.4,3.5-13.2,9.7-19.5a38.619,38.619,0,0,1,11.9-8.8c5.5-2.7,12.6-5.6,14.7-6a10.122,10.122,0,0,0,3.1-1.1,2.894,2.894,0,0,1,1.8-.5,4.392,4.392,0,0,0,2.3-.4c.9-.3,4-1,6.8-1.6,4.8-.9,5.2-.9,5.8,0,1.3,2.1,7.1,1.4,7.7-.9.9-3.2-3.2-5.2-6.9-3.3a34.608,34.608,0,0,1-6.6,1.9,112.861,112.861,0,0,0-22.1,6.4c-3.1,1.3-12.4,6.2-15.6,8.2-2.3,1.5-2.3,1.5-1.7.3.4-.7,1.3-2.1,2-3.2a32.665,32.665,0,0,0,1.9-3.2c1.7-3.6,2.1-4.3,3.3-5.4a8.537,8.537,0,0,0,1.5-1.8,11.6,11.6,0,0,1,2-2.7,20,20,0,0,0,2.4-3.3,4.4,4.4,0,0,1,1.2-1.6,14.958,14.958,0,0,0,2.2-3c1.5-2.4,5.8-8.2,8.3-11.3a5.383,5.383,0,0,0,1.2-1.8c.2-.6,6.1-7.5,17.2-19.8,7.4-8.2,9.3-10,12.9-12.4,6.4-4.2,6.3-4.1,9.5-4.1a26.875,26.875,0,0,1,3.8.2,131.631,131.631,0,0,1,15.9,5.8c7.5,3.6,8.2,3.9,11.8,4.9,2,.6,3.6,1.2,3.5,1.4,0,.2,2.2.9,5,1.5s5.8,1.4,6.7,1.6a6.76,6.76,0,0,0,2.7.3,25.3,25.3,0,0,1,4.4.2c6.1.8,7.8.7,12.4-.1a54.018,54.018,0,0,0,16.7-5.9c4-2.1,10.9-6.6,11.5-7.5a19.11,19.11,0,0,1,4.2-3.1c2-1.2,3.7-2.4,3.8-2.8.5-1.6-3.1-3.1-17.5-7.1a147.6,147.6,0,0,0-16.6-3.6c-1.5-.1-3.9-.4-5.4-.6a57.86,57.86,0,0,0-6.4-.4c-2,0-4.6-.2-5.7-.3a92.171,92.171,0,0,0-11.6.3c-.9.1-2.7.2-4.2.3a8.6,8.6,0,0,0-3.4.6,2.059,2.059,0,0,1-1.5.3,5.61,5.61,0,0,0-2.1.2c-.7.2-2.3.5-3.4.7a54.379,54.379,0,0,0-10.4,2.6c-1.2.5-3.5,1.2-5,1.7a52.31,52.31,0,0,0-5.7,2.3c-1.6.8-3.4,1.6-4,1.8-1,.4-1,.4-.2-.4a4.479,4.479,0,0,1,1.3-1,2.471,2.471,0,0,0,1.1-1.3,9.473,9.473,0,0,1,2.2-2.3c3-2.1,7.2-5.6,7.8-6.5a6.9,6.9,0,0,1,2-1.7,18.884,18.884,0,0,0,3.6-2.9c1.2-1.1,3.2-2.8,4.3-3.7a10.468,10.468,0,0,0,2.4-2.3,4,4,0,0,1,1.1-1.2c1.2-.7,9.7-10,11.7-12.5a46.954,46.954,0,0,1,3.8-4.3,15.908,15.908,0,0,0,2.4-2.7,7.867,7.867,0,0,1,1.1-1.4c.5-.6,3.1-4.2,5.6-8,3.9-5.9,4.8-6.8,5.4-6.4.8.6,1.5-.7.7-1.2a.633.633,0,0,1-.1-.9c.2-.3,1.1.3,2.4,1.9,2.5,2.9,9.7,8.7,14.3,11.4,1.8,1.1,3.7,2.3,4.2,2.7,1.4,1.2,2.7,1.6,3.6,1.4a1.111,1.111,0,0,1,1.4.5c.6.8.9.9,10.6,3.7,7.5,2.1,11.7,3,15,3.1a26.308,26.308,0,0,1,3.3.2c1.4.2,5.7.5,7.3.5.9,0,1.1.2.9.9-.3,1.1,1,3.1,2,3,1.1-.1,1.1-.9.2-2.5l-.8-1.4h1.8a15.134,15.134,0,0,1,2.6.2,2.059,2.059,0,0,0,1.5-.3c.9-.6,2.1-.4,1.9.3-.1.3.6.4,1.7.3,1.9-.2,2-.2,2.7,0,.3.1.6-.1.7-.5s.4-.5.7-.3c.7.5,6.1-.2,6.9-.9.4-.3.3-.4-.2-.3-.4.1-.5,0-.3-.2a2.866,2.866,0,0,1,1.9,0,6.528,6.528,0,0,0,3.3-.4,11.792,11.792,0,0,1,2.2-.7,59.432,59.432,0,0,0,7.6-2.3,23.542,23.542,0,0,1,2.6-.7,14.445,14.445,0,0,0,3.7-1.3,3.365,3.365,0,0,1,1.9-.7c.6.2,5.8-2.8,6.9-3.9,2.2-2.2,7-5.4,11.4-7.7l4.9-2.6-1.3-1.6c-1.7-2-8.5-8.1-9.4-8.4a5.826,5.826,0,0,1-1.9-1.6,8.149,8.149,0,0,0-2.6-1.8c-1.6-.4-1.6-1-.3-1.8.5-.3,1-.7,1-1a.548.548,0,0,1,.6-.4c.3.1.6-.2.7-.6s.1-.7,0-.8a6.978,6.978,0,0,0-2.9,1.7c0,.2-.9.6-2,1a38.073,38.073,0,0,0-4.7,2.2,44.445,44.445,0,0,1-6.2,2.6c-1.9.6-3.5,1.3-3.6,1.6a9.316,9.316,0,0,1-3.1,1.2,26.555,26.555,0,0,0-3.7,1.2,6.238,6.238,0,0,1-2.4.7,14.581,14.581,0,0,0-3.6,1.1,14.145,14.145,0,0,1-3.2,1,16.265,16.265,0,0,0-4,.8,153.5,153.5,0,0,1-18.6,3.1c-1.7.1-4.2.3-5.7.5a12.914,12.914,0,0,1-3.6-.1,5.69,5.69,0,0,0-2.6,0c-.8.2-1.6.1-1.7-.1a3.331,3.331,0,0,0-2.2-.1,26.623,26.623,0,0,1-6.5-.8,57.439,57.439,0,0,0-6.7-1.2c-4.6-.3-7.6-.7-9-1.4l-1.4-.7,2.2-.3c1.2-.2,4.3-.7,6.7-1.1,2.5-.4,5.7-.9,7.1-1.1,7.6-1.2,14.5-2.7,15-3.2a10.626,10.626,0,0,1,3.2-.8c1.5-.2,2.9-.6,2.9-.8.1-.5-2.4-.3-3.1.2a2.066,2.066,0,0,1-1.4.1c-.5-.1-1.1,0-1.1.2-.1.4-2.3.7-4.2.5a6.356,6.356,0,0,0-2.6.4,9.117,9.117,0,0,1-2.7.5,37.363,37.363,0,0,0-4.5.5,32.677,32.677,0,0,1-3.7.4,29.488,29.488,0,0,0-4.8.6c-2.4.4-5.7.8-7.4.9s-3.4.3-3.9.3c-.9.1-7.9-.2-10.2-.4-1.4-.1-1.4-.2.8-.9,1.2-.4,2.4-.9,2.6-1a30.146,30.146,0,0,1,3.3-1,70.4,70.4,0,0,0,19.7-8.5c2-1.2,7.2-4.2,11.7-6.6,10.2-5.5,9.2-4.9,12.8-7.1,3.7-2.2,6.8-3.6,7.6-3.3a1.791,1.791,0,0,0,1.3-.4,6.647,6.647,0,0,1,2.6-.8,11.91,11.91,0,0,0,3.8-1.2,6.875,6.875,0,0,1,2.6-.8,18.018,18.018,0,0,0,4.1-.3,34.18,34.18,0,0,1,4.1-.4,18.436,18.436,0,0,0,3.8-.4c1.8-.3,3.3-.5,3.4-.5.1.1,4.5.3,6.6.3,2.7-.1,5.3.5,13.5,2.9,4.5,1.3,9.2,2.7,10.6,3.1,2.9.9,2.7,1.1-2.6,2.8a30.715,30.715,0,0,0-4.6,1.8,10.576,10.576,0,0,1-2.7.9,16.273,16.273,0,0,0-3.7,1.3,18.08,18.08,0,0,1-3.4,1.3,4.621,4.621,0,0,0-2.1.9,2.763,2.763,0,0,1-1.8.5c-1.5,0-10.6,3-11.5,3.9a1.314,1.314,0,0,1-1.2.3,1.983,1.983,0,0,0-1.4.3c-.5.3-.6.6-.3.7a.959.959,0,0,0,.9-.2c.2-.2.6-.2,1,.1a.731.731,0,0,0,1.1-.2,2.546,2.546,0,0,1,1.9-.6c.8,0,1.7-.1,1.9-.4.5-.4,4.8-1.3,9.2-2a20.648,20.648,0,0,0,4.7-1.5c1.6-.7,3.6-1.4,4.5-1.7a57.692,57.692,0,0,0,10.6-4.6l3.9-2.2-1.1,2.2a36.988,36.988,0,0,1-2.5,4.3,12.844,12.844,0,0,0-1.6,3,2.9,2.9,0,0,1-.9,1.5c-.7.5-.6.5.5.2,1.7-.5,7.5-8.1,8.3-10.9.4-1.3-1.5-2.8-5.3-4.1-1.4-.5-4.2-1.5-6.1-2.3-5.7-2.3-17-5.1-18.6-4.6a65.5,65.5,0,0,1-7.4.1h-1.6l2.6-2.1c4.2-3.5,4.9-4.8,7.5-13.7,2-6.9,2.3-8.1,2-9.9a12.9,12.9,0,0,1,.4-5c.6-2.4.7-3.1.1-3.4-1.6-1-20-5.7-20.5-5.3a4.145,4.145,0,0,1-2.4.2c-2.8-.3-7,.4-8.2,1.3-1.6,1.3-1.7.7-.8-2.6,1.3-4.4,2.4-9.9,2.3-11.9a15.978,15.978,0,0,1,1-4.6c1-2.6,1-2.9.3-3.4a1.549,1.549,0,0,1-.7-1c.3-1.1-11.2-1.4-13.7-.4-.9.3-8.4.8-8.9.5a14.206,14.206,0,0,0-5,.2,1.9,1.9,0,0,1-1.3.1,2.414,2.414,0,0,0-1.6.3c-1,.6-2.6.2-2.4-.6.1-.3-.5.1-1.2.9a10.132,10.132,0,0,1-2.4,2c-.9.5-1,.4-.4-1.5,1.1-3.4,1.3-7.7.7-13.1a7.5,7.5,0,0,1-.1-2,15.9,15.9,0,0,0-.3-3.5,11.237,11.237,0,0,1,.7-3.7,7.008,7.008,0,0,0,.5-3.4c-.5-.9-3.4-.2-4.2.9-.3.5-.7.7-.9.5-.7-.8-9.4,5.6-13.6,9.9a14.367,14.367,0,0,1-2.4,2.1,5.814,5.814,0,0,0-1.7,1.8,5.8,5.8,0,0,1-1.5,1.6,12.766,12.766,0,0,0-1.8,2c-.5.8-2,3-3.2,4.8-2.7,4-7.6,12.1-7.4,12.2a6.664,6.664,0,0,1-1.1,1.6,37.806,37.806,0,0,0-3.4,7c-2.8,7.1-8.1,26.3-7.8,28.5a20.372,20.372,0,0,1,0,3.5c-.8,8.9-.8,10.6-.2,15a14.083,14.083,0,0,1,.1,2,82.468,82.468,0,0,0,1.6,10c.1.6.5,2,.7,3.1a48.2,48.2,0,0,0,2.3,6.5c1,2.4,1.8,4.9,1.6,5.4a1.655,1.655,0,0,0,.1,1.4,7.288,7.288,0,0,1,.7,2c.3,1.5.2,1.7-2.3,4.6a27.72,27.72,0,0,0-2.8,3.6,1.6,1.6,0,0,1-.7.9,22.533,22.533,0,0,0-2.4,3,22.715,22.715,0,0,1-2.7,3.5,6.183,6.183,0,0,0-1.5,2,15.6,15.6,0,0,1-2.6,3,40.543,40.543,0,0,0-4.1,4.7c-2.6,3.5-12.3,14.2-13.7,15.2-.6.4-2.7,2.3-4.7,4.2-4.5,4.2-6.7,6.2-11.4,10.2a66.112,66.112,0,0,0-7.9,7.5,38.11,38.11,0,0,1-3.7,3.4,11.639,11.639,0,0,0-2.5,2.5,9.914,9.914,0,0,1-2.3,2.3c-2.1,1.6-3,2.6-14.4,14.9-8,8.7-10.6,11.3-8.9,9.1a66.13,66.13,0,0,0,4-8.7c.4-1.1,1.2-2.8,1.6-3.8,1.5-3.6,4.3-19.8,3.6-21.2a4.147,4.147,0,0,1-.1-2.5c.4-1.6-.2-6.3-.8-6.4a1.268,1.268,0,0,1-.4-1.1c0-1.1-2.5-5.7-3.2-5.9a5.277,5.277,0,0,1-1.2-1.8,4.6,4.6,0,0,0-1.3-1.9,4.466,4.466,0,0,1-1.4-1.4c-.9-1.2-.9-1.2.4-2.8.7-.9,2.5-3.3,3.9-5.3,1.5-2.1,3.1-4.3,3.7-5,1.4-1.8,2.9-3.6,6.2-7.8a36.843,36.843,0,0,1,4.8-5.2c2.4-2,10.4-10.2,10.6-10.9.1-.5,19.8-17.3,20.6-17.7a64.777,64.777,0,0,0,6.1-4.6c1.2-1.1,1.8-1.5,5.3-3.5a4.463,4.463,0,0,1,2.6-.6c3,.8,6.6-1.6,6.8-4.7.2-2.3-1.2-3.6-3.7-3.2a6.078,6.078,0,0,0-4.6,3,40.672,40.672,0,0,1-5.8,4.9,103.909,103.909,0,0,0-11.8,9.2c-1.5,1.3-4.3,3.8-6.1,5.3-7.3,6.3-11.4,10.2-11.6,10.9a3.214,3.214,0,0,1-1.4,1.5c-1.1.8-1.1.7.9-4.1,2.6-6.2,3-7.2,4.8-11.9,4.9-13.5,6.7-16.5,13.8-23.5a56.773,56.773,0,0,0,4.7-5,3.683,3.683,0,0,1,2.1-.7c4.2-.7,5.5-5.4,2.1-7.3-1-.5-1.5-.5-3,.3s-1.9,1.4-2.4,3.2a6.823,6.823,0,0,1-1.7,3.1,75.461,75.461,0,0,0-8.8,9.6c-2.9,4-8.1,13.9-9,17.1-.1.4-.8,2.4-1.5,4.4s-2,5.5-2.7,7.6c-.8,2.2-1.6,4.3-1.8,4.8-3.6,7-8.3,13.4-17.7,24.1a13.881,13.881,0,0,0-1.7,2.4,8.137,8.137,0,0,1-1.7,2.3,10.952,10.952,0,0,0-2.1,3c-.9,1.9-3,4.2-3.6,3.8a1.044,1.044,0,0,1-.1-1.1c.2-.5.9-2.3,1.5-4a79.824,79.824,0,0,1,3.1-7.4c2.8-6.1,3.5-7.8,5.2-12.1a19.611,19.611,0,0,1,2-4.3,14.081,14.081,0,0,0,1.6-3.3,37.858,37.858,0,0,1,2.1-4.8,52.73,52.73,0,0,0,2.5-6.1c.8-2.3,1.9-5.1,2.4-6.4s3.4-11,6.5-21.8,5.8-19.7,6.1-19.9a26.033,26.033,0,0,0,2.2-3.7,44.1,44.1,0,0,1,9.3-12c1.5-1.3,3.4-3,4.1-3.8s2.4-2.8,3.8-4.4c1.4-1.7,3.5-4.1,4.5-5.3a129.691,129.691,0,0,0,10.3-13.9c1-1.6,2.9-4.8,4.3-7.1a46.05,46.05,0,0,0,3.1-5.6c.4-.9,1.2-2.7,1.8-4,6.3-13.1,8.5-19.2,11-31.6a116.954,116.954,0,0,0,1.7-23.1c-.1-1.3-.1-2.6-.1-3,.1-1.9-.5-7.2-.9-7.9a2.459,2.459,0,0,1-.1-1.7,3.8,3.8,0,0,0-.1-2.1,32.021,32.021,0,0,1-.7-3.9c-.1-1.5-.4-3.5-.5-4.4s-.2-1.8-.2-1.9a16.5,16.5,0,0,0-.5-2.3,30.063,30.063,0,0,1-.8-3.9,5.841,5.841,0,0,0-.5-2.2,12.06,12.06,0,0,1-1.4-5.4c.2-.5.1-1-.1-1a6.806,6.806,0,0,1-.9-2.6c-.3-1.4-.7-3.1-.9-3.9-.8-2.7-4.4-21.5-4.2-22.1.1-.4,0-.7-.2-.8a7.626,7.626,0,0,1-.5-2.9C163.6,1.014,163.3.414,162.3,1.514Zm-4.8,23.9c-1.5,5.3-3.1,10.4-3.6,11.6-.5,1.1-1.5,4.2-2.4,6.9s-1.7,5.1-2,5.3a31.219,31.219,0,0,0-1.8,4.5,152.147,152.147,0,0,1-5.8,14.6c-1.1,2.3-2.4,5.5-3,6.9a12.342,12.342,0,0,1-1.5,3.1c-.6.5-1.6,3.9-1.2,4a18.063,18.063,0,0,0,2.6-4.4c1.3-2.5,2.6-5.1,3-5.8s1.6-3.2,2.8-5.5,2.6-4.9,3.1-5.7c.8-1.3,2.8-5.4,5.8-12.2.6-1.4.7-2.1.3-2.8-.4-.8-.4-1,.3-1.3s1.1-1.6,2.5-7.3c1.9-7.7,2.7-8.6,1.3-1.3-.5,2.5-1.2,6.2-1.5,8.2s-.8,5.5-1.1,7.7c-.3,2.3-.6,5.3-.6,6.7a96.1,96.1,0,0,1-1.3,11.9,6.238,6.238,0,0,0,0,2.8.875.875,0,0,1-.1,1,8.191,8.191,0,0,0-.4,3.1,26.322,26.322,0,0,1-.6,5c-.3,1.2-.5,2.4-.3,2.6s-.1.9-.5,1.6a4.672,4.672,0,0,0-.7,2.4c.1.6.2.9.3.7s.3-.1.4.2c.3,1,2.4-8.6,3.1-14.3a28.854,28.854,0,0,1,.7-4.3c.7-2.7,2.4-13.4,2.2-14.2a13.123,13.123,0,0,1,.4-3.5,61.462,61.462,0,0,0,1.2-7.9c.3-3,.8-6.5,1.1-8,.3-1.4.6-3.2.7-4l.1-1.3.7,1.3a5.028,5.028,0,0,1,.4,3,5.731,5.731,0,0,0-.1,2.2,7.577,7.577,0,0,1,.1,2.3,13.05,13.05,0,0,0,.3,3.4c.2.9.4,2.5.5,3.5a3.219,3.219,0,0,0,.5,2c.2.1.3.5.2,1a1.778,1.778,0,0,0,.1,1.3,1.394,1.394,0,0,1,.1,1.3,5.462,5.462,0,0,0-.1,1.8c.5,2.5,1.4,9.2,1.6,11.7.1,1.6.3,3.6.4,4.4a12.034,12.034,0,0,1,0,3.8,28.134,28.134,0,0,0,.2,4.8l.4,3,.4-2.4a14.869,14.869,0,0,0,.2-3.4c-.1-.6-.1-1.1.1-1.1.2-.1.3-.9.3-1.8a28.127,28.127,0,0,1,.1-3,18.985,18.985,0,0,0-.1-3.3c-.1-1-.2-2.7-.2-3.6a101.9,101.9,0,0,0-1-14.2,18.436,18.436,0,0,1-.4-3.8,9.838,9.838,0,0,0-.3-2.5,37.8,37.8,0,0,1-.7-7.4,5.166,5.166,0,0,0-.7-2.1,4.214,4.214,0,0,1,0-3.8,16.609,16.609,0,0,0,0-3.3c-.2-3.1.1-3.9.6-1.4a40.867,40.867,0,0,0,1.2,4.1,8.718,8.718,0,0,1,.7,3,10.933,10.933,0,0,0,.6,3.1,24.556,24.556,0,0,1,.7,3,8.032,8.032,0,0,0,.8,2.6,9.013,9.013,0,0,1,.8,3.5,12.074,12.074,0,0,0,.5,3.4,7.082,7.082,0,0,1,.5,2.6,68.147,68.147,0,0,0,1.1,9.6,19.308,19.308,0,0,1,.3,3.4,4.568,4.568,0,0,0,.4,2,5.3,5.3,0,0,1,.4,2.3,18.219,18.219,0,0,0-.1,3.6,97.254,97.254,0,0,1-1.7,25.8,143.426,143.426,0,0,1-8.2,26.1c-4.6,9.7-5.5,11.5-7.1,14.4-.9,1.7-2.2,4-3,5.2-.7,1.2-1.9,3.1-2.6,4.3a12.312,12.312,0,0,1-1.7,2.5,21.542,21.542,0,0,0-2.3,3.1c-1.9,2.7-3.8,4.8-2.7,3,.3-.5,1.1-2.2,1.9-3.7.7-1.6,1.9-4,2.5-5.3a123.445,123.445,0,0,0,5.1-11.8,9.553,9.553,0,0,1,1.5-3.1c.3-.2,1.7-4.5,3.2-9.5s3.3-10.8,4-12.9a17.1,17.1,0,0,0,1.1-5.6c-.1-.9,0-1.8.2-1.9s.1-.2-.3-.1c-.5.1-.7.6-.8,1.6-.1,1.4-4.4,17.1-4.9,18-.1.2-.8,2.3-1.5,4.6-1.8,5.7-3.5,10-4.2,10.4a5.343,5.343,0,0,0-1.1,2.3c-.3,1.1-.8,1.9-1,1.9-.3-.1-.7.6-.9,1.5-.3.9-.7,1.7-.9,1.7a4.449,4.449,0,0,0-1.3,2,9.692,9.692,0,0,1-1.8,2.6,4.968,4.968,0,0,0-1.3,1.9,56.236,56.236,0,0,1-5.4,8.4c-.4.5-1.4,1.8-2.4,3.1-3.5,4.8-6.9,8.9-8,9.8l-1.2.9.8-1.6c.4-.9,1.3-2.7,1.9-4,1.2-2.4,6.2-15.5,8.8-23.1.7-2.1,2-5.7,2.8-8,2.1-6.1,7.2-23.8,8.7-30.1,1-4.4,1.1-5.8.7-6.6-.5-.9-.6-.9-.6.2a23.6,23.6,0,0,1-.8,3.8c-.5,1.4-1.6,5.5-2.6,8.9-.9,3.5-1.8,6.5-1.9,6.8-.1.2-.9,2.8-1.9,5.7a60.421,60.421,0,0,1-2.8,7.3,69.567,69.567,0,0,0-4.5,10.1,141.03,141.03,0,0,1-5.6,15.5c-3.3,8.2-3.9,9.5-5,11.1a10.917,10.917,0,0,0-1.9,3.8c-.2.5-.3.4-.7-.2-.4-.8-.5-4-.1-6.9a3.459,3.459,0,0,0-.2-1.8,3.043,3.043,0,0,1,0-1.9,29.664,29.664,0,0,0,.2-5.9,38.321,38.321,0,0,1,.1-5.5c.1-.4.3-3.8.4-7.5s.4-7.9.6-9.4a8.75,8.75,0,0,0,.1-3.2,12.56,12.56,0,0,1,.3-3.4c1.1-5.9,1.3-7.9.9-8.6-.5-.7-1.5-.2-1.2.7a38.256,38.256,0,0,1-1,5.6,31.988,31.988,0,0,0-.9,5.8,2.84,2.84,0,0,1-.1,1.8c-.5,1.3-1.2,6-.9,7.2a41.531,41.531,0,0,1-.4,5.7,121.262,121.262,0,0,0,.1,19.1,24.038,24.038,0,0,1,.1,3.9,13.536,13.536,0,0,0,.2,2.8.959.959,0,0,1,.2.9c-.1.4-.2.4-.5-.2-.4-.7-.6-1.3-1.3-4.6a22.289,22.289,0,0,0-1.3-3.9,6.187,6.187,0,0,1-.7-2.5,1.1,1.1,0,0,0-.4-1,9.176,9.176,0,0,1-1-2.9,4.786,4.786,0,0,0-1.1-2.5c-.3-.1-.6-.9-.7-1.8-.2-2.8-.9-5.4-1.4-5.3a.486.486,0,0,0-.3.6c0,.3.1,1.8.2,3.3a11.606,11.606,0,0,0,.8,4,3.409,3.409,0,0,1,.4,2.1,8.378,8.378,0,0,0,.4,2.8c.4,1.1.5,2.1.3,2.2s-.4-.2-.5-.6a31.625,31.625,0,0,0-1.1-3.1c-.5-1.2-1.2-3.3-1.7-4.5a24.375,24.375,0,0,0-1.5-3.5,3.689,3.689,0,0,1-.6-2,4.146,4.146,0,0,0-.4-2c-1.1-2.6-1.6-5.1-2.9-13.1a116.706,116.706,0,0,1-.6-23c1.1-11.2,5.1-25.7,9.6-34.7,1-1.9,2.5-4.9,3.4-6.7a51.291,51.291,0,0,1,2.9-5.1c.7-.9,2.1-3,3.2-4.7a56.412,56.412,0,0,1,3.6-4.7,11.424,11.424,0,0,0,1.9-2.5c.1-.4.8-1,1.4-1.4.6-.3,1.2-.7,1.2-.9a13.759,13.759,0,0,1,2.4-3.6c6-7.4,10.3-13.1,11.7-15.5.5-.8,2-3,3.3-4.8a24.767,24.767,0,0,0,2.7-4.3c.2-.6.5-1.1.9-1.2a4.422,4.422,0,0,0,1.4-1.2c1.1-1.4,1.3-.8.3.8-.5.7-1.4,2.3-2.1,3.6s-1.9,3.7-2.8,5.2c-.8,1.6-1.9,3.6-2.3,4.5a14.921,14.921,0,0,1-1.8,3,27.078,27.078,0,0,0-2.3,3.7,33.718,33.718,0,0,1-3.1,4.6c-1,1.3-2.5,3.4-3.4,4.8s-2,3.2-2.6,4c-1.1,1.4-3.7,5.5-6.8,10.5a12.935,12.935,0,0,0-1.7,3.6,2.993,2.993,0,0,1-1,1.8,8.436,8.436,0,0,0-1.6,3.3c-.4,1.3-.8,2.4-1,2.4-.4-.1-2.7,4.7-2.7,5.8,0,1.5.8,1.3,1.2-.3.6-2,2-5,2.6-5.4a11.16,11.16,0,0,0,1.9-2.7,93.118,93.118,0,0,1,5.9-9c.3-.3,2.1-2.8,3.9-5.5,4.6-6.8,6.1-9.1,8-11.7,2.3-3.3,7.6-12.2,8-13.7a9.517,9.517,0,0,1,1.2-2.5c1-1.5,5.6-11.1,6.8-14a21.746,21.746,0,0,1,1.9-4c.1-.1.1.6.1,1.5C160.2,15.014,159,20.114,157.5,25.414Zm2.5,1.6c-.2.5-.5.9-.7.8-.3-.1-.4-.5-.2-1.1.2-.5.5-.9.7-.8A.855.855,0,0,1,160,27.014Zm56.3,107.7a22.286,22.286,0,0,1-.1,4.2,22.907,22.907,0,0,0,.5,3.9c.6,3,.6,3.7-.4,6.8a19.076,19.076,0,0,1-2,4.6,8.471,8.471,0,0,0-1.2,2.3,12.849,12.849,0,0,1-1.9,3.1c-2.6,3.1-2.8,3.4-5.7,7.3a109.576,109.576,0,0,0-8.3,11.9,18.7,18.7,0,0,1-2.4,3.6c-.8.6-4.7,8-6.7,12.5-1.8,4.1-3,7.5-5.6,16.5-1.4,4.7-1.8,5.6-2,4.7a7.3,7.3,0,0,1,.2-3.2,41.83,41.83,0,0,0,.4-5.6c0-1.9.1-3.6.3-3.7a2.866,2.866,0,0,0,0-1.9,5.964,5.964,0,0,1,.1-2.7c1.2-3.4,1.6-6.1,1-6.1-2,.1-6.9,25.4-5.8,30.1.3,1.4.5,3.5.2,3.4-.2-.1-1.1-5.1-1.8-10.1a28.653,28.653,0,0,1-.3-3.6v-5.5a33.669,33.669,0,0,1,.3-5.5,2.7,2.7,0,0,0,0-1.8c-.4-.7.2-4.4,1.5-9.9.5-2.2.9-4.6.7-5.2a25.979,25.979,0,0,1,1.2-6.1c.8-2.7,1.6-5.4,1.7-5.9a56.412,56.412,0,0,1,4.9-10c1-1.5,2.5-4.1,3.4-5.8a22.864,22.864,0,0,1,2.3-3.6c.7-.7,4.2-5.4,6.1-8.2a15.836,15.836,0,0,1,1.9-2.5,7.686,7.686,0,0,0,1.3-2,5.2,5.2,0,0,1,1.9-2,4.248,4.248,0,0,0,1.3-1c0-.2.8-.9,1.7-1.7,1.3-1.1,1.6-1.2,1.4-.4-.2.5-.5,1-.8,1.1a2.28,2.28,0,0,0-.9,1.3,5.328,5.328,0,0,1-1.3,2,11.241,11.241,0,0,0-2.1,3.9,47.319,47.319,0,0,1-2,4.7,7.674,7.674,0,0,0-.9,2.7c.1.8.3.6,1.5-1.1,1.4-2.2,3-4.4,4.1-5.9.3-.5,2.3-2.7,4.3-5.1,2-2.3,4.5-5.2,5.4-6.4a9.829,9.829,0,0,1,2-2.1C216,131.015,216.2,132.715,216.3,134.715Zm35.1,15.8c-.3.1-1.6.7-2.9,1.2-6.1,2.4-21.2,13.2-26.4,18.8a22.321,22.321,0,0,1-2.3,2.3,7.824,7.824,0,0,0-2.3,2.5,3.92,3.92,0,0,1-1.3,1.3c-1.5.9-8.5,8.5-8.8,9.6a2.129,2.129,0,0,1-1.1,1.2c-1.2.5-2.4,3.1-1.6,3.3.4.1,1.1-.3,1.6-.9a18.954,18.954,0,0,1,1.9-2.1c.9-.9,2.1-2.3,4.9-5.7a14.481,14.481,0,0,1,1.7-1.8c.7-.7,2.6-2.4,5.8-5.4a9.24,9.24,0,0,0,1.4-1.4c.3-.3,1.2-1,2-1.6a6.656,6.656,0,0,0,1.7-1.7.657.657,0,0,1,.8-.5c.3.1,1.1-.4,1.8-1a17.9,17.9,0,0,1,3-2.2,6.128,6.128,0,0,0,2-1.6c.1-.4.8-.8,1.6-1a12.584,12.584,0,0,0,3.4-1.8c1.1-.8,2.1-1.5,2.3-1.4.2,0,3-1.8,6.3-4s6.1-4,6.1-4-.3,1.5-.7,3.2-1.3,6-2,9.4c-1.6,8.5-2.8,12.6-5.1,16.9-1.1,2.1-5.7,7.1-10.8,11.7a76.955,76.955,0,0,0-5.9,5.6,3.956,3.956,0,0,1-1.3.9,25.563,25.563,0,0,0-4.4,3.5c-1.7,1.6-4.1,3.6-5.2,4.4a9.083,9.083,0,0,0-2.2,2,10.527,10.527,0,0,1-2.3,2c-3.7,2.6-7.5,5.4-9.6,7.2-1.1.9-2.3,1.9-2.7,2.2a127.264,127.264,0,0,0-11,9.7,8.938,8.938,0,0,1-1.9,2.3,11.59,11.59,0,0,0-2.2,2.9,5.731,5.731,0,0,1-.9,1.5,3.121,3.121,0,0,0-.7,1.2c-.2.6-.4.8-.6.4-.5-.9,2.9-13,5.5-19.6,1.3-3.2,2.7-6.8,3.1-7.9a33.386,33.386,0,0,1,1.6-3.8c.8-1.7.7-1.7-.2-1.2a21.441,21.441,0,0,0-3.3,4.4,39.886,39.886,0,0,1-2.8,4.3c-.6.5-2.3,4.1-5,10.5l-1.9,4.5.5-3.3c.9-5.4,1.6-8,4.7-17.3,2.8-8.3,6.4-17.3,8.3-20.5,2.1-3.8,9-14,13.8-20.7.7-1,2.4-3.3,3.7-5.1,2.5-3.5,5.6-7,7.2-8.1,3.3-2.2,15-4.8,22.6-5,1.9-.1,4.9-.2,6.7-.3C251.3,150.015,252.2,150.115,251.4,150.515Zm29.4,24.9c-.1.5-2.5,1.9-2.9,1.8-.2-.1-2.6,1.3-5.3,3.1s-5.9,3.8-7.1,4.5a8.206,8.206,0,0,0-2.4,1.8,4.951,4.951,0,0,1-1.8,1.4,15.73,15.73,0,0,0-2.8,2.1,14,14,0,0,1-2.9,2.3,37.673,37.673,0,0,0-5.7,3.9l-1.3,1.1,1.6-.5a27.59,27.59,0,0,0,6.8-3.8c5.9-4.1,9.2-6.1,21.9-13.3a12.726,12.726,0,0,0,2.7-1.9.51.51,0,0,1,.5-.4c.2.1-.2,2-.8,4.4s-1.7,6.3-2.3,8.8c-2.5,9.6-3.5,11.4-9.1,15.2a27.527,27.527,0,0,0-3.7,3,5.091,5.091,0,0,1-2.9,1.5c-1,.2-3.3.6-5,.8a19.883,19.883,0,0,0-4.8,1.4,4.6,4.6,0,0,1-2.1.8c-.6-.2-6.9,1.8-7.9,2.5a1.791,1.791,0,0,1-1.3.4c-.5-.1-3.1,1.3-17.1,9.2-5,2.8-10,5.6-11.1,6.2-4.3,2.2-5.9,3-8.9,4.4-5.9,2.8-7.3,3.4-7.9,3.2a2.83,2.83,0,0,0-1.5.2c-.5.2-2,.7-3.4,1.1l-2.5.7,3.3-2a75.174,75.174,0,0,0,10.1-7c6.1-4.7,6.4-5,8.7-6.3a8.554,8.554,0,0,0,2.8-2.4,3.425,3.425,0,0,1,1.8-1.3c.5,0,2.4-1.4,4.1-3s2.7-2.7,2.1-2.5c-1.4.6-2.9,1.7-3.1,2.3a5.878,5.878,0,0,1-3.2,1.9c-.6-.2-2.7,1.6-3.4,2.8a1.622,1.622,0,0,1-1.4.7c-.5-.1-1.9.6-3.2,1.4s-4.9,3.2-8.1,5.2c-3.2,2.1-7.2,4.7-9,5.9-1.7,1.2-3.8,2.6-4.5,3.1a7.458,7.458,0,0,0-1.5,1.3c-.1.3-.2.4-.3.2-.3-.6,3-5.8,5.2-8.2a43.965,43.965,0,0,1,4.5-4.2c1.3-1.1,3.3-2.7,4.4-3.6,2.4-2,7.3-5.8,8.8-6.8,2.2-1.4,9.2-6.9,10.5-8.1.8-.7,2-1.7,2.6-2.1a16.022,16.022,0,0,0,2.9-2.6,23.821,23.821,0,0,1,3.8-3.2,10.429,10.429,0,0,0,2.2-1.8,18.242,18.242,0,0,1,2.7-2.5,61.313,61.313,0,0,0,8.1-7.8,41.822,41.822,0,0,1,3.5-3.6,16.029,16.029,0,0,0,4.2-6.1c.4-1,1.4-3.3,2.2-5,1.3-2.7,1.7-3.1,2.5-2.9,1.7.5,4.8.4,8.7-.1a29.507,29.507,0,0,1,13.1,1.1c2.1.6,4,.9,4.3.7C280,174.715,280.9,174.915,280.8,175.415Zm-210.2-26.7a21.733,21.733,0,0,1,5.2,5.3c1,1.5,2.8,7.3,3.4,11a23.245,23.245,0,0,0,1,4.2,2.674,2.674,0,0,1,.2,1.8,11.211,11.211,0,0,0,0,3.2,18.3,18.3,0,0,1-1.3,9.2l-1,2.1-.1-2c-.2-3-1.4-8.8-2-9.2-.7-.5-1.1,1.3-.5,2.3.3.4.4.9.2,1.1a8.77,8.77,0,0,0-.5,2.9c-.1,2.6-1.2,6.9-1.8,7.3-.2.1-.2-.3-.1-.8a2.181,2.181,0,0,0,0-1.4,13.531,13.531,0,0,1-.8-3.2,19.577,19.577,0,0,0-1.1-3.9,4.925,4.925,0,0,1-.5-1.8,3.809,3.809,0,0,0-.4-1.7,2.606,2.606,0,0,1-.3-1.6c.1-.3-.3-1.1-.8-1.6a2.8,2.8,0,0,1-.7-1.9,1.813,1.813,0,0,0-.2-1.3c-.6-.7-.8,2.6-.1,3.9a3.443,3.443,0,0,1,.4,1.9,6.23,6.23,0,0,0,.1,1.9c.1.6.3,2.6.6,4.4.2,1.8.5,4,.7,4.8.5,2,.3,2.2-.9.8a15.062,15.062,0,0,0-1.8-1.8,4.83,4.83,0,0,1-1.2-2.5,7.019,7.019,0,0,0-1.2-2.6c-.7-.6-.7-.5-.5,1.7a11.64,11.64,0,0,0,1.8,5.1c.9,1.5,1.5,2.8,1.3,2.9-.4.2-2.9-1.7-3.7-3a16.32,16.32,0,0,0-1.7-2,6.606,6.606,0,0,1-1.4-2,1.892,1.892,0,0,0-1.1-1.2,1.215,1.215,0,0,1-.8-1,.937.937,0,0,0-.5-.9c-.7-.2-.8,1.2-.2,2.3a9.172,9.172,0,0,1,.9,2.3c.2,1.1.2,1.1-1,.3-1.3-.9-6.1-8.6-5.9-9.4a6.554,6.554,0,0,0-.6-2.4c-1.3-3.3-1.2-10.7.1-15.3.6-2.2,1.3-3.9,1.5-3.8s.1.9-.1,1.8a18.874,18.874,0,0,0,.2,7.8,5.292,5.292,0,0,1-.1,2.8c-.4,1.4.4,3.7,1.3,4a.569.569,0,0,1,.4.7c-.1.4,0,.5.3.1a1.933,1.933,0,0,0,0-1.5,14.43,14.43,0,0,1-.5-3.8,8.989,8.989,0,0,0-.6-3.6,3.41,3.41,0,0,1-.1-2.3,5.254,5.254,0,0,0,.2-2c-.5-.9.1-8.8.6-8.6a7.907,7.907,0,0,1,.6,2.3c.6,3.4,1,5.4,1.5,6.2a1.745,1.745,0,0,1,.3,1.3c-.2.6,2,5.6,2.3,5.4a8.6,8.6,0,0,0-.3-2.7,11.716,11.716,0,0,1-.3-3.4,1.574,1.574,0,0,0-.1-1.2c-.3-.3-2-7.6-1.8-8.1,0-.1.7.4,1.4,1.2a10.32,10.32,0,0,1,1.3,1.7c-.1.4,3.5,8.1,4.3,9.1.6.7.7.7.8,0a8.706,8.706,0,0,0,0-2.3,15.26,15.26,0,0,1-.1-1.8c.1-.2-.3-1-.7-1.8a3.609,3.609,0,0,1-.7-1.9c.2-.6-1.6-3.1-3.4-4.8s-1.5-2.1,1.9-2C65.6,146.115,68,146.815,70.6,148.715Zm226.3,92.2a8.685,8.685,0,0,0,2.3,1.6c.7.2,5.6,4,8.3,6.4l1.3,1.2-3,1.6c-1.6.9-4.7,2.9-6.8,4.3-4.4,3.1-12.1,7.6-12.7,7.4a11.339,11.339,0,0,0-3.3.9,11.618,11.618,0,0,1-3,.9c-.1-.2-1.9.3-5.8,1.5-5.1,1.6-19.8,4.1-21.5,3.6a2.444,2.444,0,0,0-1.7,0,4.262,4.262,0,0,1-2.3,0,6.011,6.011,0,0,0-2.1-.2c-1,.3-6.2.2-11.1-.2-13.8-1.1-31.7-6.8-38-12.1-1-.9-2.1-1.8-2.4-2-.3-.3,1.1.2,3.2,1,4.6,1.8,11.7,3.7,13.8,3.8a23.8,23.8,0,0,1,3.4.4c4.9.8,7.3,1,8.3.8a12.707,12.707,0,0,1,3.3.1,10.459,10.459,0,0,0,4.3-.3,5.282,5.282,0,0,1,2.4-.4c.2.2.7.1,1.1-.2.7-.5.5-.6-1-.8a20.453,20.453,0,0,0-3.5,0,11.015,11.015,0,0,1-3.9-.4,18.488,18.488,0,0,0-2.8-.5c-1,.3-10.8-1.3-14.9-2.5-5.5-1.6-17.5-6.6-18.1-7.6-.3-.6,4.7.2,10.5,1.6,6.2,1.5,9.5,2.1,10.6,1.9a26.161,26.161,0,0,1,5.5.7,49.884,49.884,0,0,0,6.5,1c1.1,0,2.8.2,3.7.3a6.856,6.856,0,0,0,2.6-.2,3.263,3.263,0,0,1,2.2-.1c1.6.4,10.5-.2,15.9-1.2,2-.4,4.9-.8,6.3-1a20.619,20.619,0,0,0,4.3-1.1,21.611,21.611,0,0,1,4.2-1,20.222,20.222,0,0,0,4.1-1.1c.9-.4,2.8-1.1,4.1-1.5,5.9-1.7,8.8-2.8,9.9-3.7.6-.5,1.3-.9,1.6-.8s2.7-1,5.2-2.3C293.2,238.516,294.2,238.416,296.9,240.916Zm-116.5-22.4c-.2.3-.3.2-.2-.4.1-.5.3-.7.4-.6A1.232,1.232,0,0,1,180.4,218.516Zm-161.8-23.3a17.055,17.055,0,0,0,1.3,4,23.877,23.877,0,0,1,1.5,3.7,7.306,7.306,0,0,0,1.4,2.8,9.667,9.667,0,0,1,1.7,3.4,11.5,11.5,0,0,0,1.5,3.3,6.257,6.257,0,0,1,1.1,2.7,13.412,13.412,0,0,0,1.4,3.8,5.661,5.661,0,0,1,.9,2.3,17.277,17.277,0,0,0,1.3,4,97.123,97.123,0,0,1,4.9,23.1c.1,1.9.2,4.6.4,5.9a22.4,22.4,0,0,1-.1,4.5c-.1,1.2-.3,5.3-.4,9.2a72.4,72.4,0,0,1-.5,8.3,7.823,7.823,0,0,0-.2,2.7,14.079,14.079,0,0,1-.1,2.9,13.764,13.764,0,0,0-.4,2.6c0,.7-.3,3-.5,5a33.552,33.552,0,0,0-.3,6c.2,2.5-.3,6.8-.7,6.7-.5-.2-3.3-5.2-4.3-8-.6-1.5-1.2-3.1-1.5-3.7s-1-2.5-1.6-4.2c-.6-1.8-1.3-3.5-1.5-4-.2-.4-.3-.8-.2-.7a5.313,5.313,0,0,0-.2-1.9c-.9-3.6-1.7-8-1.5-8.5.1-.3-.2-.9-.6-1.5a3.013,3.013,0,0,1-.5-1.9,10.778,10.778,0,0,0-.7-3.6c-.5-1.5-.8-2.9-.6-3s.2-.5.1-.9a13.163,13.163,0,0,1-.5-3.2,5.438,5.438,0,0,0-.6-2.6c-.6-.2-.7.5-.5,2.7.1,1.1.2,2.9.2,4.1a6.822,6.822,0,0,0,.9,3.4,2.021,2.021,0,0,1,.3,2.3c-.4.7-.3,1.6.2,2.9a16.342,16.342,0,0,1,.8,3.7c.1,2.2,2.9,13,3.7,14.2a1.791,1.791,0,0,1,.4,1.3,10.364,10.364,0,0,0,.7,3.3c.5,1.5,1.2,4.2,1.6,5.9.7,3.1.7,3.1-.3,2.5a12.058,12.058,0,0,1-2.5-2.8,11.315,11.315,0,0,0-1.9-2.3,9.759,9.759,0,0,1-2.1-2.9,11.488,11.488,0,0,0-2-2.8c-.6-.2-4.9-8.5-6.1-11.8-.6-1.7-1.5-3.8-1.9-4.8a38.516,38.516,0,0,1-1.5-5.4,49.982,49.982,0,0,0-1.5-5.7,28.382,28.382,0,0,1-1-4.4c-.2-1.3-.4-2.8-.5-3.4s-.3-2.2-.4-3.6-.3-4.5-.5-6.9a34.611,34.611,0,0,1,0-6.5,28.839,28.839,0,0,0,.3-3.9,4.813,4.813,0,0,1,.2-1.8,5.52,5.52,0,0,0,.3-2.5c0-5.2,3.9-21.7,7-30a21.054,21.054,0,0,0,1-3c.7-2.2.9-1,.7,3.7-.4,8.8-.5,13.2-.4,15.2a59.986,59.986,0,0,0,.7,7.7,7.577,7.577,0,0,1,.1,2.3,12.038,12.038,0,0,0,0,2.7c.1.6.2,2,.4,3.1a28.093,28.093,0,0,0,.6,3.5,6.153,6.153,0,0,1,.1,2.3,3.268,3.268,0,0,0,0,1.4,10.05,10.05,0,0,1,.3,2.4,5.521,5.521,0,0,0,.6,2.6,1.049,1.049,0,0,1,0,1.3c-.2.3-.2.7,0,.7.3.1.4.7.4,1.4s.1,1.2.2,1.1c.5-.3.5-3.2-.1-4.3a1.926,1.926,0,0,1-.2-1.6c.5-.7.3-4.1-.2-4.2-.2-.1-.2-.7,0-1.4a8.042,8.042,0,0,0,0-3.1,13.059,13.059,0,0,1-.3-3.3c.1-5.7.4-14.3.5-15.9.1-1.1.2-3.8.2-6s.1-4.6.2-5.2c.1-.7.1-2.8.1-4.7C17.4,192.615,18,191.115,18.6,195.215ZM220,307.917l2,.9-3.2-.2a13.551,13.551,0,0,0-3.8.1,2.136,2.136,0,0,1-1.4.1c-1.1-.3-4.5.3-4.7.8-.1.2-.8.2-1.5,0-1-.3-1.5-.2-1.6.4-.2.6.2.8,2.5,1.2,5,.8,12.2,1,13.6.4.4-.2,0,.4-1,1.2-2.4,2-16.2,9.8-20.1,11.3-8.6,3.3-14.1,4-23.4,2.7-2.3-.3-5.1-.7-6.4-.8a112.767,112.767,0,0,1-15.7-4.6c-.9-.4-4.5-2-8-3.6a106.909,106.909,0,0,0-15.1-5.7c-.7-.2-1.1-.6-.9-.8a.631.631,0,0,1,.7-.1,12.719,12.719,0,0,0,4.1.2,49.319,49.319,0,0,1,5.5,0c1,.1,3.7.1,6,.1,2.4,0,5.4,0,6.7-.1a25.564,25.564,0,0,1,3.4.2c2.1.5,7.7.3,6.2-.3-.2-.1-.8-.4-1.3-.6a3.079,3.079,0,0,0-1.9-.3,13.625,13.625,0,0,1-3.3-.2c-1.3-.2-2.4-.1-2.4.1-.1.3-.4.3-.7,0a10.589,10.589,0,0,0-3.9-.7c-7.2-.5-15.5-1.2-16.2-1.4-.5-.2-.4-.4.6-.8a4.094,4.094,0,0,1,1.7-.5,22.911,22.911,0,0,0,4.5-1.5c4.7-1.8,15.3-3.9,21.9-4.3,10.3-.6,15.4-.7,21.3-.3,1.2.1,3,.2,4.2.3a82.731,82.731,0,0,1,13.1,1.9,30.775,30.775,0,0,0,6.7,1C209.6,303.917,213.9,305.317,220,307.917Zm-140.4-29.7a1.95,1.95,0,0,1,.9.9,36.082,36.082,0,0,0,2.8,3.7c.2.2,0,.9-.5,1.6a10.215,10.215,0,0,0-1.4,3.3l-.6,2.1-1.2-3.8a15.75,15.75,0,0,1-1-4.5,19.636,19.636,0,0,0-.5-4.4c-.9-4.5-.8-5.2.3-1.7A6.033,6.033,0,0,0,79.6,278.216Zm-4.7,2.3c0,3.2.3,4.2,2.3,8l2.3,4.4-1.1,3c-.6,1.7-1.6,4.5-2.3,6.3-1.2,3.2-1.3,3.3-1.7,2a24.707,24.707,0,0,1-1.3-8.6,24.717,24.717,0,0,0-.1-3.3,31.973,31.973,0,0,1,.3-8,61.18,61.18,0,0,0,1-7.1c0-.3.2-.6.4-.5C74.6,276.816,74.8,278.516,74.9,280.516Zm10.5,5.7c-.6.6-.7.6-.5-.1.2-.8.9-1.4,1.1-.9C86.1,285.416,85.8,285.916,85.4,286.216Zm3.6,2.2a1.782,1.782,0,0,1,1,1.2,8.955,8.955,0,0,0,1.5,2.3c.6.7,1.3,1.6,1.6,2,.2.4.6.8.7,1,1,.8,2.6,7.2,2.2,8.7a5.69,5.69,0,0,0,0,2.6,9.145,9.145,0,0,1,0,3.3c-.2.9-.6,3.5-.9,5.8a71.622,71.622,0,0,1-3.8,14.5c-3.6,9.5-4.5,10.2-3.4,3a7.222,7.222,0,0,0-.1-3.1c-.3-.5-.3-.9-.1-1,.4-.2.3-4.3-.1-4.4-.2-.1-.5.3-.7.8s-.1,1,.1,1c.2.1.2.9-.1,1.9-.2,1-.7,3.2-1,4.9-.4,2-.6,2.6-.7,1.8a16.007,16.007,0,0,0-.3-2.3c-.1-.6-.4-2.2-.6-3.7a13.831,13.831,0,0,0-.6-2.9c-.1-.2-.4-1-.7-1.8-.5-1.6-1.5-3.8-4.4-9.5a18.138,18.138,0,0,1-1.9-5c0-1.2,1.3-4.3,3.7-9q1.2-2.25,1.8-2.1c.8.2,1.3-.9.7-1.5s.3-3.3,1.5-4.1a3.383,3.383,0,0,0,1.1-1.4c.3-1,2.8-4,2.8-3.4C88.4,288.016,88.7,288.316,89,288.416Zm-11.9,30c2.6,5.6,2.9,6.3,2.7,6.9a1.022,1.022,0,0,0,.4,1c.3.2,1,2.5,1.6,4.9.6,2.5,1.2,4.9,1.3,5.3,1,3.5,1.6,8.4,1.3,9.6a13.108,13.108,0,0,1-2.3,3.6,11.505,11.505,0,0,0-2,2.8,6.946,6.946,0,0,1-1.2,1.8,57.642,57.642,0,0,0-3.6,4.8c-1.4,2.1-2.9,4.1-3.3,4.6s-1.3,1.8-2.1,2.9c-.8,1.2-2.7,4.1-4.4,6.5a33.9,33.9,0,0,0-3.5,6,6.024,6.024,0,0,1-1.3,2.4c-1.3,1.3-4.3,7-6.4,11.9-1.6,3.8-1.9,4.2-1.8,2.8.1-1,.7-4.2,1.4-7.2,1.2-5.1,1.8-8.3,2.6-12.6.3-1.6,6.1-25,6.7-26.7,2.2-7.2,10.8-33.3,11.4-34.6C75,314.217,75.4,314.717,77.1,318.417Zm-39,102.4a.474.474,0,1,1-.3-.6A.486.486,0,0,1,38.1,420.818Z" fill="#93745f"/>
    <path id="Path_2" data-name="Path 2" d="M266.7,233.723c-.8.5-.8.6.3.3,1.2-.3,1.6-.6.9-.8C267.7,233.123,267.2,233.323,266.7,233.723Z" fill="#93745f"/>
    <path id="Path_3" data-name="Path 3" d="M76.7,268.22a1.313,1.313,0,0,0-.2,1.1c.1.4.4.6.6.4a1.315,1.315,0,0,0,.2-1.1C77.2,268.22,77,268.019,76.7,268.22Z" fill="#93745f"/>
    <path id="Path_4" data-name="Path 4" d="M165.4,84.426a.474.474,0,1,0,.6-.3C165.7,84.028,165.4,84.127,165.4,84.426Z" fill="#93745f"/>
    <path id="Path_5" data-name="Path 5" d="M135.1,83.122c-.1.5,0,.7.2.4a1.091,1.091,0,0,0,.2-.906C135.4,82.418,135.2,82.619,135.1,83.122Z" fill="#93745f"/>
    <path id="Path_6" data-name="Path 6" d="M151,92.622c-.4,1.295-.4,1.693.1,1.494.5-.3.6-.8.5-1.793C151.5,90.829,151.5,90.829,151,92.622Z" fill="#93745f"/>
    <path id="Path_7" data-name="Path 7" d="M118.2,83.126a76.545,76.545,0,0,0-2.8,7.9c-1.3,4.1-2.4,7.7-2.5,7.9-.3.8-2.2,9.3-2.6,11.9-.8,4.6-1.6,17.6-1.2,19.6a10.682,10.682,0,0,1,.2,2.9c-.6,1.9,0,8.3.7,8,.7-.2,1.6-8.8,1.1-11.1-.2-.8,0-5.5.6-12.6.1-1.4.1-2.8.1-3.2a4.529,4.529,0,0,1,.3-1.6,28.044,28.044,0,0,0,.8-5.3c.3-2.5.6-5,.8-5.7,1.2-4.2,5.2-19.2,5.1-19.2A2.2,2.2,0,0,0,118.2,83.126Z" fill="#93745f"/>
    <path id="Path_8" data-name="Path 8" d="M133,87.722a12.466,12.466,0,0,0-1.3,2.8c-1,2.7-.8,2.6,1.2-.7C134,87.922,134.1,86.724,133,87.722Z" fill="#93745f"/>
    <path id="Path_9" data-name="Path 9" d="M164.3,97.019c-.1.5,0,.7.2.4a1.078,1.078,0,0,0,.2-.9C164.6,96.22,164.4,96.52,164.3,97.019Z" fill="#93745f"/>
    <path id="Path_10" data-name="Path 10" d="M163.3,98.918c-.2.6-.1.9.1.6a1.685,1.685,0,0,0,.3-1.2C163.7,98.015,163.5,98.316,163.3,98.918Z" fill="#93745f"/>
    <path id="Path_11" data-name="Path 11" d="M149.8,98.025c-.4.7-.4.895,0,.7a1.093,1.093,0,0,0,.6-.994C150.4,97.329,150.1,97.429,149.8,98.025Z" fill="#93745f"/>
    <path id="Path_12" data-name="Path 12" d="M110.5,142.228a7.382,7.382,0,0,1-.1,2c-.4,2.3.4,3.195,1,1.1.6-2.2.5-3.295-.3-3.494C110.6,141.729,110.4,141.929,110.5,142.228Z" fill="#93745f"/>
    <path id="Path_13" data-name="Path 13" d="M196.9,153.023c-.7.9-.7.994-.2,1.093.6.2,1.4-.994,1-1.391C197.6,152.526,197.2,152.625,196.9,153.023Z" fill="#93745f"/>
    <path id="Path_14" data-name="Path 14" d="M185.2,182.427c-1,2.3-1.3,3.795-1,3.9.4.1.4.1,1.3-2a2.691,2.691,0,0,0,.2-1.9C185.5,182.227,185.3,182.227,185.2,182.427Z" fill="#93745f"/>
    <path id="Path_15" data-name="Path 15" d="M182.9,190.02c-.8,1.5-.7,2,.2,1.8.7-.2,1.1-1.5.8-2.505C183.7,188.818,183.4,189.018,182.9,190.02Z" fill="#93745f"/>
    <path id="Path_16" data-name="Path 16" d="M203.6,191.621a4.16,4.16,0,0,0-1.3,1.4,12.051,12.051,0,0,1-1.7,2.5,6.147,6.147,0,0,0-1.3,2c.2.3,1.5-.8,1.6-1.3,0-.2.5-.7,1.1-1.2s1-1.1.9-1.3.2-.6.8-1c.5-.3,1-.9,1-1.2S204.2,191.22,203.6,191.621Z" fill="#93745f"/>
    <path id="Path_17" data-name="Path 17" d="M197.7,198.616a1.783,1.783,0,0,0,.1,1.3c.2.2.5-.1.7-.8s.1-1.3-.1-1.3S197.9,198.116,197.7,198.616Z" fill="#93745f"/>
    <path id="Path_18" data-name="Path 18" d="M194.3,204.724c-.2.2-.2.4.1.5a.485.485,0,0,0,.6-.3c.1-.3,0-.5-.1-.5A1.1,1.1,0,0,0,194.3,204.724Z" fill="#93745f"/>
    <path id="Path_19" data-name="Path 19" d="M248.4,198.026c-.7.7-.2,1,.6.4.5-.3.6-.6.3-.7A1.89,1.89,0,0,0,248.4,198.026Z" fill="#93745f"/>
    <path id="Path_20" data-name="Path 20" d="M226.3,215.019c-.9.8-.8.8.2.3.6-.3,1-.7.9-.9S226.8,214.518,226.3,215.019Z" fill="#93745f"/>
    <path id="Path_21" data-name="Path 21" d="M224.4,216.321c-.3,1.1-.1,1.3.6.4.2-.3.3-.8.1-1S224.6,215.72,224.4,216.321Z" fill="#93745f"/>
    <path id="Path_22" data-name="Path 22" d="M63.2,147.319a3.683,3.683,0,0,0,1,1.4c.6.6.8.6.6.2a4.619,4.619,0,0,0-1-1.4C63.3,147.019,63.1,146.918,63.2,147.319Z" fill="#93745f"/>
    <path id="Path_23" data-name="Path 23" d="M65.5,149.324c0,.1.7,1.4,1.5,3.1,3.1,5.8,6,12,6.3,13.3.2.7.6,1.4.9,1.5.5.2.6-.1.4-1.5a23.011,23.011,0,0,0-1-3.5,5.653,5.653,0,0,1-.5-2.5c.2-.8-2-5.3-3.7-7.2C68.4,151.225,65.6,149.024,65.5,149.324Z" fill="#93745f"/>
    <path id="Path_24" data-name="Path 24" d="M74.9,171.016a5.293,5.293,0,0,0,.6,1.507c.4.9.7,1.105.8.7.2-.8-.4-2.109-1-2.21C75.1,170.815,74.9,170.916,74.9,171.016Z" fill="#93745f"/>
    <path id="Path_25" data-name="Path 25" d="M54.2,171.424a5.876,5.876,0,0,0,.9,2.4l1,2-.5-2.3C55.1,171.424,54.4,170.425,54.2,171.424Z" fill="#93745f"/>
    <path id="Path_26" data-name="Path 26" d="M305.1,250.821c-.5.4-1.1.6-1.2.4a.428.428,0,0,0-.7.1,1.611,1.611,0,0,1-1.4.1c-.6-.2-3.7.2-7.1.8-6.7,1.2-10.5,1.8-14.5,2.4-9.3,1.3-14.5,2.3-16.3,3.1a7.494,7.494,0,0,1-2.3.2,3.44,3.44,0,0,0-2.4.6,2.044,2.044,0,0,1-1.6.5c-.4-.1-1-.1-1.2.2a1.394,1.394,0,0,1-1.3.1,3.142,3.142,0,0,0-2,.5c-.9.6-1,.8-.4.7,2-.1,8.8-1.1,10.6-1.4a9.53,9.53,0,0,1,2.7-.2,11.305,11.305,0,0,0,3.3-.3,21.423,21.423,0,0,1,3.2-.4c.6.2,5.2-.7,7.5-1.5a122.378,122.378,0,0,1,12.9-2.5,32.513,32.513,0,0,0,5.4-1.3,5.189,5.189,0,0,1,2.8-.4c2,.3,7-1.7,5.3-2.2C306.2,250.12,305.6,250.421,305.1,250.821Z" fill="#93745f"/>
    <path id="Path_27" data-name="Path 27" d="M248.5,259.82c-.2.2-.2.5.1.5.3.1.6-.1.6-.3.1-.3,0-.5-.1-.5A1.1,1.1,0,0,0,248.5,259.82Z" fill="#93745f"/>
    <path id="Path_28" data-name="Path 28" d="M17.4,251.423c.3,2.1.7,2.8.9,1.3.2-1.6,0-2.4-.6-2.6C17.4,250.023,17.3,250.623,17.4,251.423Z" fill="#93745f"/>
    <path id="Path_29" data-name="Path 29" d="M203.7,310.423a.474.474,0,1,0,.6-.3A.487.487,0,0,0,203.7,310.423Z" fill="#93745f"/>
    <path id="Path_30" data-name="Path 30" d="M201.7,310.421a.475.475,0,1,0,.6-.3A.419.419,0,0,0,201.7,310.421Z" fill="#93745f"/>
    <path id="Path_31" data-name="Path 31" d="M180.5,311.422c-.2.2-.2.4,0,.505a.85.85,0,0,0,.9-.3c.2-.2.2-.4,0-.505A1.387,1.387,0,0,0,180.5,311.422Z" fill="#93745f"/>
    <path id="Path_32" data-name="Path 32" d="M178.5,311.32c-.2.2-.2.5.1.5.3.1.6-.1.6-.3.1-.3,0-.5-.1-.5A1.546,1.546,0,0,0,178.5,311.32Z" fill="#93745f"/>
    <path id="Path_33" data-name="Path 33" d="M173.7,310.924c-.7.4-.6,1,.2.9a.937.937,0,0,0,.9-.5C174.9,310.824,174.3,310.525,173.7,310.924Z" fill="#93745f"/>
    <path id="Path_34" data-name="Path 34" d="M167.9,310.821c-.6.2-.5.4.2.8,1.1.7,1.6.5,1.4-.3C169.3,310.721,168.9,310.521,167.9,310.821Z" fill="#93745f"/>
    <path id="Path_35" data-name="Path 35" d="M165.1,311.123a1.386,1.386,0,0,0,.8.7c.4.1.7,0,.8-.3s-.3-.6-.8-.7C165.3,310.624,165,310.724,165.1,311.123Z" fill="#93745f"/>
    <path id="Path_36" data-name="Path 36" d="M82.6,298.716c-.2.2-.2.4,0,.5a2.373,2.373,0,0,1,.5,1.7c0,.8.3,1.6.6,1.7s.4.5.3,1a2.225,2.225,0,0,0,.3,1.6,7.1,7.1,0,0,1,.6,2.6,4.374,4.374,0,0,0,.6,2.4,1.919,1.919,0,0,1,.2,1.7,1.644,1.644,0,0,0,.3,1.6,1,1,0,0,1,.4,1.1c-.1.4,0,.7.3.8.2.1.2.7-.2,1.3a2.754,2.754,0,0,0,0,2.5c.3.7.5,1.3.4,1.4a4.243,4.243,0,0,0-.2,1.6v1.5l.7-1.2a2.248,2.248,0,0,0,.3-2.2,5.312,5.312,0,0,1-.2-2.9,6.31,6.31,0,0,0-.3-2.9,2.51,2.51,0,0,1-.3-1.6c.3-1-1.2-10-1.7-10.5-.2-.1-.2-.5-.1-.8.2-.6-1.2-3.2-1.7-3.3A1.236,1.236,0,0,0,82.6,298.716Z" fill="#93745f"/>
  </g>
</svg>
