<svg xmlns="http://www.w3.org/2000/svg" width="163.788" height="218.773" viewBox="0 0 163.788 218.773">
  <g id="vector-leaf-7" transform="translate(61.649 -1.119)" opacity="0.2">
    <path id="Path_1" data-name="Path 1" d="M62.684,1.27a45.637,45.637,0,0,0-3.405,3.112c-5.077,4.913-7.332,6.992-8.628,7.829a4.964,4.964,0,0,0-1.179,1.132c-.193.322-.39.484-.517.4s-.385.115-.671.413c-.526.608-.709.721-3.25,2.568-1.08.786-1.991,1.51-2.067,1.6-.1.186-.939.822-5.537,4.056a24.84,24.84,0,0,0-3.551,2.916,4.044,4.044,0,0,1-1.122.935,5.617,5.617,0,0,0-1.226,1.12,10.755,10.755,0,0,1-1.353,1.565,50.154,50.154,0,0,0-5.129,6.33c-3.711,5.417-5.435,8.634-6.8,12.526-.475,1.309-1.062,3.014-1.348,3.842a14.643,14.643,0,0,0-.578,2.025,3.3,3.3,0,0,1-.268.938,4.186,4.186,0,0,0-.315,1.456A11.406,11.406,0,0,1,15.5,57.4a46.709,46.709,0,0,0-.964,7.962c0,.529-.047,1.576-.1,2.3a8.107,8.107,0,0,0,.051,1.76,1.134,1.134,0,0,1-.01.739c-.1.186-.1.346.028.431a.354.354,0,0,1,.028.43,1.687,1.687,0,0,0,.08,1.132,14.932,14.932,0,0,1,.3,2.139,23.2,23.2,0,0,0,.258,2.976c1.144,7.276.289,10.977-4,18.049-.963,1.61-2.339,3.963-3.077,5.311-1.151,2.092-5.364,8.388-7.055,10.608-.329.447-.883,1.154-1.212,1.6s-1.677,2.171-2.964,3.858-2.471,3.189-2.574,3.374c-.164.224-.23.1-.31-.5a8.582,8.582,0,0,1-.037-3.4,11.884,11.884,0,0,0,.1-2.832,24.515,24.515,0,0,1,.179-3.978,10.493,10.493,0,0,0,.155-2.131,25.959,25.959,0,0,1,.137-4.359A11.89,11.89,0,0,0-5.5,101.33a16.1,16.1,0,0,1,.057-2.844c.085-.826.17-2.18.189-3.129a32.949,32.949,0,0,1,.208-4.606,7.749,7.749,0,0,0,.057-1.785,1.828,1.828,0,0,1,.08-.986.905.905,0,0,0-.023-.8c-.2-.527.033-1,1.3-2.266A27.621,27.621,0,0,0,.111,80.458c.146-.334.423-.952.611-1.434a6.468,6.468,0,0,0,.418-1.641,8.751,8.751,0,0,1,.357-1.6,27.056,27.056,0,0,0,.762-5.842c-.046-3.717-.253-4.4-1.853-7.084-.507-.869-1-1.258-3.169-2.652-2.69-1.684-4.183-2.272-5.029-1.956-1.583.607-5.021,5.774-5.97,8.923a27.74,27.74,0,0,0-.945,7.014c.257,4.035,1.914,8.105,3.914,9.562C-9.127,84.958-8.31,85.8-7.921,86.9a3.978,3.978,0,0,0,.577,1.151c.474.278.6,4.758.275,7.851a12.36,12.36,0,0,0,.1,2.83,39.239,39.239,0,0,1,.168,4.172,36.683,36.683,0,0,0,0,3.865,9.751,9.751,0,0,1,0,1.748,62.407,62.407,0,0,0-.241,7.191,4.636,4.636,0,0,1-.014,1.108,6.9,6.9,0,0,0-.23,1.159,32.832,32.832,0,0,1-1.682,6.246,8.033,8.033,0,0,1-1.184,1.5,17.636,17.636,0,0,0-2.438,3.25l-.446.681-.559-1.04a9.811,9.811,0,0,1-.793-2.159c-.127-.614-.375-1.153-.563-1.2s-.272-.28-.188-.576c.169-.593.216-.581-.549-.721-.671-.116-.6-.2-3.729,4.247a14.634,14.634,0,0,0-2.1,3.653c-.907,2.471-1.776,6.751-1.579,7.648a1.142,1.142,0,0,1-.071.776,2.071,2.071,0,0,0,.094,1.082c.544,1.619.356,2.1-1.476,4.816-1.625,2.343-5.712,8.723-8.145,12.662-.639,1-2.278,3.925-3.758,6.463-1.433,2.55-2.856,4.891-3.067,5.1-.272.249-.38.274-.277.089a13.846,13.846,0,0,0,.386-3.82,7.1,7.1,0,0,1,0-1.588,5.769,5.769,0,0,0,.043-1.207,7.006,7.006,0,0,1,.042-1.207c.052-.887.123-4.309.081-6.808.019-.418.028-1.157.061-1.625a6.141,6.141,0,0,0-.051-1.231,12.972,12.972,0,0,1-.028-2.018c0-.9-.065-3.3-.154-5.279a28.027,28.027,0,0,1-.037-3.927.937.937,0,0,0,0-.689,9.11,9.11,0,0,1-.042-1.969,3.839,3.839,0,0,0-.126-1.673c-.08-.073-.056-.332.061-.567a1.848,1.848,0,0,0,.282-.987,7.852,7.852,0,0,1,.677-1.841,9.091,9.091,0,0,0,.752-1.928,45.24,45.24,0,0,1,1.875-4.98,25.124,25.124,0,0,0,.879-2.372,20.48,20.48,0,0,1,.836-2.224,61.853,61.853,0,0,0,2.058-6.151c.3-1.037.667-2.161.841-2.593a11.218,11.218,0,0,0,.71-3.368.886.886,0,0,1,.2-.691A39.894,39.894,0,0,0-29.12,102.1c-.019-.64.071-1.835.141-2.611a14.627,14.627,0,0,0-.074-3.089,7.947,7.947,0,0,1-.065-2.24c.085-.3.075-.616-.019-.64a4.829,4.829,0,0,1-.244-1.438,16.446,16.446,0,0,0-.375-2.741c-.131-.774-.4-1.953-.478-2.556-.127-.614-.258-1.388-.314-1.72-.192-.737-.544-3.207-.783-5.544a15.4,15.4,0,0,0-.685-3.772,9.2,9.2,0,0,0-2.142,2.213,8.435,8.435,0,0,1-1.005,1.229c-.244.15-3.373,4.231-5.059,6.612a58.559,58.559,0,0,0-4.613,8.048,5.242,5.242,0,0,1-.536,1.347c-.949,1.561-2.721,7.942-2.547,9.1a1.519,1.519,0,0,1-.118.764,30.2,30.2,0,0,0-.664,6.555,13.66,13.66,0,0,1-.113,3.042,8.876,8.876,0,0,0,.065,2.24,13.544,13.544,0,0,1,.094,1.611,4.519,4.519,0,0,0,.122,1.513c.084.762.258,1.918.389,2.692a20.7,20.7,0,0,0,.966,4.372,9.794,9.794,0,0,1,.6,1.792,4.974,4.974,0,0,0,.676,1.864,2.875,2.875,0,0,1,.5,1.078,8.112,8.112,0,0,0,1.375,2.94.786.786,0,0,1,.329.613.786.786,0,0,0,.328.612,9,9,0,0,1,1.042,1.639c.413.845.868,1.542.9,1.6.46.328.76,3.686.543,6.913-.019.418,0,1.218.037,1.809.075.972.032,3.766-.076,6.439l-.028,1.157-.427-.8c-.216-.478-.526-.979-.61-1.212a58.98,58.98,0,0,0-4.464-6.578,6.36,6.36,0,0,1-1.727-3.294c-.216-1.007-.417-1.534-.812-1.74-1.249-.738-2.118-.163-2.287,1.488-.08.986.178,1.315,1.652,2.322a9.359,9.359,0,0,1,2.23,2.415c.6.893,1.8,2.518,2.7,3.592a11.984,11.984,0,0,1,2.985,5.411c.075.442.277.97.5,1.078.3.182.343,1.092.351,6.705a9.155,9.155,0,0,0,.178,2.374c.127.085.132.245-.019.419a1.665,1.665,0,0,0-.033,1,1.67,1.67,0,0,1-.033,1,5.771,5.771,0,0,0-.31,1.615c-.264,2.686-1.02,5.513-1.556,5.8a9.023,9.023,0,0,0-1.048,1.907c-.437,1-1.508,3.166-2.358,4.91-1.705,3.329-2.363,4.751-2.382,5.17a10.248,10.248,0,0,1-.831,1.854,20.716,20.716,0,0,0-1.25,2.967c-.273.778-.691,1.891-.982,2.558l-.54,1.187-.178-.786a34.389,34.389,0,0,1,.532-7.858,31.48,31.48,0,0,0,1.1-5.969,1.953,1.953,0,0,1,.024-.788,33.236,33.236,0,0,0,.25-6.872,5.673,5.673,0,0,1-.014-1.538,17.506,17.506,0,0,0-1.069-6.834c-.225-.8-.586-2-.732-2.725-.338-1.461-.812-1.74-.916-.495a27.122,27.122,0,0,0,.6,3.7A18.22,18.22,0,0,1-51.863,171a.73.73,0,0,0,.033.59c.3.182.294,7.432.021,10.328a51.606,51.606,0,0,1-.908,5.646c-.357,1.6-.682,3.269-.715,3.737l-.1.875-.235-1.117c-.127-.615-.361-2.262-.525-3.626s-.422-3.283-.652-4.241a5.487,5.487,0,0,1-.244-1.967c.089-.136-.08-.6-.3-1.08a2.631,2.631,0,0,1-.23-1.487c.169-.593-.047-1.071-.328-.612a27.107,27.107,0,0,0-.053,5.121,6.332,6.332,0,0,1,.183,1.475,15.039,15.039,0,0,0,.112,1.722,15.562,15.562,0,0,1,.141,1.624,24.074,24.074,0,0,0,.309,2.619c.131.774.164,1.364-.01,1.268a1.953,1.953,0,0,1-.4-.9,29.5,29.5,0,0,0-1.267-4.025,92.431,92.431,0,0,1-2-9.926,4.658,4.658,0,0,0-.23-1.487c-.127-.085-.136-.4-.084-.762a8.338,8.338,0,0,0,.061-1.626,41.316,41.316,0,0,1,1.261-11.115,5.7,5.7,0,0,0,.23-1.16,18.818,18.818,0,0,1,.982-3.087c.089-.136.277-.089.451.008.3.181.3.181.207-.372a1.506,1.506,0,0,1,.038-.837.526.526,0,0,0-.047-.541.517.517,0,0,1-.033-.591c.1-.185.1-.345-.028-.43-.08-.073-.277.089-.395.324s-.127.444-.019.418c.263-.039-.376,1.494-1.25,2.967a3.562,3.562,0,0,0-.611,1.434,5.136,5.136,0,0,1-.667,2.161c-.6.7-1.81,9.337-1.463,10.589a5.354,5.354,0,0,1,.032,1.649,12.135,12.135,0,0,0,.2,3.174,93.73,93.73,0,0,0,2.111,9.531c.221.108.38.784.976,3.1a11.791,11.791,0,0,0,.6,1.951,2.507,2.507,0,0,1,.291.921,2.371,2.371,0,0,0,.338.932,19.4,19.4,0,0,1,1.075,2.229,10,10,0,0,0,1.413,2.633c.638.584.573,1.52-.273,3.424a10.372,10.372,0,0,0-.644,1.9,9.494,9.494,0,0,1-.766,1.977,8.987,8.987,0,0,0-.724,1.829,4.149,4.149,0,0,1-.536,1.347c-.282.458-.47.94-.4,1.063a3.286,3.286,0,0,1-.691,1.361c-.658.893-.742,1.189-.564,1.446.192.207.122.454-.2.691a4.176,4.176,0,0,0-.672.942c-.146.334-.841,1.535-1.508,2.637a8.487,8.487,0,0,0-1.085,2.215c.6.363,5.782-8.971,6.3-11.327a11.559,11.559,0,0,1,.789-1.707c.413-.742.893-1.892,1.2-2.609.258-.729.531-1.507.662-1.792.07-.247.343-1.025.573-1.655a21.309,21.309,0,0,1,1.4-3.51,12.419,12.419,0,0,0,.836-2.224,6.677,6.677,0,0,1,.545-1.556c.235-.471.789-1.707,1.2-2.61a16.189,16.189,0,0,1,7.3-8.481A19.659,19.659,0,0,1-34,179.475a46.5,46.5,0,0,1,7.748-1.223,4.9,4.9,0,0,0,1.611-.176,1.368,1.368,0,0,1,.916-.034,2.058,2.058,0,0,0,1.136.074c.465-.041,2.019-.02,3.418.015,2.381.124,2.569.171,2.723.687.314,1.191,3.136,1.532,3.742.467.874-1.474-.769-2.947-2.775-2.446a16.58,16.58,0,0,1-3.367.157,53.673,53.673,0,0,0-11.279.544c-1.639.275-6.7,1.594-8.481,2.2-1.291.469-1.291.469-.84-.053.286-.3.907-.883,1.39-1.343a17.692,17.692,0,0,0,1.343-1.355c1.306-1.577,1.592-1.875,2.311-2.276a4.565,4.565,0,0,0,.958-.711,6.216,6.216,0,0,1,1.32-1.1,10.728,10.728,0,0,0,1.592-1.345,2.337,2.337,0,0,1,.789-.648,8.049,8.049,0,0,0,1.456-1.221c1.043-1.008,3.879-3.363,5.49-4.6a2.912,2.912,0,0,0,.817-.747c.178-.272,3.922-2.981,10.868-7.741,4.631-3.173,5.777-3.837,7.805-4.6,3.6-1.316,3.536-1.279,5.039-.9a12.129,12.129,0,0,1,1.756.549,59.413,59.413,0,0,1,6.648,4.746c3.014,2.665,3.3,2.9,4.85,3.816.854.533,1.521,1.019,1.446,1.106a8.2,8.2,0,0,0,2.136,1.332c1.23.628,2.526,1.378,2.92,1.583a3.053,3.053,0,0,0,1.226.468,11.547,11.547,0,0,1,2.038.62,14.578,14.578,0,0,0,5.837,1.418,25.97,25.97,0,0,0,8.673-.936,35.991,35.991,0,0,0,6.457-2.342,9.738,9.738,0,0,1,2.409-1.034,7.114,7.114,0,0,0,2.179-.933c.46-.731-1.019-1.9-7.216-5.577a66.543,66.543,0,0,0-7.287-3.743c-.69-.227-1.775-.659-2.451-.936a26.322,26.322,0,0,0-2.949-.955c-.939-.236-2.132-.643-2.634-.823a42.338,42.338,0,0,0-5.489-1.225c-.437-.057-1.3-.22-2.014-.349a4.038,4.038,0,0,0-1.681-.106.966.966,0,0,1-.747-.029,2.586,2.586,0,0,0-1.014-.15c-.357.016-1.15-.025-1.7-.057a25.667,25.667,0,0,0-5.25.053c-.634.105-1.813.178-2.587.248a25.217,25.217,0,0,0-3,.461c-.864.205-1.822.387-2.132.415-.526.079-.526.079-.038-.221a2.283,2.283,0,0,1,.751-.34,1.306,1.306,0,0,0,.7-.512,4.972,4.972,0,0,1,1.357-.875A27.784,27.784,0,0,0,9.511,144.5a3.549,3.549,0,0,1,1.179-.6,9.723,9.723,0,0,0,2.1-1.006c.719-.4,1.9-1,2.541-1.318a5.5,5.5,0,0,0,1.451-.852,1.589,1.589,0,0,1,.686-.462,79.212,79.212,0,0,0,7.256-4.788,24.828,24.828,0,0,1,2.39-1.673,8.469,8.469,0,0,0,1.507-1.049,4.163,4.163,0,0,1,.714-.561c.319-.238,2.048-1.707,3.757-3.288,2.663-2.452,3.213-2.79,3.438-2.521.291.391.8-.168.5-.51a.335.335,0,0,1,.08-.456c.136-.125.474.278.859,1.222a35.6,35.6,0,0,0,5.107,7.322c.69.757,1.413,1.574,1.591,1.831a2.046,2.046,0,0,0,1.493,1.117.511.511,0,0,1,.587.413c.169.466.3.551,4.456,3.082a30.436,30.436,0,0,0,6.606,3.306,12.018,12.018,0,0,1,1.521.489c.629.265,2.606.922,3.357,1.111.423.107.488.229.3.551-.3.508.033,1.649.516,1.718.531.081.643-.314.446-1.21l-.178-.786.845.213a6.907,6.907,0,0,1,1.193.406.97.97,0,0,0,.747.03c.507-.19,1.042.051.85.373-.089.136.225.268.756.349.92.126.967.138,1.268.32.127.085.3.021.4-.164s.258-.2.371-.066a6.467,6.467,0,0,0,3.367.373c.23-.1.2-.162-.052-.172-.2,0-.235-.059-.113-.134s.5.019.892.225a3.035,3.035,0,0,0,1.606.193,5.717,5.717,0,0,1,1.132-.086,28.281,28.281,0,0,0,3.893-.236,11.517,11.517,0,0,1,1.319-.038,6.908,6.908,0,0,0,1.921-.2,1.615,1.615,0,0,1,.991-.12,11.7,11.7,0,0,0,3.79-1.109,27.6,27.6,0,0,1,6.438-2.453l2.667-.7-.385-.944a33.773,33.773,0,0,0-3.23-5.261,2.728,2.728,0,0,1-.667-1.015,3.784,3.784,0,0,0-.967-1.2c-.695-.387-.61-.683.113-.924.277-.089.568-.228.611-.376a.276.276,0,0,1,.338-.126c.127.084.31-.028.413-.214s.146-.334.113-.4a3.482,3.482,0,0,0-1.6.5c-.028.1-.507.19-1.08.257a18.8,18.8,0,0,0-2.517.53,21.5,21.5,0,0,1-3.278.55,5,5,0,0,0-1.916.364,4.513,4.513,0,0,1-1.625.226,12.781,12.781,0,0,0-1.906.154,2.973,2.973,0,0,1-1.226.062,6.945,6.945,0,0,0-1.845.117,6.708,6.708,0,0,1-1.644.115,7.589,7.589,0,0,0-1.991-.078,71.775,71.775,0,0,1-9.171-.671c-.812-.152-2.014-.349-2.747-.428a5.867,5.867,0,0,1-1.676-.476,2.6,2.6,0,0,0-1.221-.307c-.4,0-.765-.14-.784-.251s-.474-.278-1.019-.31a12.071,12.071,0,0,1-2.939-1.164,25.742,25.742,0,0,0-2.977-1.386,13.254,13.254,0,0,1-4.028-1.757l-.559-.511,1.075.112c.592.044,2.118.164,3.3.25,1.23.1,2.8.23,3.489.3a40.852,40.852,0,0,0,7.494.2,5.036,5.036,0,0,1,1.615-.016,3.193,3.193,0,0,0,1.474-.052c.118-.235-1.085-.432-1.484-.268a.955.955,0,0,1-.671-.117c-.221-.108-.517-.13-.545-.031-.1.186-1.179.073-2.043-.25a2.957,2.957,0,0,0-1.277-.111,4.276,4.276,0,0,1-1.338-.072,17.263,17.263,0,0,0-2.183-.286,15,15,0,0,1-1.794-.241,13.805,13.805,0,0,0-2.338-.272c-1.183-.086-2.789-.279-3.6-.431s-1.639-.254-1.873-.314c-.437-.057-3.681-1.033-4.733-1.4-.643-.216-.629-.265.5-.35.62-.056,1.254-.161,1.362-.186a14.31,14.31,0,0,1,1.691-.1,34.3,34.3,0,0,0,10.448-1.866c1.108-.356,3.973-1.221,6.424-1.874,5.565-1.508,5.011-1.33,7.011-1.991,2.048-.648,3.7-.972,4.034-.73a.852.852,0,0,0,.667-.043,3.176,3.176,0,0,1,1.334-.087,5.691,5.691,0,0,0,1.953-.143,2.554,2.554,0,0,1,1.334-.087,8.347,8.347,0,0,0,1.967.337,15.493,15.493,0,0,1,1.981.288,8.591,8.591,0,0,0,1.841.252c.887.065,1.62.144,1.667.155.033.062,2.071.681,3.057.93,1.282.27,2.418.874,5.93,3.03,1.93,1.174,3.939,2.422,4.54,2.785,1.235.788,1.112.863-1.616,1.075a14.821,14.821,0,0,0-2.414.345,5.061,5.061,0,0,1-1.395.124,7.869,7.869,0,0,0-1.92.2,8.687,8.687,0,0,1-1.78.24,2.248,2.248,0,0,0-1.113.2,1.321,1.321,0,0,1-.916.033,22.672,22.672,0,0,0-5.95.565.622.622,0,0,1-.606.006.932.932,0,0,0-.7-.017c-.277.088-.366.225-.24.31a.451.451,0,0,0,.451.007c.122-.075.31-.027.455.168.1.184.347.194.545.032a1.225,1.225,0,0,1,.977-.072c.376.1.812.152.949.028a23.521,23.521,0,0,1,4.6.1,9.875,9.875,0,0,0,2.418-.184c.85-.157,1.888-.265,2.353-.307a28.042,28.042,0,0,0,5.626-1.017l2.141-.624-.826.956a20.071,20.071,0,0,1-1.78,1.827,7.008,7.008,0,0,0-1.174,1.292,1.569,1.569,0,0,1-.634.634c-.4.164-.352.176.207.158.869-.045,4.663-3.112,5.434-4.4.371-.594-.31-1.56-1.911-2.652-.587-.412-1.76-1.238-2.54-1.857-2.352-1.811-7.263-4.531-8.085-4.474a29.977,29.977,0,0,1-3.489-.826l-.751-.19,1.517-.729c2.465-1.231,2.978-1.79,5.453-5.877,1.912-3.171,2.222-3.728,2.335-4.652a7.062,7.062,0,0,1,.893-2.422c.62-1.114.766-1.448.526-1.667-.61-.683-8.587-5.182-8.879-5.043a1.922,1.922,0,0,1-1.155-.185,7.492,7.492,0,0,0-4.034-.329c-.935.452-.9.144-.009-1.379a28.642,28.642,0,0,0,2.758-5.6A8.793,8.793,0,0,1,85.787,86.6c.836-1.165.878-1.314.62-1.643a.767.767,0,0,1-.188-.577c.3-.508-5.062-2.017-6.376-1.819a21.139,21.139,0,0,1-4.249-.807,6.52,6.52,0,0,0-2.376-.493.88.88,0,0,1-.625-.1,1.13,1.13,0,0,0-.794-.041c-.554.178-1.249-.209-1.042-.58.089-.136-.249-.01-.69.3a5.213,5.213,0,0,1-1.409.7c-.493.14-.526.079.024-.788a17.368,17.368,0,0,0,2.175-6.386,4.069,4.069,0,0,1,.235-1,8.589,8.589,0,0,0,.353-1.764,6.176,6.176,0,0,1,.85-1.744,3.843,3.843,0,0,0,.714-1.62c-.108-.5-1.568-.5-2.1-.053-.211.211-.427.263-.493.14-.216-.478-5.2,1.653-7.782,3.279a7.429,7.429,0,0,1-1.423.753,3.059,3.059,0,0,0-1.052.688,3.049,3.049,0,0,1-.93.612,6.736,6.736,0,0,0-1.127.775c-.347.336-1.362,1.245-2.179,1.991-1.832,1.656-5.274,5.075-5.195,5.148a3.6,3.6,0,0,1-.742.66A20.631,20.631,0,0,0,47.4,85.288c-2.316,3.174-7.511,12.028-7.68,13.15a11.077,11.077,0,0,1-.493,1.728c-1.63,4.3-1.87,5.14-2.209,7.384a7.631,7.631,0,0,1-.235,1,44.133,44.133,0,0,0-.659,5.128c-.038.308-.047,1.046-.108,1.613a25.065,25.065,0,0,0,.164,3.482,8.417,8.417,0,0,1-.01,2.856.888.888,0,0,0-.15.7,3.788,3.788,0,0,1,.047,1.071c-.071.776-.146.863-1.729,2a14.815,14.815,0,0,0-1.822,1.446.852.852,0,0,1-.456.362,11.949,11.949,0,0,0-1.55,1.2,12.212,12.212,0,0,1-1.761,1.409,3.3,3.3,0,0,0-.986.81,8.259,8.259,0,0,1-1.644,1.173,21.515,21.515,0,0,0-2.588,1.836,93.485,93.485,0,0,1-8.576,5.884c-.338.126-1.592.816-2.8,1.517-2.705,1.542-4.02,2.269-6.791,3.688A34.407,34.407,0,0,0,.6,147.491a19.83,19.83,0,0,1-2.217,1.241,6.1,6.1,0,0,0-1.526.939,5.211,5.211,0,0,1-1.4.863c-1.212.542-1.775.929-8.862,5.653-4.983,3.349-6.57,4.325-5.462,3.44a36.236,36.236,0,0,0,3.1-3.822c.343-.5.958-1.241,1.287-1.687,1.212-1.6,4.81-9.269,4.679-10.043a2.243,2.243,0,0,1,.305-1.246c.413-.743.794-3.135.527-3.255-.08-.073-.117-.294-.033-.591a7.33,7.33,0,0,0-.671-3.292,2.605,2.605,0,0,1-.31-1.031,2.266,2.266,0,0,0-.343-1.092,2.126,2.126,0,0,1-.46-.857c-.253-.7-.253-.7.583-1.335.456-.362,1.639-1.334,2.578-2.156,1-.859,2.062-1.756,2.442-2.031.911-.723,1.869-1.434,4.011-3.117a19.371,19.371,0,0,1,2.987-2,59.41,59.41,0,0,0,6.514-4.128c.117-.235,11.736-6.2,12.168-6.3a32.984,32.984,0,0,0,3.513-1.55,12.185,12.185,0,0,1,2.982-1.1A2.1,2.1,0,0,1,28.3,109a2.849,2.849,0,0,0,3.856-1.516,1.349,1.349,0,0,0-1.286-2.018,3.057,3.057,0,0,0-2.583.937,21.055,21.055,0,0,1-3.414,1.733,53.155,53.155,0,0,0-6.838,3.146c-.888.464-2.555,1.367-3.612,1.895-4.316,2.247-6.791,3.687-6.983,4.009a1.694,1.694,0,0,1-.869.575c-.629.265-.615.216,1-1.918,2.095-2.754,2.424-3.2,3.931-5.308,4.2-6.086,5.472-7.354,9.793-9.971a29.874,29.874,0,0,0,2.912-1.912,1.777,1.777,0,0,1,1.085-.1c2.071.152,3.344-2.015,2.015-3.356-.4-.365-.634-.424-1.451-.207a2.163,2.163,0,0,0-1.578,1.3,3.7,3.7,0,0,1-1.235,1.329,39.752,39.752,0,0,0-5.485,3.7,48.477,48.477,0,0,0-6.637,7.379c-.1.185-.714,1.09-1.325,2s-1.714,2.479-2.339,3.433c-.686.992-1.357,1.934-1.522,2.157-2.677,3.031-5.786,5.634-11.709,9.805a7.469,7.469,0,0,0-1.137.984,4.37,4.37,0,0,1-1.122.935,5.869,5.869,0,0,0-1.409,1.233c-.69.831-2,1.718-2.226,1.45a.558.558,0,0,1,.108-.555c.164-.223.747-1.029,1.268-1.8.536-.818,1.658-2.281,2.5-3.287,2.175-2.681,2.743-3.437,4.147-5.359A10.684,10.684,0,0,1-2.3,117.805a7.661,7.661,0,0,0,1.217-1.44,20.778,20.778,0,0,1,1.663-2.122,28.9,28.9,0,0,0,2.034-2.716c.7-1.041,1.611-2.293,2.029-2.876s3.147-5.029,6.125-10,5.5-9.041,5.67-9.1a14.112,14.112,0,0,0,1.555-1.567,23.531,23.531,0,0,1,6.059-4.825c.888-.464,2.019-1.079,2.461-1.391s1.522-1.1,2.4-1.723c.9-.674,2.221-1.61,2.86-2.084a69.486,69.486,0,0,0,6.8-5.645c.7-.672,2.038-2.027,3.02-3a30.071,30.071,0,0,0,2.245-2.4c.315-.4.944-1.191,1.409-1.762,4.8-5.723,6.7-8.475,9.62-14.3a64.055,64.055,0,0,0,4.055-11.206c.136-.654.32-1.3.376-1.493a17.771,17.771,0,0,0,.691-4.007,1.327,1.327,0,0,1,.193-.851,2.057,2.057,0,0,0,.249-1.049,17.079,17.079,0,0,1,.221-2.009c.165-.753.306-1.776.386-2.232s.16-.913.174-.962a8.768,8.768,0,0,0,.089-1.195,15.988,15.988,0,0,1,.174-2.021,3.087,3.087,0,0,0,.075-1.146,6.358,6.358,0,0,1,.1-2.832c.164-.223.188-.482.094-.506a3.524,3.524,0,0,1-.056-1.39c.056-.727.108-1.614.127-2.032,0-1.428.965-11.137,1.144-11.41.1-.186.1-.346.019-.419a4.057,4.057,0,0,1,.174-1.491C63.3,1.214,63.248.883,62.684,1.27ZM57.061,12.5c-1.451,2.44-2.922,4.769-3.326,5.3-.39.484-1.3,1.9-2.1,3.123a16.221,16.221,0,0,1-1.686,2.38,17.124,17.124,0,0,0-1.479,2.009c-2.161,3.161-3.236,4.636-4.782,6.523-.841,1.005-1.9,2.432-2.381,3.052a6.735,6.735,0,0,1-1.141,1.353c-.352.176-1.3,1.736-1.127,1.833a9.774,9.774,0,0,0,1.841-1.865c.963-1.081,1.94-2.211,2.226-2.509s1.2-1.391,2.09-2.384,1.912-2.112,2.259-2.448c.559-.547,2.076-2.335,4.443-5.338.479-.62.625-.954.536-1.347-.075-.442-.047-.541.324-.606s.742-.66,2.2-3.309c1.978-3.577,2.48-3.927.794-.488-.587,1.175-1.438,2.92-1.86,3.872s-1.151,2.621-1.6,3.672c-.465,1.1-1.029,2.546-1.226,3.237a52.764,52.764,0,0,1-2.288,5.722,3.386,3.386,0,0,0-.395,1.383.475.475,0,0,1-.188.482,4.5,4.5,0,0,0-.625,1.483,14.463,14.463,0,0,1-.987,2.4,3.022,3.022,0,0,0-.507,1.248c.066.123-.174.433-.46.731a2.567,2.567,0,0,0-.667,1.1c-.038.308-.033.468.042.381s.155-.014.16.146c0,.529,2.339-3.963,3.472-6.694a15.867,15.867,0,0,1,.935-2.041,62.612,62.612,0,0,0,3.035-6.751,7.2,7.2,0,0,1,.681-1.681,33.8,33.8,0,0,0,1.677-3.759c.564-1.446,1.292-3.115,1.644-3.82.338-.656.733-1.509.893-1.892l.23-.63.145.725a2.693,2.693,0,0,1-.235,1.529,3.127,3.127,0,0,0-.357,1.075,4.108,4.108,0,0,1-.277,1.147,7.043,7.043,0,0,0-.339,1.715c-.033.468-.165,1.282-.259,1.787a1.689,1.689,0,0,0-.047,1.047c.08.073.07.282-.047.517a.956.956,0,0,0-.136.654.747.747,0,0,1-.136.654,2.988,2.988,0,0,0-.3.877c-.118,1.294-.64,4.709-.9,5.967-.179.8-.367,1.813-.433,2.22a6.547,6.547,0,0,1-.536,1.876,15.274,15.274,0,0,0-.583,2.394l-.235,1.529.526-1.138a8.127,8.127,0,0,0,.573-1.655c.038-.308.108-.555.2-.531.108-.026.268-.409.395-.853a15.352,15.352,0,0,1,.47-1.47,10.328,10.328,0,0,0,.418-1.641c.094-.506.287-1.357.414-1.8a55.13,55.13,0,0,0,1.532-7.13,9.947,9.947,0,0,1,.348-1.924,5.3,5.3,0,0,0,.212-1.27,20.394,20.394,0,0,1,.715-3.737,2.7,2.7,0,0,0-.033-1.12,2.279,2.279,0,0,1,.536-1.876,9.061,9.061,0,0,0,.465-1.63c.343-1.555.6-1.914.479-.62a21.454,21.454,0,0,0-.014,2.167,4.628,4.628,0,0,1-.094,1.564,5.832,5.832,0,0,0-.155,1.6,13.021,13.021,0,0,1-.094,1.564,4.218,4.218,0,0,0,.009,1.378,4.778,4.778,0,0,1-.118,1.823,6.475,6.475,0,0,0-.244,1.738,3.783,3.783,0,0,1-.132,1.343,36.722,36.722,0,0,0-.837,4.871,10.431,10.431,0,0,1-.338,1.715,2.434,2.434,0,0,0-.094,1.035,2.829,2.829,0,0,1-.136,1.183,9.947,9.947,0,0,0-.555,1.766,53.232,53.232,0,0,1-4.435,12.539,78.921,78.921,0,0,1-7.53,11.918c-3.527,4.245-4.2,5.028-5.364,6.27-.662.733-1.6,1.715-2.142,2.213-.5.51-1.329,1.306-1.827,1.816a6.622,6.622,0,0,1-1.151,1.033,11.518,11.518,0,0,0-1.517,1.258c-1.273,1.108-2.461,1.92-1.691,1.162.211-.211.827-.956,1.414-1.6.554-.707,1.456-1.75,1.921-2.321,1.667-1.962,2.55-3.115,4.058-5.223a5.211,5.211,0,0,1,1.141-1.353,40.326,40.326,0,0,0,2.842-4.312c1.409-2.291,3.072-4.942,3.7-5.9A9.4,9.4,0,0,0,48.215,52.3c.08-.456.254-.889.362-.915s.075-.087-.127-.085c-.249-.01-.413.213-.6.7-.244.68-4.477,7.923-4.838,8.308-.075.087-.7,1.041-1.353,2.094-1.649,2.6-3.053,4.524-3.438,4.638a2.91,2.91,0,0,0-.841,1.006c-.3.508-.644.843-.737.82-.127-.085-.413.213-.634.634-.268.409-.568.757-.662.733a2.39,2.39,0,0,0-.892.834,5.209,5.209,0,0,1-1.212,1.071,2.67,2.67,0,0,0-.878.784,30.386,30.386,0,0,1-3.72,3.509c-.258.2-.911.723-1.564,1.247a43.4,43.4,0,0,1-5.138,3.892l-.69.3.6-.7c.315-.4.991-1.179,1.456-1.75.9-1.043,5.1-6.92,7.389-10.365.625-.954,1.743-2.578,2.443-3.619,1.846-2.764,6.736-10.9,8.329-13.834,1.09-2.054,1.334-2.734,1.259-3.176-.108-.5-.155-.515-.31.028a13,13,0,0,1-.911,1.782c-.432.632-1.527,2.527-2.475,4.087-.916,1.622-1.762,3-1.851,3.133-.075.087-.817,1.276-1.7,2.59a33.167,33.167,0,0,1-2.344,3.273A38.1,38.1,0,0,0,29.6,67.779a77.546,77.546,0,0,1-4.815,6.991c-2.705,3.659-3.17,4.229-3.913,4.889a5.948,5.948,0,0,0-1.428,1.652c-.164.223-.2.162-.3-.182a9.934,9.934,0,0,1,.926-3.419,1.858,1.858,0,0,0,.16-.913,1.652,1.652,0,0,1,.268-.938,16.212,16.212,0,0,0,.926-2.89,20.932,20.932,0,0,1,.822-2.7c.1-.186.677-1.841,1.245-3.656s1.3-3.854,1.607-4.571a4.768,4.768,0,0,0,.5-1.568,6.878,6.878,0,0,1,.62-1.643c1.348-2.783,1.724-3.747,1.635-4.14-.136-.4-.676-.276-.662.2a21.054,21.054,0,0,1-1.259,2.647,17.589,17.589,0,0,0-1.24,2.757,1.549,1.549,0,0,1-.3.877,12.4,12.4,0,0,0-1.438,3.449,22.731,22.731,0,0,1-.991,2.767,66.028,66.028,0,0,0-2.646,9.443,13.059,13.059,0,0,1-.5,1.938,7.317,7.317,0,0,0-.3,1.406.506.506,0,0,1-.033.468c-.1.186-.15.174-.207-.158a8.022,8.022,0,0,1,.038-2.425,11.623,11.623,0,0,0-.061-2.08,3.261,3.261,0,0,1,.024-1.317.568.568,0,0,0-.047-.541,4.767,4.767,0,0,1-.061-1.55A2.44,2.44,0,0,0,18,71.206c-.127-.085-.155-.515-.075-.972.3-1.406.339-2.773.09-2.783a.261.261,0,0,0-.226.261c-.042.148-.207.9-.371,1.653a6.166,6.166,0,0,0-.188,2.07,1.815,1.815,0,0,1-.108,1.084,4.494,4.494,0,0,0-.207,1.43c.033.59-.061,1.1-.169,1.122s-.16-.146-.15-.355a16.464,16.464,0,0,0-.08-1.661c-.066-.652-.1-1.772-.164-2.423a12.514,12.514,0,0,0-.211-1.906,1.937,1.937,0,0,1,0-1.059,2.206,2.206,0,0,0,.094-1.035c-.15-1.414-.032-2.708.485-6.812a63.417,63.417,0,0,1,2.961-11.428,61.907,61.907,0,0,1,9.4-16c.737-.82,1.865-2.124,2.541-2.906a27.858,27.858,0,0,1,2.081-2.175c.455-.361,1.409-1.233,2.165-1.942a30.149,30.149,0,0,1,2.353-1.895,6.118,6.118,0,0,0,1.245-1.01,1.938,1.938,0,0,1,.855-.526c.324-.077.662-.2.69-.3a7.424,7.424,0,0,1,1.634-1.494,95.236,95.236,0,0,0,7.679-6.269c.347-.336,1.362-1.245,2.226-1.98a13.4,13.4,0,0,0,1.874-1.8c.179-.273.39-.484.592-.486a2.278,2.278,0,0,0,.827-.427c.714-.561.723-.241.028.431-.333.286-.982.97-1.493,1.529s-1.414,1.6-2.048,2.236c-.6.7-1.4,1.553-1.714,1.95a8.089,8.089,0,0,1-1.268,1.268,14.635,14.635,0,0,0-1.6,1.555,18.171,18.171,0,0,1-2.1,1.9c-.653.524-1.653,1.383-2.273,1.968s-1.39,1.344-1.785,1.667c-.714.561-2.513,2.278-4.673,4.38a7.076,7.076,0,0,0-1.306,1.576,1.623,1.623,0,0,1-.723.771,4.6,4.6,0,0,0-1.216,1.44c-.371.595-.714,1.09-.808,1.067a8.566,8.566,0,0,0-2.085,2.544c-.212.741.192.737.606-.006A9.181,9.181,0,0,1,33.362,33.1a5.987,5.987,0,0,0,1.273-1.108,50.215,50.215,0,0,1,4.039-3.746c.183-.113,1.381-1.134,2.607-2.254,3.118-2.813,4.147-3.771,5.406-4.83a61.331,61.331,0,0,0,5.688-5.818,5.2,5.2,0,0,1,.916-1.092c.681-.622,4.194-4.818,5.167-6.108a11.883,11.883,0,0,1,1.456-1.75c.061-.038-.038.308-.165.753C59.781,7.737,58.5,10.113,57.061,12.5ZM58,13.639c-.164.223-.362.385-.441.312-.127-.085-.117-.294.061-.567.164-.223.362-.385.442-.312S58.113,13.4,58,13.639ZM69.247,73.485a12.167,12.167,0,0,1-.639,2.062,12.326,12.326,0,0,0-.315,1.985,5.462,5.462,0,0,1-1.146,3.311,10.449,10.449,0,0,1-1.588,2.035,4.615,4.615,0,0,0-.888.994,6.958,6.958,0,0,1-1.329,1.306c-1.658,1.223-1.794,1.347-3.706,2.93A58.982,58.982,0,0,0,54.062,93a10.062,10.062,0,0,1-1.634,1.494,44.5,44.5,0,0,0-4.908,5.379,65.1,65.1,0,0,0-4.956,7.485c-1.32,2.155-1.635,2.552-1.6,2.084a3.994,3.994,0,0,1,.545-1.557,22.859,22.859,0,0,0,.977-2.718,6.394,6.394,0,0,1,.662-1.791,1.559,1.559,0,0,0,.268-.938,3.255,3.255,0,0,1,.428-1.322c1.043-1.537,1.611-2.823,1.33-2.894-.953-.187-6.821,11.726-6.967,14.177-.056.727-.259,1.788-.385,1.7a44.4,44.4,0,0,1,.579-5.2,15.527,15.527,0,0,1,.367-1.813l.775-2.716a18.4,18.4,0,0,1,.916-2.68,1.467,1.467,0,0,0,.254-.889c-.089-.393.714-2.149,2.1-4.711a9.942,9.942,0,0,0,1.062-2.485,14.29,14.29,0,0,1,1.423-2.87c.756-1.239,1.513-2.477,1.63-2.712a30.822,30.822,0,0,1,3.711-4.358c.681-.622,1.752-1.729,2.414-2.462A12.346,12.346,0,0,1,54.637,79.7c.427-.263,2.733-2.169,4.02-3.327a8.462,8.462,0,0,1,1.245-1.01,4.141,4.141,0,0,0,.892-.834,2.733,2.733,0,0,1,1.174-.763,2.179,2.179,0,0,0,.751-.34,4.273,4.273,0,0,1,1.038-.638c.765-.389.92-.4.714-.032-.164.223-.376.435-.531.449s-.427.263-.606.535a2.872,2.872,0,0,1-.892.834,6.109,6.109,0,0,0-1.536,1.677,25.956,25.956,0,0,1-1.6,2.084,4.219,4.219,0,0,0-.8,1.227c-.066.407.056.332.859-.366.967-.921,2.029-1.818,2.757-2.428.211-.211,1.461-1.061,2.738-2.009,1.263-.9,2.846-2.035,3.438-2.521a5.148,5.148,0,0,1,1.235-.8A5.663,5.663,0,0,1,69.247,73.485Zm14.221,11.9c-.155.014-.85.156-1.531.249-3.2.463-11.815,4.009-15.046,6.158a11.681,11.681,0,0,1-1.4.864,4.123,4.123,0,0,0-1.432.962,2.057,2.057,0,0,1-.794.488,29.3,29.3,0,0,0-5.485,3.7,1.121,1.121,0,0,1-.686.462c-.634.1-1.564,1.247-1.216,1.44.174.1.559-.018.878-.255a10.007,10.007,0,0,1,1.188-.812c.549-.338,1.31-.887,3.1-2.235a7.615,7.615,0,0,1,1.052-.688c.427-.263,1.559-.877,3.485-1.98a4.844,4.844,0,0,0,.855-.526c.183-.113.7-.352,1.165-.553a3.488,3.488,0,0,0,1.038-.638.328.328,0,0,1,.446-.152c.127.085.573-.067.986-.281a9.114,9.114,0,0,1,1.719-.731,3.152,3.152,0,0,0,1.165-.553,1.12,1.12,0,0,1,.892-.3,6.216,6.216,0,0,0,1.85-.486,3.564,3.564,0,0,1,1.277-.419c.094.024,1.662-.534,3.522-1.229s3.428-1.253,3.428-1.253-.352.705-.78,1.5-1.456,2.809-2.264,4.4c-1.95,4.008-3.091,5.89-4.777,7.741a34.358,34.358,0,0,1-6.721,4.5,39.952,39.952,0,0,0-3.56,2.067,2.008,2.008,0,0,1-.737.29,13.14,13.14,0,0,0-2.559,1.208c-1.024.589-2.433,1.292-3.062,1.557a4.74,4.74,0,0,0-1.315.727,5.45,5.45,0,0,1-1.362.716c-2.1.846-4.283,1.778-5.523,2.419-.643.314-1.348.666-1.578.766a66.116,66.116,0,0,0-6.533,3.488,4.765,4.765,0,0,1-1.216.911,6.22,6.22,0,0,0-1.442,1.171,3.088,3.088,0,0,1-.634.635c-.108.025-.333.286-.5.509-.178.273-.3.348-.338.127-.108-.5,3.194-6.076,5.346-9.028,1.062-1.426,2.227-3.038,2.569-3.534a18.515,18.515,0,0,1,1.287-1.687c.615-.744.568-.756.075-.616a11.463,11.463,0,0,0-2.17,1.782,21.5,21.5,0,0,1-1.921,1.792,32.3,32.3,0,0,0-3.828,4.593l-1.527,2,.7-1.57a51.936,51.936,0,0,1,4.646-7.986,80.554,80.554,0,0,1,6.787-9.141c1.522-1.628,6.2-5.848,9.4-8.588.47-.411,1.592-1.345,2.456-2.08a21.908,21.908,0,0,1,4.523-3.148c1.86-.7,7.72-.595,11.317.206.906.176,2.329.481,3.188.645C83.524,85.183,83.933,85.339,83.468,85.381Zm10.28,15.825a2.984,2.984,0,0,1-1.616.546,14.2,14.2,0,0,0-2.926.9c-1.521.569-3.306,1.178-3.968,1.382a4.2,4.2,0,0,0-1.381.6,2.539,2.539,0,0,1-1.043.479,8.021,8.021,0,0,0-1.611.7,7.17,7.17,0,0,1-1.686.793,19.054,19.054,0,0,0-3.226,1.251l-.7.351.822-.057a13.687,13.687,0,0,0,3.729-1.072A118.828,118.828,0,0,1,92.3,103.116a6.464,6.464,0,0,0,1.536-.618.26.26,0,0,1,.291-.139,8.221,8.221,0,0,1-1,2.078c-.62,1.114-1.686,2.91-2.321,4.074-2.527,4.444-3.251,5.215-6.416,6.428a14.11,14.11,0,0,0-2.16,1.044,2.519,2.519,0,0,1-1.573.4c-.5-.02-1.634-.094-2.46-.2a9.492,9.492,0,0,0-2.451.123,2.208,2.208,0,0,1-1.1.147,14.842,14.842,0,0,0-4.062.3.853.853,0,0,1-.667.044c-.221-.109-1.639.275-9.326,2.518-2.742.791-5.485,1.582-6.086,1.748-2.329.577-3.193.783-4.8,1.119-3.165.684-3.907.815-4.16.645a1.319,1.319,0,0,0-.733-.079c-.263.04-1.038.109-1.752.141l-1.272.05,1.831-.6a38.141,38.141,0,0,0,5.729-2.261A32.475,32.475,0,0,1,54.324,118a4.426,4.426,0,0,0,1.653-.854,1.738,1.738,0,0,1,1.029-.429,6.959,6.959,0,0,0,2.348-1c1.024-.589,1.648-1.013,1.338-.986a3.5,3.5,0,0,0-1.78.769,2.929,2.929,0,0,1-1.77.559c-.254-.169-1.493.471-1.991.981a.8.8,0,0,1-.756.18,3.751,3.751,0,0,0-1.7.312c-.723.241-2.752,1-4.536,1.609-1.8.658-4.043,1.469-5.058,1.848-.967.391-2.151.834-2.55,1a3.854,3.854,0,0,0-.888.465c-.089.136-.15.173-.169.063-.056-.332,2.226-2.509,3.6-3.434a22.884,22.884,0,0,1,2.705-1.541c.765-.389,1.93-.943,2.573-1.257,1.409-.7,4.245-2,5.091-2.316,1.23-.431,5.293-2.318,6.072-2.757.474-.251,1.179-.6,1.517-.729a8.289,8.289,0,0,0,1.728-.941,12.3,12.3,0,0,1,2.235-1.13,5.422,5.422,0,0,0,1.287-.628,9.465,9.465,0,0,1,1.62-.915,31.959,31.959,0,0,0,4.9-2.893,21.621,21.621,0,0,1,2.151-1.363,8.6,8.6,0,0,0,2.832-2.516c.329-.446,1.123-1.463,1.738-2.208.991-1.179,1.235-1.329,1.583-1.136a11.5,11.5,0,0,0,4.1.98,13.41,13.41,0,0,1,6,2.094,5.169,5.169,0,0,0,1.92.855C93.518,100.778,93.912,100.983,93.748,101.206ZM-1.186,63.14A10.392,10.392,0,0,1,.508,66.372a22.121,22.121,0,0,1,.046,5.834A12.285,12.285,0,0,0,.431,74.4a1.435,1.435,0,0,1-.16.913,6.108,6.108,0,0,0-.451,1.58,10.042,10.042,0,0,1-1.907,4.389l-.766.919.235-1c.329-1.5.583-4.511.358-4.78-.258-.33-.7.512-.559,1.077.084.233.061.492-.061.567a4.822,4.822,0,0,0-.644,1.373A9.94,9.94,0,0,1-5.4,82.828c-.108.026-.052-.172.066-.407a1.183,1.183,0,0,0,.2-.691,7.131,7.131,0,0,1,.076-1.675A10.28,10.28,0,0,0-5.026,78a2.593,2.593,0,0,1,.019-.948,2.016,2.016,0,0,0,.052-.887,1.39,1.39,0,0,1,.085-.826,1.218,1.218,0,0,0-.15-.885,1.456,1.456,0,0,1-.061-1.021.967.967,0,0,0,.089-.666c-.183-.417-.742,1.189-.6,1.914a1.828,1.828,0,0,1-.08.986,3.375,3.375,0,0,0-.221.95c-.038.308-.226,1.319-.339,2.244-.16.913-.329,2.034-.348,2.453-.047,1.047-.169,1.122-.535.288A7.182,7.182,0,0,0-7.7,80.5a2.452,2.452,0,0,1-.211-1.377,3.579,3.579,0,0,0-.2-1.426c-.244-.379-.258-.33-.474.78a6.054,6.054,0,0,0,.126,2.731,3.411,3.411,0,0,1,.2,1.586c-.216.051-1.122-1.183-1.314-1.919a7.905,7.905,0,0,0-.516-1.189,3.259,3.259,0,0,1-.375-1.153.91.91,0,0,0-.347-.723.592.592,0,0,1-.235-.588.47.47,0,0,0-.108-.5c-.3-.182-.545.5-.418,1.112a4.739,4.739,0,0,1,.1,1.242c-.061.567-.061.567-.512.03-.484-.6-1.652-4.969-1.445-5.34a3.471,3.471,0,0,0,.057-1.256c-.145-1.783.945-5.426,2.2-7.543a5.38,5.38,0,0,1,1.24-1.7c.08.073-.08.456-.3.877a10.251,10.251,0,0,0-1.006,3.875,2.886,2.886,0,0,1-.442,1.371c-.385.644-.334,1.874.047,2.129a.285.285,0,0,1,.089.393c-.1.186-.07.247.127.085a1.049,1.049,0,0,0,.212-.741,7.743,7.743,0,0,1,.3-1.936,4.791,4.791,0,0,0,.226-1.849,1.842,1.842,0,0,1,.277-1.148,2.876,2.876,0,0,0,.376-.964c-.108-.5,1.288-4.334,1.494-4.176a4.155,4.155,0,0,1-.043,1.207,12.729,12.729,0,0,0-.17,3.239.924.924,0,0,1-.042.677,7.659,7.659,0,0,0,.319,2.939,4.638,4.638,0,0,0,.24-1.369,6.329,6.329,0,0,1,.338-1.714.846.846,0,0,0,.122-.6,22.954,22.954,0,0,1,.3-4.213,1.882,1.882,0,0,1,.488.758,5.06,5.06,0,0,1,.371.993,30.821,30.821,0,0,0,.736,5c.183.417.23.429.376.095a4.743,4.743,0,0,0,.324-1.136,8.277,8.277,0,0,1,.207-.9,2.408,2.408,0,0,0-.075-.972A1.878,1.878,0,0,1-5.1,64.164c.178-.273-.314-1.72-.92-2.773s-.408-1.215,1.174-.763A7.083,7.083,0,0,1-1.186,63.14Zm93.26,72.316a4.034,4.034,0,0,0,.854,1.062,31.42,31.42,0,0,1,2.995,4.143l.441.746-1.634.435c-.878.255-2.616.876-3.8,1.319-2.5,1.01-6.753,2.32-7.007,2.15a5.366,5.366,0,0,0-1.676.054,5.471,5.471,0,0,1-1.535.089,10.529,10.529,0,0,0-2.935.055c-2.62.186-9.875-.32-10.6-.768a1.122,1.122,0,0,0-.8-.2,1.958,1.958,0,0,1-1.08-.272,2.737,2.737,0,0,0-.958-.348,27.771,27.771,0,0,1-5.184-1.412c-6.325-2.177-13.926-7.111-16.137-10.473-.343-.563-.732-1.138-.845-1.272-.1-.184.488.229,1.362.872a30.952,30.952,0,0,0,5.944,3.51,10.811,10.811,0,0,1,1.54.6,14.826,14.826,0,0,0,3.785,1.378,5.8,5.8,0,0,1,1.535.44,4.825,4.825,0,0,0,2.061.361,2.467,2.467,0,0,1,1.183.086c.066.123.314.133.545.032.4-.164.319-.237-.357-.514a9.414,9.414,0,0,0-1.643-.414,4.986,4.986,0,0,1-1.775-.659,8.3,8.3,0,0,0-1.244-.578,34.777,34.777,0,0,1-6.644-3c-2.357-1.441-7.287-5.33-7.427-5.9-.056-.332,2.179.655,4.7,2.033,2.7,1.475,4.165,2.162,4.709,2.193a11.877,11.877,0,0,1,2.484,1,22.635,22.635,0,0,0,2.911,1.263,17.9,17.9,0,0,1,1.695.586,3.156,3.156,0,0,0,1.249.209,1.5,1.5,0,0,1,1.047.211,34.1,34.1,0,0,0,7.635,1.29c1,.039,2.413.185,3.1.252a9.752,9.752,0,0,0,2.174-.035,10.212,10.212,0,0,1,2.113,0,9.6,9.6,0,0,0,2.08-.058c.479-.091,1.47-.212,2.137-.255,3.01-.142,4.527-.341,5.17-.656.352-.176.737-.29.864-.205a11.912,11.912,0,0,0,2.766-.52C90.736,133.795,91.205,133.913,92.074,135.456Zm-51.5-24.84c-.136.124-.169.063-.038-.221.117-.235.24-.31.272-.249A.749.749,0,0,1,40.576,110.616ZM-32.1,79.908a8.9,8.9,0,0,0,.047,2.129,12.31,12.31,0,0,1,.183,2,3.706,3.706,0,0,0,.263,1.548,4.9,4.9,0,0,1,.319,1.88,5.873,5.873,0,0,0,.239,1.807,3.217,3.217,0,0,1,.136,1.464,6.955,6.955,0,0,0,.122,2.042,2.937,2.937,0,0,1,.1,1.242,9.038,9.038,0,0,0,.047,2.129,51.581,51.581,0,0,1-.956,11.986c-.221.95-.555,2.3-.644,2.961a12.193,12.193,0,0,1-.681,2.21c-.216.581-.888,2.582-1.485,4.5a39.6,39.6,0,0,1-1.4,4.039,4.288,4.288,0,0,0-.474,1.31,7.682,7.682,0,0,1-.456,1.42,7.568,7.568,0,0,0-.554,1.237c-.1.345-.564,1.446-.94,2.409a18.338,18.338,0,0,0-.987,2.928c-.258,1.258-1.1,3.322-1.273,3.225a16.846,16.846,0,0,1-.891-4.459c-.07-.812-.126-1.673-.183-2.005s-.117-1.353-.159-2.263c-.028-.96-.117-1.882-.14-2.153-.037-.221-.028-.43,0-.369a2.873,2.873,0,0,0,.174-.962,22.512,22.512,0,0,1,.494-4.375,1.255,1.255,0,0,0-.07-.812,1.587,1.587,0,0,1,.033-1,5.748,5.748,0,0,0,.179-1.86,3.547,3.547,0,0,1,.141-1.553c.108-.026.164-.223.174-.433a7.029,7.029,0,0,1,.216-1.639,2.864,2.864,0,0,0,.085-1.355c-.254-.17-.4.164-.615,1.274-.108.555-.315,1.456-.484,2.049a3.586,3.586,0,0,0-.057,1.785,1.078,1.078,0,0,1-.183,1.171,1.816,1.816,0,0,0-.315,1.456,8.684,8.684,0,0,1-.146,1.922,40.736,40.736,0,0,0-.265,7.45.937.937,0,0,1,0,.689,5.513,5.513,0,0,0-.137,1.712c.023.8-.029,2.216-.081,3.1-.108,1.614-.108,1.614-.493,1.2a5.8,5.8,0,0,1-.779-1.678,5.471,5.471,0,0,0-.568-1.361,4.793,4.793,0,0,1-.577-1.681,5.641,5.641,0,0,0-.544-1.619,32.53,32.53,0,0,1-1.2-6.549c-.042-.91-.169-2.054-.215-2.6a20.235,20.235,0,0,1,.057-2.844,26.337,26.337,0,0,0,.1-2.992,15.032,15.032,0,0,1,.151-2.291c.089-.666.207-1.43.244-1.739s.169-1.121.32-1.825.493-2.257.738-3.466a18.859,18.859,0,0,1,.916-3.21,15.8,15.8,0,0,0,.691-1.89,2.642,2.642,0,0,1,.348-.865,3.031,3.031,0,0,0,.493-1.2c.733-2.568,4.89-10.254,7.516-13.985a11.6,11.6,0,0,0,.892-1.363c.639-1,.563-.387-.193,1.91-1.428,4.3-2.1,6.459-2.331,7.458a32.328,32.328,0,0,0-.757,3.885,4.108,4.108,0,0,1-.277,1.148,6.549,6.549,0,0,0-.381,1.333c-.038.308-.188,1.011-.249,1.578a15.019,15.019,0,0,0-.212,1.8,3.342,3.342,0,0,1-.277,1.148,1.777,1.777,0,0,0-.2.691,5.4,5.4,0,0,1-.2,1.221,2.917,2.917,0,0,0-.085,1.355.565.565,0,0,1-.183.642c-.136.124-.193.322-.1.345.127.085.089.393-.01.739s-.122.6-.061.567a3.144,3.144,0,0,0,.559-2.135,1.034,1.034,0,0,1,.132-.814c.333-.287.719-1.989.5-2.1-.08-.073,0-.369.2-.691a4.379,4.379,0,0,0,.437-1.531,7.047,7.047,0,0,1,.324-1.665c.851-2.8,2.2-7.014,2.476-7.792.2-.531.63-1.853.94-2.939s.7-2.26.827-2.544c.146-.334.442-1.371.709-2.309C-32.308,78.532-31.815,77.862-32.1,79.908Zm78.664,79.541.812.681-1.474-.477a6.228,6.228,0,0,0-1.8-.4.981.981,0,0,1-.672-.116,3.805,3.805,0,0,0-2.32-.161c-.075.087-.4,0-.7-.178-.427-.266-.676-.276-.808.008-.178.273-.019.419,1,.889,2.235.987,5.588,1.938,6.329,1.807.216-.051-.056.2-.639.474a75.231,75.231,0,0,1-11.031,3.2A18.869,18.869,0,0,1,23.9,163.739c-1.038-.42-2.3-.949-2.892-1.152a51,51,0,0,1-6.723-4.13c-.366-.3-1.831-1.521-3.249-2.725a48.448,48.448,0,0,0-6.287-4.6c-.3-.182-.432-.427-.31-.5a.3.3,0,0,1,.343.034,5.789,5.789,0,0,0,1.9.584,22.436,22.436,0,0,1,2.582.651c.455.168,1.723.487,2.8.76,1.127.284,2.535.639,3.16.743a11.553,11.553,0,0,1,1.568.5c.916.5,3.573,1.059,2.954.585-.08-.073-.319-.292-.526-.45a1.4,1.4,0,0,0-.85-.373,6.2,6.2,0,0,1-1.521-.489c-.582-.253-1.113-.334-1.141-.235-.089.136-.23.1-.329-.083a4.774,4.774,0,0,0-1.733-.807c-3.31-1.1-7.109-2.428-7.409-2.609-.207-.158-.131-.245.395-.324a1.951,1.951,0,0,1,.869-.046,10.969,10.969,0,0,0,2.324-.208,44.784,44.784,0,0,1,10.889.469,72.065,72.065,0,0,1,10.044,2.373c.549.192,1.381.454,1.93.646a37.4,37.4,0,0,1,5.883,2.489,13.877,13.877,0,0,0,3.005,1.286C42.2,156.231,44.069,157.443,46.567,159.449ZM-15.17,128.164a.931.931,0,0,1,.3.551,17.67,17.67,0,0,0,.793,2.158c.066.123-.127.445-.46.731a5.6,5.6,0,0,0-1.123,1.464l-.578.966-.028-2.019a8.369,8.369,0,0,1,.165-2.34,10.594,10.594,0,0,0,.386-2.232c.212-2.329.358-2.662.38-.8A3.13,3.13,0,0,0-15.17,128.164Zm-2.578.567a7.013,7.013,0,0,0-.048,4.223l.46,2.445-.939,1.351c-.521.769-1.386,2.033-1.968,2.839-1.015,1.438-1.076,1.475-1.08.786a13.213,13.213,0,0,1,.6-4.4,13.44,13.44,0,0,0,.418-1.642,17.467,17.467,0,0,1,1.269-3.915,33.649,33.649,0,0,0,1.471-3.387c.042-.148.178-.273.258-.2C-17.321,126.881-17.466,127.744-17.748,128.731Zm4.174,4.07c-.366.225-.413.213-.221-.109.207-.371.62-.585.643-.314A.844.844,0,0,1-13.575,132.8Zm1.38,1.512a.864.864,0,0,1,.3.711,4.444,4.444,0,0,0,.38,1.313c.183.417.385.944.469,1.177.038.222.169.466.188.577.357.513.206,3.863-.194,4.557a3.092,3.092,0,0,0-.366,1.283,4.974,4.974,0,0,1-.465,1.63c-.221.421-.775,1.657-1.24,2.757a39.414,39.414,0,0,1-3.829,6.711c-3.03,4.265-3.551,4.5-2.019,1.079a3.917,3.917,0,0,0,.39-1.543c-.07-.282-.014-.48.094-.506a4.444,4.444,0,0,0,.573-2.184c-.08-.073-.277.089-.441.312s-.188.482-.094.506c.08.073-.033.468-.315.926-.235.47-.78,1.5-1.16,2.3-.47.941-.648,1.213-.582.806a8.588,8.588,0,0,0,.183-1.171c.038-.308.122-1.134.24-1.9a7.342,7.342,0,0,0,.127-1.5c-.019-.111-.047-.541-.075-.972a36.462,36.462,0,0,0-.727-5.212,9.409,9.409,0,0,1-.187-2.694,17.622,17.622,0,0,1,3.006-4.006q.881-.969,1.141-.824c.347.194.737-.29.54-.658s.606-1.594,1.282-1.847a1.8,1.8,0,0,0,.714-.561c.282-.458,1.879-1.643,1.794-1.347C-12.42,134.045-12.368,134.216-12.195,134.313Zm-9.817,13.406c.431,3.073.474,3.454.3,3.726a.526.526,0,0,0,.047.541,10.488,10.488,0,0,1,.06,2.61c-.071,1.305-.127,2.561-.137,2.771a16.639,16.639,0,0,1-.743,4.894,7.085,7.085,0,0,1-1.587,1.505,6.18,6.18,0,0,0-1.334,1.146,3.734,3.734,0,0,1-.817.747c-.366.225-1.428,1.122-2.367,1.944-.953.871-1.94,1.681-2.2,1.881s-.864.735-1.395,1.183c-.545.5-1.846,1.7-2.982,2.689a18.4,18.4,0,0,0-2.489,2.549,3.267,3.267,0,0,1-.949,1.031,31.9,31.9,0,0,0-4.683,5.118c-1.287,1.688-1.484,1.85-1.24,1.17.188-.482.921-1.991,1.673-3.39,1.282-2.376,2.015-3.885,3-5.914.367-.754,6.389-11.623,6.91-12.391,2.048-3.3,9.766-15.165,10.231-15.736C-22.438,145.335-22.288,145.69-22.012,147.719ZM-54.76,193.667a.207.207,0,0,1-.324.077.212.212,0,0,1-.056-.332.207.207,0,0,1,.324-.077C-54.723,193.359-54.718,193.519-54.76,193.667Z" fill="#93745f"/>
    <path id="Path_2" data-name="Path 2" d="M80.665,129.657c-.455.156-.47.206.1.188.619-.006.854-.109.547-.295C81.279,129.488,80.962,129.516,80.665,129.657Z" fill="#93745f"/>
    <path id="Path_3" data-name="Path 3" d="M50.9,43.91a.232.232,0,1,0,.328-.077A.223.223,0,0,0,50.9,43.91Z" fill="#93745f"/>
    <path id="Path_4" data-name="Path 4" d="M36.344,39.335c-.116.234-.1.344.038.22a.588.588,0,0,0,.219-.419C36.581,39.026,36.507,39.112,36.344,39.335Z" fill="#93745f"/>
    <path id="Path_5" data-name="Path 5" d="M42.881,46.033c-.364.59-.419.785-.161.746.272-.088.387-.321.479-.823C43.361,45.21,43.361,45.21,42.881,46.033Z" fill="#93745f"/>
    <path id="Path_6" data-name="Path 6" d="M28.209,36.977a41.682,41.682,0,0,0-2.339,3.529c-1.145,1.849-2.131,3.478-2.2,3.564-.244.355-2.258,4.283-2.792,5.505A67.55,67.55,0,0,0,17.669,59a5.853,5.853,0,0,1-.3,1.439c-.529.857-1.128,4.052-.77,3.987.344-.016,1.919-4.109,2.005-5.29a50.267,50.267,0,0,1,1.983-6.081c.235-.672.426-1.355.48-1.55a2.49,2.49,0,0,1,.353-.746A15.443,15.443,0,0,0,22.5,48.268c.475-1.185.95-2.371,1.136-2.689,1.113-1.91,4.96-8.764,4.914-8.776C28.476,36.889,28.326,36.9,28.209,36.977Z" fill="#93745f"/>
    <path id="Path_7" data-name="Path 7" d="M34.733,41.274a6.8,6.8,0,0,0-1,1.225c-.846,1.212-.738,1.186.659-.2C35.219,41.5,35.434,40.923,34.733,41.274Z" fill="#93745f"/>
    <path id="Path_8" data-name="Path 8" d="M48.781,49.856c-.116.234-.1.344.038.22a.587.587,0,0,0,.219-.419C49.019,49.547,48.9,49.622,48.781,49.856Z" fill="#93745f"/>
    <path id="Path_9" data-name="Path 9" d="M48.036,50.7c-.176.27-.171.429-.037.306a.909.909,0,0,0,.306-.552C48.3,50.29,48.166,50.413,48.036,50.7Z" fill="#93745f"/>
    <path id="Path_10" data-name="Path 10" d="M41.594,48.5c-.287.3-.315.4-.1.345a.591.591,0,0,0,.423-.422C41.974,48.225,41.819,48.239,41.594,48.5Z" fill="#93745f"/>
    <path id="Path_11" data-name="Path 11" d="M16.735,64.8a4.044,4.044,0,0,1-.323.968c-.5,1.08-.258,1.615.308.656.58-1.007.687-1.558.346-1.75C16.883,64.629,16.717,64.692,16.735,64.8Z" fill="#93745f"/>
    <path id="Path_12" data-name="Path 12" d="M57.317,81.358c-.46.363-.474.412-.251.522.256.171.806-.329.673-.575C57.672,81.182,57.516,81.2,57.317,81.358Z" fill="#93745f"/>
    <path id="Path_13" data-name="Path 13" d="M47.809,94.113c-.785,1.012-1.133,1.714-1.007,1.8.172.1.172.1.882-.829a1.472,1.472,0,0,0,.358-.91C47.976,94.05,47.883,94.027,47.809,94.113Z" fill="#93745f"/>
    <path id="Path_14" data-name="Path 14" d="M45.7,97.519c-.585.645-.609.9-.159.911.356-.016.726-.609.726-1.138C46.243,97.022,46.075,97.085,45.7,97.519Z" fill="#93745f"/>
    <path id="Path_15" data-name="Path 15" d="M55.549,100.945a2.212,2.212,0,0,0-.813.539,6.518,6.518,0,0,1-1.158,1.038c-.52.4-.931.775-.9.837.052.172.822-.219.94-.455a1.834,1.834,0,0,1,.69-.464c.354-.176.628-.426.61-.537s.18-.274.52-.4a1.143,1.143,0,0,0,.643-.476C56.078,100.865,55.889,100.818,55.549,100.945Z" fill="#93745f"/>
    <path id="Path_16" data-name="Path 16" d="M51.772,103.628a.951.951,0,0,0-.135.65c.065.122.247.011.438-.31s.228-.626.135-.65A.5.5,0,0,0,51.772,103.628Z" fill="#93745f"/>
    <path id="Path_17" data-name="Path 17" d="M49.27,106.138c-.124.075-.152.175-.024.26a.243.243,0,0,0,.328-.077c.09-.137.071-.248.023-.26C49.565,106,49.442,106.075,49.27,106.138Z" fill="#93745f"/>
    <path id="Path_18" data-name="Path 18" d="M76.476,109.933c-.434.266-.238.476.229.272.281-.09.372-.228.243-.314A.786.786,0,0,0,76.476,109.933Z" fill="#93745f"/>
    <path id="Path_19" data-name="Path 19" d="M63.521,115.321c-.543.292-.5.3.052.174.329-.078.576-.23.557-.342S63.831,115.131,63.521,115.321Z" fill="#93745f"/>
    <path id="Path_20" data-name="Path 20" d="M62.434,115.707c-.3.506-.229.628.225.268.136-.124.253-.359.187-.481C62.734,115.36,62.565,115.423,62.434,115.707Z" fill="#93745f"/>
    <path id="Path_21" data-name="Path 21" d="M97.136,142.676c-.3.145-.618.174-.638.058a.207.207,0,0,0-.353-.035.756.756,0,0,1-.691-.122,15.045,15.045,0,0,0-3.545-.467c-3.41-.211-5.333-.372-7.352-.558-4.681-.482-7.337-.609-8.323-.419a3.493,3.493,0,0,1-1.14-.182,1.655,1.655,0,0,0-1.246.013.987.987,0,0,1-.845.06c-.179-.1-.468-.176-.609-.045a.658.658,0,0,1-.642-.11,1.5,1.5,0,0,0-1.038.011c-.522.2-.6.29-.295.312.98.2,4.41.524,5.323.592a4.456,4.456,0,0,1,1.333.231,5.265,5.265,0,0,0,1.638.255,10.077,10.077,0,0,1,1.6.19,13.859,13.859,0,0,0,3.84.155,57.613,57.613,0,0,1,6.594.307,15.523,15.523,0,0,0,2.8,0,2.441,2.441,0,0,1,1.41.141c.923.4,3.628-.011,2.879-.481C97.769,142.45,97.435,142.531,97.136,142.676Z" fill="#93745f"/>
    <path id="Path_22" data-name="Path 22" d="M68.426,139.971c-.124.075-.166.224-.023.26a.223.223,0,0,0,.328-.077c.09-.137.071-.248.023-.26C68.721,139.832,68.6,139.907,68.426,139.971Z" fill="#93745f"/>
    <path id="Path_23" data-name="Path 23" d="M40.124,158.744a.232.232,0,1,0,.328-.077A.224.224,0,0,0,40.124,158.744Z" fill="#93745f"/>
    <path id="Path_24" data-name="Path 24" d="M39.152,158.485a.232.232,0,1,0,.328-.077C39.352,158.323,39.195,158.336,39.152,158.485Z" fill="#93745f"/>
    <path id="Path_25" data-name="Path 25" d="M28.721,156.209c-.124.076-.153.175-.071.249a.418.418,0,0,0,.473-.041c.124-.076.153-.176.071-.25A.684.684,0,0,0,28.721,156.209Z" fill="#93745f"/>
    <path id="Path_26" data-name="Path 26" d="M27.761,155.9c-.124.076-.166.225-.023.261a.223.223,0,0,0,.328-.078c.09-.137.071-.248.024-.26A.552.552,0,0,0,27.761,155.9Z" fill="#93745f"/>
    <path id="Path_27" data-name="Path 27" d="M25.5,155.028c-.392.116-.43.428-.033.475a.476.476,0,0,0,.5-.142C26.071,155.173,25.827,154.95,25.5,155.028Z" fill="#93745f"/>
    <path id="Path_28" data-name="Path 28" d="M22.684,154.274c-.315.028-.3.14-.019.424.425.482.692.442.711.018C23.381,154.342,23.2,154.244,22.684,154.274Z" fill="#93745f"/>
    <path id="Path_29" data-name="Path 29" d="M21.247,154a.665.665,0,0,0,.282.446c.177.1.334.084.425-.054s-.058-.336-.282-.446S21.242,153.838,21.247,154Z" fill="#93745f"/>
  </g>
</svg>
