<svg xmlns="http://www.w3.org/2000/svg" xmlns:xlink="http://www.w3.org/1999/xlink" width="25" height="25" viewBox="0 0 25 25">
  <defs>
    <clipPath id="clip-path">
      <rect id="Rectangle_2" data-name="Rectangle 2" width="25" height="25" fill="#fff"/>
    </clipPath>
  </defs>
  <g id="wedding-location1" clip-path="url(#clip-path)">
    <path id="Path_54" data-name="Path 54" d="M15.969,6.583a3.021,3.021,0,0,0-3.469.51,3.027,3.027,0,0,0-3.469-.51c-1.108.587-2.08,2.123-1.176,4.519C8.7,13.331,11.778,16.25,12.5,16.25s3.8-2.919,4.645-5.148C18.05,8.706,17.077,7.17,15.969,6.583Zm.007,4.077A12.384,12.384,0,0,1,12.5,14.895,12.388,12.388,0,0,1,9.025,10.66c-.616-1.633-.1-2.606.591-2.972a1.642,1.642,0,0,1,.767-.185,1.967,1.967,0,0,1,1.606.892.649.649,0,0,0,1.022,0,1.853,1.853,0,0,1,2.373-.707c.69.366,1.208,1.339.591,2.972Z" fill="#b19b78"/>
    <path id="Path_55" data-name="Path 55" d="M12.5,0a10.012,10.012,0,0,0-10,10c0,7.148,8.9,15,10,15s10-7.852,10-15a10.012,10.012,0,0,0-10-10Zm0,23.687c-1.4-.9-8.75-7.545-8.75-13.687a8.75,8.75,0,1,1,17.5,0C21.25,16.143,13.9,22.788,12.5,23.687Z" fill="#b19b78"/>
  </g>
</svg>
