<svg xmlns="http://www.w3.org/2000/svg" xmlns:xlink="http://www.w3.org/1999/xlink" width="50" height="50" viewBox="0 0 50 50">
  <defs>
    <clipPath id="clip-path">
      <rect id="Rectangle_1" data-name="Rectangle 1" width="50" height="50" transform="translate(0 0.5)" fill="#fff"/>
    </clipPath>
  </defs>
  <g id="wedding-ring" transform="translate(0 -0.5)" clip-path="url(#clip-path)">
    <path id="Path_45" data-name="Path 45" d="M33.778,14.488,29.293,10l1.884-2.836h7.646L40.707,10l-4.5,4.5,2.357,2.357,6.431-6.431-4.382-6.6H29.39l-4.382,6.6,6.414,6.414Z" fill="#b19b78"/>
    <path id="Path_46" data-name="Path 46" d="M16.667,47.167a16.148,16.148,0,0,0,5.458-.924A16.672,16.672,0,0,0,33.333,30.5a16.354,16.354,0,0,0-1.151-6.047l-3.1,1.227A13.035,13.035,0,0,1,30,30.5a13.34,13.34,0,0,1-8.979,12.6,12.859,12.859,0,0,1-4.355.736,13.333,13.333,0,1,1,0-26.667A13.209,13.209,0,0,1,23.222,18.9L24.879,16a16.664,16.664,0,1,0-8.212,31.163Z" fill="#b19b78"/>
    <path id="Path_47" data-name="Path 47" d="M35,17.167a14.99,14.99,0,0,0-11.964,5.947A15.132,15.132,0,0,0,20,32.167a14.748,14.748,0,0,0,1.615,6.756l2.97-1.512a11.457,11.457,0,0,1-1.252-5.244A11.667,11.667,0,1,1,35,43.833a11.165,11.165,0,0,1-3.772-.636L30.1,46.336a14.462,14.462,0,0,0,4.9.831,15,15,0,0,0,0-30Z" fill="#b19b78"/>
  </g>
</svg>
