<svg xmlns="http://www.w3.org/2000/svg" xmlns:xlink="http://www.w3.org/1999/xlink" width="50" height="50" viewBox="0 0 50 50">
  <defs>
    <clipPath id="clip-path">
      <rect id="Rectangle_1" data-name="Rectangle 1" width="50" height="50" transform="translate(0 0.25)" fill="#fff"/>
    </clipPath>
  </defs>
  <g id="wedding-gold" transform="translate(0 -0.25)" clip-path="url(#clip-path)">
    <path id="Path_1" data-name="Path 1" d="M49.167,48.583H47.5V9.417A4.172,4.172,0,0,0,43.333,5.25H34.154a5.061,5.061,0,0,0-4.988-5A5.448,5.448,0,0,0,25,2.195,5.448,5.448,0,0,0,20.833.25a5.061,5.061,0,0,0-4.987,5H6.667A4.172,4.172,0,0,0,2.5,9.417V48.583H.833a.833.833,0,0,0,0,1.667H49.167a.833.833,0,0,0,0-1.667ZM45.833,9.417V33.554a14.489,14.489,0,0,1-7.606-2.535C31.239,26.258,28.9,16.4,28.417,13.946c3.022-2.613,5.007-4.7,5.576-7.029h9.341a2.5,2.5,0,0,1,2.5,2.5Zm-17.5,25h-7.5V31.083h8.333v3.333ZM22.5,36.083h5v7.5h-5Zm6.667,7.653V36.083a1.667,1.667,0,0,0,1.667-1.667V31.083a1.667,1.667,0,0,0-1.667-1.667H20.833a1.667,1.667,0,0,0-1.667,1.667v3.333a1.667,1.667,0,0,0,1.667,1.667v7.653a2.5,2.5,0,0,0-1.667,2.347v2.5h-1.68c-.13-8.442-2.193-13.649-4.108-16.667,6.322-4.76,8.852-13.292,9.648-16.75l.429.36a2.439,2.439,0,0,0,3.09,0l.429-.36c.8,3.458,3.327,11.992,9.648,16.75-1.917,3.019-3.978,8.226-4.108,16.667h-1.68v-2.5A2.5,2.5,0,0,0,29.167,43.737ZM20.833,1.917a4.028,4.028,0,0,1,3.423,2.094A.833.833,0,0,0,25,4.465a.845.845,0,0,0,.75-.454,4.028,4.028,0,0,1,3.417-2.094,3.4,3.4,0,0,1,3.333,3.6c0,2.676-2.653,5.083-7.023,8.732a.773.773,0,0,1-.953,0C20.153,10.6,17.5,8.195,17.5,5.519a3.4,3.4,0,0,1,3.333-3.6Zm-14.167,5h9.341c.569,2.326,2.553,4.417,5.577,7.029C21.1,16.4,18.76,26.258,11.77,31.022a14.492,14.492,0,0,1-7.6,2.532V9.417a2.5,2.5,0,0,1,2.5-2.5Zm-2.5,41.667V35.221A16.137,16.137,0,0,0,12,32.849c1.783,2.826,3.7,7.712,3.833,15.734Zm16.667,0v-2.5a.833.833,0,0,1,.833-.833h6.667a.833.833,0,0,1,.833.833v2.5Zm13.34,0c.125-8.022,2.047-12.908,3.833-15.734a16.142,16.142,0,0,0,7.827,2.372V48.583Z" fill="#b19b78"/>
    <path id="Path_2" data-name="Path 2" d="M6.911,30.839a.833.833,0,0,0,1.178,0c8.48-8.48,8.578-17.7,8.578-18.089a.833.833,0,1,0-1.667,0c0,.083-.121,8.943-8.089,16.912a.833.833,0,0,0,0,1.177Z" fill="#b19b78"/>
    <path id="Path_3" data-name="Path 3" d="M6.667,13.583A.833.833,0,0,0,7.5,12.75v-.833a.833.833,0,0,0-1.667,0v.833A.833.833,0,0,0,6.667,13.583Z" fill="#b19b78"/>
    <path id="Path_4" data-name="Path 4" d="M10.462,37.057a.827.827,0,0,0-1.139.222.842.842,0,0,0,.2,1.155c.022.016,2.143,1.632,2.143,7.65a.833.833,0,0,0,1.667,0C13.333,39.167,10.756,37.25,10.462,37.057Z" fill="#b19b78"/>
    <path id="Path_5" data-name="Path 5" d="M33.333,12.75c0,.388.1,9.609,8.577,18.089a.833.833,0,0,0,1.178-1.178C35.121,21.692,35,12.833,35,12.75a.833.833,0,1,0-1.667,0Z" fill="#b19b78"/>
    <path id="Path_6" data-name="Path 6" d="M43.333,13.583a.833.833,0,0,0,.833-.833v-.833a.833.833,0,0,0-1.667,0v.833A.833.833,0,0,0,43.333,13.583Z" fill="#b19b78"/>
    <path id="Path_7" data-name="Path 7" d="M39.537,37.057c-.293.193-2.871,2.11-2.871,9.027a.833.833,0,0,0,1.667,0c0-5.956,2.078-7.6,2.142-7.648a.834.834,0,1,0-.937-1.378Z" fill="#b19b78"/>
  </g>
</svg>
