<svg xmlns="http://www.w3.org/2000/svg" width="45.559" height="45.56" viewBox="0 0 45.559 45.56">
  <g id="wedding-ring-white-icon" transform="translate(-2.22 -2.22)">
    <path id="Path_33" data-name="Path 33" d="M33.072,9.5A2.9,2.9,0,0,1,34.41,4.507,2.9,2.9,0,0,1,39.4,3.17c1.432,1.432,1,3.535.841,5.9a1.363,1.363,0,0,1-1.269,1.269C36.6,10.5,34.5,10.925,33.072,9.5Zm.951-2.17a1.26,1.26,0,0,0,.392.828c.679.679,2.053.466,3.968.322.149-1.994.344-3.3-.322-3.968-.8-.8-1.955-.294-1.783.775a.95.95,0,0,1-1.087,1.088C35.065,6.354,34,6.781,34.023,7.33Z" fill="#fff"/>
    <path id="Path_34" data-name="Path 34" d="M43.392,15.478c-.748-.06-1.126-.015-1.527-.416a1.239,1.239,0,0,1-.361-.795c-.108-1.608-.447-3.25.673-4.37a2.324,2.324,0,0,1,3.946.905,2.2,2.2,0,0,1,.98.569,2.483,2.483,0,0,1-1.86,4.158A11.22,11.22,0,0,1,43.392,15.478Zm-.035-1.907a11.893,11.893,0,0,0,1.71.069.907.907,0,0,0,.62-.233c.363-.364.188-.857-.3-.778A.95.95,0,0,1,44.3,11.542c.079-.491-.414-.665-.778-.3a.906.906,0,0,0-.233.62,10.541,10.541,0,0,0,.056,1.548Z" fill="#fff"/>
    <path id="Path_35" data-name="Path 35" d="M14.9,19.16C12.694,17.276,10.3,15.4,10.3,12.568a4.343,4.343,0,0,1,7.111-3.62c2.758-2.4,7.111-.432,7.111,3.62,0,2.846-2.407,4.715-4.646,6.623l-.623-.716-.609-.728c2.243-1.911,3.979-3.322,3.979-5.178,0-2.666-2.936-3.745-4.444-1.661a.949.949,0,0,1-1.538,0c-1.512-2.091-4.444-1-4.444,1.662a3.649,3.649,0,0,0,1,2.4,26.305,26.305,0,0,0,2.981,2.786A.95.95,0,1,1,14.9,19.16Z" fill="#fff"/>
    <path id="Path_36" data-name="Path 36" d="M17.407,47.78a15.186,15.186,0,1,1,8.1-28.034.949.949,0,0,1-1.014,1.6,13.294,13.294,0,1,0,3.243,2.884.949.949,0,0,1,1.474-1.2,15.185,15.185,0,0,1-11.8,24.741Z" fill="#fff"/>
    <path id="Path_37" data-name="Path 37" d="M17.407,43.4a10.807,10.807,0,1,1,4.518-20.624A.949.949,0,1,1,21.13,24.5a8.912,8.912,0,1,0,3.139,2.416A.949.949,0,1,1,25.73,25.7a10.8,10.8,0,0,1-8.324,17.7Z" fill="#fff"/>
    <path id="Path_38" data-name="Path 38" d="M24.051,6.967a.95.95,0,0,1-.671-1.62l1.9-1.9A.949.949,0,1,1,26.62,4.79l-1.9,1.9A.947.947,0,0,1,24.051,6.967Z" fill="#fff"/>
    <path id="Path_39" data-name="Path 39" d="M28.8,10.763H26.9a.949.949,0,1,1,0-1.9h1.9a.949.949,0,0,1,0,1.9Z" fill="#fff"/>
    <path id="Path_40" data-name="Path 40" d="M10.091,6.689l-1.9-1.9A.949.949,0,1,1,9.535,3.448l1.9,1.9a.949.949,0,0,1-1.342,1.342Z" fill="#fff"/>
    <path id="Path_41" data-name="Path 41" d="M7.915,10.763H6.376a.949.949,0,0,1,0-1.9H7.915a.949.949,0,1,1,0,1.9Z" fill="#fff"/>
    <path id="Path_42" data-name="Path 42" d="M17.407,6.017a.949.949,0,0,1-.949-.949V3.17a.949.949,0,0,1,1.9,0v1.9A.949.949,0,0,1,17.407,6.017Z" fill="#fff"/>
    <path id="Path_43" data-name="Path 43" d="M32.593,43.4a10.714,10.714,0,0,1-4.518-.988.949.949,0,1,1,.795-1.724,8.917,8.917,0,1,0-3.14-2.416.949.949,0,1,1-1.461,1.212A10.806,10.806,0,1,1,32.593,43.4Z" fill="#fff"/>
    <path id="Path_44" data-name="Path 44" d="M32.593,47.78a15.138,15.138,0,0,1-8.1-2.339.949.949,0,0,1,1.014-1.6,13.294,13.294,0,1,0-3.243-2.884.949.949,0,0,1-1.474,1.2,15.186,15.186,0,1,1,11.8,5.632Z" fill="#fff"/>
  </g>
</svg>
