<svg xmlns="http://www.w3.org/2000/svg" width="42.188" height="45.312" viewBox="0 0 42.188 45.312">
  <g id="wish-list-gold" transform="translate(-3.906 -2.594)">
    <path id="Path_15" data-name="Path 15" d="M43.75,47.906H14.063a2.346,2.346,0,0,1-2.344-2.344V7.281A3.129,3.129,0,0,0,8.594,4.156a.781.781,0,0,1,0-1.562H41.406a4.693,4.693,0,0,1,4.688,4.688V45.563A2.346,2.346,0,0,1,43.75,47.906ZM12.085,4.156a4.669,4.669,0,0,1,1.2,3.125V45.563a.782.782,0,0,0,.781.781H43.75a.782.782,0,0,0,.781-.781V7.281a3.129,3.129,0,0,0-3.125-3.125Z" fill="#b19b78"/>
    <path id="Path_16" data-name="Path 16" d="M12.5,15.094H4.688a.781.781,0,0,1-.781-.781V7.281a4.687,4.687,0,1,1,9.375,0v7.031A.781.781,0,0,1,12.5,15.094ZM5.469,13.531h6.25V7.281a3.125,3.125,0,0,0-6.25,0Z" fill="#b19b78"/>
    <path id="Path_17" data-name="Path 17" d="M28.906,22.125a.781.781,0,0,1-.563-.24l-6-6.232c-4.051-4.578,2.49-10.68,6.559-5.823,4.071-4.857,10.611,1.246,6.559,5.823l-6,6.232A.781.781,0,0,1,28.906,22.125Zm-3.5-12.5c-2.459-.042-3.659,3.27-1.935,4.945l5.433,5.646,5.433-5.646c2.479-2.655-1.1-6.7-3.871-4.109l-1,1.039a.806.806,0,0,1-1.126,0C27.585,10.689,26.634,9.535,25.408,9.625Z" fill="#b19b78"/>
    <path id="Path_18" data-name="Path 18" d="M21.875,32.281H19.531a2.346,2.346,0,0,1-2.344-2.344V27.594a2.346,2.346,0,0,1,2.344-2.344h2.344a2.346,2.346,0,0,1,2.344,2.344v2.344A2.346,2.346,0,0,1,21.875,32.281Zm-2.344-5.469a.782.782,0,0,0-.781.781v2.344a.782.782,0,0,0,.781.781h2.344a.782.782,0,0,0,.781-.781C22.639,26.354,23.112,26.83,19.531,26.813Z" fill="#b19b78"/>
    <path id="Path_19" data-name="Path 19" d="M39.843,29.156h-12.5a.781.781,0,0,1,0-1.562h12.5A.781.781,0,0,1,39.843,29.156Z" fill="#b19b78"/>
    <path id="Path_20" data-name="Path 20" d="M21.875,42.438H19.531a2.346,2.346,0,0,1-2.344-2.344V37.75a2.346,2.346,0,0,1,2.344-2.344h2.344a2.346,2.346,0,0,1,2.344,2.344v2.344A2.346,2.346,0,0,1,21.875,42.438Zm-2.344-5.469a.782.782,0,0,0-.781.781v2.344a.782.782,0,0,0,.781.781h2.344a.782.782,0,0,0,.781-.781C22.639,36.511,23.112,36.987,19.531,36.969Z" fill="#b19b78"/>
    <path id="Path_21" data-name="Path 21" d="M39.843,39.313h-12.5a.781.781,0,0,1,0-1.562h12.5A.781.781,0,0,1,39.843,39.313Z" fill="#b19b78"/>
  </g>
</svg>
